<?xml version="1.0" encoding="utf-8" standalone="no"?>
<!DOCTYPE svg PUBLIC "-//W3C//DTD SVG 1.1//EN"
  "http://www.w3.org/Graphics/SVG/1.1/DTD/svg11.dtd">
<!-- Created with matplotlib (https://matplotlib.org/) -->
<svg height="287.512pt" version="1.1" viewBox="0 0 287.512 287.512" width="287.512pt" xmlns="http://www.w3.org/2000/svg" xmlns:xlink="http://www.w3.org/1999/xlink">
 <defs>
  <style type="text/css">
*{stroke-linecap:butt;stroke-linejoin:round;}
  </style>
 </defs>
 <g id="figure_1">
  <g id="patch_1">
   <path d="M -0 287.512 
L 287.512 287.512 
L 287.512 0 
L -0 0 
z
" style="fill:#ffffff;"/>
  </g>
  <g id="axes_1">
   <g id="patch_2">
    <path d="M 10.7 276.812 
L 276.812 276.812 
L 276.812 10.7 
L 10.7 10.7 
z
" style="fill:#ffffff;"/>
   </g>
   <g id="matplotlib.axis_1"/>
   <g id="matplotlib.axis_2"/>
   <g id="line2d_1">
    <path clip-path="url(#p8a69b452ec)" d="M 22.796 264.716 
L 143.756 264.716 
L 264.716 143.756 
" style="fill:none;stroke:#808080;stroke-linecap:square;stroke-width:1.5;"/>
    <defs>
     <path d="M 0 3 
C 0.795609 3 1.55874 2.683901 2.12132 2.12132 
C 2.683901 1.55874 3 0.795609 3 0 
C 3 -0.795609 2.683901 -1.55874 2.12132 -2.12132 
C 1.55874 -2.683901 0.795609 -3 0 -3 
C -0.795609 -3 -1.55874 -2.683901 -2.12132 -2.12132 
C -2.683901 -1.55874 -3 -0.795609 -3 0 
C -3 0.795609 -2.683901 1.55874 -2.12132 2.12132 
C -1.55874 2.683901 -0.795609 3 0 3 
z
" id="ma7bae1a339" style="stroke:#808080;"/>
    </defs>
    <g clip-path="url(#p8a69b452ec)">
     <use style="fill:#808080;stroke:#808080;" x="22.796" xlink:href="#ma7bae1a339" y="264.716"/>
     <use style="fill:#808080;stroke:#808080;" x="143.756" xlink:href="#ma7bae1a339" y="264.716"/>
     <use style="fill:#808080;stroke:#808080;" x="264.716" xlink:href="#ma7bae1a339" y="143.756"/>
    </g>
   </g>
   <g id="line2d_2">
    <path clip-path="url(#p8a69b452ec)" d="M 264.716 22.796 
" style="fill:none;stroke:#1f77b4;stroke-linecap:square;stroke-width:1.5;"/>
    <defs>
     <path d="M 0 3 
C 0.795609 3 1.55874 2.683901 2.12132 2.12132 
C 2.683901 1.55874 3 0.795609 3 0 
C 3 -0.795609 2.683901 -1.55874 2.12132 -2.12132 
C 1.55874 -2.683901 0.795609 -3 0 -3 
C -0.795609 -3 -1.55874 -2.683901 -2.12132 -2.12132 
C -2.683901 -1.55874 -3 -0.795609 -3 0 
C -3 0.795609 -2.683901 1.55874 -2.12132 2.12132 
C -1.55874 2.683901 -0.795609 3 0 3 
z
" id="m53778348f2" style="stroke:#1f77b4;"/>
    </defs>
    <g clip-path="url(#p8a69b452ec)">
     <use style="fill:#1f77b4;stroke:#1f77b4;" x="264.716" xlink:href="#m53778348f2" y="22.796"/>
    </g>
   </g>
   <g id="patch_3">
    <path d="M 10.7 276.812 
L 10.7 10.7 
" style="fill:none;stroke:#000000;stroke-linecap:square;stroke-linejoin:miter;stroke-width:0.8;"/>
   </g>
   <g id="patch_4">
    <path d="M 276.812 276.812 
L 276.812 10.7 
" style="fill:none;stroke:#000000;stroke-linecap:square;stroke-linejoin:miter;stroke-width:0.8;"/>
   </g>
   <g id="patch_5">
    <path d="M 10.7 276.812 
L 276.812 276.812 
" style="fill:none;stroke:#000000;stroke-linecap:square;stroke-linejoin:miter;stroke-width:0.8;"/>
   </g>
   <g id="patch_6">
    <path d="M 10.7 10.7 
L 276.812 10.7 
" style="fill:none;stroke:#000000;stroke-linecap:square;stroke-linejoin:miter;stroke-width:0.8;"/>
   </g>
  </g>
 </g>
 <defs>
  <clipPath id="p8a69b452ec">
   <rect height="266.112" width="266.112" x="10.7" y="10.7"/>
  </clipPath>
 </defs>
</svg>
