<?xml version="1.0" encoding="utf-8" standalone="no"?>
<!DOCTYPE svg PUBLIC "-//W3C//DTD SVG 1.1//EN"
  "http://www.w3.org/Graphics/SVG/1.1/DTD/svg11.dtd">
<!-- Created with matplotlib (https://matplotlib.org/) -->
<svg height="287.512pt" version="1.1" viewBox="0 0 287.512 287.512" width="287.512pt" xmlns="http://www.w3.org/2000/svg" xmlns:xlink="http://www.w3.org/1999/xlink">
 <defs>
  <style type="text/css">
*{stroke-linecap:butt;stroke-linejoin:round;}
  </style>
 </defs>
 <g id="figure_1">
  <g id="patch_1">
   <path d="M -0 287.512 
L 287.512 287.512 
L 287.512 0 
L -0 0 
z
" style="fill:#ffffff;"/>
  </g>
  <g id="axes_1">
   <g id="patch_2">
    <path d="M 10.7 276.812 
L 276.812 276.812 
L 276.812 10.7 
L 10.7 10.7 
z
" style="fill:#ffffff;"/>
   </g>
   <g id="matplotlib.axis_1"/>
   <g id="matplotlib.axis_2"/>
   <g id="line2d_1">
    <path clip-path="url(#p7d166919c0)" d="M 143.756 143.756 
L 150.500751 153.676717 
L 163.64188 153.209994 
L 159.859687 145.39703 
L 159.391488 148.279496 
L 157.090465 140.85053 
L 159.446731 135.984143 
L 154.815889 122.923522 
L 165.759169 123.905011 
L 153.744889 133.436021 
L 157.789247 130.743282 
L 160.937902 127.416439 
L 165.341498 139.62051 
L 163.297949 128.258116 
L 152.140501 139.174732 
L 159.356706 133.571352 
L 158.275143 140.773477 
L 168.110538 147.947725 
L 172.419185 135.70538 
L 175.324006 128.292191 
L 172.483144 141.392261 
L 169.177522 145.847968 
L 160.209028 149.480492 
L 160.376703 144.293572 
L 163.105824 136.62321 
L 169.471024 146.289829 
L 175.696387 141.484822 
L 175.832493 143.525668 
L 168.909362 136.601606 
L 163.176956 129.187281 
L 150.181492 123.169308 
L 162.18341 126.547625 
L 159.537632 128.412708 
L 170.677115 126.78686 
L 168.307048 123.423335 
L 170.377362 129.535521 
L 175.858213 125.832914 
L 172.538686 116.74077 
L 165.348948 105.52376 
L 174.824701 93.918459 
L 184.000018 94.691604 
L 192.310091 95.208107 
L 182.881497 97.760161 
L 194.738168 89.232056 
L 204.06088 94.648564 
L 207.751764 102.020346 
L 211.560941 90.627908 
L 211.460988 91.150079 
L 209.823818 98.938288 
L 221.211387 93.44696 
L 233.696805 86.738898 
L 239.647664 79.228261 
L 250.646759 84.677463 
L 242.712823 94.442406 
L 250.012685 92.718135 
L 255.788556 86.357634 
L 246.46087 81.533753 
L 243.091788 70.774618 
L 239.988753 57.757097 
L 231.101695 52.556969 
L 224.740666 48.065646 
L 215.493497 39.855505 
" style="fill:none;stroke:#7f7f7f;stroke-linecap:square;stroke-opacity:0.5;stroke-width:1.5;"/>
   </g>
   <g id="line2d_2">
    <path clip-path="url(#p7d166919c0)" d="M 224.740666 48.065646 
L 221.884964 58.726539 
L 213.089781 65.246221 
L 225.363956 52.675938 
L 212.596211 50.704585 
L 219.360997 61.114257 
L 211.626319 65.424829 
L 202.38494 58.582105 
L 211.249862 67.760061 
L 209.841849 78.400003 
" style="fill:none;stroke:#7f7f7f;stroke-linecap:square;stroke-opacity:0.5;stroke-width:1.5;"/>
   </g>
   <g id="line2d_3">
    <path clip-path="url(#p7d166919c0)" d="M 209.362928 116.368312 
L 204.870566 126.805095 
" style="fill:none;stroke:#7f7f7f;stroke-linecap:square;stroke-opacity:0.5;stroke-width:1.5;"/>
   </g>
   <g id="line2d_4">
    <path clip-path="url(#p7d166919c0)" d="M 198.279007 112.239417 
L 203.29594 112.901763 
L 195.209969 107.597102 
L 203.530289 96.301682 
L 211.513849 109.542164 
L 205.979224 120.08861 
L 195.379719 114.380861 
L 198.360792 121.232702 
L 210.293578 108.826312 
L 206.669391 108.465057 
" style="fill:none;stroke:#7f7f7f;stroke-linecap:square;stroke-opacity:0.5;stroke-width:1.5;"/>
   </g>
   <g id="line2d_5">
    <path clip-path="url(#p7d166919c0)" d="M 162.508688 145.123556 
L 160.728284 146.472464 
L 168.422148 142.249377 
L 158.91116 150.251073 
L 146.758567 162.240054 
L 154.935583 162.669961 
L 163.719961 171.064683 
L 166.756299 170.69769 
" style="fill:none;stroke:#7f7f7f;stroke-linecap:square;stroke-opacity:0.5;stroke-width:1.5;"/>
   </g>
   <g id="line2d_6">
    <path clip-path="url(#p7d166919c0)" d="M 172.538686 116.74077 
L 183.709078 123.840455 
L 188.788605 135.621282 
L 186.348789 146.052188 
L 189.662548 136.487276 
L 198.297367 142.768518 
L 194.476379 137.103304 
L 204.999708 133.284882 
L 196.124255 134.768863 
L 186.344013 144.224833 
L 178.348144 142.66642 
L 174.44746 141.614497 
L 186.52471 131.010017 
L 192.162581 129.192977 
L 205.288104 123.675541 
L 192.653337 126.053327 
L 187.580491 134.744092 
L 193.299269 122.54325 
L 192.004943 123.018889 
L 197.576618 121.145841 
L 184.558372 112.713479 
L 197.481354 123.869977 
L 209.697011 112.862736 
L 209.76727 102.423545 
L 215.797292 93.224776 
L 213.481633 80.014793 
L 209.929288 72.109501 
L 203.948211 81.195089 
L 209.688769 90.22465 
L 201.517892 99.094175 
L 210.107906 106.280193 
L 209.210894 111.269557 
L 209.362928 116.368312 
L 199.984541 114.702261 
L 191.11417 113.057657 
L 185.759902 122.79013 
L 198.279007 112.239417 
L 187.690825 107.377626 
L 197.766224 110.662469 
L 210.695666 106.040808 
L 197.394744 107.302282 
L 190.541089 112.142011 
L 182.54858 111.462726 
L 176.480879 122.586265 
L 174.640368 130.975035 
L 186.515847 120.219221 
L 179.895201 109.658654 
L 170.624409 104.491795 
L 176.883113 98.811291 
L 189.26098 108.064783 
L 193.745865 120.763232 
L 189.947242 125.255312 
L 182.183834 127.547914 
L 186.430175 125.428484 
L 181.700094 115.359047 
L 184.169161 110.402733 
L 190.501855 102.496153 
L 199.993403 92.616794 
L 206.774134 85.578947 
L 199.715488 75.224166 
L 208.422185 67.994522 
L 202.396036 61.262112 
L 190.731571 72.466936 
L 179.341197 72.089087 
L 172.125412 73.692439 
L 177.042565 86.90331 
L 166.946013 79.194876 
L 174.147743 84.165527 
L 162.213028 92.915737 
L 170.991592 94.198076 
L 171.900152 81.84323 
L 174.08351 86.796042 
L 183.775209 82.327912 
L 192.432894 72.561321 
L 185.106847 80.364127 
" style="fill:none;stroke:#7f7f7f;stroke-linecap:square;stroke-opacity:0.5;stroke-width:1.5;"/>
   </g>
   <g id="line2d_7">
    <path clip-path="url(#p7d166919c0)" d="M 192.432894 72.561321 
L 192.109855 69.011402 
L 190.030121 58.28648 
L 195.075998 49.450583 
L 208.287656 58.144133 
L 208.306917 48.555766 
L 208.404618 48.300102 
L 196.108479 55.539906 
L 206.404042 64.388562 
L 219.2098 70.843894 
L 215.043433 57.821713 
L 202.441647 53.060306 
L 211.086311 47.354368 
L 202.124166 56.423211 
L 193.771198 64.936724 
L 190.624831 76.842654 
L 203.189235 87.733386 
L 211.973517 92.459338 
L 199.849122 79.445134 
L 206.648755 68.47813 
L 215.326882 75.971847 
L 209.554531 63.22836 
L 221.733365 65.185364 
L 215.460525 54.126997 
L 205.580317 57.064923 
L 215.650151 56.945983 
L 208.737945 52.829997 
L 211.355084 62.851721 
L 198.89983 60.678236 
L 186.73564 48.760383 
L 187.03793 52.900757 
L 193.391781 50.88614 
L 198.854119 43.958037 
L 203.686738 46.097286 
" style="fill:none;stroke:#7f7f7f;stroke-linecap:square;stroke-opacity:0.5;stroke-width:1.5;"/>
   </g>
   <g id="line2d_8">
    <path clip-path="url(#p7d166919c0)" d="M 187.580491 134.744092 
L 193.051713 138.999113 
L 180.941919 149.005942 
L 179.773495 144.002481 
L 187.020222 138.911777 
L 178.890017 150.57842 
L 171.399665 160.965924 
L 167.588255 162.723085 
L 155.571591 167.334169 
L 146.931497 164.727174 
L 148.295704 171.041664 
L 143.980558 163.022776 
L 149.042207 153.160673 
L 143.813899 153.707884 
L 134.152001 158.277718 
L 141.202449 155.70446 
L 134.580279 148.047789 
L 124.835538 146.948755 
L 135.974968 135.345112 
L 138.324199 146.261774 
L 146.908691 147.233614 
L 154.261447 144.214207 
L 146.337172 152.650552 
L 142.611308 145.760754 
L 146.354911 157.227284 
L 144.769983 146.279449 
L 154.659213 155.671832 
L 164.586432 146.499066 
L 170.782893 153.405902 
L 165.383329 142.257352 
L 154.582231 136.188566 
L 159.318717 143.078084 
L 156.991042 144.662422 
L 162.508688 145.123556 
L 166.108875 151.159673 
L 163.117776 163.259258 
L 170.601932 176.383831 
L 183.718549 183.567831 
L 172.822603 191.555578 
L 165.227536 197.127971 
L 156.962431 195.233519 
L 162.410882 204.390357 
L 164.283137 204.564514 
L 168.835876 200.702808 
L 169.147953 207.963081 
L 172.091562 199.566555 
L 177.118809 206.605444 
L 164.115513 208.809892 
L 163.577422 216.866288 
L 176.037819 221.797466 
L 178.968216 215.286123 
L 174.251212 219.174851 
L 181.036354 220.742786 
L 183.021743 231.817367 
L 183.33519 243.697804 
L 184.887744 248.853663 
L 188.005733 245.502071 
L 191.595004 237.486813 
L 196.535145 235.818554 
L 190.29706 238.213162 
L 180.262355 249.447169 
L 184.501411 248.715282 
L 193.639216 254.719768 
L 194.131838 241.606976 
L 197.752698 244.231838 
L 202.062471 247.534148 
L 199.446005 243.245509 
L 206.934995 238.207215 
L 198.690334 249.761554 
L 197.688759 259.549804 
L 203.148733 264.500313 
L 211.524386 261.78188 
L 209.760159 258.550001 
L 200.037856 249.283251 
L 195.290101 255.881106 
L 188.3354 260.276153 
L 195.863783 259.334251 
L 202.488411 262.764399 
L 200.751892 270.76174 
L 191.647271 274.655114 
L 194.008863 262.415325 
L 193.596183 264.165137 
L 187.632763 264.460385 
L 200.469203 275.881094 
L 200.841455 272.118721 
L 206.689574 270.161014 
L 202.57443 271.420922 
L 213.694411 275.884265 
L 200.861884 276.767754 
L 212.633089 276.132125 
L 222.519229 268.549192 
L 220.920218 272.630863 
" style="fill:none;stroke:#7f7f7f;stroke-linecap:square;stroke-opacity:0.5;stroke-width:1.5;"/>
   </g>
   <g id="line2d_9">
    <path clip-path="url(#p7d166919c0)" d="M 212.633089 276.132125 
L 215.649237 268.199019 
L 205.932638 265.314309 
L 211.721539 270.638157 
" style="fill:none;stroke:#7f7f7f;stroke-linecap:square;stroke-opacity:0.5;stroke-width:1.5;"/>
   </g>
   <g id="line2d_10">
    <path clip-path="url(#p7d166919c0)" d="M 212.645683 102.720597 
L 208.651467 113.805719 
L 206.546741 103.259647 
L 197.391453 101.896607 
L 198.985273 102.012919 
L 194.722877 113.115755 
L 195.594659 125.458002 
L 185.725458 117.491662 
L 187.899885 124.118036 
L 186.699231 116.725779 
L 188.853513 117.815805 
L 189.384857 122.849199 
L 197.749075 131.749449 
L 208.909898 138.774176 
L 206.178256 146.48713 
L 193.09255 149.194877 
L 187.65907 141.252276 
L 179.125334 131.79945 
L 187.584987 127.17652 
L 196.155295 140.05105 
L 187.647328 129.67986 
L 191.445602 137.932485 
" style="fill:none;stroke:#7f7f7f;stroke-linecap:square;stroke-opacity:0.5;stroke-width:1.5;"/>
   </g>
   <g id="line2d_11">
    <path clip-path="url(#p7d166919c0)" d="M 131.108494 185.755973 
L 121.042888 181.316584 
L 134.038231 188.47242 
L 121.158011 180.609311 
L 110.007392 187.41995 
L 104.501039 195.94095 
L 104.440123 195.407866 
L 108.502425 189.466161 
L 114.059967 176.160998 
L 124.609827 184.559481 
L 135.04986 189.623539 
L 139.642354 186.548607 
L 141.077555 186.601625 
L 130.57844 181.917055 
L 123.92142 174.718936 
L 113.048713 174.515199 
L 111.975094 168.735636 
" style="fill:none;stroke:#7f7f7f;stroke-linecap:square;stroke-opacity:0.5;stroke-width:1.5;"/>
   </g>
   <g id="line2d_12">
    <path clip-path="url(#p7d166919c0)" d="M 119.089234 235.319346 
L 122.379945 234.734622 
L 121.46708 239.606143 
L 111.451371 231.736711 
L 123.78427 233.570785 
L 114.336255 227.831915 
L 125.054941 220.255245 
L 114.207688 213.409459 
L 119.169129 224.605893 
L 111.210169 226.970122 
L 112.439659 218.734625 
L 101.747525 231.881698 
L 105.671016 226.412661 
L 112.104161 214.117619 
L 118.650122 213.508545 
L 131.321759 223.390295 
L 118.137537 229.102541 
" style="fill:none;stroke:#7f7f7f;stroke-linecap:square;stroke-opacity:0.5;stroke-width:1.5;"/>
   </g>
   <g id="line2d_13">
    <path clip-path="url(#p7d166919c0)" d="M 213.694411 275.884265 
L 206.366629 268.870839 
L 196.813888 257.111007 
L 198.803183 248.420275 
L 202.52916 237.817886 
L 200.935318 246.21875 
L 211.669296 245.407373 
L 213.599971 235.490663 
L 215.272182 228.912912 
L 203.805895 226.677065 
L 207.677664 231.898894 
L 198.186171 221.960207 
L 206.494873 211.248913 
" style="fill:none;stroke:#7f7f7f;stroke-linecap:square;stroke-opacity:0.5;stroke-width:1.5;"/>
   </g>
   <g id="line2d_14">
    <path clip-path="url(#p7d166919c0)" d="M 167.588255 162.723085 
L 154.540547 167.266404 
L 142.342486 164.453468 
L 143.842803 153.361199 
L 152.25859 158.416756 
L 162.415966 157.293088 
L 171.733461 148.236017 
L 178.531359 148.294849 
L 170.722726 138.357586 
L 179.873551 146.656397 
L 186.405872 141.268014 
L 181.985246 143.528966 
L 187.111414 138.929382 
L 181.586757 141.33488 
L 171.657171 149.183786 
L 181.233409 152.896658 
L 168.117837 144.086357 
L 178.621838 143.15256 
L 175.288887 139.328142 
L 172.498205 151.545131 
L 180.735035 152.388076 
L 183.301807 158.435645 
L 180.715743 171.016422 
L 169.368223 166.149531 
L 158.054461 175.769464 
L 156.207591 177.45736 
L 165.184806 176.971151 
L 155.639643 182.542218 
L 158.301996 178.936684 
L 160.07499 168.420475 
L 168.475934 180.343576 
L 175.207482 173.222996 
L 183.834267 181.946872 
L 188.68712 180.881467 
L 197.740185 168.038956 
L 200.73379 173.584471 
L 193.463969 172.150243 
L 197.873454 176.656862 
L 198.963093 175.33132 
L 190.431145 164.369009 
L 189.749922 158.816798 
L 192.453264 153.178463 
L 192.552423 145.972154 
L 182.114799 138.393369 
L 186.274189 128.323127 
L 173.473596 119.576598 
L 167.87572 130.772748 
L 163.015801 126.957031 
L 171.85486 118.988106 
L 170.727862 117.194357 
L 182.111169 120.363162 
L 179.599906 107.72734 
L 168.541039 120.671455 
L 156.809071 111.417697 
L 162.288663 116.641722 
L 159.241336 116.782756 
L 153.396755 118.421475 
L 160.893749 121.397841 
L 148.555991 127.05046 
L 154.617921 138.98493 
L 154.403529 140.191115 
L 152.558452 128.711954 
L 145.332287 141.328104 
L 134.967997 130.31816 
L 127.204803 136.106842 
L 123.568041 133.945724 
L 127.747951 144.165688 
L 127.815902 143.166869 
L 117.949067 153.813696 
L 114.795502 165.251782 
L 113.714259 171.156239 
L 120.488414 180.177569 
L 131.108494 185.755973 
L 120.745736 186.633549 
L 128.375548 196.633335 
L 138.298617 203.301894 
L 127.244559 193.497371 
L 136.342829 187.721992 
L 146.519168 180.505615 
L 156.412676 171.230576 
L 168.518871 159.875261 
L 167.776963 153.177025 
L 157.976649 144.42724 
L 155.647675 139.976238 
L 151.572291 149.003788 
L 156.714925 153.741034 
L 167.919508 161.727581 
L 166.52146 160.692292 
L 153.430699 161.59688 
L 161.819901 157.084812 
L 161.574935 147.291165 
L 173.379869 144.497885 
L 183.299548 148.973444 
L 179.012969 135.903594 
" style="fill:none;stroke:#1f77b4;stroke-linecap:square;stroke-opacity:0.5;stroke-width:1.5;"/>
   </g>
   <g id="line2d_15">
    <path clip-path="url(#p7d166919c0)" d="M 190.501855 102.496153 
L 187.778868 111.787811 
L 189.981788 103.256884 
L 181.055633 91.393878 
L 181.395756 85.804379 
L 181.191314 89.830615 
L 184.867377 86.998386 
L 175.343965 91.282475 
L 168.209134 77.978893 
L 171.549021 69.245813 
L 166.209839 71.776836 
L 154.755531 76.084047 
L 166.351102 86.960103 
L 157.645413 89.682926 
L 159.000077 93.949854 
L 171.291714 100.002054 
L 169.78655 112.545191 
L 167.686572 117.213062 
L 174.097258 128.332558 
L 161.602239 129.656011 
L 162.898565 129.53814 
L 166.52427 121.692864 
L 179.056736 125.889651 
L 177.578556 125.843946 
L 175.626442 126.992228 
L 170.999982 139.949885 
L 179.258902 143.080172 
L 166.990425 141.097194 
L 157.327025 145.632363 
L 152.935619 153.656737 
L 163.569611 154.131034 
L 176.225212 161.118295 
L 176.810818 162.238643 
L 185.066708 161.907357 
L 182.561367 151.08161 
L 177.731707 148.13751 
L 181.6557 138.249368 
L 185.356393 127.669669 
L 196.188471 123.043828 
L 186.605031 131.68001 
L 197.133693 130.768915 
L 208.002645 123.944678 
L 202.141743 116.358519 
L 193.875164 114.566855 
L 197.330122 111.24479 
L 189.165098 110.016763 
L 180.628123 115.053763 
L 172.14103 110.011141 
L 164.27503 106.536791 
L 174.581124 107.59142 
L 166.282007 118.972934 
L 176.855176 125.299777 
L 168.880125 133.216977 
L 171.562616 120.406034 
L 175.742128 113.493504 
L 186.605722 112.845949 
L 195.238689 99.831086 
L 183.878433 98.29403 
L 194.980427 100.357955 
L 185.353447 95.925631 
" style="fill:none;stroke:#1f77b4;stroke-linecap:square;stroke-opacity:0.5;stroke-width:1.5;"/>
   </g>
   <g id="line2d_16">
    <path clip-path="url(#p7d166919c0)" d="M 172.091562 199.566555 
L 178.976305 198.434173 
L 172.357197 211.54282 
L 180.246283 203.954564 
L 188.244914 211.863972 
L 175.136375 219.824482 
L 164.754245 213.144615 
L 164.941021 208.513969 
L 153.956939 213.248963 
L 154.316011 216.976688 
L 151.529173 215.265511 
L 164.247741 213.588695 
L 158.291979 210.440043 
L 152.647085 214.726233 
L 145.161139 214.214546 
L 138.908005 221.552087 
L 141.172032 211.6929 
L 135.029694 218.918412 
L 124.794077 229.438841 
L 118.444357 237.228741 
L 126.057883 236.368261 
L 120.103846 244.991508 
L 133.076545 255.290692 
L 131.636537 247.746687 
L 142.275019 247.498305 
L 133.378773 240.142855 
L 126.514765 251.645414 
L 124.93499 261.163776 
L 134.209003 264.83082 
L 130.599927 268.644445 
L 142.153932 262.785996 
L 130.353719 250.345317 
L 121.195682 242.963455 
L 121.78656 247.389324 
L 130.09352 249.216924 
L 130.595177 245.684278 
L 119.089234 235.319346 
L 127.978206 240.404282 
L 118.895507 239.939007 
L 109.460403 231.446817 
L 122.429853 240.206671 
L 113.378284 234.371885 
L 109.363714 241.840649 
L 107.584646 246.589627 
L 104.177877 236.255835 
L 98.489143 234.067285 
L 98.958618 225.230874 
L 107.667711 223.101299 
L 102.774711 228.763182 
L 99.637907 217.010766 
L 94.836185 206.02649 
L 103.949484 206.348195 
L 103.736658 201.578056 
L 96.540571 190.509128 
L 104.470154 194.025983 
L 112.570694 199.677477 
" style="fill:none;stroke:#1f77b4;stroke-linecap:square;stroke-opacity:0.5;stroke-width:1.5;"/>
   </g>
   <g id="line2d_17">
    <path clip-path="url(#p7d166919c0)" d="M 184.867377 86.998386 
L 194.694983 90.058477 
L 186.76362 96.014302 
L 181.197274 103.640411 
L 191.25115 115.191212 
L 196.077346 116.728935 
L 206.284712 106.371214 
L 202.307849 116.333967 
L 197.87777 119.197517 
L 188.426467 115.758006 
L 178.610136 124.312242 
L 166.948544 118.815479 
L 172.612342 114.962513 
L 172.824062 118.060927 
L 159.645567 118.687367 
L 155.755759 106.058395 
L 159.672011 110.838033 
L 161.192084 108.682089 
L 171.33343 110.440276 
L 166.953167 101.050433 
L 174.408826 102.169215 
L 187.584886 110.897614 
L 181.552996 115.650713 
L 186.224819 109.653437 
L 197.509198 117.650889 
L 200.959332 110.475704 
L 203.600505 106.866474 
L 212.645683 102.720597 
L 223.906009 114.582784 
L 225.612782 124.682675 
L 222.989605 137.674786 
L 210.881745 138.766565 
L 221.915525 129.967343 
L 210.091037 121.100892 
L 198.923083 115.695021 
L 206.836018 117.44971 
L 195.00782 105.910127 
L 187.618176 94.969124 
L 188.740189 99.180754 
L 183.284248 87.990215 
L 171.799669 98.672315 
L 184.035517 104.866183 
L 192.858808 100.812352 
L 202.723735 109.022645 
L 194.106434 115.695344 
L 196.473985 109.628941 
L 201.090333 112.378497 
L 195.475862 110.783152 
L 201.498385 103.898988 
L 196.743648 90.810382 
L 208.142991 95.988274 
L 207.104917 83.056851 
L 204.115994 91.344741 
L 209.589457 89.641804 
L 217.167922 83.761384 
" style="fill:none;stroke:#1f77b4;stroke-linecap:square;stroke-opacity:0.5;stroke-width:1.5;"/>
   </g>
   <g id="line2d_18">
    <path clip-path="url(#p7d166919c0)" d="M 162.213028 92.915737 
L 156.501869 102.16198 
L 153.581284 99.052395 
L 151.951408 107.103816 
L 141.893109 111.048194 
L 130.112411 109.092554 
L 130.160011 121.821471 
L 135.884543 122.38797 
L 143.986361 134.853955 
L 135.465849 148.066049 
L 145.070149 146.131452 
L 147.484675 138.785887 
L 151.14162 144.327219 
L 153.790004 139.999985 
L 149.467334 145.06612 
L 144.306231 138.29105 
L 146.810853 141.723945 
L 150.166041 137.098424 
L 144.330555 139.401858 
L 156.23429 144.018607 
L 156.99378 156.680794 
L 154.534975 164.752072 
L 158.580844 170.754764 
L 170.521665 172.001104 
L 164.28007 173.262138 
L 155.192114 161.824998 
L 167.057443 156.597155 
L 169.559034 144.89141 
L 182.287725 145.045303 
L 188.945477 150.643037 
L 177.223324 160.563387 
L 174.940324 164.696054 
L 182.107797 160.117755 
L 186.264422 166.527181 
L 177.792869 175.719651 
L 172.254388 165.500656 
L 169.317222 153.686856 
L 165.980583 143.891122 
L 166.515394 134.309967 
L 163.442661 130.550303 
L 157.285556 140.277661 
L 168.716996 144.861784 
L 171.42727 142.692802 
L 168.698221 149.910863 
L 175.36786 142.925837 
L 172.401065 135.240141 
L 160.475799 135.68879 
L 159.012104 128.498629 
" style="fill:none;stroke:#1f77b4;stroke-linecap:square;stroke-opacity:0.5;stroke-width:1.5;"/>
   </g>
   <g id="line2d_19">
    <path clip-path="url(#p7d166919c0)" d="M 171.900152 81.84323 
L 167.128582 91.12852 
L 172.721806 90.281812 
L 177.278034 81.775552 
L 182.845724 68.854452 
L 180.463778 61.766663 
L 175.699422 67.595011 
L 187.095643 59.200815 
L 182.766189 50.082989 
L 180.018889 54.622365 
L 183.615409 53.833519 
L 174.858115 54.094159 
L 185.24553 65.588013 
L 180.798091 76.619842 
L 189.014575 84.934379 
L 190.322846 73.168855 
L 178.326914 82.528808 
L 191.626069 82.954396 
L 194.682437 95.251387 
L 181.606589 93.349007 
L 171.053926 87.460226 
L 178.539318 93.273969 
L 186.417853 88.938515 
L 198.91753 99.456467 
L 212.065365 98.647769 
L 206.277731 97.635561 
L 208.653651 110.336179 
L 211.217882 102.486379 
L 208.672814 93.401213 
L 203.178521 90.798028 
L 205.747486 99.009275 
L 212.715449 95.729919 
L 204.604282 90.03768 
L 193.031252 88.526514 
L 203.021561 80.266316 
L 215.404103 71.681025 
L 223.700806 61.636757 
L 232.531737 72.042583 
L 222.630872 82.953236 
L 228.941851 94.636169 
L 236.814898 106.260815 
L 242.755155 105.885935 
L 245.983874 101.949516 
L 255.94514 103.265816 
L 245.187261 108.986455 
L 251.489504 107.655789 
" style="fill:none;stroke:#1f77b4;stroke-linecap:square;stroke-opacity:0.5;stroke-width:1.5;"/>
   </g>
   <g id="line2d_20">
    <path clip-path="url(#p7d166919c0)" d="M 161.192084 108.682089 
L 159.365732 114.240939 
L 158.146224 110.059765 
L 163.004892 122.326104 
L 161.670758 132.514539 
L 150.698797 142.977867 
L 159.758371 140.980481 
L 161.290208 132.73117 
L 160.010977 145.175749 
L 160.264865 137.821089 
L 159.798556 142.444406 
L 159.375342 133.972821 
L 165.000009 128.326702 
L 172.842178 137.597836 
L 179.030978 124.350591 
L 188.666277 129.179889 
L 200.864498 135.831776 
L 205.884253 132.874121 
L 202.328866 144.575461 
L 199.623723 133.46576 
L 211.740493 131.014955 
L 203.327763 143.82055 
L 202.086243 151.058203 
L 198.395897 139.656193 
L 196.590858 151.896786 
L 199.295801 140.864395 
L 208.307356 145.382837 
L 207.561145 146.8022 
L 202.280558 135.657391 
L 202.326263 127.502272 
L 203.143134 136.76454 
L 196.864913 142.368367 
L 196.176256 134.957083 
L 201.305092 141.828291 
L 211.804439 147.258501 
L 212.91632 148.407122 
L 199.645577 142.720304 
L 209.981936 154.976876 
L 215.006255 144.993169 
" style="fill:none;stroke:#1f77b4;stroke-linecap:square;stroke-opacity:0.5;stroke-width:1.5;"/>
   </g>
   <g id="line2d_21">
    <path clip-path="url(#p7d166919c0)" d="M 186.224819 109.653437 
L 187.947115 119.909412 
L 179.678359 110.865281 
L 167.720629 113.756604 
L 175.704275 120.727083 
L 163.837094 128.980045 
L 153.712845 130.61707 
L 161.306999 141.97619 
L 158.505576 144.471625 
L 157.069837 153.759993 
L 168.203678 162.371131 
L 167.699969 173.062531 
L 174.279689 177.256768 
L 162.892204 173.896133 
L 170.61173 169.42143 
L 168.838644 165.282413 
L 165.54988 166.446912 
L 153.300893 160.271976 
L 144.20194 150.627966 
L 140.448975 137.847613 
L 133.777893 127.30387 
L 134.558065 118.68886 
L 136.960954 126.259103 
L 139.746957 116.149313 
L 134.059028 128.75949 
L 122.436215 126.757656 
L 121.466997 124.507372 
L 131.219315 121.339577 
L 125.671709 110.668654 
L 113.5421 109.183209 
L 119.688332 113.298683 
L 107.977875 124.917399 
L 105.447834 115.529126 
" style="fill:none;stroke:#1f77b4;stroke-linecap:square;stroke-opacity:0.5;stroke-width:1.5;"/>
   </g>
   <g id="line2d_22">
    <path clip-path="url(#p7d166919c0)" d="M 178.326914 82.528808 
L 175.260499 74.85345 
L 175.103969 73.685528 
L 172.686234 85.547289 
L 174.292717 92.871082 
L 185.236107 90.486204 
L 194.247503 96.752926 
L 204.542 105.484456 
L 206.128177 106.988881 
L 217.670471 96.746418 
L 230.277221 83.530456 
L 217.579547 76.802206 
L 217.459016 68.054113 
L 207.712786 74.856426 
L 210.978967 77.300175 
L 207.235755 89.095687 
L 214.234022 82.99905 
L 222.026169 75.98128 
L 216.613863 64.497324 
L 204.093907 57.221178 
L 211.609385 57.22757 
L 215.158002 67.207616 
L 214.692131 72.46725 
L 213.392053 69.557864 
L 201.992176 58.725209 
L 214.674442 57.432797 
L 226.938599 49.996115 
L 239.471526 48.610112 
L 233.357304 50.270107 
L 220.988431 52.393269 
L 230.708543 41.300804 
" style="fill:none;stroke:#1f77b4;stroke-linecap:square;stroke-opacity:0.5;stroke-width:1.5;"/>
   </g>
   <g id="line2d_23">
    <path clip-path="url(#p7d166919c0)" d="M 211.524386 261.78188 
L 201.580399 253.859327 
L 212.676666 241.0455 
L 205.491269 242.494222 
L 200.190437 251.069724 
L 213.352588 248.058346 
L 220.809544 240.894147 
L 221.618124 237.191735 
L 209.246522 224.232471 
L 196.998598 218.952084 
L 201.373573 219.114409 
L 200.698653 216.482938 
L 210.034667 217.589475 
L 216.98479 230.853055 
L 205.088617 222.557662 
L 210.86355 227.53638 
L 221.667537 238.647491 
L 234.515374 225.520778 
L 241.083669 222.200032 
L 249.751502 215.361231 
L 257.670287 228.267678 
L 248.905426 228.7753 
L 245.288543 241.429106 
L 255.488851 237.631815 
L 250.180947 227.842199 
L 239.231588 227.543699 
L 236.634032 223.237897 
L 246.750492 211.818944 
L 234.773652 209.767727 
L 236.571941 205.337905 
" style="fill:none;stroke:#1f77b4;stroke-linecap:square;stroke-opacity:0.5;stroke-width:1.5;"/>
   </g>
   <g id="line2d_24">
    <path clip-path="url(#p7d166919c0)" d="M 206.128177 106.988881 
L 207.643644 104.865622 
L 213.365979 101.754791 
L 210.425659 94.276264 
L 200.81853 92.248975 
L 204.782237 102.036409 
L 193.994337 114.454851 
L 188.287356 124.381785 
L 193.776358 127.245897 
L 192.936489 116.378232 
L 182.822505 125.709771 
L 188.488626 135.021028 
L 189.668898 122.959082 
L 201.570438 123.302258 
L 199.045231 122.580873 
L 187.584147 127.014365 
L 196.268231 131.563881 
L 185.597983 123.00209 
L 172.816571 121.452315 
L 184.738819 116.839105 
L 173.886007 125.059853 
L 175.003082 136.447433 
L 163.399592 133.513738 
L 168.34508 135.554148 
" style="fill:none;stroke:#1f77b4;stroke-linecap:square;stroke-opacity:0.5;stroke-width:1.5;"/>
   </g>
   <g id="line2d_25">
    <path clip-path="url(#p7d166919c0)" d="M 127.978206 240.404282 
L 135.635225 248.589583 
L 141.683954 254.869173 
L 138.841678 244.105694 
L 146.260318 244.197786 
L 148.159128 239.277669 
L 152.104665 228.794058 
L 157.323638 227.142145 
L 161.691154 216.242232 
L 171.128554 228.49477 
L 170.49081 227.029065 
L 168.319378 216.602928 
L 163.383889 223.735487 
L 167.111585 223.279473 
L 154.575854 221.260324 
L 152.650252 210.438225 
L 161.778652 217.510566 
L 165.272497 230.003919 
L 160.184187 243.041514 
L 167.924043 248.316175 
" style="fill:none;stroke:#1f77b4;stroke-linecap:square;stroke-opacity:0.5;stroke-width:1.5;"/>
   </g>
   <g id="line2d_26">
    <path clip-path="url(#p7d166919c0)" d="M 205.580317 57.064923 
L 208.205522 59.618626 
L 202.105814 59.472781 
L 199.584862 66.001514 
L 202.667724 70.932821 
L 202.400078 73.621131 
L 197.228926 67.40375 
L 185.159179 60.801968 
L 191.870487 69.627018 
L 198.906688 67.008542 
L 198.384348 74.056918 
L 196.650168 76.948177 
L 187.814431 72.772323 
L 175.857376 76.921278 
L 172.222742 72.85761 
L 161.803377 76.642832 
L 154.634346 78.64148 
L 155.808871 65.482937 
L 151.782188 56.40137 
L 154.642115 48.38463 
" style="fill:none;stroke:#1f77b4;stroke-linecap:square;stroke-opacity:0.5;stroke-width:1.5;"/>
   </g>
   <g id="line2d_27">
    <path clip-path="url(#p7d166919c0)" d="M 135.635225 248.589583 
L 147.717935 257.918056 
L 139.006077 263.602162 
L 130.771988 273.147378 
L 136.229288 271.541396 
L 123.594308 258.641045 
L 130.745694 258.052504 
L 141.684484 270.517965 
L 128.923809 258.135559 
L 123.435083 257.197771 
L 111.780851 267.624049 
L 113.012708 266.754435 
L 106.899478 264.854073 
L 113.195363 265.44113 
L 106.522615 261.913103 
L 107.433584 255.850668 
L 104.754846 265.344965 
L 106.224466 275.857914 
L 104.650576 265.397139 
L 109.22029 264.859637 
" style="fill:none;stroke:#1f77b4;stroke-linecap:square;stroke-opacity:0.5;stroke-width:1.5;"/>
   </g>
   <g id="line2d_28">
    <path clip-path="url(#p7d166919c0)" d="M 211.355084 62.851721 
L 214.260099 53.282021 
L 223.095082 58.596115 
L 233.50915 53.819081 
L 236.23432 49.155078 
L 240.874765 61.643996 
L 235.610654 67.325268 
L 225.028014 63.639678 
L 228.104525 76.467046 
L 226.730621 70.57366 
L 223.292495 66.557203 
L 224.229495 77.768039 
L 218.868186 67.046176 
L 225.594302 74.573187 
L 215.680785 71.388279 
L 222.178672 76.512059 
L 226.475544 64.187176 
" style="fill:none;stroke:#1f77b4;stroke-linecap:square;stroke-opacity:0.5;stroke-width:1.5;"/>
   </g>
   <g id="line2d_29">
    <path clip-path="url(#p7d166919c0)" d="M 136.229288 271.541396 
L 123.608618 275.552379 
L 118.642848 273.436006 
L 124.965187 262.121118 
L 137.888845 252.554086 
L 125.299527 242.29665 
L 138.375999 236.264022 
L 144.764267 230.941539 
L 149.002009 222.310619 
L 137.013878 227.7277 
L 128.075773 229.805121 
L 137.070973 233.165709 
L 138.501452 235.063086 
L 131.749211 229.755301 
L 139.323481 236.18735 
L 135.038403 241.289808 
L 126.472467 237.002996 
" style="fill:none;stroke:#1f77b4;stroke-linecap:square;stroke-opacity:0.5;stroke-width:1.5;"/>
   </g>
   <g id="line2d_30">
    <path clip-path="url(#p7d166919c0)" d="M 212.715449 95.729919 
L 212.944461 97.551311 
L 203.783948 92.780045 
L 199.279313 81.885246 
L 205.050726 75.531823 
L 195.464101 76.64736 
L 193.05419 82.524022 
L 194.431182 90.284017 
L 185.355251 97.127741 
L 192.370396 90.245208 
L 181.752942 91.626941 
L 194.373806 85.842567 
L 189.496295 97.646039 
L 191.673725 93.328787 
L 204.975837 105.97894 
L 210.687288 109.40267 
" style="fill:none;stroke:#1f77b4;stroke-linecap:square;stroke-opacity:0.5;stroke-width:1.5;"/>
   </g>
   <g id="line2d_31">
    <path clip-path="url(#p7d166919c0)" d="M 187.03793 52.900757 
L 194.716206 43.369785 
L 199.707534 40.007418 
L 186.993821 29.451194 
L 189.165621 24.277345 
L 186.799837 28.668125 
L 180.313246 32.190588 
L 173.83409 33.664294 
L 168.452847 35.328135 
L 160.354919 25.247224 
L 169.799012 32.278056 
L 169.631545 41.459238 
L 173.343526 41.921606 
L 183.764875 47.501378 
" style="fill:none;stroke:#1f77b4;stroke-linecap:square;stroke-opacity:0.5;stroke-width:1.5;"/>
   </g>
   <g id="line2d_32">
    <path clip-path="url(#p7d166919c0)" d="M 201.090333 112.378497 
L 200.361428 104.4298 
L 194.752429 107.667331 
L 198.1227 117.54815 
L 192.753977 116.803042 
L 182.685107 120.926947 
L 193.235598 110.729937 
L 193.126732 118.14723 
L 203.701733 107.834414 
L 211.62039 119.716094 
" style="fill:none;stroke:#1f77b4;stroke-linecap:square;stroke-opacity:0.5;stroke-width:1.5;"/>
   </g>
   <g id="line2d_33">
    <path clip-path="url(#p7d166919c0)" d="M 194.752429 107.667331 
L 206.019849 94.493281 
L 211.31369 91.906362 
L 203.517462 85.587556 
L 193.90421 83.353643 
L 204.134119 90.375186 
L 207.912354 84.174473 
L 218.745373 71.361679 
L 226.592293 83.679972 
" style="fill:none;stroke:#1f77b4;stroke-linecap:square;stroke-opacity:0.5;stroke-width:1.5;"/>
   </g>
   <g id="line2d_34">
    <path clip-path="url(#p7d166919c0)" d="M 199.645577 142.720304 
L 207.98353 147.562455 
L 197.047962 140.30868 
L 196.638385 132.985564 
" style="fill:none;stroke:#1f77b4;stroke-linecap:square;stroke-opacity:0.5;stroke-width:1.5;"/>
   </g>
   <g id="line2d_35">
    <path clip-path="url(#p7d166919c0)" d="M 159.012104 128.498629 
L 171.621523 118.653055 
" style="fill:none;stroke:#1f77b4;stroke-linecap:square;stroke-opacity:0.5;stroke-width:1.5;"/>
   </g>
   <g id="patch_3">
    <path d="M 10.7 276.812 
L 10.7 10.7 
" style="fill:none;stroke:#000000;stroke-linecap:square;stroke-linejoin:miter;stroke-width:0.8;"/>
   </g>
   <g id="patch_4">
    <path d="M 276.812 276.812 
L 276.812 10.7 
" style="fill:none;stroke:#000000;stroke-linecap:square;stroke-linejoin:miter;stroke-width:0.8;"/>
   </g>
   <g id="patch_5">
    <path d="M 10.7 276.812 
L 276.812 276.812 
" style="fill:none;stroke:#000000;stroke-linecap:square;stroke-linejoin:miter;stroke-width:0.8;"/>
   </g>
   <g id="patch_6">
    <path d="M 10.7 10.7 
L 276.812 10.7 
" style="fill:none;stroke:#000000;stroke-linecap:square;stroke-linejoin:miter;stroke-width:0.8;"/>
   </g>
  </g>
 </g>
 <defs>
  <clipPath id="p7d166919c0">
   <rect height="266.112" width="266.112" x="10.7" y="10.7"/>
  </clipPath>
 </defs>
</svg>
