<?xml version="1.0" encoding="utf-8" standalone="no"?>
<!DOCTYPE svg PUBLIC "-//W3C//DTD SVG 1.1//EN"
  "http://www.w3.org/Graphics/SVG/1.1/DTD/svg11.dtd">
<!-- Created with matplotlib (https://matplotlib.org/) -->
<svg height="287.512pt" version="1.1" viewBox="0 0 287.512 287.512" width="287.512pt" xmlns="http://www.w3.org/2000/svg" xmlns:xlink="http://www.w3.org/1999/xlink">
 <defs>
  <style type="text/css">
*{stroke-linecap:butt;stroke-linejoin:round;}
  </style>
 </defs>
 <g id="figure_1">
  <g id="patch_1">
   <path d="M -0 287.512 
L 287.512 287.512 
L 287.512 0 
L -0 0 
z
" style="fill:#ffffff;"/>
  </g>
  <g id="axes_1">
   <g id="patch_2">
    <path d="M 10.7 276.812 
L 276.812 276.812 
L 276.812 10.7 
L 10.7 10.7 
z
" style="fill:#ffffff;"/>
   </g>
   <g id="matplotlib.axis_1"/>
   <g id="matplotlib.axis_2"/>
   <g id="line2d_1">
    <path clip-path="url(#p754573bc1c)" d="M 90.62826 140.047105 
L 102.325708 149.910971 
L 92.77397 154.18352 
L 85.884051 144.486795 
L 87.887155 131.305564 
L 90.339967 139.999778 
L 95.07312 137.541656 
L 89.675458 133.634012 
L 101.582793 129.929182 
L 109.130416 123.872721 
L 102.395179 116.715284 
L 99.374772 105.727117 
L 100.37197 96.830398 
L 108.391047 92.956819 
L 100.865256 86.652273 
L 91.932297 89.797346 
L 84.551887 79.474158 
L 96.792954 92.055988 
L 86.609828 91.922791 
" style="fill:none;stroke:#7f7f7f;stroke-linecap:square;stroke-opacity:0.5;stroke-width:1.5;"/>
   </g>
   <g id="line2d_2">
    <path clip-path="url(#p754573bc1c)" d="M 143.756 143.756 
L 139.599377 131.556973 
L 129.609988 136.310995 
L 132.987664 129.625823 
L 132.335738 127.651258 
L 133.116843 134.584278 
L 125.587995 136.95216 
L 115.756789 148.904754 
L 125.567474 154.134713 
L 125.855395 160.488707 
L 120.185637 152.921841 
L 115.43318 151.143718 
L 128.52081 149.133835 
L 128.174475 140.1659 
L 130.348427 127.778144 
L 129.801661 125.408026 
L 119.713177 112.435099 
L 114.012845 108.417923 
L 108.318457 98.804976 
L 98.204426 111.937904 
L 89.095987 124.205786 
L 76.459424 120.158879 
L 89.720635 132.854649 
L 85.537416 137.478432 
L 82.310046 138.10508 
L 90.494525 138.350591 
L 90.62826 140.047105 
L 80.810989 143.237859 
L 86.33152 144.643295 
L 94.375891 148.320309 
L 100.481324 148.223286 
L 113.020628 145.554305 
L 120.900809 134.958583 
L 126.627548 134.330998 
L 123.901368 128.311322 
L 122.528227 132.076704 
L 119.185809 128.652216 
L 128.136667 115.517128 
L 128.131241 118.133741 
L 125.469136 125.427793 
L 126.788865 121.448073 
L 125.167762 119.961889 
L 123.456951 112.828629 
L 112.018929 124.903507 
L 100.331241 122.059771 
L 105.904915 114.530107 
L 99.765476 109.175908 
L 97.016187 115.884038 
L 86.472071 128.889818 
L 84.784487 118.949092 
L 85.674786 108.561139 
L 73.362676 115.632412 
L 65.336382 127.072275 
L 66.832962 127.944508 
L 58.368027 119.032304 
L 55.731648 118.272972 
L 65.310275 125.708743 
L 52.164246 115.42988 
L 51.701228 127.562858 
L 47.794006 138.018209 
L 59.303111 147.300488 
L 64.755138 145.893223 
L 74.767349 139.462524 
L 85.153224 146.376467 
L 92.34039 150.026303 
L 91.399672 158.010036 
L 100.779933 150.970512 
L 109.982439 150.715213 
L 115.323003 161.46525 
" style="fill:none;stroke:#7f7f7f;stroke-linecap:square;stroke-opacity:0.5;stroke-width:1.5;"/>
   </g>
   <g id="line2d_3">
    <path clip-path="url(#p754573bc1c)" d="M 74.616418 106.346984 
L 67.77246 117.899325 
L 57.915381 115.244787 
L 70.895415 110.481101 
L 70.846155 110.411258 
L 83.445068 113.570325 
L 82.516281 113.353585 
L 93.894285 100.758601 
L 99.596423 94.420794 
L 110.013336 99.768839 
L 114.497198 100.246608 
L 125.585006 104.161547 
L 136.595637 106.507725 
L 123.323073 117.007731 
L 123.569446 104.955532 
" style="fill:none;stroke:#7f7f7f;stroke-linecap:square;stroke-opacity:0.5;stroke-width:1.5;"/>
   </g>
   <g id="line2d_4">
    <path clip-path="url(#p754573bc1c)" d="M 14.09358 103.921109 
L 26.695102 96.128578 
L 33.897754 94.066074 
L 32.009521 97.247092 
L 22.140629 99.761554 
L 33.440868 89.93138 
L 30.064483 96.194495 
L 35.173848 108.637231 
L 38.092725 106.10273 
L 45.702116 98.412318 
L 42.541933 108.796775 
L 50.675095 117.592293 
L 41.147932 120.363467 
L 48.857232 125.730664 
" style="fill:none;stroke:#7f7f7f;stroke-linecap:square;stroke-opacity:0.5;stroke-width:1.5;"/>
   </g>
   <g id="line2d_5">
    <path clip-path="url(#p754573bc1c)" d="M 102.152067 95.572726 
L 97.370746 84.649806 
L 105.413796 77.759602 
L 115.020729 78.194711 
L 106.2794 86.780907 
L 96.136863 92.933183 
L 93.212515 102.776649 
L 80.193854 102.859907 
L 67.91644 94.811338 
L 63.915173 99.206529 
L 74.616418 106.346984 
L 75.129022 117.505942 
L 64.900331 121.284514 
L 55.449185 128.744867 
L 43.538082 132.056378 
L 30.364635 132.56953 
L 20.221645 123.23046 
L 12.833765 112.473111 
L 18.440081 103.953767 
L 14.09358 103.921109 
L 14.37481 98.030729 
L 17.783201 104.275777 
L 28.236465 114.347438 
L 17.261291 105.952694 
L 12.627 100.659832 
L 11.07922 102.014539 
L 20.087458 94.848312 
L 18.463413 92.575675 
L 12.508409 92.843693 
L 21.993138 92.217089 
L 25.844799 101.15854 
L 16.268922 112.894966 
L 28.10345 116.976118 
L 32.399423 126.10363 
L 32.687824 129.069851 
L 45.273011 117.689871 
L 35.041048 112.144128 
L 25.366559 111.17487 
L 29.488412 98.461897 
L 22.495737 100.762058 
L 11.773646 103.26533 
L 13.562075 99.767734 
L 19.212421 104.145639 
L 18.328743 99.13743 
L 11.987457 110.719259 
L 18.221772 116.254003 
L 14.727084 104.43251 
L 13.958859 109.44758 
L 26.766305 96.158281 
L 38.860352 106.517343 
L 38.852827 102.21505 
L 29.587035 90.390457 
L 22.162426 80.754325 
L 34.120739 86.83934 
L 36.366877 89.486952 
L 29.923832 102.433973 
L 27.355641 98.703483 
" style="fill:none;stroke:#7f7f7f;stroke-linecap:square;stroke-opacity:0.5;stroke-width:1.5;"/>
   </g>
   <g id="line2d_6">
    <path clip-path="url(#p754573bc1c)" d="M 147.691487 48.319747 
L 143.877857 53.5557 
L 148.506855 53.579089 
L 135.345593 44.747976 
L 131.089653 31.671436 
L 141.74459 30.544696 
L 145.195522 39.65079 
" style="fill:none;stroke:#7f7f7f;stroke-linecap:square;stroke-opacity:0.5;stroke-width:1.5;"/>
   </g>
   <g id="line2d_7">
    <path clip-path="url(#p754573bc1c)" d="M 124.567054 94.514524 
L 129.547388 82.854715 
L 122.922393 87.87339 
L 116.935697 89.945449 
L 127.753403 90.396163 
L 122.179553 92.163361 
L 133.25047 104.761044 
L 133.783555 102.799235 
" style="fill:none;stroke:#7f7f7f;stroke-linecap:square;stroke-opacity:0.5;stroke-width:1.5;"/>
   </g>
   <g id="line2d_8">
    <path clip-path="url(#p754573bc1c)" d="M 104.472713 99.111862 
L 115.207617 108.655515 
L 104.78467 106.594437 
L 114.896163 96.16507 
L 109.574882 99.282172 
L 115.539049 99.605751 
L 106.24759 86.671616 
" style="fill:none;stroke:#7f7f7f;stroke-linecap:square;stroke-opacity:0.5;stroke-width:1.5;"/>
   </g>
   <g id="line2d_9">
    <path clip-path="url(#p754573bc1c)" d="M 154.169513 50.495156 
L 154.469491 48.613059 
L 150.047408 52.11064 
" style="fill:none;stroke:#7f7f7f;stroke-linecap:square;stroke-opacity:0.5;stroke-width:1.5;"/>
   </g>
   <g id="line2d_10">
    <path clip-path="url(#p754573bc1c)" d="M 55.449185 128.744867 
L 63.846377 134.652382 
L 68.672 129.127128 
L 80.439781 121.353518 
L 91.724518 117.676107 
L 86.99071 117.79842 
L 98.270381 116.457125 
L 85.675652 107.509036 
L 77.99086 120.785528 
L 82.707044 130.071678 
L 90.588959 137.063924 
L 80.003028 137.405106 
L 72.214099 125.398214 
L 82.888639 124.94173 
L 73.155828 124.977866 
L 64.620103 118.952584 
L 55.875319 122.718593 
L 66.702209 126.833787 
L 62.453608 127.025645 
L 58.131356 138.172855 
L 55.040703 140.647759 
L 56.768937 141.780811 
L 51.297788 142.639081 
L 59.46107 153.729703 
L 61.208115 159.046011 
L 73.850384 164.36907 
L 67.571055 161.5223 
L 77.101021 168.306493 
L 88.710937 159.05295 
L 86.89307 162.095526 
L 88.276787 161.217855 
L 77.07742 156.944894 
L 83.435266 144.2875 
L 93.031784 142.805595 
L 87.064591 130.027987 
L 88.627094 128.53001 
L 96.573375 136.864764 
L 108.524703 139.736377 
L 104.818532 150.492613 
L 105.357137 151.693626 
L 93.664752 139.120455 
L 95.134739 145.89227 
L 97.991998 147.60794 
L 85.324976 135.490375 
L 96.064999 132.534764 
L 108.31768 140.60381 
L 112.341594 129.883677 
L 107.004109 118.701183 
L 110.829972 118.054868 
L 118.625313 109.620547 
L 131.404824 101.781081 
L 125.958732 93.5355 
L 132.641744 94.979897 
L 133.986857 83.321788 
L 124.567054 94.514524 
L 122.80671 96.280574 
L 127.843916 105.528271 
L 114.802053 93.479485 
L 126.537589 102.330024 
L 117.559528 89.368512 
L 107.209767 87.891367 
L 94.479345 87.728138 
L 94.378614 78.73924 
L 101.592353 86.86146 
L 97.075783 94.107975 
L 97.794101 92.603044 
L 108.936559 99.003155 
L 106.052084 108.329604 
" style="fill:none;stroke:#7f7f7f;stroke-linecap:square;stroke-opacity:0.5;stroke-width:1.5;"/>
   </g>
   <g id="line2d_11">
    <path clip-path="url(#p754573bc1c)" d="M 67.719816 106.667283 
L 56.966273 101.960811 
L 70.023414 113.144619 
L 74.140781 107.452935 
L 75.408887 114.737679 
L 70.982178 113.343299 
L 73.078497 125.315021 
L 85.487631 128.806093 
L 89.440652 130.890537 
L 93.323165 128.661642 
L 80.344026 126.731775 
L 74.522174 118.983988 
L 78.202806 121.423747 
L 72.682754 112.403833 
L 71.66799 109.338376 
L 74.163091 121.174124 
L 77.492614 129.297418 
" style="fill:none;stroke:#7f7f7f;stroke-linecap:square;stroke-opacity:0.5;stroke-width:1.5;"/>
   </g>
   <g id="line2d_12">
    <path clip-path="url(#p754573bc1c)" d="M 137.575344 69.525004 
L 131.854027 70.140531 
L 122.042579 80.007944 
L 115.795575 80.333218 
L 124.664026 89.308538 
L 132.250424 79.976391 
L 130.027814 86.049555 
L 136.212182 87.069107 
L 124.417093 82.168441 
L 118.041324 93.98731 
L 117.144202 106.436724 
L 104.068957 115.266378 
L 97.25696 103.658096 
L 101.636225 107.408806 
L 93.551947 109.891118 
L 81.456256 112.458094 
L 85.268345 111.419846 
" style="fill:none;stroke:#7f7f7f;stroke-linecap:square;stroke-opacity:0.5;stroke-width:1.5;"/>
   </g>
   <g id="line2d_13">
    <path clip-path="url(#p754573bc1c)" d="M 140.803505 61.172333 
L 142.630421 67.612049 
L 129.67995 78.403519 
L 121.519889 73.621093 
L 108.362524 79.812582 
L 118.385888 77.543451 
L 120.087656 73.283858 
L 120.644025 85.412524 
L 133.129396 80.587955 
L 126.868025 93.724441 
L 126.635255 93.508889 
L 120.244641 103.875287 
L 116.506922 108.416152 
" style="fill:none;stroke:#7f7f7f;stroke-linecap:square;stroke-opacity:0.5;stroke-width:1.5;"/>
   </g>
   <g id="line2d_14">
    <path clip-path="url(#p754573bc1c)" d="M 96.792954 92.055988 
L 106.074368 88.54173 
L 113.228132 79.429276 
L 103.425701 82.233653 
L 99.955082 93.018642 
L 102.152067 95.572726 
L 109.809053 99.998869 
L 115.763273 87.958866 
L 116.62896 84.657554 
L 104.031158 82.545699 
L 108.775983 81.511265 
L 110.323002 80.315045 
L 123.540459 92.265595 
L 132.141014 87.240939 
L 129.629203 89.087243 
L 139.061289 80.169613 
L 139.931305 90.4092 
L 146.470148 77.172617 
L 145.341481 66.273853 
L 141.185166 76.56442 
L 154.146023 69.74416 
L 159.80257 67.024176 
L 162.653367 58.146909 
L 153.51448 64.689665 
L 159.882567 70.044581 
L 166.979668 79.686702 
L 168.035701 73.467066 
L 167.756094 69.375513 
L 154.634117 77.345438 
L 145.477148 66.293365 
L 146.572218 68.835888 
L 144.328111 72.4186 
L 137.877279 74.04672 
L 131.939702 70.728602 
L 123.120148 83.265638 
L 131.105466 86.019796 
L 128.235774 97.007812 
L 137.724654 109.567674 
L 129.737417 97.470553 
L 117.286613 106.676008 
L 119.9445 119.433417 
L 118.296094 112.894877 
L 115.9577 119.291175 
L 117.868924 106.228292 
L 104.978528 103.267338 
L 98.983854 100.353789 
L 97.69906 104.88845 
L 97.535055 93.768684 
L 88.234777 100.977576 
L 89.865328 109.803895 
L 102.176426 105.841747 
L 113.147273 107.523902 
L 109.77943 113.200094 
L 117.213405 101.811179 
L 119.644935 114.4146 
L 129.838999 117.951916 
L 135.597117 124.680457 
L 124.152022 129.719348 
L 122.883697 132.17024 
L 113.266358 119.749494 
L 110.400237 116.980033 
L 109.677487 114.631541 
L 120.350797 106.612074 
L 118.480201 100.297702 
L 121.707405 88.213835 
L 129.329904 81.565047 
L 138.854806 92.629157 
L 129.177225 90.394389 
L 126.985597 83.299981 
L 118.292014 80.385402 
L 110.822416 87.546676 
L 114.679469 87.994812 
L 111.453667 88.051022 
L 104.472713 99.111862 
L 115.14179 103.198199 
L 113.806077 100.901574 
L 117.190652 97.73308 
L 125.704725 94.605105 
L 131.258867 82.182714 
L 126.440348 74.306077 
L 131.047856 69.10448 
L 123.820595 81.386691 
L 126.913358 91.884054 
L 133.22287 104.259125 
L 132.496121 109.460821 
L 121.844339 101.282014 
L 128.561411 93.933046 
L 134.89222 103.569404 
L 127.859613 100.078911 
L 116.324716 109.076258 
L 129.004908 108.768753 
L 119.641142 110.639298 
L 111.586032 102.458467 
L 104.45166 99.728001 
L 100.226087 90.39759 
L 90.853719 100.536358 
L 88.453283 101.055114 
L 77.585488 90.605793 
L 80.392728 79.884706 
L 70.659364 84.975094 
L 82.168417 94.077853 
L 90.966608 87.321058 
L 89.031198 100.467798 
L 88.757986 93.008151 
L 81.702831 97.29438 
L 83.474151 89.993379 
L 81.330587 88.478544 
L 75.040425 83.221892 
L 67.12314 84.037531 
L 71.267701 83.043553 
" style="fill:none;stroke:#1f77b4;stroke-linecap:square;stroke-opacity:0.5;stroke-width:1.5;"/>
   </g>
   <g id="line2d_15">
    <path clip-path="url(#p754573bc1c)" d="M 137.877279 74.04672 
L 148.853421 62.125613 
L 148.810459 50.477698 
L 147.484895 48.221422 
L 145.520891 41.378002 
L 147.825026 36.313577 
L 139.710951 30.945742 
L 151.055995 41.500917 
L 140.41039 54.090966 
L 151.638978 57.804129 
L 156.677612 54.038505 
L 148.939918 67.24637 
L 156.579315 59.456819 
L 146.315086 58.803889 
L 135.620299 56.67215 
L 133.558537 45.023653 
L 124.682328 39.588951 
L 117.428485 42.412986 
L 106.718089 52.840439 
L 118.861135 57.719443 
L 111.520099 53.708099 
L 114.234967 49.560479 
L 124.621877 40.532761 
L 133.822129 35.651129 
L 123.325523 27.342001 
L 128.461392 24.017361 
L 118.440415 34.432954 
L 123.171764 40.988443 
L 135.508502 45.936795 
L 133.156377 38.76274 
L 133.15082 42.555964 
L 140.930262 46.794733 
L 153.004091 40.478315 
L 152.990355 28.534078 
L 144.643349 35.424184 
L 132.150972 30.670745 
L 123.264556 18.906392 
L 132.486446 12.113013 
L 127.97322 10.979142 
L 121.584503 14.477675 
L 117.095251 15.781062 
L 126.301525 15.161305 
L 118.747079 16.192024 
L 111.722011 24.164534 
L 103.789371 20.106301 
L 102.714619 29.321206 
L 115.015743 24.234815 
L 111.594658 25.792548 
L 109.848499 24.650626 
L 115.480503 25.321752 
L 110.690817 34.77607 
L 110.198628 23.186501 
L 104.195283 17.930777 
L 105.714875 12.367409 
L 99.998513 13.508013 
L 107.160921 18.883434 
L 95.155583 13.340605 
L 105.669646 12.812419 
L 103.977519 15.445456 
L 93.958521 22.721735 
L 94.404183 28.493918 
L 87.710838 27.675425 
L 94.194162 15.697515 
L 101.318838 25.964082 
L 89.396323 24.86165 
L 92.777065 31.608579 
L 83.136805 32.444085 
L 77.112292 36.116929 
L 88.861516 28.371351 
L 90.199828 25.663139 
L 88.310678 17.934822 
L 87.433374 28.375347 
L 76.893716 19.194836 
L 65.364446 25.253609 
L 61.143198 24.514837 
L 61.047209 32.875276 
L 59.895518 19.969028 
L 67.734824 21.182977 
L 72.660421 13.230995 
" style="fill:none;stroke:#1f77b4;stroke-linecap:square;stroke-opacity:0.5;stroke-width:1.5;"/>
   </g>
   <g id="line2d_16">
    <path clip-path="url(#p754573bc1c)" d="M 106.718089 52.840439 
L 105.28212 44.689762 
L 117.772545 46.412307 
L 128.581853 45.874483 
L 139.91086 57.220666 
L 143.639083 65.200134 
L 137.452347 59.570039 
L 147.691487 48.319747 
L 160.610011 48.240831 
L 159.167707 35.261598 
L 171.237279 26.734066 
L 183.054052 38.518702 
L 186.762156 28.06055 
L 180.50817 28.284074 
L 186.210908 17.063997 
L 185.223077 24.710159 
L 187.642513 23.547349 
L 176.758443 31.564286 
L 173.964514 24.460355 
L 182.031933 27.065401 
L 183.802368 39.151925 
L 172.211235 35.301021 
L 160.640281 32.88138 
L 150.896848 35.791473 
L 158.966847 40.926678 
L 167.418591 32.075612 
L 163.392888 36.868752 
L 172.160411 34.966911 
L 165.014139 38.590542 
L 174.966428 34.625251 
L 185.36707 26.636328 
L 175.059826 26.787827 
L 167.530764 16.59459 
L 177.162493 12.279639 
L 175.715146 20.497896 
L 177.379935 10.998662 
L 169.489044 15.808194 
L 162.826785 11.423923 
L 163.009785 20.77136 
L 171.269268 16.073934 
L 169.161003 13.424591 
L 181.663052 15.972597 
L 180.614691 10.937929 
L 174.467736 13.897018 
L 170.915163 12.3138 
L 180.914729 13.533496 
L 178.176615 20.015458 
L 177.798872 12.113179 
L 178.523835 11.117707 
L 180.779503 12.038329 
L 189.608926 22.561496 
L 200.634895 11.873193 
L 198.102773 13.946913 
L 193.086265 26.142804 
L 200.984701 34.791433 
L 196.099922 43.984925 
L 208.705671 31.777951 
L 209.562168 32.248951 
L 217.991723 27.582007 
L 231.030438 19.755276 
L 240.976341 27.70961 
L 242.633967 26.520479 
" style="fill:none;stroke:#1f77b4;stroke-linecap:square;stroke-opacity:0.5;stroke-width:1.5;"/>
   </g>
   <g id="line2d_17">
    <path clip-path="url(#p754573bc1c)" d="M 172.211235 35.301021 
L 170.889999 41.281791 
L 181.60297 50.627609 
L 190.358393 46.891207 
L 202.983545 46.385599 
L 198.630418 34.85613 
L 189.185273 35.540715 
L 182.514385 47.233666 
L 175.007671 52.031351 
L 175.817325 63.421637 
L 168.279882 74.055729 
L 165.511292 64.190822 
L 174.199855 74.115336 
L 176.510316 82.166745 
L 163.920676 73.263018 
L 164.686591 70.377572 
L 169.441765 69.193203 
L 179.154637 59.216681 
L 183.894898 71.994318 
L 184.891396 73.436465 
L 183.373578 66.439001 
L 184.970203 63.701038 
L 186.255783 68.972129 
L 182.951137 62.669793 
L 194.784297 54.534033 
L 186.946007 47.170143 
L 200.234838 48.43429 
L 202.259825 40.672369 
L 194.747957 37.062433 
L 203.618582 38.515742 
L 212.685041 31.040432 
L 200.961875 28.65577 
L 190.690145 19.023109 
L 202.181 30.158557 
L 198.698156 32.20092 
L 195.505768 44.07392 
L 198.158592 43.935194 
L 195.377542 31.742029 
L 200.602895 40.230382 
L 204.807086 47.97019 
L 201.447742 46.702013 
L 214.033989 43.933519 
" style="fill:none;stroke:#1f77b4;stroke-linecap:square;stroke-opacity:0.5;stroke-width:1.5;"/>
   </g>
   <g id="line2d_18">
    <path clip-path="url(#p754573bc1c)" d="M 158.966847 40.926678 
L 168.577065 46.205747 
L 161.801048 56.69776 
L 152.925519 48.51094 
L 143.040354 43.076604 
L 154.351865 44.033953 
L 154.169513 50.495156 
L 148.229098 42.079903 
L 136.314992 40.11194 
L 140.769206 47.624128 
L 128.336919 35.028182 
L 130.12627 35.524364 
L 120.004634 47.709628 
L 132.888539 56.40851 
L 137.575344 69.525004 
L 130.537454 64.494407 
L 122.154074 70.689694 
L 121.346964 72.825776 
L 110.149748 66.629781 
L 108.454446 59.141774 
L 109.59297 50.144793 
L 104.790784 46.042674 
L 92.511731 38.05839 
L 85.166024 30.412747 
L 95.417647 41.860552 
L 100.160052 33.32298 
L 92.426544 45.338693 
L 102.872419 42.737638 
L 93.833861 33.046606 
L 98.572753 30.825707 
L 107.691096 24.510241 
L 110.47177 13.824685 
L 107.302299 18.957378 
L 112.422856 29.170063 
L 109.564667 29.874339 
L 109.029382 35.486254 
L 120.264403 31.978505 
L 131.610651 39.92598 
L 133.528019 48.622153 
" style="fill:none;stroke:#1f77b4;stroke-linecap:square;stroke-opacity:0.5;stroke-width:1.5;"/>
   </g>
   <g id="line2d_19">
    <path clip-path="url(#p754573bc1c)" d="M 94.479345 87.728138 
L 81.522269 97.10887 
L 73.682816 94.222557 
L 69.077775 95.503904 
L 69.834483 99.971228 
L 67.719816 106.667283 
L 57.202394 103.932342 
L 62.554315 109.800858 
L 54.004211 121.350695 
L 57.382627 118.153235 
L 60.852497 127.968415 
L 68.164734 126.392359 
L 73.967672 120.73868 
L 80.901431 125.25549 
L 89.276173 129.165503 
L 80.169529 125.097271 
L 88.539581 131.504612 
L 87.59911 138.883078 
L 93.238413 133.264025 
L 84.100173 137.430634 
L 82.749423 136.767162 
L 77.545063 130.172692 
L 77.380939 131.027526 
L 86.013555 138.469228 
L 88.193279 145.900376 
L 79.196028 142.248348 
L 91.78288 152.060552 
L 84.343956 144.059525 
L 83.452165 153.084743 
L 93.363595 147.686404 
L 105.998146 149.157768 
L 96.617668 146.458044 
L 89.212569 141.389512 
L 77.132519 153.95954 
" style="fill:none;stroke:#1f77b4;stroke-linecap:square;stroke-opacity:0.5;stroke-width:1.5;"/>
   </g>
   <g id="line2d_20">
    <path clip-path="url(#p754573bc1c)" d="M 131.258867 82.182714 
L 139.932686 83.170189 
L 143.841051 92.015272 
L 147.504476 95.339041 
L 137.463385 89.690739 
L 131.262723 100.107171 
L 137.615675 102.196099 
L 144.860791 101.932275 
L 143.748997 92.169743 
L 136.509876 88.217026 
L 145.207174 91.555209 
L 156.626216 95.362397 
L 169.795247 103.729504 
L 160.524487 115.830566 
L 161.56611 125.425594 
L 168.268022 121.124752 
L 181.165629 114.956239 
L 177.386137 121.134726 
L 185.004316 123.187247 
L 183.214118 121.63583 
L 181.212047 121.675741 
L 190.753686 132.082161 
L 202.576924 138.485718 
L 201.140153 130.229827 
L 203.929362 120.699017 
L 191.265673 122.549626 
L 187.892367 110.499992 
L 192.994487 112.770493 
L 201.095652 99.972134 
L 207.192654 101.775722 
L 207.607764 96.672401 
L 210.181875 84.528614 
L 208.704755 93.149109 
" style="fill:none;stroke:#1f77b4;stroke-linecap:square;stroke-opacity:0.5;stroke-width:1.5;"/>
   </g>
   <g id="line2d_21">
    <path clip-path="url(#p754573bc1c)" d="M 126.913358 91.884054 
L 118.622747 90.557323 
L 112.35968 96.300991 
L 100.302248 107.691729 
L 104.274984 99.429842 
L 94.906646 104.743244 
L 98.046814 93.241105 
L 98.343794 95.080492 
L 105.057488 89.127658 
L 97.789067 100.13429 
L 103.999016 91.640526 
L 95.337927 86.239009 
L 100.997396 88.248506 
L 94.074818 100.993966 
L 105.306526 100.124397 
L 99.323941 108.496807 
L 99.826572 112.427094 
L 107.083476 113.851387 
L 115.263002 126.076714 
L 125.149225 130.406287 
L 126.533478 130.986823 
L 117.970255 143.072376 
L 107.167476 146.937023 
L 116.593026 158.110601 
L 118.506479 144.913542 
L 111.46679 156.435123 
L 110.651635 162.897422 
L 118.581278 164.813929 
L 122.104522 173.88122 
" style="fill:none;stroke:#1f77b4;stroke-linecap:square;stroke-opacity:0.5;stroke-width:1.5;"/>
   </g>
   <g id="line2d_22">
    <path clip-path="url(#p754573bc1c)" d="M 132.888539 56.40851 
L 132.360145 66.340756 
L 120.241279 68.069694 
L 110.039651 70.896521 
L 111.067626 66.962623 
L 119.280193 62.223199 
L 131.566811 66.081262 
L 120.81662 65.27858 
L 128.240727 62.472956 
L 140.803505 61.172333 
L 144.275952 61.73499 
L 141.319062 51.832479 
L 129.765128 51.701439 
L 124.681482 51.62487 
L 127.094382 39.303214 
L 128.527303 46.817907 
L 139.039811 35.496432 
L 142.440538 41.532659 
L 146.024059 33.621059 
L 152.460941 38.318406 
L 147.643886 32.180085 
L 151.948428 39.092149 
L 141.108366 35.325526 
L 153.852843 35.699892 
L 149.109114 22.786376 
L 152.982236 10.764552 
L 154.395113 22.964366 
" style="fill:none;stroke:#1f77b4;stroke-linecap:square;stroke-opacity:0.5;stroke-width:1.5;"/>
   </g>
   <g id="line2d_23">
    <path clip-path="url(#p754573bc1c)" d="M 70.982178 113.343299 
L 80.65611 116.270169 
L 67.935828 119.904195 
L 74.540324 121.582251 
L 85.692773 113.59262 
L 95.747865 120.503839 
L 88.198343 118.403188 
L 90.745345 130.935871 
L 101.318001 122.557725 
L 105.669436 109.527276 
L 117.857072 105.025976 
L 110.525288 102.542347 
L 103.758117 103.750156 
L 111.466032 99.688889 
L 102.449795 112.546738 
L 93.03364 99.722179 
L 85.864123 93.50786 
L 95.454634 91.718855 
L 104.803997 82.46643 
L 109.780377 85.88022 
L 110.462832 84.900137 
L 113.521235 74.707253 
L 109.840748 82.896492 
L 101.95056 93.290502 
L 101.365768 89.87415 
L 100.073258 97.13135 
" style="fill:none;stroke:#1f77b4;stroke-linecap:square;stroke-opacity:0.5;stroke-width:1.5;"/>
   </g>
   <g id="line2d_24">
    <path clip-path="url(#p754573bc1c)" d="M 94.906646 104.743244 
L 94.196703 96.880968 
L 81.104933 85.031388 
L 93.784081 98.080899 
L 103.941724 91.261132 
L 101.225856 103.767249 
L 107.823957 105.24321 
L 103.75884 96.815911 
L 115.811961 109.08926 
L 125.10763 104.290527 
L 130.260794 94.339024 
L 132.062353 101.921744 
L 144.253668 92.428855 
L 153.395848 102.195302 
L 152.190506 110.545396 
L 148.24914 113.322209 
L 137.795299 100.443842 
L 135.927932 104.220481 
L 126.435511 107.980018 
L 120.277366 111.062096 
L 114.739653 104.351377 
L 123.009665 94.233744 
L 118.187415 90.249883 
L 115.753797 83.669399 
L 120.675723 76.894289 
" style="fill:none;stroke:#1f77b4;stroke-linecap:square;stroke-opacity:0.5;stroke-width:1.5;"/>
   </g>
   <g id="line2d_25">
    <path clip-path="url(#p754573bc1c)" d="M 129.004908 108.768753 
L 119.73921 116.402962 
L 132.177131 105.251555 
L 142.904888 109.699807 
L 133.425068 98.654863 
L 127.626458 97.883486 
L 127.229725 88.294726 
L 127.115799 77.298848 
L 116.609611 73.469332 
L 118.742962 65.935929 
L 115.216399 63.133893 
L 126.002019 57.183741 
L 124.448374 57.951257 
L 114.58532 62.185953 
L 118.728154 58.143447 
L 114.242291 64.336747 
L 121.525767 77.641714 
L 125.143902 86.439269 
L 130.373277 80.743875 
L 122.27355 92.179638 
L 129.608843 81.167662 
" style="fill:none;stroke:#1f77b4;stroke-linecap:square;stroke-opacity:0.5;stroke-width:1.5;"/>
   </g>
   <g id="line2d_26">
    <path clip-path="url(#p754573bc1c)" d="M 186.946007 47.170143 
L 175.910361 41.970513 
L 164.361841 33.583718 
L 153.771047 45.648641 
L 140.782116 35.093898 
L 131.505783 39.67599 
L 132.830718 44.250382 
L 124.656376 38.232942 
L 115.40849 38.252436 
L 121.408819 44.060438 
L 109.934527 48.247712 
L 119.352973 58.500608 
L 116.660943 59.859373 
L 113.006504 56.008054 
L 101.748463 45.386705 
L 98.043352 44.418846 
L 95.911397 43.615023 
L 96.317769 34.147935 
" style="fill:none;stroke:#1f77b4;stroke-linecap:square;stroke-opacity:0.5;stroke-width:1.5;"/>
   </g>
   <g id="line2d_27">
    <path clip-path="url(#p754573bc1c)" d="M 164.361841 33.583718 
L 168.265367 34.739367 
L 155.922091 26.126125 
L 150.94621 37.306187 
L 157.423187 38.504114 
L 161.647533 40.160377 
L 149.519452 45.22358 
L 142.497454 50.405855 
L 151.524333 55.491168 
L 139.831594 67.40772 
L 130.446543 55.721809 
L 138.517 46.601544 
L 143.06119 44.533777 
L 152.419059 34.02367 
L 161.44589 29.134482 
L 160.886412 17.544126 
L 162.726316 15.926332 
" style="fill:none;stroke:#1f77b4;stroke-linecap:square;stroke-opacity:0.5;stroke-width:1.5;"/>
   </g>
   <g id="line2d_28">
    <path clip-path="url(#p754573bc1c)" d="M 84.100173 137.430634 
L 85.580322 145.786065 
L 96.993508 157.180539 
L 101.875577 147.335771 
L 109.184922 134.995123 
L 121.59777 137.479147 
L 120.061637 143.955639 
L 125.878615 140.565264 
L 128.084283 146.323223 
L 136.781275 154.385474 
L 125.57056 149.885593 
L 119.269567 161.21775 
L 106.444656 152.939363 
L 112.69501 142.242363 
L 115.098828 154.594405 
L 120.273849 146.743174 
" style="fill:none;stroke:#1f77b4;stroke-linecap:square;stroke-opacity:0.5;stroke-width:1.5;"/>
   </g>
   <g id="line2d_29">
    <path clip-path="url(#p754573bc1c)" d="M 178.523835 11.117707 
L 170.37014 21.084135 
L 160.396191 16.193958 
L 151.819884 18.063132 
L 162.734709 23.305449 
L 171.233245 27.681438 
L 181.082637 39.549075 
L 183.391703 27.38857 
L 193.606593 39.501956 
L 194.375995 47.716039 
L 206.085189 59.171543 
L 218.280603 58.824719 
L 215.443141 61.319337 
L 227.602786 53.955399 
L 226.020601 52.234724 
" style="fill:none;stroke:#1f77b4;stroke-linecap:square;stroke-opacity:0.5;stroke-width:1.5;"/>
   </g>
   <g id="line2d_30">
    <path clip-path="url(#p754573bc1c)" d="M 88.861516 28.371351 
L 76.083672 17.293256 
L 76.691088 16.93367 
L 75.7543 21.835569 
L 72.983536 26.98857 
L 60.195284 16.498982 
L 47.152105 11.377037 
L 47.543566 14.003328 
L 49.453554 12.38073 
L 39.3678 18.490338 
L 26.826981 17.170644 
L 33.684903 20.210083 
" style="fill:none;stroke:#1f77b4;stroke-linecap:square;stroke-opacity:0.5;stroke-width:1.5;"/>
   </g>
   <g id="line2d_31">
    <path clip-path="url(#p754573bc1c)" d="M 81.456256 112.458094 
L 73.948136 119.851282 
L 64.912092 133.107806 
L 61.999694 121.993489 
L 74.433968 131.832253 
L 85.260376 140.850671 
L 76.944905 135.413697 
L 66.741371 146.875744 
L 78.601438 137.80531 
L 79.993434 126.661122 
L 70.847997 122.182908 
L 59.252322 111.425901 
" style="fill:none;stroke:#1f77b4;stroke-linecap:square;stroke-opacity:0.5;stroke-width:1.5;"/>
   </g>
   <g id="line2d_32">
    <path clip-path="url(#p754573bc1c)" d="M 203.929362 120.699017 
L 212.998857 118.557394 
L 220.967367 122.611735 
L 210.697071 118.595562 
L 200.234297 118.640084 
L 210.573452 128.801369 
L 214.002679 134.34973 
L 210.141417 141.770476 
L 210.908211 128.579921 
L 216.798058 130.499943 
" style="fill:none;stroke:#1f77b4;stroke-linecap:square;stroke-opacity:0.5;stroke-width:1.5;"/>
   </g>
   <g id="line2d_33">
    <path clip-path="url(#p754573bc1c)" d="M 124.448374 57.951257 
L 123.279538 64.749493 
L 131.804932 77.997094 
L 128.946516 88.83591 
L 136.767709 75.662602 
L 146.815119 78.265234 
L 156.748864 90.103981 
L 153.606509 98.032265 
L 166.89807 109.827369 
L 162.783147 117.866245 
" style="fill:none;stroke:#1f77b4;stroke-linecap:square;stroke-opacity:0.5;stroke-width:1.5;"/>
   </g>
   <g id="line2d_34">
    <path clip-path="url(#p754573bc1c)" d="M 107.167476 146.937023 
L 108.604852 147.569955 
L 99.939886 144.06574 
L 109.949244 134.562456 
L 114.866568 127.895497 
L 119.986968 130.483687 
L 120.44595 117.620909 
L 117.442517 114.347156 
" style="fill:none;stroke:#1f77b4;stroke-linecap:square;stroke-opacity:0.5;stroke-width:1.5;"/>
   </g>
   <g id="line2d_35">
    <path clip-path="url(#p754573bc1c)" d="M 116.593026 158.110601 
L 113.588577 159.46364 
L 101.846331 149.324766 
L 88.74399 154.526093 
L 91.789887 165.737165 
L 82.645221 175.921844 
L 89.488734 179.449098 
" style="fill:none;stroke:#1f77b4;stroke-linecap:square;stroke-opacity:0.5;stroke-width:1.5;"/>
   </g>
   <g id="line2d_36">
    <path clip-path="url(#p754573bc1c)" d="M 152.419059 34.02367 
L 162.16585 23.322358 
L 175.076054 26.239091 
L 171.07048 20.221563 
L 159.074814 32.646494 
" style="fill:none;stroke:#1f77b4;stroke-linecap:square;stroke-opacity:0.5;stroke-width:1.5;"/>
   </g>
   <g id="line2d_37">
    <path clip-path="url(#p754573bc1c)" d="M 214.002679 134.34973 
L 206.148996 137.662739 
L 201.634614 130.919979 
L 201.674047 134.499608 
L 188.973858 143.64162 
" style="fill:none;stroke:#1f77b4;stroke-linecap:square;stroke-opacity:0.5;stroke-width:1.5;"/>
   </g>
   <g id="line2d_38">
    <path clip-path="url(#p754573bc1c)" d="M 162.726316 15.926332 
L 162.457967 12.934111 
" style="fill:none;stroke:#1f77b4;stroke-linecap:square;stroke-opacity:0.5;stroke-width:1.5;"/>
   </g>
   <g id="patch_3">
    <path d="M 10.7 276.812 
L 10.7 10.7 
" style="fill:none;stroke:#000000;stroke-linecap:square;stroke-linejoin:miter;stroke-width:0.8;"/>
   </g>
   <g id="patch_4">
    <path d="M 276.812 276.812 
L 276.812 10.7 
" style="fill:none;stroke:#000000;stroke-linecap:square;stroke-linejoin:miter;stroke-width:0.8;"/>
   </g>
   <g id="patch_5">
    <path d="M 10.7 276.812 
L 276.812 276.812 
" style="fill:none;stroke:#000000;stroke-linecap:square;stroke-linejoin:miter;stroke-width:0.8;"/>
   </g>
   <g id="patch_6">
    <path d="M 10.7 10.7 
L 276.812 10.7 
" style="fill:none;stroke:#000000;stroke-linecap:square;stroke-linejoin:miter;stroke-width:0.8;"/>
   </g>
  </g>
 </g>
 <defs>
  <clipPath id="p754573bc1c">
   <rect height="266.112" width="266.112" x="10.7" y="10.7"/>
  </clipPath>
 </defs>
</svg>
