<?xml version="1.0" encoding="utf-8" standalone="no"?>
<!DOCTYPE svg PUBLIC "-//W3C//DTD SVG 1.1//EN"
  "http://www.w3.org/Graphics/SVG/1.1/DTD/svg11.dtd">
<!-- Created with matplotlib (https://matplotlib.org/) -->
<svg height="287.512pt" version="1.1" viewBox="0 0 287.512 287.512" width="287.512pt" xmlns="http://www.w3.org/2000/svg" xmlns:xlink="http://www.w3.org/1999/xlink">
 <defs>
  <style type="text/css">
*{stroke-linecap:butt;stroke-linejoin:round;}
  </style>
 </defs>
 <g id="figure_1">
  <g id="patch_1">
   <path d="M -0 287.512 
L 287.512 287.512 
L 287.512 0 
L -0 0 
z
" style="fill:#ffffff;"/>
  </g>
  <g id="axes_1">
   <g id="patch_2">
    <path d="M 10.7 276.812 
L 276.812 276.812 
L 276.812 10.7 
L 10.7 10.7 
z
" style="fill:#ffffff;"/>
   </g>
   <g id="matplotlib.axis_1"/>
   <g id="matplotlib.axis_2"/>
   <g id="line2d_1">
    <path clip-path="url(#pd063d37c94)" d="M 192.767978 16.942433 
L 206.149081 29.117892 
L 206.940497 17.433909 
L 200.836822 18.0798 
L 205.197676 28.72858 
L 199.322403 23.302714 
L 215.803315 20.818084 
L 211.342059 16.828542 
L 186.381552 39.050001 
L 188.949542 13.178263 
L 204.250054 23.660715 
L 185.669186 22.848171 
L 191.908846 20.348432 
L 173.402765 15.6111 
L 170.549448 30.342059 
L 151.818849 55.5234 
L 144.74545 56.336403 
L 143.871213 42.661876 
L 168.827884 44.789946 
L 156.316493 69.322175 
L 177.540224 84.357162 
" style="fill:none;stroke:#1f77b4;stroke-linecap:square;stroke-width:1.5;"/>
   </g>
   <g id="line2d_2">
    <path clip-path="url(#pd063d37c94)" d="M 176.121868 174.528065 
L 185.438636 171.858888 
L 159.914431 183.653499 
L 147.574051 205.88472 
L 167.683493 208.504104 
L 190.92328 185.664911 
L 184.645201 167.7688 
L 165.462607 192.039883 
L 169.862516 176.179184 
L 149.37371 178.680363 
L 150.156596 152.152253 
L 170.203929 138.979731 
L 175.696035 118.554397 
L 194.996257 115.480447 
L 196.89824 122.480889 
L 173.817828 132.044166 
L 187.389702 129.058121 
L 212.158331 130.172127 
L 204.854893 127.092592 
L 227.828341 149.089747 
L 250.884682 129.429495 
" style="fill:none;stroke:#ff7f0e;stroke-linecap:square;stroke-width:1.5;"/>
   </g>
   <g id="line2d_3">
    <path clip-path="url(#pd063d37c94)" d="M 201.780062 123.674239 
L 182.110461 139.812664 
L 162.466711 151.751089 
L 179.577334 125.277281 
L 204.594053 147.120463 
L 230.003217 140.838233 
L 256.265404 135.110812 
L 259.348928 144.539457 
L 235.207552 153.799989 
L 236.705068 176.416004 
L 211.122238 158.447078 
L 199.888774 162.984966 
L 179.691112 141.297017 
L 160.414609 133.115451 
L 181.518963 146.105847 
L 169.032531 131.331979 
L 143.784424 110.144293 
L 136.635459 92.207829 
L 158.127088 111.356481 
L 176.603216 128.843297 
L 193.638228 106.117315 
" style="fill:none;stroke:#2ca02c;stroke-linecap:square;stroke-width:1.5;"/>
   </g>
   <g id="line2d_4">
    <path clip-path="url(#pd063d37c94)" d="M 31.311467 143.955887 
L 20.000649 145.351024 
L 20.298485 147.529074 
L 16.615841 139.300534 
L 15.283213 133.986436 
L 26.200744 160.56301 
L 48.114653 183.496714 
L 39.055915 182.16898 
L 56.38631 193.828709 
L 48.122561 181.22116 
L 72.300976 190.00518 
L 83.80145 180.423205 
L 84.180834 203.523819 
L 79.478785 206.06789 
L 98.275399 218.019322 
L 82.588974 221.295865 
L 85.126396 196.761348 
L 78.243564 172.2306 
L 74.595491 174.270977 
L 68.215439 185.106099 
L 75.333842 200.960913 
" style="fill:none;stroke:#d62728;stroke-linecap:square;stroke-width:1.5;"/>
   </g>
   <g id="line2d_5">
    <path clip-path="url(#pd063d37c94)" d="M 187.111701 188.673366 
L 176.835683 180.940489 
L 187.399937 184.958351 
L 183.825512 165.721503 
L 159.272154 185.344273 
L 161.015877 167.379557 
L 183.954687 150.558346 
L 164.000959 165.965332 
L 171.793759 172.151661 
L 156.479076 162.868654 
L 147.581062 159.094763 
L 160.380403 143.888 
L 140.974846 118.928845 
L 150.532175 123.343875 
L 163.377286 108.600995 
L 178.736148 126.645311 
L 162.112633 117.032272 
L 155.858829 115.155005 
L 154.089576 129.036071 
L 164.051352 124.146275 
L 151.827623 106.386423 
" style="fill:none;stroke:#9467bd;stroke-linecap:square;stroke-width:1.5;"/>
   </g>
   <g id="line2d_6">
    <path clip-path="url(#pd063d37c94)" d="M 96.592843 18.63936 
L 113.676381 22.45624 
L 94.79983 43.850503 
L 92.158959 45.749149 
L 106.198187 42.666823 
L 104.713884 27.989793 
L 108.812417 12.011863 
L 99.037671 16.177888 
L 125.029699 39.622849 
L 126.234159 55.224852 
L 136.790358 48.224693 
L 152.888822 70.940911 
L 177.793032 75.768247 
L 188.192975 92.451354 
L 204.513801 77.283236 
L 198.730448 78.749589 
L 200.457822 96.218395 
L 204.769821 105.154447 
L 226.75443 115.492288 
L 240.015473 124.879387 
L 260.022257 133.584261 
" style="fill:none;stroke:#8c564b;stroke-linecap:square;stroke-width:1.5;"/>
   </g>
   <g id="line2d_7">
    <path clip-path="url(#pd063d37c94)" d="M 140.670065 60.856565 
L 131.243809 37.25105 
L 115.005094 59.794566 
L 97.890907 47.786925 
L 80.223441 71.443684 
L 79.049628 93.811955 
L 53.01855 116.873812 
L 52.038194 142.187829 
L 76.256406 117.328744 
L 94.370317 113.276954 
L 68.472736 134.239316 
L 53.988454 155.910777 
L 35.359224 167.384046 
L 56.32056 160.350701 
L 75.485006 179.673941 
L 85.538159 156.05254 
L 87.435296 134.240924 
L 82.612848 155.104379 
L 73.673402 170.192327 
L 91.678794 152.901075 
L 86.787017 155.14213 
" style="fill:none;stroke:#e377c2;stroke-linecap:square;stroke-width:1.5;"/>
   </g>
   <g id="line2d_8">
    <path clip-path="url(#pd063d37c94)" d="M 165.018971 150.910907 
L 171.205059 161.73954 
L 173.38699 165.127589 
L 192.680698 146.665438 
L 167.359923 150.838266 
L 184.917684 167.85249 
L 164.332419 177.03169 
L 163.325998 193.820266 
L 173.589719 167.828562 
L 152.503721 164.986475 
L 131.394625 191.192515 
L 153.616046 209.010566 
L 129.039225 193.620887 
L 129.973331 172.471298 
L 122.116229 192.540198 
L 120.997555 205.989307 
L 120.488758 190.851721 
L 108.311265 216.309364 
L 99.651476 229.412707 
L 114.555735 246.848827 
L 135.127989 272.020173 
" style="fill:none;stroke:#7f7f7f;stroke-linecap:square;stroke-width:1.5;"/>
   </g>
   <g id="line2d_9">
    <path clip-path="url(#pd063d37c94)" d="M 192.767978 16.942433 
L 206.149081 29.117892 
L 206.940497 17.433909 
L 200.836822 18.0798 
L 205.197676 28.72858 
L 199.322403 23.302714 
L 215.803315 20.818084 
L 211.342059 16.828542 
L 186.381552 39.050001 
L 188.949542 13.178263 
L 204.250054 23.660715 
L 185.669186 22.848171 
L 191.908846 20.348432 
L 173.402765 15.6111 
L 170.549448 30.342059 
L 151.818849 55.5234 
L 144.74545 56.336403 
L 143.871213 42.661876 
L 168.827884 44.789946 
L 156.316493 69.322175 
L 177.540224 84.357162 
" style="fill:none;stroke:#000000;stroke-dasharray:1.5,2.475;stroke-dashoffset:0;stroke-width:1.5;"/>
   </g>
   <g id="line2d_10">
    <path clip-path="url(#pd063d37c94)" d="M 176.121868 174.528065 
L 185.438636 171.858888 
L 187.399937 184.958351 
L 183.825512 165.721503 
L 159.272154 185.344273 
L 161.015877 167.379557 
L 164.332419 177.03169 
L 163.325998 193.820266 
L 169.862516 176.179184 
L 149.37371 178.680363 
L 131.394625 191.192515 
L 153.616046 209.010566 
L 129.039225 193.620887 
L 129.973331 172.471298 
L 122.116229 192.540198 
L 120.997555 205.989307 
L 120.488758 190.851721 
L 108.311265 216.309364 
L 99.651476 229.412707 
L 114.555735 246.848827 
L 135.127989 272.020173 
" style="fill:none;stroke:#000000;stroke-dasharray:1.5,2.475;stroke-dashoffset:0;stroke-width:1.5;"/>
   </g>
   <g id="line2d_11">
    <path clip-path="url(#pd063d37c94)" d="M 201.780062 123.674239 
L 182.110461 139.812664 
L 162.466711 151.751089 
L 179.577334 125.277281 
L 167.359923 150.838266 
L 184.917684 167.85249 
L 183.954687 150.558346 
L 164.000959 165.965332 
L 173.589719 167.828562 
L 156.479076 162.868654 
L 150.156596 152.152253 
L 170.203929 138.979731 
L 175.696035 118.554397 
L 194.996257 115.480447 
L 196.89824 122.480889 
L 178.736148 126.645311 
L 187.389702 129.058121 
L 212.158331 130.172127 
L 204.854893 127.092592 
L 227.828341 149.089747 
L 250.884682 129.429495 
" style="fill:none;stroke:#000000;stroke-dasharray:1.5,2.475;stroke-dashoffset:0;stroke-width:1.5;"/>
   </g>
   <g id="line2d_12">
    <path clip-path="url(#pd063d37c94)" d="M 31.311467 143.955887 
L 20.000649 145.351024 
L 20.298485 147.529074 
L 16.615841 139.300534 
L 15.283213 133.986436 
L 26.200744 160.56301 
L 48.114653 183.496714 
L 39.055915 182.16898 
L 56.38631 193.828709 
L 48.122561 181.22116 
L 72.300976 190.00518 
L 83.80145 180.423205 
L 84.180834 203.523819 
L 79.478785 206.06789 
L 98.275399 218.019322 
L 82.588974 221.295865 
L 85.126396 196.761348 
L 78.243564 172.2306 
L 74.595491 174.270977 
L 68.215439 185.106099 
L 75.333842 200.960913 
" style="fill:none;stroke:#000000;stroke-dasharray:1.5,2.475;stroke-dashoffset:0;stroke-width:1.5;"/>
   </g>
   <g id="line2d_13">
    <path clip-path="url(#pd063d37c94)" d="M 187.111701 188.673366 
L 176.835683 180.940489 
L 159.914431 183.653499 
L 147.574051 205.88472 
L 167.683493 208.504104 
L 190.92328 185.664911 
L 184.645201 167.7688 
L 165.462607 192.039883 
L 171.793759 172.151661 
L 152.503721 164.986475 
L 147.581062 159.094763 
L 160.380403 143.888 
L 140.974846 118.928845 
L 150.532175 123.343875 
L 163.377286 108.600995 
L 169.032531 131.331979 
L 143.784424 110.144293 
L 136.635459 92.207829 
L 158.127088 111.356481 
L 164.051352 124.146275 
L 151.827623 106.386423 
" style="fill:none;stroke:#000000;stroke-dasharray:1.5,2.475;stroke-dashoffset:0;stroke-width:1.5;"/>
   </g>
   <g id="line2d_14">
    <path clip-path="url(#pd063d37c94)" d="M 96.592843 18.63936 
L 113.676381 22.45624 
L 94.79983 43.850503 
L 92.158959 45.749149 
L 80.223441 71.443684 
L 79.049628 93.811955 
L 53.01855 116.873812 
L 52.038194 142.187829 
L 76.256406 117.328744 
L 94.370317 113.276954 
L 68.472736 134.239316 
L 53.988454 155.910777 
L 35.359224 167.384046 
L 56.32056 160.350701 
L 75.485006 179.673941 
L 85.538159 156.05254 
L 87.435296 134.240924 
L 82.612848 155.104379 
L 73.673402 170.192327 
L 91.678794 152.901075 
L 86.787017 155.14213 
" style="fill:none;stroke:#000000;stroke-dasharray:1.5,2.475;stroke-dashoffset:0;stroke-width:1.5;"/>
   </g>
   <g id="line2d_15">
    <path clip-path="url(#pd063d37c94)" d="M 140.670065 60.856565 
L 131.243809 37.25105 
L 115.005094 59.794566 
L 97.890907 47.786925 
L 106.198187 42.666823 
L 104.713884 27.989793 
L 108.812417 12.011863 
L 99.037671 16.177888 
L 125.029699 39.622849 
L 126.234159 55.224852 
L 136.790358 48.224693 
L 152.888822 70.940911 
L 177.793032 75.768247 
L 188.192975 92.451354 
L 204.513801 77.283236 
L 198.730448 78.749589 
L 200.457822 96.218395 
L 204.769821 105.154447 
L 226.75443 115.492288 
L 240.015473 124.879387 
L 260.022257 133.584261 
" style="fill:none;stroke:#000000;stroke-dasharray:1.5,2.475;stroke-dashoffset:0;stroke-width:1.5;"/>
   </g>
   <g id="line2d_16">
    <path clip-path="url(#pd063d37c94)" d="M 165.018971 150.910907 
L 171.205059 161.73954 
L 173.38699 165.127589 
L 192.680698 146.665438 
L 204.594053 147.120463 
L 230.003217 140.838233 
L 256.265404 135.110812 
L 259.348928 144.539457 
L 235.207552 153.799989 
L 236.705068 176.416004 
L 211.122238 158.447078 
L 199.888774 162.984966 
L 179.691112 141.297017 
L 160.414609 133.115451 
L 181.518963 146.105847 
L 173.817828 132.044166 
L 162.112633 117.032272 
L 155.858829 115.155005 
L 154.089576 129.036071 
L 176.603216 128.843297 
L 193.638228 106.117315 
" style="fill:none;stroke:#000000;stroke-dasharray:1.5,2.475;stroke-dashoffset:0;stroke-width:1.5;"/>
   </g>
   <g id="patch_3">
    <path d="M 10.7 276.812 
L 10.7 10.7 
" style="fill:none;stroke:#000000;stroke-linecap:square;stroke-linejoin:miter;stroke-width:0.8;"/>
   </g>
   <g id="patch_4">
    <path d="M 276.812 276.812 
L 276.812 10.7 
" style="fill:none;stroke:#000000;stroke-linecap:square;stroke-linejoin:miter;stroke-width:0.8;"/>
   </g>
   <g id="patch_5">
    <path d="M 10.7 276.812 
L 276.812 276.812 
" style="fill:none;stroke:#000000;stroke-linecap:square;stroke-linejoin:miter;stroke-width:0.8;"/>
   </g>
   <g id="patch_6">
    <path d="M 10.7 10.7 
L 276.812 10.7 
" style="fill:none;stroke:#000000;stroke-linecap:square;stroke-linejoin:miter;stroke-width:0.8;"/>
   </g>
  </g>
 </g>
 <defs>
  <clipPath id="pd063d37c94">
   <rect height="266.112" width="266.112" x="10.7" y="10.7"/>
  </clipPath>
 </defs>
</svg>
