<?xml version="1.0" encoding="utf-8" standalone="no"?>
<!DOCTYPE svg PUBLIC "-//W3C//DTD SVG 1.1//EN"
  "http://www.w3.org/Graphics/SVG/1.1/DTD/svg11.dtd">
<!-- Created with matplotlib (https://matplotlib.org/) -->
<svg height="280.512pt" version="1.1" viewBox="0 0 280.512 280.512" width="280.512pt" xmlns="http://www.w3.org/2000/svg" xmlns:xlink="http://www.w3.org/1999/xlink">
 <defs>
  <style type="text/css">
*{stroke-linecap:butt;stroke-linejoin:round;}
  </style>
 </defs>
 <g id="figure_1">
  <g id="patch_1">
   <path d="M 0 280.512 
L 280.512 280.512 
L 280.512 0 
L 0 0 
z
" style="fill:#ffffff;"/>
  </g>
  <g id="axes_1">
   <g id="patch_2">
    <path clip-path="url(#p6c04fa2405)" d="M 140.256 261.216 
C 172.334967 261.216 203.104381 248.470891 225.787636 225.787636 
C 248.470891 203.104381 261.216 172.334967 261.216 140.256 
C 261.216 108.177033 248.470891 77.407619 225.787636 54.724364 
C 203.104381 32.041109 172.334967 19.296 140.256 19.296 
C 108.177033 19.296 77.407619 32.041109 54.724364 54.724364 
C 32.041109 77.407619 19.296 108.177033 19.296 140.256 
C 19.296 172.334967 32.041109 203.104381 54.724364 225.787636 
C 77.407619 248.470891 108.177033 261.216 140.256 261.216 
z
" style="fill:none;stroke:#000000;stroke-linejoin:miter;"/>
   </g>
   <g id="line2d_1">
    <path clip-path="url(#p6c04fa2405)" d="M 114.832056 119.619213 
L 118.413309 116.388606 
L 116.421773 112.114744 
L 118.833498 110.95909 
L 119.474286 111.880744 
L 125.12044 111.112308 
L 124.741739 109.234443 
L 127.188911 105.081762 
L 125.276127 102.426854 
L 125.133242 96.984666 
L 125.320912 97.635205 
L 119.690755 98.576158 
L 113.878604 99.352283 
L 116.968699 93.976282 
L 122.327994 99.453301 
L 124.858148 101.596661 
L 128.524912 100.415544 
L 134.289196 104.905228 
L 139.350847 107.302011 
L 143.628214 105.836531 
L 140.152607 103.323738 
L 144.528616 99.647364 
L 146.267702 99.107603 
L 142.604941 100.523134 
L 141.080989 103.154042 
L 145.221496 106.089703 
L 142.461496 100.600095 
L 138.294516 94.817363 
L 140.292382 98.474957 
L 141.955723 93.463303 
L 136.274019 96.06843 
L 132.824766 98.527739 
L 133.979264 94.73958 
L 135.697185 96.54164 
L 140.728495 94.381307 
L 145.569249 93.903286 
L 147.633402 90.338806 
L 152.990648 92.447398 
L 154.945858 91.458614 
L 154.260785 88.470844 
L 159.49128 90.618541 
L 159.381662 92.186919 
L 159.934386 90.419537 
L 158.171985 91.473308 
L 154.848345 93.176779 
L 160.031001 91.067793 
L 161.322537 94.007141 
L 160.846122 90.34105 
L 166.768404 91.594242 
L 168.816345 94.488105 
L 168.15797 97.265645 
L 172.020398 99.836425 
L 166.564569 94.090976 
L 161.086938 98.679095 
L 162.954579 103.491725 
L 162.870348 99.750959 
L 166.377191 95.041803 
L 168.04989 97.060213 
L 168.758765 94.344232 
L 168.657813 91.886947 
L 174.293294 93.90938 
L 168.717828 93.712 
L 169.184519 89.849469 
L 168.254002 91.839483 
L 167.355928 93.161586 
L 168.333709 95.748366 
L 169.458801 98.101814 
L 166.496898 92.766491 
L 167.681739 91.353592 
L 169.302051 87.203694 
L 166.819878 90.90938 
L 167.712818 91.229174 
L 170.497647 89.991295 
L 169.125667 89.299832 
L 171.878521 86.440066 
L 175.441237 82.357769 
L 175.483156 87.646145 
L 176.84715 82.591649 
L 175.087986 83.970248 
L 175.13708 86.75255 
L 176.942957 90.921978 
L 177.579888 88.309511 
L 181.515397 87.547071 
L 185.21174 88.54927 
L 181.113468 92.793969 
L 183.573139 91.405908 
L 185.038869 94.261279 
L 179.297222 97.816363 
L 180.926381 101.26917 
L 186.119347 101.330385 
L 180.243468 103.449049 
L 184.38324 104.471126 
L 180.855242 100.842774 
L 183.226614 94.983908 
L 189.253142 100.960505 
L 190.420774 99.203148 
L 184.921216 96.705448 
L 186.313001 102.734796 
L 186.458735 104.620069 
L 187.622051 101.093761 
L 184.370653 101.889004 
L 189.243569 96.830701 
L 191.902241 92.107581 
L 191.365001 93.375029 
L 187.192 90.796253 
L 191.166117 85.855606 
L 193.513475 86.887038 
L 194.693298 90.105626 
L 190.868238 91.415279 
L 187.005472 86.983747 
L 186.782812 87.793184 
L 180.973604 92.539113 
L 182.527094 95.6272 
L 188.383488 91.556509 
L 186.215696 94.964559 
L 184.093346 94.544016 
L 180.471892 94.125617 
L 176.103697 100.023571 
L 176.898386 98.971482 
L 178.835358 98.046269 
L 177.89889 97.421142 
L 181.227714 102.474889 
L 181.736189 98.504144 
L 183.380253 97.430918 
L 181.838353 98.391609 
L 186.971213 99.798402 
L 190.351533 101.2375 
L 189.338656 99.037013 
L 193.263744 104.813246 
L 193.604065 105.930095 
L 197.901378 109.860975 
L 200.718953 112.624445 
L 197.303532 118.075967 
L 191.922292 118.967706 
L 188.518249 117.286739 
L 192.627094 111.639399 
L 187.592928 110.664454 
L 191.616454 109.859672 
L 196.719866 104.862398 
L 196.432346 101.871355 
L 191.531667 97.373119 
L 194.462398 94.926561 
L 196.370326 90.192349 
L 197.292765 93.017823 
L 201.665268 97.715154 
L 206.559249 99.39868 
L 202.100293 96.448187 
L 202.604783 96.418486 
L 200.958899 95.555809 
L 205.0283 99.894222 
L 203.24415 102.252974 
L 203.24415 102.252974 
" style="fill:none;stroke:#1f77b4;stroke-linecap:square;stroke-width:1.5;"/>
   </g>
   <g id="line2d_2">
    <path clip-path="url(#p6c04fa2405)" d="M 127.901723 92.907235 
L 123.606666 90.150822 
L 124.86246 95.252206 
L 121.579252 93.15181 
L 123.798506 98.744713 
L 125.550236 104.095856 
L 131.009341 107.456197 
L 136.281 109.39371 
L 135.97757 106.380527 
L 137.704754 106.834245 
L 140.702118 111.664246 
L 137.397675 107.278261 
L 142.362569 109.43838 
L 148.187875 109.745503 
L 148.693705 105.928236 
L 154.576975 101.024573 
L 157.821078 103.592394 
L 153.561393 99.678507 
L 158.000532 100.608076 
L 156.895953 104.814203 
L 162.195182 106.298015 
L 165.988759 103.938012 
L 168.291985 100.856424 
L 167.859346 98.145044 
L 169.465728 93.948746 
L 167.487514 90.242981 
L 167.29424 84.693249 
L 170.705428 89.900578 
L 166.955441 85.586162 
L 163.747569 86.420934 
L 163.163377 83.351771 
L 167.729897 83.32714 
L 161.952274 80.494086 
L 163.037095 79.401579 
L 162.261357 81.978236 
L 162.18505 80.086281 
L 167.095598 83.083366 
L 172.36039 82.662944 
L 169.97102 83.281159 
L 167.210033 88.643587 
L 166.659387 85.593666 
L 172.493424 88.321678 
L 171.572692 85.007413 
L 170.840543 90.253677 
L 171.192468 90.096404 
L 170.980526 95.63068 
L 176.205691 89.839965 
L 181.465492 91.608918 
L 178.253517 90.811587 
L 182.115453 93.767284 
L 177.173792 93.56836 
L 180.338865 96.16839 
L 183.425558 96.268643 
L 187.075954 90.531388 
L 184.228969 86.386145 
L 181.28396 86.739488 
L 179.161182 86.655159 
L 184.16919 84.049355 
L 180.991496 87.677559 
L 181.193981 86.578285 
L 177.977602 82.438619 
L 180.603822 85.904471 
L 175.469821 82.885238 
L 171.216332 86.126675 
L 172.890414 84.545869 
L 170.319649 90.505972 
L 167.119183 95.254088 
L 163.746331 98.369007 
L 166.405454 96.368097 
L 161.615657 93.197317 
L 158.951476 97.758179 
L 163.736498 100.386018 
L 168.950664 99.964959 
L 172.546729 99.027642 
L 169.275695 103.403379 
L 174.470045 105.066993 
L 179.659208 102.487596 
L 179.305941 101.439362 
L 182.624017 106.078847 
L 180.531617 107.367465 
L 176.906986 102.573674 
L 173.258236 106.890786 
L 174.212493 109.353254 
L 175.262257 115.103022 
L 179.871911 118.429511 
L 185.654719 121.974899 
L 181.316276 116.324901 
L 184.801844 117.755525 
L 190.09855 121.173168 
L 190.066985 117.490684 
L 187.298802 116.906066 
L 191.796155 115.780969 
L 191.762947 114.19366 
L 194.94205 109.825054 
L 190.891678 114.281626 
L 193.568926 114.684623 
L 196.841043 109.678745 
L 200.261713 114.561533 
L 199.821375 115.862322 
L 200.987829 121.640017 
L 197.058289 125.089911 
L 194.116657 128.72118 
L 194.355175 124.419041 
L 195.618351 126.599569 
L 196.374707 129.201579 
L 190.80234 133.813354 
L 185.394727 132.490031 
L 188.956599 136.261081 
L 193.094165 135.007046 
L 187.079213 130.619229 
L 183.861718 135.244772 
L 187.412752 135.106682 
L 181.631564 137.874528 
L 176.270679 143.584228 
L 175.83505 145.086739 
L 173.398138 145.473374 
L 179.113646 144.270925 
L 177.432627 139.347904 
L 177.023059 140.302946 
L 179.56947 137.390608 
L 176.047262 140.20163 
L 173.175998 137.926049 
L 174.359988 131.994577 
L 178.104812 137.503452 
L 174.136685 143.535963 
L 177.921818 142.821802 
L 180.010198 139.408529 
L 182.543463 138.35529 
L 179.350317 143.371694 
L 178.797445 140.7362 
L 173.994982 145.729623 
L 178.103638 141.986633 
L 173.867766 137.749277 
L 170.764223 132.068996 
L 166.684327 131.904306 
L 172.319652 127.867386 
L 173.006588 129.505956 
L 176.673849 129.610166 
L 175.323781 131.106021 
L 176.934929 135.939984 
L 180.504764 131.229722 
L 184.431879 127.879449 
L 185.412044 128.774244 
L 184.469913 125.575072 
L 186.251345 124.399551 
L 186.21895 123.656896 
L 180.704131 128.782445 
L 176.136533 134.627604 
L 177.705887 137.359272 
L 180.172138 136.542697 
L 174.985819 139.699686 
L 174.985819 139.699686 
" style="fill:none;stroke:#ff7f0e;stroke-linecap:square;stroke-width:1.5;"/>
   </g>
   <g id="line2d_3">
    <path clip-path="url(#p6c04fa2405)" d="M 109.550167 106.554293 
L 110.288416 102.87381 
L 105.054956 106.093233 
L 108.508417 102.611773 
L 103.234276 106.474763 
L 101.421463 104.166355 
L 101.700596 101.787511 
L 101.910737 97.814365 
L 98.197954 95.891471 
L 99.146852 100.375387 
L 100.42371 101.982507 
L 103.011942 98.278539 
L 105.228133 92.85164 
L 102.425821 95.56052 
L 104.300369 99.59874 
L 104.177086 101.434744 
L 104.293089 106.980077 
L 101.252002 101.237861 
L 102.521617 102.587888 
L 102.547048 101.967256 
L 97.732199 98.806236 
L 94.846488 100.329373 
L 93.526578 104.813482 
L 88.475217 101.795292 
L 82.568479 102.229573 
L 83.610329 107.651637 
L 81.604879 108.559448 
L 86.679687 109.378753 
L 87.750003 107.043843 
L 93.656557 105.738504 
L 99.381762 102.693457 
L 97.466834 98.487701 
L 100.506664 93.203577 
L 96.993304 95.395379 
L 94.567897 92.611008 
L 95.563742 86.56324 
L 97.255941 84.904839 
L 99.906618 90.739767 
L 94.519992 85.047754 
L 100.349462 81.754222 
L 94.866433 77.434594 
L 98.439573 82.550591 
L 99.256835 84.194478 
L 104.265653 81.550876 
L 108.973916 81.0196 
L 111.654587 81.705683 
L 111.817794 87.234689 
L 114.032626 87.39182 
L 114.85213 83.024995 
L 113.055828 85.069207 
L 109.555174 86.33684 
L 110.209062 88.852 
L 110.250122 91.982837 
L 113.9067 86.597796 
L 111.19495 85.215097 
L 106.55322 89.469644 
L 105.301095 85.519255 
L 102.998997 81.898518 
L 100.136451 76.431998 
L 95.287934 72.958426 
L 97.329449 72.188958 
L 100.000746 68.430064 
L 97.329928 66.659274 
L 91.54882 70.588966 
L 96.093411 68.64105 
L 100.599097 64.061542 
L 105.408612 63.205544 
L 102.202623 59.88476 
L 102.799821 58.127918 
L 99.00477 62.079945 
L 96.189115 56.614368 
L 101.403995 61.670987 
L 96.828522 65.106457 
L 101.772576 60.719473 
L 104.113126 65.181492 
L 105.242671 65.339644 
L 106.236634 62.535423 
L 111.568193 64.722906 
L 111.688865 59.294305 
L 117.102206 64.224979 
L 120.197606 59.989834 
L 120.736868 54.507283 
L 126.55361 53.062023 
L 125.811282 59.038814 
L 120.689885 55.358541 
L 122.577896 50.260331 
L 119.550839 49.951938 
L 125.14815 54.793756 
L 129.478646 49.563 
L 130.16247 54.455741 
L 132.105437 59.982056 
L 135.618873 64.251066 
L 131.594778 62.576127 
L 127.510236 65.771244 
L 132.767692 61.458309 
L 134.12888 55.98947 
L 130.40202 53.588453 
L 135.030063 56.369394 
L 134.691674 52.23785 
L 130.118743 55.148708 
L 135.207017 49.332124 
L 138.118507 46.207508 
L 133.353807 49.969399 
L 129.29108 52.06889 
L 134.101589 51.487713 
L 138.801489 46.625525 
L 135.889354 48.619487 
L 141.672794 51.483222 
L 145.039701 55.121211 
L 142.000741 52.91597 
L 140.651654 49.599505 
L 139.487117 51.997815 
L 143.27712 53.051582 
L 145.381654 51.35886 
L 142.375403 53.670627 
L 148.403489 54.82185 
L 150.995854 50.235045 
L 154.002011 55.951336 
L 155.640129 56.957788 
L 154.402116 62.603233 
L 155.643542 57.469754 
L 159.240777 54.209005 
L 162.079746 50.033792 
L 158.611381 50.75294 
L 154.204265 47.347275 
L 158.408941 45.229176 
L 162.311603 46.679823 
L 164.171164 41.235085 
L 158.337377 37.510075 
L 157.499104 41.004154 
L 159.848417 41.358233 
L 157.157894 46.820232 
L 162.703448 52.475004 
L 162.074963 50.522801 
L 161.687025 54.061721 
L 156.451974 57.904405 
L 157.557346 58.559409 
L 152.599795 57.500298 
L 158.441604 59.944857 
L 152.773279 57.684413 
L 157.977833 61.298823 
L 156.305246 63.62576 
L 154.907348 66.681303 
L 153.277841 63.737989 
L 149.972102 64.567493 
L 154.367358 62.537488 
L 148.605982 59.567764 
L 153.580483 63.869585 
L 147.590837 65.732637 
L 148.154209 65.165661 
L 147.17568 69.683965 
L 147.17568 69.683965 
" style="fill:none;stroke:#2ca02c;stroke-linecap:square;stroke-width:1.5;"/>
   </g>
   <g id="line2d_4">
    <path clip-path="url(#p6c04fa2405)" d="M 73.371856 175.74913 
L 70.538065 175.610475 
L 68.758342 172.788492 
L 63.326149 169.17702 
L 66.336882 170.511609 
L 66.688186 167.484945 
L 67.380589 169.192027 
L 65.839655 173.932369 
L 68.101538 174.723608 
L 69.558339 170.957438 
L 69.745015 167.864047 
L 71.106723 172.315258 
L 65.925401 174.737403 
L 60.361218 172.972365 
L 65.400035 169.441881 
L 61.616569 171.056044 
L 55.870817 168.248668 
L 57.736172 169.513743 
L 62.320267 173.938915 
L 56.390902 178.673092 
L 54.7672 181.854429 
L 50.682176 185.199859 
L 56.080623 179.623405 
L 58.953542 173.715671 
L 54.686838 177.493521 
L 49.937522 177.582659 
L 44.987684 176.873503 
L 49.671656 181.345331 
L 48.102581 186.257477 
L 53.5756 188.640558 
L 51.256011 190.37596 
L 48.844996 194.505611 
L 44.459802 188.737331 
L 38.862417 186.174636 
L 34.712145 180.288744 
L 30.433071 185.759116 
L 30.14661 185.861781 
L 31.385018 183.905608 
L 36.406349 179.075783 
L 38.715381 180.818009 
L 34.930939 185.086302 
L 34.52099 182.425096 
L 36.966451 184.722614 
L 38.264432 187.101065 
L 36.794672 190.964273 
L 37.138016 196.847057 
L 41.293024 198.035107 
L 38.672597 203.698265 
L 41.587692 198.798113 
L 44.541162 196.077548 
L 44.371294 199.148336 
L 47.249536 203.188754 
L 51.607609 208.708063 
L 50.957334 214.402047 
L 50.093682 217.685181 
L 50.752001 217.144132 
L 50.613036 218.721817 
L 55.377951 218.875544 
L 60.608443 223.676799 
L 64.804365 221.330843 
L 61.057676 220.986941 
L 60.654783 226.703058 
L 58.320435 225.478087 
L 56.781969 219.779594 
L 62.468756 220.847833 
L 59.019032 224.89342 
L 59.274282 226.969699 
L 61.511159 224.750543 
L 56.881625 226.442606 
L 62.487622 227.278045 
L 58.553759 225.650214 
L 55.703165 225.81176 
L 61.321108 226.991421 
L 60.6928 230.845275 
L 64.616847 231.219027 
L 64.956809 232.635864 
L 62.084298 228.801952 
L 57.344114 227.520745 
L 60.850592 226.098809 
L 63.517274 226.412756 
L 67.352526 225.736788 
L 70.634297 224.338359 
L 72.94338 223.95823 
L 75.549537 218.344902 
L 76.687017 221.957179 
L 79.592454 218.774607 
L 81.736882 221.534801 
L 76.920152 226.990715 
L 72.477615 221.817119 
L 68.916752 218.518741 
L 67.2557 217.784324 
L 62.865204 217.358965 
L 65.406663 217.215191 
L 70.066785 218.047091 
L 74.879266 216.74231 
L 80.641117 218.203479 
L 81.079189 214.242386 
L 83.177107 212.253684 
L 84.571617 215.260296 
L 80.514948 217.637221 
L 84.588248 219.496354 
L 89.039695 224.498226 
L 95.054061 229.549637 
L 90.752266 227.056209 
L 89.81001 226.221104 
L 88.707818 231.323475 
L 84.531906 232.727429 
L 86.436551 232.031152 
L 85.465749 225.988565 
L 80.586213 222.093004 
L 85.250622 227.499939 
L 90.929109 226.341023 
L 86.966403 221.022399 
L 91.545558 224.885676 
L 87.232387 220.74835 
L 85.718561 220.073646 
L 88.275156 221.880334 
L 83.208502 217.282917 
L 83.468833 212.905287 
L 83.786251 218.093969 
L 85.614208 212.882072 
L 82.644966 210.379394 
L 81.684421 216.391305 
L 82.210835 220.803084 
L 77.438589 226.413449 
L 71.86375 221.280348 
L 77.194182 215.901662 
L 76.295454 218.627205 
L 73.641275 216.403156 
L 75.59008 216.988941 
L 74.461047 222.993846 
L 77.715431 222.194643 
L 78.826035 218.114319 
L 81.092346 222.411593 
L 81.934678 222.275181 
L 78.827459 226.163439 
L 82.255621 232.199254 
L 79.312233 235.128846 
L 76.454814 236.506336 
L 78.118206 231.512552 
L 78.177637 226.161491 
L 76.370089 231.146402 
L 72.73867 226.251585 
L 74.965532 223.361381 
L 78.314126 219.47115 
L 74.097239 220.76475 
L 77.045743 215.648861 
L 71.285469 220.239035 
L 72.508268 226.102663 
L 69.106973 228.380276 
L 69.106973 228.380276 
" style="fill:none;stroke:#d62728;stroke-linecap:square;stroke-width:1.5;"/>
   </g>
   <g id="line2d_5">
    <path clip-path="url(#p6c04fa2405)" d="M 174.464003 142.38882 
L 176.985494 136.944488 
L 182.854743 137.926235 
L 183.504145 142.292205 
L 180.76319 136.369466 
L 177.214335 134.777308 
L 174.23662 139.68936 
L 177.694586 140.376126 
L 180.54793 142.157916 
L 181.531173 141.025137 
L 177.57408 135.431982 
L 183.02263 139.524818 
L 180.806843 134.247543 
L 186.127099 129.980527 
L 183.343542 132.22108 
L 185.508104 130.158355 
L 181.755118 128.948739 
L 182.442525 125.578477 
L 187.184142 131.079077 
L 190.850449 129.012433 
L 192.974699 123.004075 
L 190.803911 124.084969 
L 188.121654 129.632345 
L 188.978066 127.479088 
L 194.146453 131.585087 
L 188.372435 130.127394 
L 191.501239 132.372554 
L 196.17032 128.116138 
L 196.412821 128.079837 
L 191.6956 132.543646 
L 195.72163 131.766836 
L 191.916517 135.583249 
L 194.448865 137.511723 
L 193.817893 132.058842 
L 193.899583 129.530432 
L 191.96246 131.510435 
L 189.566941 131.690152 
L 185.299984 132.46696 
L 185.290479 126.918074 
L 187.034908 132.413317 
L 185.888971 126.695641 
L 188.665194 125.325675 
L 186.3725 125.006304 
L 191.279889 119.547531 
L 186.934064 119.488928 
L 183.535225 123.20666 
L 184.219885 127.615141 
L 188.456881 129.611673 
L 194.070631 134.249407 
L 188.582893 135.888787 
L 183.006325 130.325744 
L 188.984693 130.81812 
L 185.089187 127.263206 
L 189.735504 125.405582 
L 192.433201 119.709469 
L 196.013577 123.589418 
L 197.817513 124.618944 
L 202.382373 130.648743 
L 200.697288 132.106972 
L 203.256821 129.637362 
L 197.752062 131.739077 
L 193.095485 132.846708 
L 195.059246 127.631772 
L 197.434958 129.788458 
L 194.898788 128.809038 
L 194.963241 128.106631 
L 194.548868 124.368728 
L 190.416185 122.154892 
L 193.649924 125.592562 
L 187.813163 127.519171 
L 188.585779 129.720136 
L 189.356722 133.53905 
L 193.047068 138.439945 
L 187.735162 142.164131 
L 185.10267 136.911501 
L 183.873589 141.282876 
L 181.70381 139.439172 
L 187.002472 134.720975 
L 192.205497 135.589383 
L 193.492649 134.278384 
L 196.638466 129.310983 
L 200.630058 126.348938 
L 199.322275 132.260366 
L 201.227645 129.950253 
L 206.411132 134.493959 
L 208.604674 139.845255 
L 209.994283 144.955506 
L 206.966173 141.211973 
L 203.382047 137.759109 
L 202.450778 135.632302 
L 206.591736 136.036534 
L 205.900466 137.035119 
L 201.457435 142.668895 
L 203.864262 144.054199 
L 202.944126 142.664667 
L 197.371016 140.857233 
L 195.017 138.103426 
L 200.723227 142.822014 
L 206.026625 145.59421 
L 201.760116 146.11612 
L 205.909162 141.103207 
L 211.47903 145.891097 
L 205.434334 150.858927 
L 201.643876 148.881964 
L 203.562299 143.778547 
L 200.596502 142.348866 
L 204.117003 140.006335 
L 209.336535 144.980867 
L 209.43089 143.129277 
L 205.385747 138.757795 
L 199.801408 143.740621 
L 194.120532 146.152868 
L 194.731936 143.24206 
L 192.152252 147.746278 
L 186.802276 150.771876 
L 182.940907 147.484834 
L 177.759031 141.711176 
L 181.778478 146.196028 
L 178.453467 145.446201 
L 172.643691 149.352851 
L 170.163791 144.626017 
L 174.913376 149.448599 
L 172.606938 145.581729 
L 177.626777 146.220428 
L 173.226998 143.329742 
L 166.412051 139.490337 
L 160.837111 134.132541 
L 161.831898 128.37819 
L 163.860336 131.416327 
L 167.365876 128.620436 
L 166.32717 132.0563 
L 162.699579 128.006788 
L 168.492226 127.395734 
L 164.024108 123.565234 
L 159.529899 122.900645 
L 158.402985 118.419208 
L 161.910282 118.954647 
L 162.58087 113.144977 
L 158.704646 116.000411 
L 162.204361 118.037004 
L 164.485623 118.913378 
L 168.259128 117.908372 
L 169.81209 114.557275 
L 174.289173 110.990674 
L 173.865346 113.30481 
L 179.351071 111.447293 
L 182.589601 113.438989 
L 179.475119 119.095968 
L 184.239664 124.867382 
L 184.239664 124.867382 
" style="fill:none;stroke:#9467bd;stroke-linecap:square;stroke-width:1.5;"/>
   </g>
   <g id="line2d_6">
    <path clip-path="url(#p6c04fa2405)" d="M 140.68537 105.040275 
L 144.359497 104.72642 
L 140.745466 107.705198 
L 137.339307 103.457312 
L 140.071996 106.682586 
L 143.095754 104.684876 
L 138.949758 100.345915 
L 137.593137 105.970462 
L 138.053157 100.062885 
L 139.505392 95.161636 
L 134.018532 89.79125 
L 135.733815 89.123248 
L 136.580026 85.999632 
L 136.422306 86.651423 
L 139.862734 80.689501 
L 134.586422 75.802889 
L 135.454995 72.452547 
L 131.416337 77.170379 
L 136.72767 77.821294 
L 139.202386 79.376387 
L 142.82778 75.670166 
L 138.947672 76.575099 
L 141.15333 71.745098 
L 146.918292 69.459689 
L 142.006402 71.817029 
L 137.347025 76.300458 
L 136.18667 82.216977 
L 137.109687 77.655518 
L 136.062954 80.101693 
L 138.175142 83.635112 
L 136.89732 83.417803 
L 138.029368 89.126102 
L 142.447115 88.262409 
L 145.859666 88.509474 
L 145.428136 84.774426 
L 146.712958 82.670578 
L 142.848736 88.201273 
L 139.512751 82.555496 
L 136.307819 86.570382 
L 138.997086 85.429813 
L 139.52978 82.46422 
L 138.307593 81.655657 
L 141.620489 86.408535 
L 143.662184 83.052708 
L 142.715775 85.751896 
L 146.837786 80.186628 
L 142.631293 76.975054 
L 142.386926 72.802389 
L 146.733232 68.037659 
L 147.866014 67.015484 
L 144.109749 66.213239 
L 140.88542 70.680343 
L 137.9916 66.394425 
L 132.601276 65.229366 
L 135.854134 62.935208 
L 132.22222 68.610678 
L 128.568458 68.765564 
L 126.355522 66.526333 
L 128.238946 63.987956 
L 125.931656 62.071421 
L 131.378431 62.980081 
L 126.459734 57.258675 
L 122.100429 55.711509 
L 117.271288 56.707399 
L 116.219193 54.729764 
L 117.647611 52.542079 
L 123.307091 46.580996 
L 118.32385 51.220026 
L 120.186795 46.462911 
L 119.112608 49.660071 
L 115.855832 48.137922 
L 117.93468 52.053619 
L 115.97242 51.417636 
L 111.86972 45.748537 
L 110.426278 48.954067 
L 113.667043 49.167975 
L 113.824171 45.991445 
L 114.503301 40.206136 
L 116.113559 46.250747 
L 118.114017 44.106809 
L 119.882613 45.855359 
L 119.533731 49.625519 
L 114.669487 53.134153 
L 115.733861 48.217504 
L 120.399498 49.39493 
L 115.590518 50.471609 
L 112.324183 48.955566 
L 109.539843 50.590489 
L 114.237528 50.231729 
L 115.940297 52.575988 
L 116.660698 51.83633 
L 120.261609 52.888947 
L 122.214202 50.48328 
L 119.502082 52.371928 
L 116.163322 52.931192 
L 114.577212 56.714367 
L 112.024214 54.195842 
L 111.82269 57.012017 
L 113.816519 57.542155 
L 113.157245 60.419745 
L 114.408198 60.518334 
L 119.52545 61.513739 
L 113.837005 67.278805 
L 116.118031 62.986074 
L 114.99545 63.114321 
L 119.415211 64.107969 
L 123.035468 62.335973 
L 128.138977 67.880593 
L 130.509831 67.258295 
L 129.909891 67.428016 
L 129.03139 70.507927 
L 131.269913 65.958872 
L 131.390254 61.369901 
L 127.035938 59.451103 
L 123.679504 63.542721 
L 121.676441 66.854173 
L 121.500972 71.60219 
L 120.652744 73.1019 
L 117.492059 69.485007 
L 121.775244 73.016601 
L 117.215026 75.171195 
L 117.070438 73.374312 
L 112.077704 75.827433 
L 114.399902 74.710553 
L 113.447852 71.598785 
L 110.788757 66.793424 
L 115.258988 61.289567 
L 120.319643 58.439306 
L 119.764033 55.449661 
L 115.14048 50.927364 
L 118.479078 48.339695 
L 121.212158 44.396648 
L 123.235649 38.809988 
L 117.561706 39.080702 
L 120.050898 33.065432 
L 116.204558 36.2482 
L 114.910803 40.8622 
L 109.755168 39.647793 
L 106.204245 35.29231 
L 110.274687 33.275149 
L 105.695403 32.082645 
L 104.361278 36.206309 
L 99.775372 38.442176 
L 102.298153 35.397641 
L 104.99133 35.737951 
L 106.069871 37.485398 
L 102.00909 32.214434 
L 98.46748 35.186573 
L 92.833885 37.67475 
L 97.894083 41.886769 
L 94.145855 38.07968 
L 94.145855 38.07968 
" style="fill:none;stroke:#8c564b;stroke-linecap:square;stroke-width:1.5;"/>
   </g>
  </g>
 </g>
 <defs>
  <clipPath id="p6c04fa2405">
   <rect height="266.112" width="266.112" x="7.2" y="7.2"/>
  </clipPath>
 </defs>
</svg>
