<?xml version="1.0" encoding="utf-8" standalone="no"?>
<!DOCTYPE svg PUBLIC "-//W3C//DTD SVG 1.1//EN"
  "http://www.w3.org/Graphics/SVG/1.1/DTD/svg11.dtd">
<!-- Created with matplotlib (https://matplotlib.org/) -->
<svg height="280.512pt" version="1.1" viewBox="0 0 280.512 280.512" width="280.512pt" xmlns="http://www.w3.org/2000/svg" xmlns:xlink="http://www.w3.org/1999/xlink">
 <defs>
  <style type="text/css">
*{stroke-linecap:butt;stroke-linejoin:round;}
  </style>
 </defs>
 <g id="figure_1">
  <g id="patch_1">
   <path d="M 0 280.512 
L 280.512 280.512 
L 280.512 0 
L 0 0 
z
" style="fill:#ffffff;"/>
  </g>
  <g id="axes_1">
   <g id="patch_2">
    <path clip-path="url(#p1360600214)" d="M 140.256 261.216 
C 172.334967 261.216 203.104381 248.470891 225.787636 225.787636 
C 248.470891 203.104381 261.216 172.334967 261.216 140.256 
C 261.216 108.177033 248.470891 77.407619 225.787636 54.724364 
C 203.104381 32.041109 172.334967 19.296 140.256 19.296 
C 108.177033 19.296 77.407619 32.041109 54.724364 54.724364 
C 32.041109 77.407619 19.296 108.177033 19.296 140.256 
C 19.296 172.334967 32.041109 203.104381 54.724364 225.787636 
C 77.407619 248.470891 108.177033 261.216 140.256 261.216 
z
" style="fill:none;stroke:#000000;stroke-linejoin:miter;"/>
   </g>
   <g id="line2d_1">
    <path clip-path="url(#p1360600214)" d="M 135.710139 118.737612 
L 135.168479 122.325759 
L 132.016048 124.123082 
L 130.993781 127.604915 
L 130.257971 124.051497 
L 130.902946 120.480476 
L 132.39012 117.170415 
L 133.07599 120.733808 
L 129.707856 119.383302 
L 129.151569 115.797395 
L 125.675966 114.754144 
L 121.028582 109.180295 
L 127.501124 105.898114 
L 129.718377 103.025487 
L 129.091131 106.599666 
L 132.674263 107.173555 
L 133.153212 103.576501 
L 136.696237 104.360825 
L 138.205096 107.661057 
L 139.45108 111.06924 
L 138.887243 114.653969 
L 136.211332 117.105027 
L 135.163058 120.579119 
L 132.625526 123.173173 
L 135.201585 125.728972 
L 133.772363 122.393479 
L 134.594386 125.927948 
L 132.730511 122.814403 
L 133.77455 119.339037 
L 137.372497 118.866845 
L 138.957821 122.131035 
L 142.584467 122.256042 
L 144.89825 119.460581 
L 141.817914 117.542321 
L 140.961838 121.068697 
L 143.383879 123.7709 
L 142.229266 127.211112 
L 139.173716 125.253614 
L 138.655957 128.845287 
L 137.2472 125.501099 
L 140.826904 124.906201 
L 144.024314 126.622233 
L 140.860517 124.844994 
L 144.011367 123.044901 
L 147.618282 123.44283 
L 148.489186 126.965572 
L 148.376696 123.338516 
L 146.1177 126.178433 
L 143.059431 124.225185 
L 141.285344 121.05962 
L 142.35357 117.591611 
L 145.954406 118.04124 
L 144.595326 114.676557 
L 147.855677 116.269763 
L 148.814357 112.769889 
L 147.656685 109.330705 
L 145.176975 111.980087 
L 148.254714 110.057664 
L 147.031963 106.641077 
L 143.575433 107.745879 
L 144.425762 111.273645 
L 147.3628 113.404841 
L 143.745156 113.689171 
L 144.183499 117.291399 
L 140.582834 117.742397 
L 139.774412 121.280002 
L 143.116061 122.694773 
L 144.550256 119.361415 
L 142.700477 122.483355 
L 139.985918 120.075169 
L 137.442447 117.486937 
L 139.258561 120.62858 
L 139.226132 116.999925 
L 141.884702 114.530068 
L 145.255946 115.87279 
L 143.887515 119.233681 
L 142.843097 122.708933 
L 143.358406 126.300959 
L 140.305383 128.262397 
L 137.473803 130.531835 
L 133.882907 130.008715 
L 136.836468 132.116952 
L 137.465429 128.543075 
L 138.810261 131.913478 
L 142.242486 130.735336 
L 138.803294 129.577691 
L 139.822913 133.0603 
L 138.366401 129.736633 
L 134.738525 129.818546 
L 136.382637 126.583568 
L 139.765151 127.897641 
L 138.382759 124.542468 
L 141.554953 126.304676 
L 145.160958 125.898575 
L 146.323475 122.461026 
L 148.222808 125.553068 
L 149.55535 128.928349 
L 153.177974 128.716729 
L 156.756801 129.316884 
L 160.062665 130.813366 
L 156.451579 131.171491 
L 153.954076 128.538875 
L 154.508101 124.952617 
L 155.544793 128.430182 
L 153.384328 125.514607 
L 155.087988 122.310589 
L 155.721367 125.883686 
L 153.353272 123.134083 
L 154.771622 119.793952 
L 158.090591 118.326766 
L 154.472727 118.608279 
L 151.618575 116.367296 
L 149.89434 119.560289 
L 152.312227 116.854368 
L 152.917742 120.432292 
L 156.539562 120.657255 
L 152.984137 119.931209 
L 156.267745 121.475911 
L 152.638968 121.488828 
L 151.814487 117.954932 
L 150.531519 121.349366 
L 147.650856 123.556167 
L 146.715398 120.050014 
L 150.08809 118.710931 
L 150.514733 115.107299 
L 154.130768 115.411403 
L 152.764679 112.04956 
L 154.670398 108.961449 
L 157.720413 106.995338 
L 155.736345 110.033703 
L 156.391292 113.602909 
L 155.930204 117.202296 
L 154.496355 113.86879 
L 157.286555 116.188913 
L 157.881912 112.609284 
L 158.836439 109.108275 
L 160.037016 105.683833 
L 157.019989 107.700201 
L 154.979515 104.699425 
L 158.472552 103.716123 
L 160.421141 106.777364 
L 161.713356 110.168288 
L 158.904386 107.870925 
L 161.194348 110.685933 
L 158.427747 108.337718 
L 157.272087 104.897858 
L 154.078293 106.620609 
L 150.952547 108.46395 
L 153.720685 110.810352 
L 153.720685 110.810352 
" style="fill:none;stroke:#1f77b4;stroke-linecap:square;stroke-width:1.5;"/>
   </g>
   <g id="line2d_2">
    <path clip-path="url(#p1360600214)" d="M 124.365172 117.074815 
L 127.914848 116.321163 
L 127.264692 112.75108 
L 125.957714 116.136342 
L 128.923176 114.044877 
L 125.662411 115.637235 
L 123.811694 118.758619 
L 120.429795 117.442962 
L 119.299592 113.994653 
L 122.603831 115.494719 
L 122.385178 119.116925 
L 119.993181 116.38809 
L 116.364962 116.323155 
L 114.397232 113.274184 
L 117.718723 114.735652 
L 118.042658 118.349964 
L 117.494439 114.762814 
L 118.824093 118.139234 
L 117.233298 114.877707 
L 115.934921 118.266277 
L 112.341307 118.77039 
L 110.693782 122.003632 
L 113.288355 119.466629 
L 115.465668 122.369644 
L 115.162071 125.985722 
L 118.595022 127.16175 
L 114.979391 126.852871 
L 112.402608 124.297802 
L 110.711998 121.086879 
L 114.233584 121.962447 
L 113.371628 118.437504 
L 116.565385 116.714686 
L 114.784235 113.553089 
L 116.169873 116.906923 
L 114.778727 113.555371 
L 115.548506 110.009157 
L 112.258683 111.54058 
L 108.658516 111.085619 
L 105.256183 112.34749 
L 101.675742 111.757042 
L 104.157564 114.404446 
L 100.547898 114.776599 
L 104.011479 115.859093 
L 105.856108 112.734108 
L 109.052766 114.451538 
L 111.443063 117.181863 
L 110.938671 113.588288 
L 107.37088 114.250899 
L 104.115666 115.854574 
L 107.174097 117.807569 
L 103.760342 116.576932 
L 101.014458 114.204526 
L 102.017703 117.691887 
L 103.640022 114.445924 
L 106.799914 112.661753 
L 103.382262 113.881524 
L 106.951964 113.229286 
L 103.361363 112.704147 
L 101.048778 109.907695 
L 97.421476 110.011935 
L 98.25989 106.481319 
L 105.401352 105.189549 
L 107.94115 102.597712 
L 105.955453 99.560411 
L 108.911174 97.455203 
L 111.400833 94.815167 
L 107.779299 94.585636 
L 104.887464 92.393495 
L 107.503082 94.908794 
L 111.127739 95.082154 
L 112.435921 98.466951 
L 112.435702 94.838151 
L 116.01469 94.238958 
L 112.435849 93.638884 
L 109.454763 95.708019 
L 113.037867 96.282093 
L 111.43148 99.535969 
L 110.794226 103.108377 
L 113.946208 104.906488 
L 112.788784 101.467221 
L 115.752959 103.560509 
L 119.372844 103.3063 
L 122.891818 104.192307 
L 126.230926 105.613062 
L 127.588516 108.978347 
L 130.957158 107.62911 
L 132.673374 110.82642 
L 135.689812 112.843669 
L 135.273552 109.238822 
L 132.288387 111.302067 
L 132.980675 114.864219 
L 129.739896 113.231571 
L 132.021629 110.409889 
L 135.121842 108.523924 
L 135.412001 112.141105 
L 138.578433 110.368564 
L 137.547911 113.847963 
L 140.72998 112.103651 
L 143.98478 113.708165 
L 147.605873 113.471798 
L 147.915 109.856189 
L 148.749238 106.324584 
L 148.263619 102.728424 
L 144.659685 102.304341 
L 142.599529 99.317043 
L 146.154209 98.587358 
L 149.612971 99.685152 
L 146.02011 100.194598 
L 143.452852 97.629958 
L 139.827325 97.475864 
L 143.454394 97.363767 
L 140.446971 99.394431 
L 136.818906 99.467463 
L 134.550457 96.635091 
L 138.139813 96.101506 
L 134.538669 96.548664 
L 130.921171 96.262494 
L 129.73129 92.83432 
L 132.375104 95.319966 
L 130.746093 98.562575 
L 127.459436 97.024369 
L 126.936615 93.433429 
L 124.638638 90.624961 
L 122.056154 93.174268 
L 125.453546 91.899153 
L 128.992656 91.097349 
L 130.787189 87.943329 
L 133.180157 85.215345 
L 132.017394 81.77788 
L 132.345602 78.163952 
L 134.334629 81.199074 
L 130.746182 80.659406 
L 127.474176 82.228534 
L 131.094164 81.975801 
L 133.384954 84.790135 
L 136.667394 83.242953 
L 139.488874 80.96097 
L 143.055787 81.628292 
L 145.312903 84.469703 
L 147.005626 87.679513 
L 143.759405 86.057712 
L 140.342299 84.83641 
L 136.744659 84.36188 
L 137.827203 80.898314 
L 139.906139 83.872572 
L 136.722704 85.614391 
L 134.534197 88.508976 
L 135.965942 85.174565 
L 135.364473 88.753172 
L 132.800767 91.321362 
L 132.800767 91.321362 
" style="fill:none;stroke:#ff7f0e;stroke-linecap:square;stroke-width:1.5;"/>
   </g>
   <g id="line2d_3">
    <path clip-path="url(#p1360600214)" d="M 170.083288 52.939491 
L 166.823501 51.345132 
L 164.679271 48.417596 
L 166.764471 51.387467 
L 163.260565 52.331308 
L 159.631913 52.364122 
L 163.101593 51.301335 
L 166.659144 52.016891 
L 169.34403 54.458116 
L 166.11658 56.116958 
L 168.536858 58.820742 
L 171.154302 61.334142 
L 168.693135 58.667525 
L 168.904444 55.044882 
L 167.344978 51.768259 
L 170.831765 50.763019 
L 173.107515 53.589528 
L 174.469279 50.22593 
L 177.684655 51.908056 
L 178.775449 48.447079 
L 176.470799 45.644085 
L 175.562588 49.157394 
L 171.945959 48.860433 
L 173.280023 52.235113 
L 172.263715 55.71869 
L 168.970338 57.242454 
L 167.478778 60.550541 
L 170.464051 58.487451 
L 167.251312 56.800293 
L 163.741242 55.879642 
L 164.039366 59.496175 
L 161.201929 61.758285 
L 157.848927 60.370636 
L 157.0648 56.827568 
L 155.829519 53.415491 
L 152.659075 55.180846 
L 155.349069 57.616441 
L 153.955665 60.967055 
L 153.611681 57.354595 
L 150.188126 56.151492 
L 149.877595 52.536003 
L 149.081546 48.995594 
L 148.63494 52.596807 
L 146.062308 55.156055 
L 143.013075 53.188729 
L 144.523308 49.889126 
L 144.948863 46.285365 
L 146.683656 43.098096 
L 148.698712 46.115999 
L 151.794417 44.222642 
L 150.984835 47.759981 
L 154.169793 46.020948 
L 151.466373 43.600265 
L 155.067668 44.046204 
L 158.470015 45.308037 
L 161.197016 47.702125 
L 157.843256 46.31631 
L 154.769638 48.245316 
L 151.601572 46.475698 
L 154.764906 44.697634 
L 157.786189 46.707618 
L 157.510542 50.325934 
L 158.99055 53.639205 
L 162.084756 55.53501 
L 165.60758 56.405586 
L 162.274402 57.840199 
L 165.822521 57.079252 
L 169.449376 56.960444 
L 172.683253 55.314168 
L 176.296668 54.980371 
L 178.89034 57.518294 
L 177.228071 60.743981 
L 176.587307 57.172201 
L 176.984712 53.565227 
L 173.39731 53.018657 
L 176.734373 54.444208 
L 180.098451 53.083629 
L 176.47537 52.879964 
L 173.229568 54.502601 
L 174.521231 51.111466 
L 176.726724 53.993131 
L 179.505781 51.659673 
L 183.129469 51.467111 
L 180.278036 49.222669 
L 180.561995 52.840341 
L 178.108065 50.167063 
L 181.623758 51.066005 
L 182.973422 47.697534 
L 186.243695 46.124797 
L 183.206734 48.111014 
L 181.044372 51.025183 
L 183.896183 48.781222 
L 183.282933 45.204615 
L 186.911656 45.228242 
L 190.454584 46.013006 
L 190.166187 42.395684 
L 191.249219 38.932271 
L 191.45792 42.555065 
L 190.473757 46.047859 
L 186.960115 45.140935 
L 185.269928 41.929789 
L 188.662138 40.640953 
L 192.288871 40.763419 
L 195.457079 42.532783 
L 196.150457 38.970843 
L 199.040026 36.775716 
L 195.458033 36.194754 
L 192.394111 38.139124 
L 195.173413 35.805956 
L 195.953329 33.628372 
L 199.376251 34.833278 
L 195.916901 35.220461 
L 195.788385 38.846985 
L 198.14938 36.091283 
L 196.60028 34.519639 
L 193.388609 36.208827 
L 196.998398 35.837863 
L 193.374947 35.640901 
L 191.45825 32.559593 
L 189.405469 30.416307 
L 186.154839 28.803361 
L 182.770669 30.113165 
L 183.65111 28.131089 
L 181.060216 28.592949 
L 180.721658 32.205921 
L 181.788565 35.674336 
L 185.28066 36.660978 
L 185.693841 40.266178 
L 189.317724 40.45502 
L 188.516649 43.994295 
L 185.166767 42.599131 
L 181.973862 44.323529 
L 182.221389 40.703181 
L 183.161861 37.19837 
L 183.846873 33.634811 
L 184.162331 30.019749 
L 183.616272 28.59421 
L 181.921509 31.802943 
L 179.00042 29.649939 
L 181.212457 32.526583 
L 178.003444 30.83235 
L 181.503313 31.791048 
L 177.913105 32.31887 
L 174.310509 31.88357 
L 175.167335 35.409764 
L 173.468457 32.203207 
L 176.237948 34.548012 
L 176.783022 38.135641 
L 180.109749 36.686133 
L 178.842741 40.086557 
L 179.332277 43.682185 
L 179.332277 43.682185 
" style="fill:none;stroke:#2ca02c;stroke-linecap:square;stroke-width:1.5;"/>
   </g>
   <g id="line2d_4">
    <path clip-path="url(#p1360600214)" d="M 204.586122 42.688857 
L 202.538648 45.684862 
L 204.855873 42.892254 
L 208.302646 44.027131 
L 204.691383 44.38346 
L 205.712972 40.901428 
L 203.477212 38.043183 
L 202.778425 41.604066 
L 205.050125 38.774301 
L 201.421919 38.708661 
L 199.368282 35.716878 
L 199.828066 39.316432 
L 201.155237 35.939035 
L 198.402322 37.775252 
L 201.657354 39.379296 
L 199.588721 42.36073 
L 201.009493 39.021629 
L 197.854425 37.228939 
L 195.049277 39.530967 
L 197.966666 37.372951 
L 200.895167 35.795741 
L 197.379504 36.694798 
L 200.605862 38.355763 
L 202.870276 41.191361 
L 206.476567 40.787812 
L 204.91745 40.088483 
L 201.295788 40.315978 
L 204.914951 40.580272 
L 201.29059 40.400837 
L 197.917907 41.73994 
L 195.742157 44.644128 
L 190.241429 49.378312 
L 188.168173 52.356533 
L 188.259261 55.98419 
L 191.165075 53.810614 
L 189.131617 50.80508 
L 185.983627 48.99999 
L 183.055017 51.142752 
L 182.521925 47.553323 
L 179.200412 49.01474 
L 182.504091 50.516036 
L 179.18425 49.050824 
L 177.411812 52.217313 
L 179.376846 49.166603 
L 181.116747 52.351087 
L 182.255483 48.905586 
L 183.006965 45.355451 
L 185.301473 48.166753 
L 183.069881 51.028254 
L 179.829712 52.662113 
L 181.330952 49.358408 
L 178.342089 51.416293 
L 175.951732 48.686022 
L 172.323071 48.717764 
L 169.232225 50.619043 
L 165.675704 49.898386 
L 168.238722 52.467263 
L 170.873678 49.972228 
L 174.425346 50.716439 
L 171.498852 48.570787 
L 170.337193 45.132948 
L 167.532631 47.43569 
L 168.85098 44.05484 
L 166.046049 46.357132 
L 163.066672 48.428727 
L 164.993318 51.503825 
L 168.38699 50.218843 
L 171.545113 48.431542 
L 172.11191 52.015803 
L 175.191457 53.93533 
L 178.330547 55.755852 
L 174.955752 54.42208 
L 175.333164 58.0312 
L 177.524357 55.138647 
L 181.127197 55.571924 
L 181.824525 59.133093 
L 184.322497 61.765264 
L 183.020073 58.378248 
L 185.81758 56.06694 
L 185.529338 59.684274 
L 184.591944 63.18991 
L 186.217894 59.945765 
L 184.630462 63.20893 
L 181.175526 62.099151 
L 181.574654 65.705934 
L 178.889486 63.26502 
L 179.312005 59.660902 
L 182.643231 61.100042 
L 180.300042 63.8709 
L 176.674925 64.03434 
L 177.549727 67.556116 
L 177.80498 71.175928 
L 174.976359 73.449052 
L 177.364855 70.717152 
L 180.466979 72.599973 
L 176.855088 72.250068 
L 179.91252 70.29551 
L 182.728027 72.584858 
L 186.356796 72.599914 
L 189.976615 72.855062 
L 189.069925 76.368764 
L 185.87316 74.651533 
L 189.195989 76.109954 
L 186.096554 77.997199 
L 182.975632 76.145704 
L 181.647719 79.522809 
L 178.054758 79.014069 
L 177.834787 82.636196 
L 175.968454 85.748268 
L 173.483713 83.103603 
L 171.954441 86.394426 
L 168.533636 85.183525 
L 167.500216 81.704986 
L 164.207876 80.178983 
L 162.638013 76.907329 
L 159.068274 76.255294 
L 155.977612 78.156873 
L 159.548113 78.804728 
L 157.020111 76.201384 
L 156.077321 79.705572 
L 153.119736 77.602983 
L 150.577764 75.013279 
L 151.45437 78.534607 
L 149.562871 81.631447 
L 146.270977 80.104481 
L 147.987224 76.907187 
L 146.894503 80.367556 
L 146.060598 76.835872 
L 142.489165 76.193177 
L 145.055518 73.627632 
L 147.139937 76.598051 
L 147.61912 80.195074 
L 151.204972 79.638434 
L 154.716587 78.723693 
L 157.976129 80.318553 
L 159.465993 77.009702 
L 161.956801 74.370751 
L 161.291997 77.938134 
L 158.210376 79.854329 
L 161.376598 78.081414 
L 160.715312 81.649451 
L 159.074371 84.886039 
L 155.456718 85.170248 
L 158.919028 84.083696 
L 160.97759 81.095299 
L 164.552048 80.46965 
L 163.464616 77.007615 
L 161.600007 80.120721 
L 157.979261 80.362346 
L 158.752581 83.907789 
L 158.752581 83.907789 
" style="fill:none;stroke:#d62728;stroke-linecap:square;stroke-width:1.5;"/>
   </g>
   <g id="line2d_5">
    <path clip-path="url(#p1360600214)" d="M 142.730594 110.299067 
L 144.182243 106.973274 
L 147.448336 105.391873 
L 147.254711 109.015504 
L 148.42072 112.45187 
L 150.540609 109.50666 
L 153.580824 111.487892 
L 150.357877 113.155466 
L 147.801208 110.58027 
L 154.711508 112.798333 
L 157.755896 114.773148 
L 159.60519 111.650922 
L 161.911245 108.849082 
L 163.414129 105.546125 
L 163.057719 109.15738 
L 166.504915 108.023788 
L 170.069623 107.344782 
L 168.567219 110.647958 
L 164.989672 110.040217 
L 162.701347 112.856554 
L 159.159076 113.644277 
L 156.350255 111.346731 
L 152.735074 111.660829 
L 149.274438 110.568957 
L 149.174002 106.941547 
L 152.542409 108.29137 
L 149.834591 110.707132 
L 148.192522 113.943148 
L 151.816589 113.757867 
L 154.829798 111.7358 
L 155.471898 108.16426 
L 156.832175 104.800061 
L 156.58368 108.420342 
L 158.057102 105.104137 
L 154.5598 106.07216 
L 158.145915 106.62711 
L 154.736714 105.383914 
L 157.959449 103.715931 
L 156.739535 100.29833 
L 153.425236 101.776035 
L 149.827418 101.302859 
L 153.186372 102.676037 
L 156.254727 100.738672 
L 153.489131 98.389275 
L 151.86835 95.142545 
L 154.518547 92.663705 
L 152.386977 95.600471 
L 155.65262 97.182799 
L 152.167312 96.172443 
L 149.288631 98.381828 
L 146.819276 95.722791 
L 150.32401 96.663553 
L 150.335731 100.292334 
L 149.679868 96.723295 
L 148.451553 100.137887 
L 152.042252 99.613412 
L 149.38763 102.087512 
L 152.365195 104.161709 
L 155.983535 104.437035 
L 151.159385 99.015473 
L 154.776478 99.306728 
L 158.323532 100.072622 
L 161.769648 98.935751 
L 162.557037 102.478096 
L 158.958469 102.01066 
L 156.402598 99.434673 
L 153.134862 101.012675 
L 150.311894 98.732535 
L 151.764431 95.407129 
L 154.586076 97.688906 
L 156.16478 100.956303 
L 154.063414 103.914757 
L 151.518733 106.5018 
L 154.617673 104.613742 
L 153.238838 101.257106 
L 156.846946 101.644078 
L 153.702505 99.832814 
L 150.342359 98.462556 
L 152.037357 101.671165 
L 154.950963 99.508044 
L 158.57032 99.769662 
L 161.876307 98.273452 
L 162.260705 101.881835 
L 158.899567 103.249658 
L 158.725844 99.625019 
L 155.309021 98.402927 
L 155.718869 94.797347 
L 152.215594 95.743523 
L 148.987677 97.401456 
L 152.502036 98.305596 
L 154.322046 101.444984 
L 156.640688 98.653552 
L 157.690674 95.179978 
L 156.222194 98.498374 
L 153.169982 96.535675 
L 156.323809 94.740804 
L 153.735758 92.19715 
L 156.131599 94.92261 
L 152.523408 94.536414 
L 149.070372 95.65209 
L 152.696217 95.505669 
L 153.863762 98.941514 
L 150.456152 100.189064 
L 149.240612 96.769904 
L 149.435925 100.393444 
L 151.409548 103.438605 
L 151.29391 99.811647 
L 154.677297 98.499822 
L 153.342628 101.874263 
L 150.852598 104.513948 
L 148.739402 101.563932 
L 151.736543 99.518122 
L 148.827689 97.348615 
L 145.199028 97.380369 
L 142.390303 95.082707 
L 143.245624 98.609265 
L 146.6514 99.861813 
L 148.59196 96.795476 
L 149.355724 93.247962 
L 152.961689 92.841513 
L 150.232078 95.232624 
L 153.707262 96.27727 
L 150.317407 94.982252 
L 153.026075 92.567443 
L 152.898918 88.940871 
L 154.849255 92.000998 
L 151.237015 92.347272 
L 148.099383 94.170306 
L 151.065242 96.261207 
L 152.563204 99.5664 
L 155.608144 101.540362 
L 152.139324 102.605947 
L 155.390213 104.218369 
L 153.072731 101.425975 
L 156.697732 101.259974 
L 157.977497 104.655617 
L 161.523314 105.427219 
L 165.037673 104.523079 
L 165.388481 108.134882 
L 164.220659 104.699132 
L 163.499072 101.142799 
L 161.181591 98.350404 
L 162.197335 101.834145 
L 161.122066 105.299976 
L 157.774832 103.898472 
L 155.360054 106.607169 
L 153.579812 109.769276 
L 156.18986 107.248198 
L 152.910077 105.69539 
L 152.910077 105.69539 
" style="fill:none;stroke:#9467bd;stroke-linecap:square;stroke-width:1.5;"/>
   </g>
   <g id="line2d_6">
    <path clip-path="url(#p1360600214)" d="M 97.822828 117.97593 
L 99.031926 121.397373 
L 101.94778 119.237285 
L 105.373669 120.43373 
L 101.82646 121.198912 
L 105.434975 120.815756 
L 109.057795 121.024013 
L 105.640547 119.803109 
L 106.055403 123.408117 
L 108.423652 126.157587 
L 107.147512 129.554594 
L 104.785046 132.309035 
L 108.410971 132.453465 
L 111.882116 131.395477 
L 111.18054 134.955811 
L 110.891493 131.338541 
L 114.519698 131.404283 
L 110.961205 132.115144 
L 108.026897 129.98019 
L 108.58505 133.565808 
L 110.982524 130.841784 
L 114.055336 128.911495 
L 111.16978 131.111893 
L 112.592626 127.773676 
L 115.754102 129.55504 
L 112.195475 128.844856 
L 112.030105 132.469886 
L 108.513435 133.364996 
L 111.460389 131.247532 
L 107.852399 130.85946 
L 104.386812 129.783403 
L 100.770355 129.484366 
L 101.799734 132.964103 
L 101.591054 129.341308 
L 99.985904 126.086822 
L 101.413388 129.423059 
L 98.80553 131.946404 
L 95.230538 131.323813 
L 96.21888 134.815427 
L 93.225052 132.764772 
L 91.549863 135.983767 
L 91.979728 132.380518 
L 94.016909 129.377506 
L 96.14142 132.319383 
L 99.644057 131.370847 
L 96.392935 132.982801 
L 99.145365 130.617993 
L 100.563224 133.958332 
L 97.363463 132.24669 
L 99.529864 135.157857 
L 95.108818 140.912833 
L 98.349416 142.545839 
L 99.505509 145.985554 
L 101.063522 142.70824 
L 102.514914 139.382334 
L 101.192081 142.761432 
L 104.235147 140.784582 
L 103.300319 137.278261 
L 105.566893 134.444389 
L 106.03093 138.043397 
L 103.108477 140.194551 
L 104.061868 136.693232 
L 101.118265 134.571112 
L 99.239753 137.675848 
L 97.535305 134.472249 
L 100.365562 136.743335 
L 100.690331 140.357573 
L 98.840663 143.479579 
L 96.475306 140.727621 
L 97.441667 137.229859 
L 93.870817 137.875785 
L 95.748197 140.981205 
L 97.5818 148.002569 
L 96.227123 151.369027 
L 92.65547 152.010499 
L 96.080339 153.209858 
L 97.902807 150.071897 
L 100.836777 147.936479 
L 103.500192 150.401111 
L 102.491393 153.88687 
L 99.738748 151.522312 
L 98.379904 148.157534 
L 101.34868 146.070776 
L 98.05651 144.544407 
L 101.626184 143.892015 
L 104.459615 141.62489 
L 101.533291 143.770773 
L 104.970461 144.93441 
L 103.035203 141.864724 
L 104.97809 144.929586 
L 105.178411 148.552853 
L 101.668995 149.475993 
L 102.079524 145.870489 
L 100.489366 149.132327 
L 97.361986 150.972893 
L 100.627183 152.556142 
L 99.797592 149.023442 
L 96.262136 155.361683 
L 95.184262 151.896661 
L 97.110023 148.821009 
L 100.50368 147.535988 
L 102.695307 150.428212 
L 106.157983 151.513599 
L 108.806225 149.032671 
L 105.231411 148.409057 
L 108.15467 150.559115 
L 107.171803 154.052274 
L 108.780348 150.799464 
L 111.372711 148.260203 
L 110.441381 151.767455 
L 114.031422 151.238498 
L 117.117952 153.146775 
L 113.536448 153.730738 
L 109.956713 153.13602 
L 112.28636 155.918273 
L 115.910391 156.104268 
L 115.841418 152.476124 
L 115.408336 156.078988 
L 113.382571 153.068263 
L 114.027985 156.639206 
L 116.496519 159.299004 
L 115.9742 155.707992 
L 117.297634 159.086854 
L 115.29522 156.060548 
L 112.096031 154.347838 
L 108.77824 155.817686 
L 111.416418 153.326059 
L 112.759408 156.697196 
L 114.804816 159.69461 
L 111.521621 158.14903 
L 108.010144 157.23376 
L 111.620983 156.873162 
L 108.435144 155.135745 
L 105.037957 156.411407 
L 102.626465 153.699784 
L 102.35615 150.081067 
L 101.229271 146.63167 
L 104.608925 145.310259 
L 101.789169 147.594371 
L 105.402568 147.260402 
L 101.792915 147.632684 
L 104.273797 150.280969 
L 105.952759 153.497998 
L 103.05241 155.678862 
L 100.895915 152.760349 
L 103.157074 149.922154 
L 103.962005 146.383753 
L 103.232674 142.829001 
L 103.232674 142.829001 
" style="fill:none;stroke:#8c564b;stroke-linecap:square;stroke-width:1.5;"/>
   </g>
   <g id="line2d_7">
    <path clip-path="url(#p1360600214)" d="M 186.774359 206.449118 
L 189.100612 203.664026 
L 187.277631 206.801689 
L 183.7901 205.799032 
L 182.071135 208.994865 
L 182.847091 205.449998 
L 180.58752 208.289458 
L 179.335359 211.695376 
L 180.229565 215.212276 
L 177.035519 213.489993 
L 180.645945 213.125279 
L 179.900348 209.573903 
L 182.812553 207.408897 
L 186.080984 208.98546 
L 182.51871 208.293801 
L 179.104943 209.524406 
L 181.886368 211.855042 
L 183.292384 208.509701 
L 186.786771 207.531206 
L 188.641314 210.650319 
L 188.551873 214.278016 
L 192.141309 214.811061 
L 193.459217 218.192083 
L 197.046899 218.736812 
L 195.436349 215.484994 
L 195.248218 219.108914 
L 194.103564 215.665376 
L 191.994508 218.618353 
L 193.73518 221.802414 
L 190.107677 221.899408 
L 192.774319 219.438268 
L 195.979831 221.139115 
L 197.795562 224.280979 
L 195.343598 226.95606 
L 192.253626 225.053362 
L 195.882146 225.00832 
L 192.25378 225.064434 
L 193.663954 228.408025 
L 196.194241 225.806902 
L 196.219245 222.178188 
L 195.373264 218.649377 
L 198.620851 217.030313 
L 198.473017 213.404525 
L 201.572973 211.518136 
L 200.102555 214.835674 
L 203.446528 213.426406 
L 204.18339 209.873206 
L 207.41313 211.527584 
L 204.003574 212.769808 
L 202.216459 209.611579 
L 204.767458 212.192392 
L 203.439476 215.56947 
L 201.062362 212.827661 
L 201.563158 209.233583 
L 197.952219 209.593176 
L 201.494672 210.380077 
L 200.880441 206.803639 
L 201.620211 203.251044 
L 199.817632 200.101616 
L 196.364722 198.98555 
L 193.054126 200.471532 
L 196.569211 201.372845 
L 198.598108 204.38146 
L 198.631836 208.010103 
L 195.303832 209.456676 
L 193.842931 212.778417 
L 192.089514 215.955478 
L 195.003807 213.793283 
L 197.615701 211.274117 
L 195.138881 213.926202 
L 198.388393 212.311004 
L 200.768282 215.050405 
L 204.018742 216.663693 
L 202.044472 219.708434 
L 198.816629 218.050356 
L 199.839242 221.532087 
L 203.466504 221.426422 
L 205.998461 218.826925 
L 209.596825 218.357924 
L 205.968722 218.429063 
L 209.132074 220.207095 
L 210.817983 223.420489 
L 210.394344 219.816502 
L 212.854445 222.484102 
L 216.23998 221.177832 
L 217.258687 224.660708 
L 215.018633 227.51559 
L 216.820519 230.665415 
L 217.345415 227.074778 
L 213.718657 226.953074 
L 217.133531 225.725546 
L 220.638969 224.787413 
L 224.264878 224.93224 
L 223.593462 221.366096 
L 224.935844 217.994716 
L 222.785665 220.917885 
L 225.622411 218.654909 
L 222.696947 220.801965 
L 226.258621 220.107222 
L 222.693989 220.786629 
L 220.766907 217.711805 
L 217.139188 217.623212 
L 215.673817 220.942983 
L 214.951272 217.386844 
L 217.17139 214.516432 
L 220.332459 216.29852 
L 222.644879 219.095107 
L 226.078313 220.269721 
L 225.732534 216.657433 
L 228.97916 218.278423 
L 228.928847 221.906874 
L 228.126027 219.152025 
L 226.056348 222.132733 
L 223.301445 219.770806 
L 222.336238 223.268886 
L 220.174494 220.35426 
L 217.197912 218.27865 
L 214.647243 215.697512 
L 218.155387 216.625476 
L 221.028562 214.408935 
L 222.988413 217.462977 
L 224.662622 220.682482 
L 221.045067 220.967935 
L 217.540308 220.02727 
L 214.243653 221.54393 
L 216.4172 224.449766 
L 219.04645 226.950812 
L 217.295653 223.772306 
L 216.511163 220.229318 
L 212.965412 221.001223 
L 212.877694 217.373483 
L 212.758476 221.000324 
L 214.002657 217.591482 
L 216.078402 214.614996 
L 214.565275 211.316719 
L 215.623382 207.845609 
L 219.11664 208.828125 
L 217.330932 211.98715 
L 217.926626 208.407578 
L 220.566698 205.917957 
L 224.187776 212.207279 
L 221.788478 209.484861 
L 224.951482 211.26351 
L 228.169899 209.587209 
L 231.772374 210.023519 
L 231.5758 206.400047 
L 234.897193 207.861737 
L 231.620343 209.420725 
L 234.765945 207.611477 
L 231.176749 208.146136 
L 231.176749 208.146136 
" style="fill:none;stroke:#e377c2;stroke-linecap:square;stroke-width:1.5;"/>
   </g>
   <g id="line2d_8">
    <path clip-path="url(#p1360600214)" d="M 66.647512 184.084795 
L 68.484945 180.955574 
L 69.796509 184.339062 
L 72.942387 186.14783 
L 73.004984 189.77609 
L 76.626736 189.55004 
L 72.998677 189.476722 
L 70.685772 186.680535 
L 68.880183 189.828238 
L 71.9008 191.839223 
L 74.831055 193.979736 
L 71.35945 192.923258 
L 68.277085 191.008261 
L 64.810451 189.935583 
L 64.420363 186.327811 
L 67.739002 184.859877 
L 64.111384 184.767247 
L 61.525168 187.312768 
L 64.639607 185.450388 
L 63.322891 188.831874 
L 61.114364 185.952535 
L 62.534978 189.291703 
L 65.920898 190.596974 
L 64.963053 194.097077 
L 67.982581 196.109695 
L 65.008699 194.030222 
L 65.767765 190.4817 
L 62.267114 191.437539 
L 65.341083 193.365984 
L 66.384524 196.84153 
L 69.158346 194.50185 
L 65.98421 196.260557 
L 66.030269 192.632049 
L 68.104261 195.609757 
L 71.520486 194.385996 
L 70.841403 190.821303 
L 67.215764 190.972727 
L 69.754005 188.379365 
L 70.642833 184.861102 
L 67.461121 183.116139 
L 68.099554 186.688336 
L 71.638565 185.886094 
L 68.287144 184.49463 
L 64.722108 183.817352 
L 62.80544 186.898679 
L 65.951191 188.707667 
L 67.001654 185.234237 
L 63.761668 183.600015 
L 65.888365 186.540312 
L 62.608175 188.092262 
L 66.233655 188.247466 
L 68.063092 185.113563 
L 67.825299 188.734563 
L 69.540555 185.536738 
L 72.144063 188.06457 
L 70.188978 191.121665 
L 73.77712 190.579979 
L 72.006375 187.412542 
L 74.451141 190.094204 
L 75.071432 193.669597 
L 73.913029 190.230659 
L 73.058356 193.757375 
L 69.505326 194.495052 
L 69.739385 190.873809 
L 69.044795 187.312105 
L 65.433952 186.951551 
L 66.85181 183.611211 
L 70.3041 182.49323 
L 69.083263 179.075958 
L 65.584929 180.040245 
L 67.067388 176.72807 
L 64.331165 174.344528 
L 60.975741 172.962747 
L 64.563354 172.417563 
L 61.216973 173.821105 
L 58.56095 171.348509 
L 59.709107 174.790881 
L 59.502293 178.413783 
L 57.113477 175.682163 
L 53.612106 176.635364 
L 52.120723 173.327198 
L 52.903519 176.87056 
L 49.291145 177.215443 
L 45.664075 177.103404 
L 42.733553 174.963258 
L 41.554306 178.395104 
L 38.664128 180.589429 
L 41.709383 182.562906 
L 38.120347 183.098637 
L 41.434686 184.57625 
L 43.492629 187.565073 
L 41.388692 190.521699 
L 43.825124 193.210935 
L 44.851189 196.69165 
L 48.478269 196.803337 
L 51.92102 195.656315 
L 55.140709 197.330172 
L 54.48027 193.761977 
L 50.88415 194.247889 
L 47.41667 193.177949 
L 50.847643 191.996165 
L 49.491565 188.630272 
L 46.509112 186.563108 
L 49.155957 184.080689 
L 46.57803 186.634605 
L 50.139376 187.33103 
L 49.680484 183.731362 
L 53.186615 182.795822 
L 56.056494 185.016629 
L 52.63738 183.80096 
L 55.303566 186.262594 
L 52.51822 183.936646 
L 56.142985 183.76558 
L 52.756271 185.06879 
L 55.634896 182.859332 
L 55.283793 186.471107 
L 55.556082 190.089676 
L 58.139342 192.638197 
L 57.125933 189.153775 
L 58.084384 185.653838 
L 57.230306 189.180698 
L 54.670145 186.608974 
L 57.900009 184.954837 
L 57.014131 181.43583 
L 60.011256 183.481663 
L 61.627424 180.232633 
L 64.350848 177.834478 
L 67.3534 175.796619 
L 63.750335 176.228027 
L 64.920254 179.663064 
L 61.316208 179.239931 
L 58.483413 176.972011 
L 62.056506 177.605411 
L 61.895395 173.980189 
L 64.616237 176.381274 
L 65.301769 172.817815 
L 66.671404 169.457415 
L 69.98225 167.97199 
L 73.03306 169.936869 
L 74.39335 173.301063 
L 72.560359 176.432889 
L 69.874925 178.87351 
L 72.511982 176.380697 
L 70.227507 179.200158 
L 71.049634 182.734603 
L 70.27317 179.189847 
L 70.3666 182.817444 
L 67.426249 180.690821 
L 63.94942 181.729979 
L 65.355327 185.075366 
L 65.784227 188.67873 
L 65.784227 188.67873 
" style="fill:none;stroke:#7f7f7f;stroke-linecap:square;stroke-width:1.5;"/>
   </g>
   <g id="line2d_9">
    <path clip-path="url(#p1360600214)" d="M 54.085029 150.202762 
L 54.414283 153.816594 
L 50.836358 153.211085 
L 54.388437 152.468841 
L 57.097491 154.883217 
L 58.926654 158.017281 
L 61.255903 155.234694 
L 61.999516 151.682902 
L 65.628235 151.707124 
L 63.825798 148.557615 
L 67.317646 149.545131 
L 67.943538 153.119547 
L 71.281821 154.542242 
L 70.402798 158.062967 
L 71.6043 161.487085 
L 75.224793 161.732473 
L 78.821189 162.216343 
L 79.935763 165.669735 
L 77.918841 162.653079 
L 77.859763 159.024759 
L 75.313323 156.439448 
L 76.399199 159.901971 
L 76.25721 152.646593 
L 74.722538 155.934902 
L 76.324557 159.190931 
L 79.507021 157.44734 
L 77.887285 160.694592 
L 75.835159 157.701772 
L 74.986742 161.229998 
L 74.566054 157.625666 
L 77.328071 155.272062 
L 77.005033 158.886455 
L 75.9546 162.359895 
L 72.548674 161.107754 
L 69.227502 162.569947 
L 65.960851 160.989701 
L 62.495843 159.911781 
L 60.227739 162.744429 
L 61.410648 159.313844 
L 60.724955 162.877271 
L 60.244506 166.474125 
L 56.826065 165.256564 
L 54.454 168.002742 
L 57.80513 166.610579 
L 57.256328 170.19764 
L 60.497081 171.830341 
L 63.398193 174.010189 
L 65.59196 171.119587 
L 68.260154 168.660129 
L 64.642584 168.945396 
L 63.657462 165.452872 
L 61.728902 162.378975 
L 64.400378 159.923083 
L 61.835094 162.489696 
L 58.831578 160.453258 
L 58.819751 156.824478 
L 61.360406 159.415473 
L 58.217132 161.228763 
L 58.120257 164.85627 
L 60.619033 162.224862 
L 57.422835 163.943149 
L 60.967946 164.717992 
L 58.224536 167.093259 
L 57.41212 163.55657 
L 60.204915 165.873569 
L 59.085962 162.421593 
L 55.926821 160.636091 
L 57.816235 163.734205 
L 55.488888 166.518382 
L 51.902817 165.963147 
L 50.609441 162.572665 
L 52.710496 165.53134 
L 51.776118 162.024899 
L 48.47694 163.536063 
L 47.067675 166.880036 
L 45.189317 169.984865 
L 41.797828 171.275598 
L 38.169202 171.311184 
L 37.743851 174.914969 
L 41.371231 174.813459 
L 39.847636 178.106914 
L 42.168323 175.317183 
L 38.948684 173.64323 
L 41.15857 170.764933 
L 44.643337 171.777151 
L 45.903813 175.180001 
L 44.40532 178.484953 
L 40.780514 178.31473 
L 38.202114 175.761293 
L 34.746728 176.86967 
L 32.111631 174.374785 
L 35.609832 175.339553 
L 39.113486 174.394781 
L 39.077107 170.766163 
L 39.601664 174.35685 
L 41.971595 177.104869 
L 40.77452 173.679201 
L 42.866422 176.644355 
L 46.408353 175.855103 
L 44.280013 178.794212 
L 47.123137 181.049171 
L 43.548974 181.67651 
L 43.87141 185.290957 
L 42.460699 181.947593 
L 43.579686 185.399557 
L 41.053548 182.794405 
L 41.846319 186.33555 
L 42.591661 182.784119 
L 45.611389 184.79644 
L 43.387878 181.928655 
L 44.668934 178.533499 
L 44.996482 174.919512 
L 48.206721 176.611421 
L 44.578073 176.57819 
L 42.08468 173.941681 
L 40.74714 170.568378 
L 42.206057 167.245766 
L 38.727669 166.21184 
L 35.425635 164.706926 
L 39.051535 164.851976 
L 35.517013 165.67377 
L 37.078763 168.949305 
L 38.017829 172.454493 
L 35.818962 169.56777 
L 32.598183 167.896011 
L 36.132617 167.07384 
L 38.142426 164.05244 
L 41.432884 165.582496 
L 44.778053 166.988921 
L 41.627291 168.789168 
L 41.072677 172.375335 
L 38.116537 174.479956 
L 37.18498 170.972765 
L 40.765768 171.561112 
L 37.146434 171.299169 
L 40.69143 172.074537 
L 41.175765 175.67087 
L 38.202209 177.75081 
L 37.056436 181.193976 
L 33.697288 182.56668 
L 30.165427 181.733524 
L 29.981893 178.109369 
L 30.861782 174.588859 
L 28.464563 177.313108 
L 25.4172 175.342887 
L 24.648907 171.796351 
L 28.26231 171.462415 
L 31.752004 172.457514 
L 34.362635 169.937038 
L 36.931261 172.500307 
L 36.931261 172.500307 
" style="fill:none;stroke:#bcbd22;stroke-linecap:square;stroke-width:1.5;"/>
   </g>
   <g id="line2d_10">
    <path clip-path="url(#p1360600214)" d="M 155.458826 163.280805 
L 155.389217 166.908937 
L 153.060579 169.692035 
L 150.025337 171.680878 
L 153.082059 169.72521 
L 155.092426 172.746238 
L 153.251239 175.873252 
L 155.101559 178.994871 
L 158.682427 178.407011 
L 155.416927 176.824386 
L 157.440746 179.836419 
L 160.800998 178.46642 
L 164.137028 179.894388 
L 161.842104 182.705351 
L 164.073781 179.843917 
L 160.446481 179.948215 
L 162.182168 183.134997 
L 158.665917 182.238243 
L 159.501817 185.769455 
L 161.671204 188.678398 
L 159.416927 185.834735 
L 163.114939 179.589977 
L 162.37515 176.037386 
L 159.666418 173.622649 
L 157.851833 170.480122 
L 157.084012 166.933485 
L 153.713543 165.588818 
L 152.063655 168.820855 
L 155.664772 169.268232 
L 158.0746 171.981333 
L 160.491805 169.274801 
L 157.032556 168.178541 
L 157.960661 171.686647 
L 154.473978 170.681045 
L 151.137518 172.108009 
L 149.450053 168.895432 
L 148.456987 172.385705 
L 146.242045 169.511297 
L 146.248198 165.882502 
L 144.519859 169.073275 
L 140.92143 168.604768 
L 144.24516 170.061137 
L 141.066627 168.310388 
L 144.4603 167.025408 
L 145.235618 163.480402 
L 145.20239 167.10905 
L 145.907381 163.54939 
L 146.233955 159.935315 
L 143.684147 157.353326 
L 143.631891 153.724903 
L 140.449197 155.468074 
L 143.620212 157.232403 
L 147.221912 156.789751 
L 149.960662 154.409112 
L 150.191111 150.787637 
L 152.621945 153.481933 
L 152.123672 149.887505 
L 148.717866 151.139971 
L 150.190582 154.45649 
L 153.817223 154.331325 
L 152.026444 157.487477 
L 153.932014 154.399275 
L 154.811908 157.919783 
L 158.185069 159.257683 
L 156.289319 156.163443 
L 160.78525 150.466468 
L 158.19125 153.004056 
L 159.608319 149.663382 
L 157.177658 146.968929 
L 160.663719 147.976683 
L 157.114608 148.732991 
L 160.741815 148.840515 
L 161.05912 152.455416 
L 161.156567 156.082907 
L 158.224063 153.945476 
L 159.536856 150.562465 
L 159.170218 146.952234 
L 162.557203 148.25474 
L 165.667836 150.123469 
L 162.097331 149.475643 
L 160.577214 152.770705 
L 162.755686 155.672851 
L 161.891822 152.148375 
L 158.610044 150.599787 
L 161.445284 148.334923 
L 157.923431 149.209421 
L 155.666061 152.05063 
L 156.078389 155.655928 
L 157.247789 159.091142 
L 157.707289 155.491552 
L 155.650238 158.480988 
L 155.981266 154.867318 
L 152.503585 155.903621 
L 149.072152 157.08407 
L 148.242249 153.551443 
L 144.617586 153.724655 
L 148.244718 153.614655 
L 151.859088 153.937952 
L 152.269591 157.543458 
L 152.512754 161.164102 
L 149.307354 162.865161 
L 152.552585 161.24138 
L 149.235152 159.770725 
L 152.18631 157.659126 
L 149.034627 155.860492 
L 145.557015 156.897024 
L 142.208581 158.29566 
L 139.325691 156.091768 
L 136.122464 154.386621 
L 134.993662 157.835388 
L 137.745813 155.470256 
L 134.429334 153.997452 
L 130.908234 153.11993 
L 128.718502 150.226271 
L 132.332295 150.555956 
L 129.256567 152.481596 
L 129.779791 148.890715 
L 126.344411 147.721802 
L 125.697494 144.151132 
L 122.877875 141.866852 
L 126.499308 141.635741 
L 128.339346 144.763432 
L 131.201695 142.532929 
L 128.23964 140.436642 
L 129.328734 136.97513 
L 132.866404 137.783265 
L 129.520546 136.378478 
L 127.084874 139.068402 
L 123.46182 138.864266 
L 120.850476 141.384002 
L 123.5436 143.816135 
L 120.324454 145.491035 
L 118.201232 142.548227 
L 119.073181 139.025743 
L 117.941445 142.473548 
L 114.373838 141.809945 
L 117.941152 142.475119 
L 115.933783 139.452098 
L 119.158837 137.788603 
L 120.999715 140.9158 
L 124.095594 142.808873 
L 123.468779 146.383128 
L 126.116691 143.901847 
L 128.577834 141.235207 
L 129.242995 144.802524 
L 127.755473 141.49262 
L 124.23558 142.374973 
L 123.53788 138.813877 
L 121.864913 135.593726 
L 121.864913 135.593726 
" style="fill:none;stroke:#17becf;stroke-linecap:square;stroke-width:1.5;"/>
   </g>
  </g>
 </g>
 <defs>
  <clipPath id="p1360600214">
   <rect height="266.112" width="266.112" x="7.2" y="7.2"/>
  </clipPath>
 </defs>
</svg>
