<?xml version="1.0" encoding="utf-8" standalone="no"?>
<!DOCTYPE svg PUBLIC "-//W3C//DTD SVG 1.1//EN"
  "http://www.w3.org/Graphics/SVG/1.1/DTD/svg11.dtd">
<!-- Created with matplotlib (https://matplotlib.org/) -->
<svg height="314.36825pt" version="1.1" viewBox="0 0 420.72 314.36825" width="420.72pt" xmlns="http://www.w3.org/2000/svg" xmlns:xlink="http://www.w3.org/1999/xlink">
 <defs>
  <style type="text/css">
*{stroke-linecap:butt;stroke-linejoin:round;}
  </style>
 </defs>
 <g id="figure_1">
  <g id="patch_1">
   <path d="M 0 314.36825 
L 420.72 314.36825 
L 420.72 0 
L 0 0 
z
" style="fill:#ffffff;"/>
  </g>
  <g id="axes_1">
   <g id="patch_2">
    <path d="M 52.9 276.812 
L 410.02 276.812 
L 410.02 10.7 
L 52.9 10.7 
z
" style="fill:#ffffff;"/>
   </g>
   <g id="matplotlib.axis_1">
    <g id="xtick_1">
     <g id="line2d_1">
      <defs>
       <path d="M 0 0 
L 0 3.5 
" id="me3c3a6697a" style="stroke:#000000;stroke-width:0.8;"/>
      </defs>
      <g>
       <use style="stroke:#000000;stroke-width:0.8;" x="70.998437" xlink:href="#me3c3a6697a" y="276.812"/>
      </g>
     </g>
     <g id="text_1">
      <!-- $\mathdefault{10^{0}}$ -->
      <defs>
       <path d="M 12.40625 8.296875 
L 28.515625 8.296875 
L 28.515625 63.921875 
L 10.984375 60.40625 
L 10.984375 69.390625 
L 28.421875 72.90625 
L 38.28125 72.90625 
L 38.28125 8.296875 
L 54.390625 8.296875 
L 54.390625 0 
L 12.40625 0 
z
" id="DejaVuSans-49"/>
       <path d="M 31.78125 66.40625 
Q 24.171875 66.40625 20.328125 58.90625 
Q 16.5 51.421875 16.5 36.375 
Q 16.5 21.390625 20.328125 13.890625 
Q 24.171875 6.390625 31.78125 6.390625 
Q 39.453125 6.390625 43.28125 13.890625 
Q 47.125 21.390625 47.125 36.375 
Q 47.125 51.421875 43.28125 58.90625 
Q 39.453125 66.40625 31.78125 66.40625 
z
M 31.78125 74.21875 
Q 44.046875 74.21875 50.515625 64.515625 
Q 56.984375 54.828125 56.984375 36.375 
Q 56.984375 17.96875 50.515625 8.265625 
Q 44.046875 -1.421875 31.78125 -1.421875 
Q 19.53125 -1.421875 13.0625 8.265625 
Q 6.59375 17.96875 6.59375 36.375 
Q 6.59375 54.828125 13.0625 64.515625 
Q 19.53125 74.21875 31.78125 74.21875 
z
" id="DejaVuSans-48"/>
      </defs>
      <g transform="translate(62.198437 291.410438)scale(0.1 -0.1)">
       <use transform="translate(0 0.765625)" xlink:href="#DejaVuSans-49"/>
       <use transform="translate(63.623047 0.765625)" xlink:href="#DejaVuSans-48"/>
       <use transform="translate(128.203125 39.046875)scale(0.7)" xlink:href="#DejaVuSans-48"/>
      </g>
     </g>
    </g>
    <g id="xtick_2">
     <g id="line2d_2">
      <g>
       <use style="stroke:#000000;stroke-width:0.8;" x="219.332674" xlink:href="#me3c3a6697a" y="276.812"/>
      </g>
     </g>
     <g id="text_2">
      <!-- $\mathdefault{10^{1}}$ -->
      <g transform="translate(210.532674 291.410438)scale(0.1 -0.1)">
       <use transform="translate(0 0.684375)" xlink:href="#DejaVuSans-49"/>
       <use transform="translate(63.623047 0.684375)" xlink:href="#DejaVuSans-48"/>
       <use transform="translate(128.203125 38.965625)scale(0.7)" xlink:href="#DejaVuSans-49"/>
      </g>
     </g>
    </g>
    <g id="xtick_3">
     <g id="line2d_3">
      <g>
       <use style="stroke:#000000;stroke-width:0.8;" x="367.66691" xlink:href="#me3c3a6697a" y="276.812"/>
      </g>
     </g>
     <g id="text_3">
      <!-- $\mathdefault{10^{2}}$ -->
      <defs>
       <path d="M 19.1875 8.296875 
L 53.609375 8.296875 
L 53.609375 0 
L 7.328125 0 
L 7.328125 8.296875 
Q 12.9375 14.109375 22.625 23.890625 
Q 32.328125 33.6875 34.8125 36.53125 
Q 39.546875 41.84375 41.421875 45.53125 
Q 43.3125 49.21875 43.3125 52.78125 
Q 43.3125 58.59375 39.234375 62.25 
Q 35.15625 65.921875 28.609375 65.921875 
Q 23.96875 65.921875 18.8125 64.3125 
Q 13.671875 62.703125 7.8125 59.421875 
L 7.8125 69.390625 
Q 13.765625 71.78125 18.9375 73 
Q 24.125 74.21875 28.421875 74.21875 
Q 39.75 74.21875 46.484375 68.546875 
Q 53.21875 62.890625 53.21875 53.421875 
Q 53.21875 48.921875 51.53125 44.890625 
Q 49.859375 40.875 45.40625 35.40625 
Q 44.1875 33.984375 37.640625 27.21875 
Q 31.109375 20.453125 19.1875 8.296875 
z
" id="DejaVuSans-50"/>
      </defs>
      <g transform="translate(358.86691 291.410438)scale(0.1 -0.1)">
       <use transform="translate(0 0.765625)" xlink:href="#DejaVuSans-49"/>
       <use transform="translate(63.623047 0.765625)" xlink:href="#DejaVuSans-48"/>
       <use transform="translate(128.203125 39.046875)scale(0.7)" xlink:href="#DejaVuSans-50"/>
      </g>
     </g>
    </g>
    <g id="xtick_4">
     <g id="line2d_4">
      <defs>
       <path d="M 0 0 
L 0 2 
" id="m93f555eccc" style="stroke:#000000;stroke-width:0.6;"/>
      </defs>
      <g>
       <use style="stroke:#000000;stroke-width:0.6;" x="56.623364" xlink:href="#m93f555eccc" y="276.812"/>
      </g>
     </g>
    </g>
    <g id="xtick_5">
     <g id="line2d_5">
      <g>
       <use style="stroke:#000000;stroke-width:0.6;" x="64.211035" xlink:href="#m93f555eccc" y="276.812"/>
      </g>
     </g>
    </g>
    <g id="xtick_6">
     <g id="line2d_6">
      <g>
       <use style="stroke:#000000;stroke-width:0.6;" x="115.651492" xlink:href="#m93f555eccc" y="276.812"/>
      </g>
     </g>
    </g>
    <g id="xtick_7">
     <g id="line2d_7">
      <g>
       <use style="stroke:#000000;stroke-width:0.6;" x="141.771854" xlink:href="#m93f555eccc" y="276.812"/>
      </g>
     </g>
    </g>
    <g id="xtick_8">
     <g id="line2d_8">
      <g>
       <use style="stroke:#000000;stroke-width:0.6;" x="160.304546" xlink:href="#m93f555eccc" y="276.812"/>
      </g>
     </g>
    </g>
    <g id="xtick_9">
     <g id="line2d_9">
      <g>
       <use style="stroke:#000000;stroke-width:0.6;" x="174.679619" xlink:href="#m93f555eccc" y="276.812"/>
      </g>
     </g>
    </g>
    <g id="xtick_10">
     <g id="line2d_10">
      <g>
       <use style="stroke:#000000;stroke-width:0.6;" x="186.424909" xlink:href="#m93f555eccc" y="276.812"/>
      </g>
     </g>
    </g>
    <g id="xtick_11">
     <g id="line2d_11">
      <g>
       <use style="stroke:#000000;stroke-width:0.6;" x="196.35541" xlink:href="#m93f555eccc" y="276.812"/>
      </g>
     </g>
    </g>
    <g id="xtick_12">
     <g id="line2d_12">
      <g>
       <use style="stroke:#000000;stroke-width:0.6;" x="204.957601" xlink:href="#m93f555eccc" y="276.812"/>
      </g>
     </g>
    </g>
    <g id="xtick_13">
     <g id="line2d_13">
      <g>
       <use style="stroke:#000000;stroke-width:0.6;" x="212.545271" xlink:href="#m93f555eccc" y="276.812"/>
      </g>
     </g>
    </g>
    <g id="xtick_14">
     <g id="line2d_14">
      <g>
       <use style="stroke:#000000;stroke-width:0.6;" x="263.985728" xlink:href="#m93f555eccc" y="276.812"/>
      </g>
     </g>
    </g>
    <g id="xtick_15">
     <g id="line2d_15">
      <g>
       <use style="stroke:#000000;stroke-width:0.6;" x="290.106091" xlink:href="#m93f555eccc" y="276.812"/>
      </g>
     </g>
    </g>
    <g id="xtick_16">
     <g id="line2d_16">
      <g>
       <use style="stroke:#000000;stroke-width:0.6;" x="308.638783" xlink:href="#m93f555eccc" y="276.812"/>
      </g>
     </g>
    </g>
    <g id="xtick_17">
     <g id="line2d_17">
      <g>
       <use style="stroke:#000000;stroke-width:0.6;" x="323.013856" xlink:href="#m93f555eccc" y="276.812"/>
      </g>
     </g>
    </g>
    <g id="xtick_18">
     <g id="line2d_18">
      <g>
       <use style="stroke:#000000;stroke-width:0.6;" x="334.759145" xlink:href="#m93f555eccc" y="276.812"/>
      </g>
     </g>
    </g>
    <g id="xtick_19">
     <g id="line2d_19">
      <g>
       <use style="stroke:#000000;stroke-width:0.6;" x="344.689646" xlink:href="#m93f555eccc" y="276.812"/>
      </g>
     </g>
    </g>
    <g id="xtick_20">
     <g id="line2d_20">
      <g>
       <use style="stroke:#000000;stroke-width:0.6;" x="353.291837" xlink:href="#m93f555eccc" y="276.812"/>
      </g>
     </g>
    </g>
    <g id="xtick_21">
     <g id="line2d_21">
      <g>
       <use style="stroke:#000000;stroke-width:0.6;" x="360.879508" xlink:href="#m93f555eccc" y="276.812"/>
      </g>
     </g>
    </g>
    <g id="text_4">
     <!-- Time -->
     <defs>
      <path d="M -0.296875 72.90625 
L 61.375 72.90625 
L 61.375 64.59375 
L 35.5 64.59375 
L 35.5 0 
L 25.59375 0 
L 25.59375 64.59375 
L -0.296875 64.59375 
z
" id="DejaVuSans-84"/>
      <path d="M 9.421875 54.6875 
L 18.40625 54.6875 
L 18.40625 0 
L 9.421875 0 
z
M 9.421875 75.984375 
L 18.40625 75.984375 
L 18.40625 64.59375 
L 9.421875 64.59375 
z
" id="DejaVuSans-105"/>
      <path d="M 52 44.1875 
Q 55.375 50.25 60.0625 53.125 
Q 64.75 56 71.09375 56 
Q 79.640625 56 84.28125 50.015625 
Q 88.921875 44.046875 88.921875 33.015625 
L 88.921875 0 
L 79.890625 0 
L 79.890625 32.71875 
Q 79.890625 40.578125 77.09375 44.375 
Q 74.3125 48.1875 68.609375 48.1875 
Q 61.625 48.1875 57.5625 43.546875 
Q 53.515625 38.921875 53.515625 30.90625 
L 53.515625 0 
L 44.484375 0 
L 44.484375 32.71875 
Q 44.484375 40.625 41.703125 44.40625 
Q 38.921875 48.1875 33.109375 48.1875 
Q 26.21875 48.1875 22.15625 43.53125 
Q 18.109375 38.875 18.109375 30.90625 
L 18.109375 0 
L 9.078125 0 
L 9.078125 54.6875 
L 18.109375 54.6875 
L 18.109375 46.1875 
Q 21.1875 51.21875 25.484375 53.609375 
Q 29.78125 56 35.6875 56 
Q 41.65625 56 45.828125 52.96875 
Q 50 49.953125 52 44.1875 
z
" id="DejaVuSans-109"/>
      <path d="M 56.203125 29.59375 
L 56.203125 25.203125 
L 14.890625 25.203125 
Q 15.484375 15.921875 20.484375 11.0625 
Q 25.484375 6.203125 34.421875 6.203125 
Q 39.59375 6.203125 44.453125 7.46875 
Q 49.3125 8.734375 54.109375 11.28125 
L 54.109375 2.78125 
Q 49.265625 0.734375 44.1875 -0.34375 
Q 39.109375 -1.421875 33.890625 -1.421875 
Q 20.796875 -1.421875 13.15625 6.1875 
Q 5.515625 13.8125 5.515625 26.8125 
Q 5.515625 40.234375 12.765625 48.109375 
Q 20.015625 56 32.328125 56 
Q 43.359375 56 49.78125 48.890625 
Q 56.203125 41.796875 56.203125 29.59375 
z
M 47.21875 32.234375 
Q 47.125 39.59375 43.09375 43.984375 
Q 39.0625 48.390625 32.421875 48.390625 
Q 24.90625 48.390625 20.390625 44.140625 
Q 15.875 39.890625 15.1875 32.171875 
z
" id="DejaVuSans-101"/>
     </defs>
     <g transform="translate(219.0725 305.088562)scale(0.1 -0.1)">
      <use xlink:href="#DejaVuSans-84"/>
      <use x="61.037109" xlink:href="#DejaVuSans-105"/>
      <use x="88.820312" xlink:href="#DejaVuSans-109"/>
      <use x="186.232422" xlink:href="#DejaVuSans-101"/>
     </g>
    </g>
   </g>
   <g id="matplotlib.axis_2">
    <g id="ytick_1">
     <g id="line2d_22">
      <defs>
       <path d="M 0 0 
L -3.5 0 
" id="mecda3c45d3" style="stroke:#000000;stroke-width:0.8;"/>
      </defs>
      <g>
       <use style="stroke:#000000;stroke-width:0.8;" x="52.9" xlink:href="#mecda3c45d3" y="219.861259"/>
      </g>
     </g>
     <g id="text_5">
      <!-- $\mathdefault{10^{-4}}$ -->
      <defs>
       <path d="M 10.59375 35.5 
L 73.1875 35.5 
L 73.1875 27.203125 
L 10.59375 27.203125 
z
" id="DejaVuSans-8722"/>
       <path d="M 37.796875 64.3125 
L 12.890625 25.390625 
L 37.796875 25.390625 
z
M 35.203125 72.90625 
L 47.609375 72.90625 
L 47.609375 25.390625 
L 58.015625 25.390625 
L 58.015625 17.1875 
L 47.609375 17.1875 
L 47.609375 0 
L 37.796875 0 
L 37.796875 17.1875 
L 4.890625 17.1875 
L 4.890625 26.703125 
z
" id="DejaVuSans-52"/>
      </defs>
      <g transform="translate(22.4 223.660478)scale(0.1 -0.1)">
       <use transform="translate(0 0.684375)" xlink:href="#DejaVuSans-49"/>
       <use transform="translate(63.623047 0.684375)" xlink:href="#DejaVuSans-48"/>
       <use transform="translate(128.203125 38.965625)scale(0.7)" xlink:href="#DejaVuSans-8722"/>
       <use transform="translate(186.855469 38.965625)scale(0.7)" xlink:href="#DejaVuSans-52"/>
      </g>
     </g>
    </g>
    <g id="ytick_2">
     <g id="line2d_23">
      <g>
       <use style="stroke:#000000;stroke-width:0.8;" x="52.9" xlink:href="#mecda3c45d3" y="159.277024"/>
      </g>
     </g>
     <g id="text_6">
      <!-- $\mathdefault{10^{-3}}$ -->
      <defs>
       <path d="M 40.578125 39.3125 
Q 47.65625 37.796875 51.625 33 
Q 55.609375 28.21875 55.609375 21.1875 
Q 55.609375 10.40625 48.1875 4.484375 
Q 40.765625 -1.421875 27.09375 -1.421875 
Q 22.515625 -1.421875 17.65625 -0.515625 
Q 12.796875 0.390625 7.625 2.203125 
L 7.625 11.71875 
Q 11.71875 9.328125 16.59375 8.109375 
Q 21.484375 6.890625 26.8125 6.890625 
Q 36.078125 6.890625 40.9375 10.546875 
Q 45.796875 14.203125 45.796875 21.1875 
Q 45.796875 27.640625 41.28125 31.265625 
Q 36.765625 34.90625 28.71875 34.90625 
L 20.21875 34.90625 
L 20.21875 43.015625 
L 29.109375 43.015625 
Q 36.375 43.015625 40.234375 45.921875 
Q 44.09375 48.828125 44.09375 54.296875 
Q 44.09375 59.90625 40.109375 62.90625 
Q 36.140625 65.921875 28.71875 65.921875 
Q 24.65625 65.921875 20.015625 65.03125 
Q 15.375 64.15625 9.8125 62.3125 
L 9.8125 71.09375 
Q 15.4375 72.65625 20.34375 73.4375 
Q 25.25 74.21875 29.59375 74.21875 
Q 40.828125 74.21875 47.359375 69.109375 
Q 53.90625 64.015625 53.90625 55.328125 
Q 53.90625 49.265625 50.4375 45.09375 
Q 46.96875 40.921875 40.578125 39.3125 
z
" id="DejaVuSans-51"/>
      </defs>
      <g transform="translate(22.4 163.076243)scale(0.1 -0.1)">
       <use transform="translate(0 0.765625)" xlink:href="#DejaVuSans-49"/>
       <use transform="translate(63.623047 0.765625)" xlink:href="#DejaVuSans-48"/>
       <use transform="translate(128.203125 39.046875)scale(0.7)" xlink:href="#DejaVuSans-8722"/>
       <use transform="translate(186.855469 39.046875)scale(0.7)" xlink:href="#DejaVuSans-51"/>
      </g>
     </g>
    </g>
    <g id="ytick_3">
     <g id="line2d_24">
      <g>
       <use style="stroke:#000000;stroke-width:0.8;" x="52.9" xlink:href="#mecda3c45d3" y="98.692789"/>
      </g>
     </g>
     <g id="text_7">
      <!-- $\mathdefault{10^{-2}}$ -->
      <g transform="translate(22.4 102.492007)scale(0.1 -0.1)">
       <use transform="translate(0 0.765625)" xlink:href="#DejaVuSans-49"/>
       <use transform="translate(63.623047 0.765625)" xlink:href="#DejaVuSans-48"/>
       <use transform="translate(128.203125 39.046875)scale(0.7)" xlink:href="#DejaVuSans-8722"/>
       <use transform="translate(186.855469 39.046875)scale(0.7)" xlink:href="#DejaVuSans-50"/>
      </g>
     </g>
    </g>
    <g id="ytick_4">
     <g id="line2d_25">
      <g>
       <use style="stroke:#000000;stroke-width:0.8;" x="52.9" xlink:href="#mecda3c45d3" y="38.108553"/>
      </g>
     </g>
     <g id="text_8">
      <!-- $\mathdefault{10^{-1}}$ -->
      <g transform="translate(22.4 41.907772)scale(0.1 -0.1)">
       <use transform="translate(0 0.684375)" xlink:href="#DejaVuSans-49"/>
       <use transform="translate(63.623047 0.684375)" xlink:href="#DejaVuSans-48"/>
       <use transform="translate(128.203125 38.965625)scale(0.7)" xlink:href="#DejaVuSans-8722"/>
       <use transform="translate(186.855469 38.965625)scale(0.7)" xlink:href="#DejaVuSans-49"/>
      </g>
     </g>
    </g>
    <g id="ytick_5">
     <g id="line2d_26">
      <defs>
       <path d="M 0 0 
L -2 0 
" id="mc96bb17168" style="stroke:#000000;stroke-width:0.6;"/>
      </defs>
      <g>
       <use style="stroke:#000000;stroke-width:0.6;" x="52.9" xlink:href="#mc96bb17168" y="262.207822"/>
      </g>
     </g>
    </g>
    <g id="ytick_6">
     <g id="line2d_27">
      <g>
       <use style="stroke:#000000;stroke-width:0.6;" x="52.9" xlink:href="#mc96bb17168" y="251.539468"/>
      </g>
     </g>
    </g>
    <g id="ytick_7">
     <g id="line2d_28">
      <g>
       <use style="stroke:#000000;stroke-width:0.6;" x="52.9" xlink:href="#mc96bb17168" y="243.97015"/>
      </g>
     </g>
    </g>
    <g id="ytick_8">
     <g id="line2d_29">
      <g>
       <use style="stroke:#000000;stroke-width:0.6;" x="52.9" xlink:href="#mc96bb17168" y="238.098931"/>
      </g>
     </g>
    </g>
    <g id="ytick_9">
     <g id="line2d_30">
      <g>
       <use style="stroke:#000000;stroke-width:0.6;" x="52.9" xlink:href="#mc96bb17168" y="233.301796"/>
      </g>
     </g>
    </g>
    <g id="ytick_10">
     <g id="line2d_31">
      <g>
       <use style="stroke:#000000;stroke-width:0.6;" x="52.9" xlink:href="#mc96bb17168" y="229.245876"/>
      </g>
     </g>
    </g>
    <g id="ytick_11">
     <g id="line2d_32">
      <g>
       <use style="stroke:#000000;stroke-width:0.6;" x="52.9" xlink:href="#mc96bb17168" y="225.732478"/>
      </g>
     </g>
    </g>
    <g id="ytick_12">
     <g id="line2d_33">
      <g>
       <use style="stroke:#000000;stroke-width:0.6;" x="52.9" xlink:href="#mc96bb17168" y="222.633442"/>
      </g>
     </g>
    </g>
    <g id="ytick_13">
     <g id="line2d_34">
      <g>
       <use style="stroke:#000000;stroke-width:0.6;" x="52.9" xlink:href="#mc96bb17168" y="201.623587"/>
      </g>
     </g>
    </g>
    <g id="ytick_14">
     <g id="line2d_35">
      <g>
       <use style="stroke:#000000;stroke-width:0.6;" x="52.9" xlink:href="#mc96bb17168" y="190.955233"/>
      </g>
     </g>
    </g>
    <g id="ytick_15">
     <g id="line2d_36">
      <g>
       <use style="stroke:#000000;stroke-width:0.6;" x="52.9" xlink:href="#mc96bb17168" y="183.385915"/>
      </g>
     </g>
    </g>
    <g id="ytick_16">
     <g id="line2d_37">
      <g>
       <use style="stroke:#000000;stroke-width:0.6;" x="52.9" xlink:href="#mc96bb17168" y="177.514696"/>
      </g>
     </g>
    </g>
    <g id="ytick_17">
     <g id="line2d_38">
      <g>
       <use style="stroke:#000000;stroke-width:0.6;" x="52.9" xlink:href="#mc96bb17168" y="172.717561"/>
      </g>
     </g>
    </g>
    <g id="ytick_18">
     <g id="line2d_39">
      <g>
       <use style="stroke:#000000;stroke-width:0.6;" x="52.9" xlink:href="#mc96bb17168" y="168.661641"/>
      </g>
     </g>
    </g>
    <g id="ytick_19">
     <g id="line2d_40">
      <g>
       <use style="stroke:#000000;stroke-width:0.6;" x="52.9" xlink:href="#mc96bb17168" y="165.148243"/>
      </g>
     </g>
    </g>
    <g id="ytick_20">
     <g id="line2d_41">
      <g>
       <use style="stroke:#000000;stroke-width:0.6;" x="52.9" xlink:href="#mc96bb17168" y="162.049206"/>
      </g>
     </g>
    </g>
    <g id="ytick_21">
     <g id="line2d_42">
      <g>
       <use style="stroke:#000000;stroke-width:0.6;" x="52.9" xlink:href="#mc96bb17168" y="141.039352"/>
      </g>
     </g>
    </g>
    <g id="ytick_22">
     <g id="line2d_43">
      <g>
       <use style="stroke:#000000;stroke-width:0.6;" x="52.9" xlink:href="#mc96bb17168" y="130.370997"/>
      </g>
     </g>
    </g>
    <g id="ytick_23">
     <g id="line2d_44">
      <g>
       <use style="stroke:#000000;stroke-width:0.6;" x="52.9" xlink:href="#mc96bb17168" y="122.80168"/>
      </g>
     </g>
    </g>
    <g id="ytick_24">
     <g id="line2d_45">
      <g>
       <use style="stroke:#000000;stroke-width:0.6;" x="52.9" xlink:href="#mc96bb17168" y="116.930461"/>
      </g>
     </g>
    </g>
    <g id="ytick_25">
     <g id="line2d_46">
      <g>
       <use style="stroke:#000000;stroke-width:0.6;" x="52.9" xlink:href="#mc96bb17168" y="112.133325"/>
      </g>
     </g>
    </g>
    <g id="ytick_26">
     <g id="line2d_47">
      <g>
       <use style="stroke:#000000;stroke-width:0.6;" x="52.9" xlink:href="#mc96bb17168" y="108.077405"/>
      </g>
     </g>
    </g>
    <g id="ytick_27">
     <g id="line2d_48">
      <g>
       <use style="stroke:#000000;stroke-width:0.6;" x="52.9" xlink:href="#mc96bb17168" y="104.564008"/>
      </g>
     </g>
    </g>
    <g id="ytick_28">
     <g id="line2d_49">
      <g>
       <use style="stroke:#000000;stroke-width:0.6;" x="52.9" xlink:href="#mc96bb17168" y="101.464971"/>
      </g>
     </g>
    </g>
    <g id="ytick_29">
     <g id="line2d_50">
      <g>
       <use style="stroke:#000000;stroke-width:0.6;" x="52.9" xlink:href="#mc96bb17168" y="80.455117"/>
      </g>
     </g>
    </g>
    <g id="ytick_30">
     <g id="line2d_51">
      <g>
       <use style="stroke:#000000;stroke-width:0.6;" x="52.9" xlink:href="#mc96bb17168" y="69.786762"/>
      </g>
     </g>
    </g>
    <g id="ytick_31">
     <g id="line2d_52">
      <g>
       <use style="stroke:#000000;stroke-width:0.6;" x="52.9" xlink:href="#mc96bb17168" y="62.217444"/>
      </g>
     </g>
    </g>
    <g id="ytick_32">
     <g id="line2d_53">
      <g>
       <use style="stroke:#000000;stroke-width:0.6;" x="52.9" xlink:href="#mc96bb17168" y="56.346225"/>
      </g>
     </g>
    </g>
    <g id="ytick_33">
     <g id="line2d_54">
      <g>
       <use style="stroke:#000000;stroke-width:0.6;" x="52.9" xlink:href="#mc96bb17168" y="51.54909"/>
      </g>
     </g>
    </g>
    <g id="ytick_34">
     <g id="line2d_55">
      <g>
       <use style="stroke:#000000;stroke-width:0.6;" x="52.9" xlink:href="#mc96bb17168" y="47.49317"/>
      </g>
     </g>
    </g>
    <g id="ytick_35">
     <g id="line2d_56">
      <g>
       <use style="stroke:#000000;stroke-width:0.6;" x="52.9" xlink:href="#mc96bb17168" y="43.979772"/>
      </g>
     </g>
    </g>
    <g id="ytick_36">
     <g id="line2d_57">
      <g>
       <use style="stroke:#000000;stroke-width:0.6;" x="52.9" xlink:href="#mc96bb17168" y="40.880736"/>
      </g>
     </g>
    </g>
    <g id="ytick_37">
     <g id="line2d_58">
      <g>
       <use style="stroke:#000000;stroke-width:0.6;" x="52.9" xlink:href="#mc96bb17168" y="19.870881"/>
      </g>
     </g>
    </g>
    <g id="text_9">
     <!-- Dispersion  $\langle ( {\bf x - x_0 } )^2 \rangle$ -->
     <defs>
      <path d="M 19.671875 64.796875 
L 19.671875 8.109375 
L 31.59375 8.109375 
Q 46.6875 8.109375 53.6875 14.9375 
Q 60.6875 21.78125 60.6875 36.53125 
Q 60.6875 51.171875 53.6875 57.984375 
Q 46.6875 64.796875 31.59375 64.796875 
z
M 9.8125 72.90625 
L 30.078125 72.90625 
Q 51.265625 72.90625 61.171875 64.09375 
Q 71.09375 55.28125 71.09375 36.53125 
Q 71.09375 17.671875 61.125 8.828125 
Q 51.171875 0 30.078125 0 
L 9.8125 0 
z
" id="DejaVuSans-68"/>
      <path d="M 44.28125 53.078125 
L 44.28125 44.578125 
Q 40.484375 46.53125 36.375 47.5 
Q 32.28125 48.484375 27.875 48.484375 
Q 21.1875 48.484375 17.84375 46.4375 
Q 14.5 44.390625 14.5 40.28125 
Q 14.5 37.15625 16.890625 35.375 
Q 19.28125 33.59375 26.515625 31.984375 
L 29.59375 31.296875 
Q 39.15625 29.25 43.1875 25.515625 
Q 47.21875 21.78125 47.21875 15.09375 
Q 47.21875 7.46875 41.1875 3.015625 
Q 35.15625 -1.421875 24.609375 -1.421875 
Q 20.21875 -1.421875 15.453125 -0.5625 
Q 10.6875 0.296875 5.421875 2 
L 5.421875 11.28125 
Q 10.40625 8.6875 15.234375 7.390625 
Q 20.0625 6.109375 24.8125 6.109375 
Q 31.15625 6.109375 34.5625 8.28125 
Q 37.984375 10.453125 37.984375 14.40625 
Q 37.984375 18.0625 35.515625 20.015625 
Q 33.0625 21.96875 24.703125 23.78125 
L 21.578125 24.515625 
Q 13.234375 26.265625 9.515625 29.90625 
Q 5.8125 33.546875 5.8125 39.890625 
Q 5.8125 47.609375 11.28125 51.796875 
Q 16.75 56 26.8125 56 
Q 31.78125 56 36.171875 55.265625 
Q 40.578125 54.546875 44.28125 53.078125 
z
" id="DejaVuSans-115"/>
      <path d="M 18.109375 8.203125 
L 18.109375 -20.796875 
L 9.078125 -20.796875 
L 9.078125 54.6875 
L 18.109375 54.6875 
L 18.109375 46.390625 
Q 20.953125 51.265625 25.265625 53.625 
Q 29.59375 56 35.59375 56 
Q 45.5625 56 51.78125 48.09375 
Q 58.015625 40.1875 58.015625 27.296875 
Q 58.015625 14.40625 51.78125 6.484375 
Q 45.5625 -1.421875 35.59375 -1.421875 
Q 29.59375 -1.421875 25.265625 0.953125 
Q 20.953125 3.328125 18.109375 8.203125 
z
M 48.6875 27.296875 
Q 48.6875 37.203125 44.609375 42.84375 
Q 40.53125 48.484375 33.40625 48.484375 
Q 26.265625 48.484375 22.1875 42.84375 
Q 18.109375 37.203125 18.109375 27.296875 
Q 18.109375 17.390625 22.1875 11.75 
Q 26.265625 6.109375 33.40625 6.109375 
Q 40.53125 6.109375 44.609375 11.75 
Q 48.6875 17.390625 48.6875 27.296875 
z
" id="DejaVuSans-112"/>
      <path d="M 41.109375 46.296875 
Q 39.59375 47.171875 37.8125 47.578125 
Q 36.03125 48 33.890625 48 
Q 26.265625 48 22.1875 43.046875 
Q 18.109375 38.09375 18.109375 28.8125 
L 18.109375 0 
L 9.078125 0 
L 9.078125 54.6875 
L 18.109375 54.6875 
L 18.109375 46.1875 
Q 20.953125 51.171875 25.484375 53.578125 
Q 30.03125 56 36.53125 56 
Q 37.453125 56 38.578125 55.875 
Q 39.703125 55.765625 41.0625 55.515625 
z
" id="DejaVuSans-114"/>
      <path d="M 30.609375 48.390625 
Q 23.390625 48.390625 19.1875 42.75 
Q 14.984375 37.109375 14.984375 27.296875 
Q 14.984375 17.484375 19.15625 11.84375 
Q 23.34375 6.203125 30.609375 6.203125 
Q 37.796875 6.203125 41.984375 11.859375 
Q 46.1875 17.53125 46.1875 27.296875 
Q 46.1875 37.015625 41.984375 42.703125 
Q 37.796875 48.390625 30.609375 48.390625 
z
M 30.609375 56 
Q 42.328125 56 49.015625 48.375 
Q 55.71875 40.765625 55.71875 27.296875 
Q 55.71875 13.875 49.015625 6.21875 
Q 42.328125 -1.421875 30.609375 -1.421875 
Q 18.84375 -1.421875 12.171875 6.21875 
Q 5.515625 13.875 5.515625 27.296875 
Q 5.515625 40.765625 12.171875 48.375 
Q 18.84375 56 30.609375 56 
z
" id="DejaVuSans-111"/>
      <path d="M 54.890625 33.015625 
L 54.890625 0 
L 45.90625 0 
L 45.90625 32.71875 
Q 45.90625 40.484375 42.875 44.328125 
Q 39.84375 48.1875 33.796875 48.1875 
Q 26.515625 48.1875 22.3125 43.546875 
Q 18.109375 38.921875 18.109375 30.90625 
L 18.109375 0 
L 9.078125 0 
L 9.078125 54.6875 
L 18.109375 54.6875 
L 18.109375 46.1875 
Q 21.34375 51.125 25.703125 53.5625 
Q 30.078125 56 35.796875 56 
Q 45.21875 56 50.046875 50.171875 
Q 54.890625 44.34375 54.890625 33.015625 
z
" id="DejaVuSans-110"/>
      <path id="DejaVuSans-32"/>
      <path d="M 8.9375 31.34375 
L 22.703125 75.875 
L 31 75.875 
L 17.234375 31.34375 
L 31 -13.1875 
L 22.703125 -13.1875 
z
" id="DejaVuSans-10216"/>
      <path d="M 31 75.875 
Q 24.46875 64.65625 21.28125 53.65625 
Q 18.109375 42.671875 18.109375 31.390625 
Q 18.109375 20.125 21.3125 9.0625 
Q 24.515625 -2 31 -13.1875 
L 23.1875 -13.1875 
Q 15.875 -1.703125 12.234375 9.375 
Q 8.59375 20.453125 8.59375 31.390625 
Q 8.59375 42.28125 12.203125 53.3125 
Q 15.828125 64.359375 23.1875 75.875 
z
" id="DejaVuSans-40"/>
      <path d="M 22.21875 27.984375 
L 2.484375 54.6875 
L 21 54.6875 
L 32.171875 38.484375 
L 43.5 54.6875 
L 62.015625 54.6875 
L 42.28125 28.078125 
L 62.984375 0 
L 44.484375 0 
L 32.171875 17.28125 
L 20.015625 0 
L 1.515625 0 
z
" id="DejaVuSans-Bold-120"/>
      <path d="M 10.59375 37.109375 
L 73.1875 37.109375 
L 73.1875 25.59375 
L 10.59375 25.59375 
z
" id="DejaVuSans-Bold-8722"/>
      <path d="M 46 36.53125 
Q 46 50.203125 43.4375 55.78125 
Q 40.875 61.375 34.8125 61.375 
Q 28.765625 61.375 26.171875 55.78125 
Q 23.578125 50.203125 23.578125 36.53125 
Q 23.578125 22.703125 26.171875 17.03125 
Q 28.765625 11.375 34.8125 11.375 
Q 40.828125 11.375 43.40625 17.03125 
Q 46 22.703125 46 36.53125 
z
M 64.796875 36.375 
Q 64.796875 18.265625 56.984375 8.421875 
Q 49.171875 -1.421875 34.8125 -1.421875 
Q 20.40625 -1.421875 12.59375 8.421875 
Q 4.78125 18.265625 4.78125 36.375 
Q 4.78125 54.546875 12.59375 64.375 
Q 20.40625 74.21875 34.8125 74.21875 
Q 49.171875 74.21875 56.984375 64.375 
Q 64.796875 54.546875 64.796875 36.375 
z
" id="DejaVuSans-Bold-48"/>
      <path d="M 8.015625 75.875 
L 15.828125 75.875 
Q 23.140625 64.359375 26.78125 53.3125 
Q 30.421875 42.28125 30.421875 31.390625 
Q 30.421875 20.453125 26.78125 9.375 
Q 23.140625 -1.703125 15.828125 -13.1875 
L 8.015625 -13.1875 
Q 14.5 -2 17.703125 9.0625 
Q 20.90625 20.125 20.90625 31.390625 
Q 20.90625 42.671875 17.703125 53.65625 
Q 14.5 64.65625 8.015625 75.875 
z
" id="DejaVuSans-41"/>
      <path d="M 30.078125 31.34375 
L 16.3125 -13.1875 
L 8.015625 -13.1875 
L 21.78125 31.34375 
L 8.015625 75.875 
L 16.3125 75.875 
z
" id="DejaVuSans-10217"/>
     </defs>
     <g transform="translate(16.3 198.906)rotate(-90)scale(0.1 -0.1)">
      <use transform="translate(0 0.765625)" xlink:href="#DejaVuSans-68"/>
      <use transform="translate(77.001953 0.765625)" xlink:href="#DejaVuSans-105"/>
      <use transform="translate(104.785156 0.765625)" xlink:href="#DejaVuSans-115"/>
      <use transform="translate(156.884766 0.765625)" xlink:href="#DejaVuSans-112"/>
      <use transform="translate(220.361328 0.765625)" xlink:href="#DejaVuSans-101"/>
      <use transform="translate(281.884766 0.765625)" xlink:href="#DejaVuSans-114"/>
      <use transform="translate(322.998047 0.765625)" xlink:href="#DejaVuSans-115"/>
      <use transform="translate(375.097656 0.765625)" xlink:href="#DejaVuSans-105"/>
      <use transform="translate(402.880859 0.765625)" xlink:href="#DejaVuSans-111"/>
      <use transform="translate(464.0625 0.765625)" xlink:href="#DejaVuSans-110"/>
      <use transform="translate(527.441406 0.765625)" xlink:href="#DejaVuSans-32"/>
      <use transform="translate(559.228516 0.765625)" xlink:href="#DejaVuSans-32"/>
      <use transform="translate(591.015625 0.765625)" xlink:href="#DejaVuSans-10216"/>
      <use transform="translate(630.029297 0.765625)" xlink:href="#DejaVuSans-40"/>
      <use transform="translate(669.042969 0.765625)" xlink:href="#DejaVuSans-Bold-120"/>
      <use transform="translate(754.384766 0.765625)" xlink:href="#DejaVuSans-Bold-8722"/>
      <use transform="translate(859.013672 0.765625)" xlink:href="#DejaVuSans-Bold-120"/>
      <use transform="translate(924.472656 -15.640625)scale(0.7)" xlink:href="#DejaVuSans-Bold-48"/>
      <use transform="translate(975.913086 0.765625)" xlink:href="#DejaVuSans-41"/>
      <use transform="translate(1015.883789 39.046875)scale(0.7)" xlink:href="#DejaVuSans-50"/>
      <use transform="translate(1063.154297 0.765625)" xlink:href="#DejaVuSans-10217"/>
     </g>
    </g>
   </g>
   <g id="LineCollection_1">
    <path clip-path="url(#p85b3029dc4)" d="M 69.132727 152.023834 
L 114.668783 152.023834 
" style="fill:none;stroke:#000000;stroke-width:1.5;"/>
    <path clip-path="url(#p85b3029dc4)" d="M 153.262294 119.286709 
L 190.72544 119.286709 
" style="fill:none;stroke:#000000;stroke-width:1.5;"/>
    <path clip-path="url(#p85b3029dc4)" d="M 220.134125 89.328817 
L 255.807517 89.328817 
" style="fill:none;stroke:#000000;stroke-width:1.5;"/>
    <path clip-path="url(#p85b3029dc4)" d="M 283.008314 84.837502 
L 318.786302 84.837502 
" style="fill:none;stroke:#000000;stroke-width:1.5;"/>
    <path clip-path="url(#p85b3029dc4)" d="M 343.600946 60.502841 
L 381.732147 60.502841 
" style="fill:none;stroke:#000000;stroke-width:1.5;"/>
   </g>
   <g id="LineCollection_2">
    <path clip-path="url(#p85b3029dc4)" d="M 95.8431 188.023354 
L 95.8431 137.368243 
" style="fill:none;stroke:#000000;stroke-width:1.5;"/>
    <path clip-path="url(#p85b3029dc4)" d="M 174.679619 181.189532 
L 174.679619 102.331033 
" style="fill:none;stroke:#000000;stroke-width:1.5;"/>
    <path clip-path="url(#p85b3029dc4)" d="M 240.409197 155.393017 
L 240.409197 72.181658 
" style="fill:none;stroke:#000000;stroke-width:1.5;"/>
    <path clip-path="url(#p85b3029dc4)" d="M 303.349825 125.143824 
L 303.349825 69.608789 
" style="fill:none;stroke:#000000;stroke-width:1.5;"/>
    <path clip-path="url(#p85b3029dc4)" d="M 365.447572 136.690325 
L 365.447572 43.002459 
" style="fill:none;stroke:#000000;stroke-width:1.5;"/>
   </g>
   <g id="line2d_59">
    <path clip-path="url(#p85b3029dc4)" d="M -1 191.366004 
L 70.998437 162.049206 
L 115.651492 131.127691 
L 141.771854 108.477642 
L 160.304546 123.055459 
L 174.679619 144.00174 
L 186.424909 161.436098 
L 196.35541 166.966381 
L 204.957601 135.264686 
L 212.545271 126.084829 
L 219.332674 104.676172 
L 225.472626 90.715612 
L 231.077963 79.202852 
L 236.234374 84.055504 
L 241.008464 86.536277 
L 245.453036 81.356428 
L 249.610655 91.660755 
L 253.516139 99.305762 
L 257.198326 86.069533 
L 260.681376 89.479229 
L 263.985728 102.023739 
L 267.128827 117.059549 
L 270.125681 143.381719 
L 272.989296 201.71127 
L 275.731018 195.518821 
L 278.360801 141.105616 
L 280.887428 127.401743 
L 283.318688 155.143435 
L 285.661519 125.437808 
L 287.922128 144.662319 
L 290.106091 192.697107 
L 292.218435 202.971459 
L 294.26371 148.470243 
L 296.246043 122.307132 
L 298.169193 112.999789 
L 300.036592 133.661725 
L 301.85138 137.865439 
L 303.616443 113.224943 
L 305.334431 105.189861 
L 307.007791 124.698494 
L 308.638783 105.997768 
L 310.229499 127.959367 
L 311.781881 120.353282 
L 313.297733 101.542846 
L 314.778735 120.520233 
L 316.226453 112.230861 
L 317.642351 95.699372 
L 319.027796 86.67683 
L 320.384073 93.006586 
L 321.712382 95.741102 
L 323.013856 113.254556 
L 324.289556 135.242821 
L 325.540483 129.45529 
L 326.767582 107.315112 
L 327.971743 109.934735 
L 329.153808 97.413251 
L 330.314573 89.521094 
L 331.454793 86.653319 
L 332.575182 100.754683 
L 333.676418 86.483399 
L 334.759145 82.136669 
L 335.823975 92.851868 
L 336.87149 101.466771 
L 337.902244 95.654472 
L 338.916765 111.464445 
L 339.915556 116.668231 
L 340.899098 145.463583 
L 341.867849 147.396131 
L 342.822248 117.901181 
L 343.762713 115.063281 
L 344.689646 120.906886 
L 345.603431 150.959247 
L 346.504435 189.922675 
L 347.393011 156.650859 
L 348.269497 157.960984 
L 349.134218 124.042832 
L 349.987485 108.883345 
L 350.829599 119.198149 
L 351.660846 119.381113 
L 352.481503 104.869321 
L 353.291837 105.762664 
L 354.092105 99.440437 
L 354.882554 101.7271 
L 355.663421 93.200659 
L 356.434936 108.910243 
L 357.19732 92.775192 
L 357.950788 92.291004 
L 358.695545 102.401985 
L 359.43179 87.716404 
L 360.159716 102.204108 
L 360.879508 103.103598 
L 361.591346 121.279375 
L 362.295405 108.614638 
L 362.991852 132.268925 
L 363.680851 111.065993 
L 364.362558 99.741284 
L 365.037127 102.519897 
L 365.704706 90.07471 
L 367.01946 71.923144 
L 368.307918 56.084861 
L 368.94261 62.237422 
L 369.57111 70.395192 
L 370.193538 72.763279 
L 370.810009 67.03354 
L 371.420636 75.12741 
L 372.02553 73.014335 
L 372.624798 69.043519 
L 373.218541 77.244077 
L 373.806863 74.679528 
L 374.38986 66.304428 
L 375.540261 83.697745 
L 376.107848 90.224043 
L 376.670478 81.693192 
L 377.228237 79.890522 
L 377.781208 69.870202 
L 378.329473 79.816512 
L 378.873111 70.321224 
L 379.4122 80.318084 
L 380.47703 87.195463 
L 381.524545 103.294187 
L 382.041983 89.598375 
L 382.555298 86.523308 
L 383.064556 75.715626 
L 383.569819 76.850835 
L 384.56861 60.601093 
L 385.062258 67.6095 
L 385.552152 68.89478 
L 386.520903 73.815189 
L 386.99987 67.874011 
L 387.475302 64.869202 
L 388.415768 55.266961 
L 388.880901 62.63976 
L 389.342701 62.987173 
L 389.801213 55.910831 
L 390.256486 55.562623 
L 390.708563 55.705464 
L 391.15749 59.212547 
L 391.60331 56.975603 
L 392.046066 60.520282 
L 392.485799 59.196574 
L 393.356363 76.671762 
L 393.787273 73.085313 
L 393.787273 73.085313 
" style="fill:none;stroke:#1f77b4;stroke-linecap:square;stroke-opacity:0.3;stroke-width:1.5;"/>
   </g>
   <g id="line2d_60">
    <path clip-path="url(#p85b3029dc4)" d="M -1 191.366004 
L 70.998437 162.049206 
L 115.651492 143.057646 
L 141.771854 197.544977 
L 160.304546 140.423265 
L 174.679619 195.101349 
L 186.424909 199.75589 
L 196.35541 157.551999 
L 204.957601 136.21801 
L 212.545271 184.551011 
L 219.332674 174.865556 
L 225.472626 151.603432 
L 231.077963 120.216178 
L 236.234374 105.303961 
L 241.008464 127.130471 
L 245.453036 131.783186 
L 249.610655 125.634092 
L 253.516139 138.821219 
L 257.198326 124.107828 
L 260.681376 117.171776 
L 263.985728 98.489454 
L 267.128827 89.035016 
L 270.125681 102.125624 
L 272.989296 106.868107 
L 275.731018 95.673965 
L 278.360801 100.802224 
L 280.887428 92.705047 
L 283.318688 91.097834 
L 285.661519 90.141083 
L 287.922128 102.513382 
L 290.106091 103.320583 
L 292.218435 121.726505 
L 294.26371 107.624646 
L 296.246043 119.168547 
L 298.169193 107.60205 
L 300.036592 102.281707 
L 301.85138 93.654149 
L 303.616443 81.375286 
L 305.334431 73.066303 
L 307.007791 64.184771 
L 308.638783 71.232088 
L 310.229499 62.79508 
L 311.781881 71.214837 
L 313.297733 74.899102 
L 316.226453 95.214461 
L 317.642351 91.484355 
L 319.027796 80.084234 
L 320.384073 71.483226 
L 321.712382 80.147298 
L 323.013856 70.647861 
L 324.289556 63.68542 
L 325.540483 66.370849 
L 326.767582 69.936851 
L 327.971743 77.451469 
L 329.153808 69.103957 
L 330.314573 78.26655 
L 331.454793 68.538666 
L 333.676418 54.799961 
L 334.759145 54.20111 
L 336.87149 66.31322 
L 337.902244 67.470364 
L 338.916765 59.632408 
L 339.915556 60.541039 
L 340.899098 58.913144 
L 341.867849 54.630693 
L 342.822248 48.425171 
L 343.762713 54.806219 
L 344.689646 59.098542 
L 345.603431 66.96882 
L 346.504435 59.99722 
L 347.393011 61.951119 
L 348.269497 57.826237 
L 349.134218 58.313587 
L 351.660846 73.633854 
L 352.481503 83.909508 
L 353.291837 73.746645 
L 354.092105 83.890682 
L 354.882554 88.627669 
L 356.434936 100.838898 
L 357.19732 115.947015 
L 357.950788 101.26716 
L 358.695545 106.664694 
L 359.43179 98.722145 
L 360.159716 93.183123 
L 360.879508 109.752521 
L 361.591346 114.870734 
L 362.295405 130.512713 
L 362.991852 107.917763 
L 363.680851 91.981696 
L 364.362558 98.681873 
L 365.037127 84.916125 
L 365.704706 92.634401 
L 366.365437 80.464741 
L 367.66691 63.703607 
L 368.307918 61.270357 
L 368.94261 57.127967 
L 369.57111 54.762424 
L 370.193538 60.277505 
L 370.810009 59.54461 
L 371.420636 53.454646 
L 372.02553 49.75431 
L 372.624798 55.555751 
L 373.218541 55.957944 
L 373.806863 60.564595 
L 374.38986 55.589076 
L 374.967628 62.856001 
L 375.540261 68.262772 
L 376.107848 65.250935 
L 376.670478 60.294788 
L 377.228237 65.084942 
L 377.781208 67.646671 
L 378.329473 60.85328 
L 378.873111 64.460252 
L 379.4122 73.344934 
L 379.946815 71.479174 
L 380.47703 63.119535 
L 381.002916 57.519172 
L 381.524545 62.610833 
L 382.555298 57.64837 
L 383.569819 45.788865 
L 384.56861 36.124264 
L 385.062258 39.524805 
L 385.552152 39.900563 
L 386.038349 42.805484 
L 386.520903 41.684103 
L 386.99987 45.054523 
L 387.947251 36.882298 
L 388.415768 35.660552 
L 388.880901 37.420457 
L 389.342701 39.711156 
L 390.256486 41.32882 
L 390.708563 42.817124 
L 391.15749 37.630383 
L 391.60331 40.34491 
L 392.046066 44.617719 
L 392.485799 50.332719 
L 392.922552 44.394426 
L 393.787273 56.244512 
L 393.787273 56.244512 
" style="fill:none;stroke:#ff7f0e;stroke-linecap:square;stroke-opacity:0.3;stroke-width:1.5;"/>
   </g>
   <g id="line2d_61">
    <path clip-path="url(#p85b3029dc4)" d="M -1 191.366004 
L 70.998437 162.049206 
L 115.651492 127.128374 
L 141.771854 161.544293 
L 160.304546 128.617208 
L 174.679619 106.303532 
L 186.424909 126.20331 
L 196.35541 163.259993 
L 204.957601 202.293288 
L 212.545271 144.321275 
L 219.332674 134.880362 
L 225.472626 117.490019 
L 231.077963 136.522651 
L 236.234374 183.521965 
L 241.008464 172.445244 
L 245.453036 186.008797 
L 249.610655 170.451167 
L 253.516139 143.549141 
L 257.198326 122.658494 
L 260.681376 109.853061 
L 263.985728 110.327885 
L 267.128827 130.112701 
L 270.125681 150.910891 
L 272.989296 167.472904 
L 275.731018 163.465287 
L 278.360801 151.378371 
L 280.887428 120.15789 
L 283.318688 139.585697 
L 285.661519 147.460532 
L 287.922128 127.547639 
L 290.106091 114.73623 
L 292.218435 96.896715 
L 294.26371 89.831644 
L 296.246043 92.577186 
L 298.169193 90.025612 
L 300.036592 79.0544 
L 301.85138 85.784606 
L 303.616443 77.73141 
L 305.334431 80.619223 
L 307.007791 71.830572 
L 308.638783 71.682091 
L 310.229499 68.747305 
L 311.781881 68.545167 
L 313.297733 62.36768 
L 314.778735 56.299781 
L 316.226453 58.95079 
L 317.642351 58.42403 
L 319.027796 59.684467 
L 320.384073 66.157453 
L 321.712382 71.551422 
L 323.013856 72.79091 
L 324.289556 79.703556 
L 325.540483 70.096019 
L 326.767582 79.403469 
L 327.971743 91.391486 
L 329.153808 107.07516 
L 330.314573 91.312888 
L 331.454793 83.917696 
L 332.575182 73.349377 
L 333.676418 79.574939 
L 334.759145 91.810695 
L 335.823975 95.545484 
L 336.87149 103.144609 
L 337.902244 117.824255 
L 338.916765 138.648867 
L 339.915556 112.983819 
L 340.899098 136.110238 
L 341.867849 156.003266 
L 342.822248 163.633035 
L 343.762713 131.052719 
L 344.689646 109.096118 
L 345.603431 105.734402 
L 346.504435 122.051437 
L 347.393011 128.006506 
L 348.269497 166.809156 
L 349.134218 128.852844 
L 349.987485 108.621186 
L 350.829599 132.254099 
L 351.660846 163.753248 
L 352.481503 147.33329 
L 353.291837 129.573127 
L 354.092105 111.355663 
L 354.882554 94.380403 
L 355.663421 104.407775 
L 356.434936 106.243355 
L 357.19732 117.319305 
L 357.950788 100.482399 
L 358.695545 91.31985 
" style="fill:none;stroke:#2ca02c;stroke-linecap:square;stroke-opacity:0.3;stroke-width:1.5;"/>
   </g>
   <g id="line2d_62">
    <path clip-path="url(#p85b3029dc4)" d="M -1 191.366004 
L 70.998437 162.049206 
L 115.651492 231.939814 
" style="fill:none;stroke:#d62728;stroke-linecap:square;stroke-opacity:0.3;stroke-width:1.5;"/>
   </g>
   <g id="line2d_63">
    <path clip-path="url(#p85b3029dc4)" d="M -1 191.366004 
L 70.998437 162.049206 
L 115.651492 166.554754 
L 141.771854 198.181638 
L 160.304546 156.860715 
L 174.679619 142.561666 
L 186.424909 124.459773 
L 196.35541 111.018255 
L 204.957601 135.97824 
L 212.545271 111.003823 
L 219.332674 104.865115 
L 225.472626 112.230872 
L 231.077963 127.090406 
L 236.234374 128.645541 
" style="fill:none;stroke:#9467bd;stroke-linecap:square;stroke-opacity:0.3;stroke-width:1.5;"/>
   </g>
   <g id="line2d_64">
    <path clip-path="url(#p85b3029dc4)" d="M -1 191.366004 
L 70.998437 162.049206 
L 115.651492 126.866047 
L 141.771854 155.044125 
L 160.304546 122.592454 
L 174.679619 112.163504 
L 186.424909 94.94014 
L 196.35541 83.140459 
L 204.957601 73.020964 
L 212.545271 78.968859 
L 219.332674 89.007516 
L 225.472626 102.879167 
L 231.077963 91.7249 
L 236.234374 86.435301 
L 241.008464 78.411051 
L 245.453036 80.917715 
L 249.610655 73.996136 
L 253.516139 66.653227 
L 257.198326 70.725377 
L 260.681376 80.664153 
L 263.985728 91.91436 
L 267.128827 91.987819 
L 270.125681 100.71508 
L 272.989296 107.126546 
L 275.731018 98.719805 
L 278.360801 90.909863 
L 280.887428 106.416989 
L 283.318688 117.254509 
L 285.661519 101.331857 
L 287.922128 92.395408 
L 290.106091 106.323439 
L 292.218435 120.997436 
L 294.26371 101.261291 
L 296.246043 87.229857 
L 298.169193 99.931432 
L 300.036592 87.169594 
L 301.85138 89.043114 
L 303.616443 77.978208 
L 305.334431 82.663184 
L 307.007791 95.057868 
L 308.638783 94.082084 
L 310.229499 82.413718 
L 311.781881 77.597524 
L 313.297733 69.961336 
L 314.778735 62.200965 
L 316.226453 55.839115 
L 317.642351 62.842638 
L 319.027796 60.684878 
L 320.384073 59.402143 
L 321.712382 65.39256 
L 323.013856 61.437266 
L 324.289556 61.646424 
L 325.540483 60.221794 
L 326.767582 53.680966 
L 327.971743 57.440287 
L 329.153808 54.125576 
L 330.314573 51.173887 
L 331.454793 54.38329 
L 332.575182 48.213005 
L 333.676418 48.015214 
L 334.759145 42.379755 
L 335.823975 37.462978 
L 336.87149 40.027079 
L 337.902244 35.114032 
L 338.916765 34.923689 
L 339.915556 38.496856 
L 340.899098 37.990302 
L 341.867849 40.428397 
L 342.822248 37.857727 
L 343.762713 33.258459 
L 344.689646 35.724106 
L 345.603431 35.990633 
L 346.504435 31.953546 
L 347.393011 31.204221 
L 348.269497 30.870002 
L 349.134218 29.006869 
L 349.987485 25.118769 
L 350.829599 23.560413 
L 351.660846 27.157977 
L 352.481503 23.887383 
L 353.291837 25.509876 
L 354.092105 22.796 
L 354.882554 26.575847 
L 355.663421 26.614759 
L 356.434936 24.590235 
L 357.19732 27.944449 
L 357.950788 31.664612 
L 358.695545 32.944527 
L 359.43179 37.464519 
L 360.159716 42.640599 
L 360.879508 38.114706 
L 361.591346 33.578445 
L 362.295405 38.033951 
L 362.991852 33.767746 
L 363.680851 29.41291 
L 364.362558 26.669114 
L 365.037127 30.06849 
L 365.704706 34.535597 
L 366.365437 37.913559 
L 367.01946 41.044596 
L 367.66691 36.039799 
L 368.307918 32.905441 
L 368.94261 30.118812 
" style="fill:none;stroke:#8c564b;stroke-linecap:square;stroke-opacity:0.3;stroke-width:1.5;"/>
   </g>
   <g id="line2d_65">
    <path clip-path="url(#p85b3029dc4)" d="M -1 191.366004 
L 70.998437 162.049206 
L 115.651492 128.945503 
L 141.771854 148.407809 
L 160.304546 134.857943 
L 174.679619 121.444109 
L 186.424909 104.098301 
L 196.35541 119.506163 
L 204.957601 144.362935 
L 212.545271 116.396788 
L 219.332674 98.075115 
L 225.472626 85.045716 
L 231.077963 81.004521 
L 236.234374 74.282314 
L 241.008464 69.108664 
L 245.453036 71.294404 
L 249.610655 62.894029 
L 253.516139 55.476566 
L 257.198326 58.751591 
L 260.681376 66.595897 
L 263.985728 71.880032 
L 267.128827 81.513839 
L 270.125681 92.294413 
L 272.989296 108.199778 
L 275.731018 130.976895 
L 278.360801 125.51514 
L 280.887428 108.626878 
L 283.318688 126.61288 
L 285.661519 130.843972 
L 287.922128 110.189638 
L 290.106091 98.310436 
L 292.218435 95.2293 
L 294.26371 86.89525 
L 296.246043 91.075865 
L 298.169193 83.375038 
L 300.036592 96.70473 
L 301.85138 84.480348 
L 303.616443 95.008352 
L 305.334431 82.065278 
L 307.007791 80.129959 
L 308.638783 92.234596 
L 310.229499 101.542057 
L 311.781881 95.14499 
L 313.297733 82.156471 
L 314.778735 83.810624 
L 316.226453 78.665808 
L 317.642351 69.134217 
L 319.027796 78.997546 
L 320.384073 76.583441 
L 321.712382 80.818466 
L 323.013856 92.515927 
L 324.289556 86.884743 
L 325.540483 85.281199 
L 326.767582 96.675405 
L 327.971743 86.496278 
L 329.153808 100.620083 
L 330.314573 90.351843 
L 331.454793 105.784324 
L 332.575182 101.703666 
L 333.676418 89.184474 
L 334.759145 91.518989 
L 335.823975 90.684806 
L 337.902244 75.916388 
L 338.916765 66.805027 
L 339.915556 68.88434 
L 340.899098 77.130316 
L 341.867849 79.36899 
L 342.822248 91.204305 
L 343.762713 91.644277 
L 344.689646 79.505553 
L 345.603431 79.838203 
L 346.504435 82.79127 
L 347.393011 94.870117 
L 348.269497 111.000363 
L 349.134218 94.189557 
L 349.987485 91.518087 
L 350.829599 82.168282 
L 351.660846 86.799909 
L 352.481503 90.727557 
L 353.291837 96.16674 
L 354.092105 82.986651 
L 355.663421 65.778285 
L 356.434936 68.999301 
L 357.19732 78.841872 
L 357.950788 74.297712 
L 358.695545 79.823596 
L 359.43179 71.645665 
L 360.159716 79.640408 
L 360.879508 89.75497 
L 361.591346 85.745728 
L 362.295405 88.841829 
L 362.991852 77.363755 
L 363.680851 68.992563 
L 364.362558 77.997237 
L 365.037127 79.940004 
L 365.704706 70.522542 
L 366.365437 69.202651 
L 367.01946 71.197656 
L 367.66691 76.171829 
L 368.307918 84.104652 
L 368.94261 78.254112 
L 369.57111 84.289707 
L 370.193538 96.029888 
L 370.810009 87.320753 
L 371.420636 99.280215 
L 372.02553 103.390307 
L 373.218541 81.433419 
L 373.806863 92.720904 
L 374.38986 108.855568 
L 374.967628 105.628771 
L 375.540261 90.821532 
L 376.107848 89.833277 
L 376.670478 94.286663 
L 377.228237 86.60289 
L 377.781208 100.439252 
L 378.329473 102.980998 
L 378.873111 88.358298 
L 379.4122 76.925806 
L 379.946815 71.617191 
L 380.47703 81.310142 
L 381.002916 78.34194 
L 381.524545 80.496679 
L 382.555298 63.398303 
L 383.064556 67.341888 
L 383.569819 72.586902 
L 384.07115 80.786791 
L 384.56861 82.913074 
L 385.062258 88.951652 
L 385.552152 85.393886 
L 386.038349 98.443102 
L 386.520903 90.834209 
L 386.99987 92.421798 
L 387.475302 81.919389 
L 387.947251 83.132284 
L 388.880901 64.778665 
L 389.342701 65.426018 
L 389.801213 66.721046 
L 390.256486 65.573543 
L 391.15749 69.096407 
L 391.60331 74.767669 
L 392.046066 82.837285 
L 392.922552 104.354529 
L 393.356363 91.754718 
L 393.787273 102.873965 
L 393.787273 102.873965 
" style="fill:none;stroke:#e377c2;stroke-linecap:square;stroke-opacity:0.3;stroke-width:1.5;"/>
   </g>
   <g id="line2d_66">
    <path clip-path="url(#p85b3029dc4)" d="M -1 191.366004 
L 70.998437 162.049206 
L 115.651492 152.953529 
L 141.771854 120.8398 
L 160.304546 143.731428 
L 174.679619 119.635412 
L 186.424909 100.709958 
L 196.35541 120.262284 
L 204.957601 109.430882 
L 212.545271 93.340906 
L 219.332674 87.839813 
L 225.472626 84.189109 
L 231.077963 77.962195 
L 236.234374 73.737026 
L 241.008464 68.170696 
L 245.453036 75.793376 
L 249.610655 68.604869 
L 253.516139 74.102693 
L 257.198326 84.784921 
L 260.681376 75.085943 
L 263.985728 76.607311 
L 267.128827 73.368157 
L 270.125681 75.69225 
L 272.989296 78.588304 
L 275.731018 68.806207 
L 278.360801 77.718074 
L 280.887428 71.458305 
L 283.318688 75.660924 
L 285.661519 74.848824 
L 287.922128 82.908162 
L 290.106091 92.877621 
L 292.218435 99.641416 
L 294.26371 85.621055 
L 296.246043 99.227212 
L 298.169193 117.916603 
L 300.036592 99.125092 
L 301.85138 90.981487 
L 303.616443 92.536197 
L 305.334431 81.044781 
L 307.007791 85.688075 
L 308.638783 74.73906 
L 310.229499 85.493031 
L 311.781881 99.024363 
L 313.297733 89.365773 
L 314.778735 92.84328 
L 316.226453 87.107759 
L 317.642351 96.08285 
L 319.027796 83.268976 
L 320.384073 89.964997 
L 321.712382 79.964631 
L 324.289556 64.655093 
L 325.540483 61.389681 
L 326.767582 54.412039 
L 327.971743 60.607178 
L 329.153808 67.420196 
L 330.314573 60.460268 
L 331.454793 63.314499 
L 332.575182 72.061669 
L 333.676418 77.198625 
L 334.759145 67.983567 
L 335.823975 65.246755 
L 337.902244 81.033872 
L 338.916765 72.890798 
L 339.915556 82.357917 
L 340.899098 75.099784 
L 341.867849 65.882114 
L 342.822248 59.39711 
L 343.762713 65.35543 
L 344.689646 74.22128 
L 345.603431 71.477401 
L 349.134218 45.195672 
L 349.987485 43.654774 
L 350.829599 42.367657 
L 351.660846 47.340375 
L 352.481503 50.698632 
L 354.092105 40.989414 
L 354.882554 44.928998 
L 355.663421 50.567762 
L 357.19732 57.284472 
L 357.950788 58.034129 
L 358.695545 61.417468 
L 359.43179 58.302691 
L 360.159716 54.73218 
L 360.879508 61.657412 
L 362.295405 48.411755 
L 362.991852 47.937366 
L 363.680851 54.117771 
L 364.362558 48.711978 
L 365.704706 43.244967 
L 366.365437 48.982001 
L 367.66691 39.266627 
L 368.94261 49.418413 
L 369.57111 51.456202 
L 370.193538 46.173015 
L 370.810009 43.451373 
L 372.02553 48.625186 
L 373.218541 39.478407 
L 373.806863 43.380932 
L 374.38986 45.596776 
L 374.967628 41.196806 
L 375.540261 39.855985 
L 376.107848 35.603347 
L 376.670478 37.013276 
L 377.228237 39.581718 
L 377.781208 34.964933 
L 378.329473 32.936882 
L 378.873111 37.193134 
L 379.4122 33.231597 
L 379.946815 37.921384 
L 381.002916 29.153985 
L 381.524545 33.350077 
L 382.041983 28.98724 
L 383.064556 36.990587 
L 383.569819 36.556771 
L 384.07115 38.630065 
L 385.062258 29.507807 
L 386.038349 35.026547 
L 386.520903 34.10824 
L 386.99987 37.568514 
L 387.475302 36.944026 
L 387.947251 41.233765 
L 388.880901 52.937522 
L 389.342701 54.2174 
L 389.801213 51.100232 
L 390.256486 50.458462 
L 390.708563 51.032529 
L 391.60331 40.659991 
L 392.046066 38.366476 
L 393.356363 52.562993 
L 393.787273 59.580727 
L 393.787273 59.580727 
" style="fill:none;stroke:#7f7f7f;stroke-linecap:square;stroke-opacity:0.3;stroke-width:1.5;"/>
   </g>
   <g id="line2d_67">
    <path clip-path="url(#p85b3029dc4)" d="M -1 191.366004 
L 70.998437 162.049206 
L 115.651492 255.500884 
L 141.771854 171.119765 
L 160.304546 141.640958 
L 174.679619 156.239694 
L 186.424909 131.742964 
L 196.35541 113.652758 
L 204.957601 103.991082 
L 212.545271 99.035661 
L 219.332674 113.886658 
L 225.472626 123.488973 
L 231.077963 155.928455 
L 236.234374 179.001239 
L 241.008464 149.133666 
L 245.453036 118.746593 
L 249.610655 125.353145 
L 253.516139 156.322384 
L 257.198326 225.719815 
L 260.681376 149.599836 
L 263.985728 120.26396 
L 267.128827 109.043664 
L 270.125681 92.86577 
L 272.989296 83.920841 
L 275.731018 96.892104 
L 278.360801 86.554857 
L 280.887428 100.106999 
L 283.318688 93.93099 
L 285.661519 81.226053 
L 287.922128 84.616168 
L 290.106091 89.855278 
L 292.218435 79.75331 
L 294.26371 69.756657 
L 296.246043 66.679233 
L 298.169193 73.849237 
L 300.036592 70.488001 
L 301.85138 73.820308 
" style="fill:none;stroke:#bcbd22;stroke-linecap:square;stroke-opacity:0.3;stroke-width:1.5;"/>
   </g>
   <g id="line2d_68">
    <path clip-path="url(#p85b3029dc4)" d="M -1 191.366004 
L 70.998437 162.049206 
L 115.651492 125.960624 
L 141.771854 113.635296 
L 160.304546 96.502927 
L 174.679619 86.439144 
L 186.424909 100.685218 
L 196.35541 89.707269 
L 204.957601 78.291279 
L 212.545271 77.311547 
L 219.332674 86.682735 
L 225.472626 79.927327 
L 231.077963 83.681658 
L 236.234374 96.787967 
L 241.008464 91.520955 
L 245.453036 79.495136 
L 249.610655 82.967672 
L 253.516139 82.957176 
L 257.198326 73.367911 
L 260.681376 64.422316 
L 263.985728 58.506908 
L 267.128827 56.786957 
L 270.125681 59.38624 
L 272.989296 61.687338 
L 275.731018 68.278965 
L 278.360801 77.883785 
L 280.887428 82.756103 
L 283.318688 93.941516 
L 285.661519 105.282071 
L 287.922128 98.79532 
L 290.106091 88.784283 
L 292.218435 99.431069 
L 294.26371 92.243586 
L 296.246043 100.495552 
L 298.169193 98.962494 
L 300.036592 117.563863 
L 301.85138 119.227422 
L 303.616443 139.050701 
" style="fill:none;stroke:#17becf;stroke-linecap:square;stroke-opacity:0.3;stroke-width:1.5;"/>
   </g>
   <g id="line2d_69">
    <path clip-path="url(#p85b3029dc4)" style="fill:none;stroke:#1f77b4;stroke-linecap:square;stroke-opacity:0.3;stroke-width:1.5;"/>
   </g>
   <g id="line2d_70">
    <path clip-path="url(#p85b3029dc4)" style="fill:none;stroke:#ff7f0e;stroke-linecap:square;stroke-opacity:0.3;stroke-width:1.5;"/>
   </g>
   <g id="line2d_71">
    <path clip-path="url(#p85b3029dc4)" style="fill:none;stroke:#2ca02c;stroke-linecap:square;stroke-opacity:0.3;stroke-width:1.5;"/>
   </g>
   <g id="line2d_72">
    <path clip-path="url(#p85b3029dc4)" d="M -1 191.366004 
L 70.998437 162.049206 
L 115.651492 169.341076 
L 141.771854 130.378433 
L 160.304546 117.05604 
L 174.679619 101.913973 
L 186.424909 118.313627 
L 196.35541 147.3237 
L 204.957601 134.18428 
L 212.545271 112.151235 
L 219.332674 95.549372 
L 225.472626 108.6221 
L 231.077963 126.635441 
L 236.234374 134.438732 
L 241.008464 169.31348 
L 245.453036 214.525049 
L 249.610655 179.06264 
L 253.516139 135.110718 
L 257.198326 183.188865 
L 260.681376 137.41225 
L 263.985728 137.01086 
L 267.128827 130.292673 
L 270.125681 130.951326 
L 272.989296 107.907394 
L 275.731018 98.680669 
L 278.360801 108.289437 
L 280.887428 131.723703 
L 283.318688 116.89663 
L 285.661519 112.115561 
L 287.922128 95.88289 
L 290.106091 105.070404 
L 292.218435 98.268962 
L 294.26371 116.829976 
L 296.246043 100.820553 
L 298.169193 101.831424 
L 300.036592 120.87601 
L 301.85138 128.146425 
L 303.616443 142.112041 
L 305.334431 156.010671 
L 307.007791 217.504197 
L 308.638783 172.395671 
L 310.229499 142.054356 
L 311.781881 202.259761 
L 313.297733 194.896951 
L 314.778735 147.74487 
L 316.226453 148.718209 
L 317.642351 220.159682 
L 319.027796 173.372072 
L 320.384073 180.200013 
L 321.712382 138.379095 
L 323.013856 154.56768 
L 324.289556 200.428609 
L 325.540483 147.366996 
L 326.767582 168.062467 
L 327.971743 129.108954 
L 329.153808 121.258913 
L 330.314573 110.610509 
L 331.454793 132.952885 
L 332.575182 109.505182 
L 333.676418 95.878463 
L 334.759145 111.315523 
L 335.823975 100.876992 
L 336.87149 104.678904 
L 337.902244 124.126986 
L 338.916765 156.658282 
L 339.915556 170.116412 
L 340.899098 264.716 
L 341.867849 157.08296 
L 342.822248 139.503723 
L 343.762713 154.585171 
L 344.689646 124.774426 
L 345.603431 108.643749 
L 346.504435 97.028172 
L 347.393011 99.765498 
L 348.269497 100.842549 
L 349.134218 87.066726 
L 349.987485 100.904244 
L 350.829599 113.54104 
L 351.660846 96.094061 
L 352.481503 87.321077 
L 353.291837 77.552725 
L 354.092105 85.568432 
L 354.882554 75.862601 
L 355.663421 66.942726 
" style="fill:none;stroke:#d62728;stroke-linecap:square;stroke-opacity:0.3;stroke-width:1.5;"/>
   </g>
   <g id="line2d_73">
    <path clip-path="url(#p85b3029dc4)" d="M -1 191.366004 
L 70.998437 162.049206 
" style="fill:none;stroke:#9467bd;stroke-linecap:square;stroke-opacity:0.3;stroke-width:1.5;"/>
   </g>
   <g id="line2d_74">
    <path clip-path="url(#p85b3029dc4)" style="fill:none;stroke:#8c564b;stroke-linecap:square;stroke-opacity:0.3;stroke-width:1.5;"/>
   </g>
   <g id="line2d_75">
    <path clip-path="url(#p85b3029dc4)" d="M -1 191.366004 
L 70.998437 162.049206 
L 115.651492 140.513131 
L 141.771854 132.573819 
L 160.304546 152.819289 
L 174.679619 142.378627 
L 186.424909 155.050772 
L 196.35541 127.607076 
L 204.957601 164.568408 
L 212.545271 126.840665 
L 219.332674 142.958227 
L 225.472626 134.901518 
L 231.077963 110.852968 
L 236.234374 125.844176 
L 241.008464 119.664636 
L 245.453036 125.064412 
L 249.610655 149.707576 
L 253.516139 119.68955 
L 257.198326 113.922869 
L 260.681376 105.660792 
L 263.985728 92.89779 
L 267.128827 80.49795 
L 270.125681 70.367032 
L 272.989296 79.06224 
L 275.731018 81.873238 
L 278.360801 91.764691 
L 280.887428 93.693173 
L 283.318688 86.046341 
L 285.661519 78.395853 
L 287.922128 77.334354 
L 290.106091 69.691511 
L 292.218435 61.881466 
L 294.26371 55.049896 
L 296.246043 53.130256 
L 298.169193 54.488181 
L 300.036592 60.637613 
L 301.85138 68.495324 
L 303.616443 60.681116 
L 305.334431 68.007764 
L 307.007791 68.647318 
L 308.638783 67.895706 
L 310.229499 70.357977 
L 311.781881 76.281477 
L 313.297733 87.712279 
L 314.778735 86.045502 
L 316.226453 84.960148 
" style="fill:none;stroke:#e377c2;stroke-linecap:square;stroke-opacity:0.3;stroke-width:1.5;"/>
   </g>
   <g id="line2d_76">
    <path clip-path="url(#p85b3029dc4)" d="M -1 191.366004 
L 70.998437 162.049206 
L 115.651492 151.579297 
L 141.771854 186.359202 
L 160.304546 139.537458 
L 174.679619 113.135195 
L 186.424909 115.671623 
L 196.35541 120.109804 
L 204.957601 100.711233 
L 212.545271 109.348484 
L 219.332674 93.901835 
L 225.472626 90.39435 
L 231.077963 78.55332 
L 236.234374 77.448342 
L 241.008464 70.068733 
L 245.453036 62.462656 
L 249.610655 55.474706 
L 253.516139 50.676318 
L 257.198326 56.653911 
L 260.681376 59.738839 
L 263.985728 66.916253 
L 267.128827 61.915988 
L 270.125681 64.625982 
L 272.989296 66.487569 
L 275.731018 68.624471 
L 278.360801 62.664916 
L 280.887428 57.553338 
L 283.318688 58.400332 
L 285.661519 64.861276 
L 287.922128 63.449407 
L 290.106091 67.733127 
L 292.218435 63.100498 
L 294.26371 61.53054 
L 296.246043 60.443408 
L 298.169193 68.563699 
L 300.036592 73.425856 
L 301.85138 83.830658 
L 303.616443 95.529176 
L 305.334431 91.131293 
L 307.007791 100.485456 
L 308.638783 89.853442 
L 310.229499 79.564909 
L 311.781881 86.323067 
L 313.297733 78.352113 
L 314.778735 81.330061 
L 316.226453 71.590806 
L 317.642351 65.897307 
L 319.027796 59.314184 
L 320.384073 62.915819 
L 321.712382 64.25659 
L 323.013856 68.396958 
L 324.289556 77.759367 
L 325.540483 89.603111 
L 326.767582 90.351728 
L 327.971743 89.05594 
L 329.153808 102.29299 
L 330.314573 119.533843 
L 331.454793 100.269073 
L 332.575182 100.108832 
L 333.676418 86.676261 
L 334.759145 92.20554 
L 335.823975 90.476698 
L 336.87149 83.761927 
L 337.902244 79.588563 
L 338.916765 91.902386 
L 339.915556 81.332703 
L 340.899098 94.086164 
L 341.867849 105.666671 
L 342.822248 90.863439 
L 343.762713 82.751434 
L 344.689646 84.267838 
L 345.603431 95.515249 
L 346.504435 86.018667 
L 347.393011 98.912958 
L 348.269497 89.281915 
L 349.134218 77.502749 
L 349.987485 67.961797 
" style="fill:none;stroke:#7f7f7f;stroke-linecap:square;stroke-opacity:0.3;stroke-width:1.5;"/>
   </g>
   <g id="line2d_77">
    <path clip-path="url(#p85b3029dc4)" d="M -1 191.366004 
L 70.998437 162.049206 
" style="fill:none;stroke:#bcbd22;stroke-linecap:square;stroke-opacity:0.3;stroke-width:1.5;"/>
   </g>
   <g id="line2d_78">
    <path clip-path="url(#p85b3029dc4)" style="fill:none;stroke:#17becf;stroke-linecap:square;stroke-opacity:0.3;stroke-width:1.5;"/>
   </g>
   <g id="line2d_79">
    <path clip-path="url(#p85b3029dc4)" style="fill:none;stroke:#1f77b4;stroke-linecap:square;stroke-opacity:0.3;stroke-width:1.5;"/>
   </g>
   <g id="line2d_80">
    <path clip-path="url(#p85b3029dc4)" d="M -1 191.366004 
L 70.998437 162.049206 
L 115.651492 201.623456 
" style="fill:none;stroke:#ff7f0e;stroke-linecap:square;stroke-opacity:0.3;stroke-width:1.5;"/>
   </g>
   <g id="line2d_81">
    <path clip-path="url(#p85b3029dc4)" style="fill:none;stroke:#2ca02c;stroke-linecap:square;stroke-opacity:0.3;stroke-width:1.5;"/>
   </g>
   <g id="line2d_82">
    <path clip-path="url(#p85b3029dc4)" d="M -1 191.366004 
L 70.998437 162.049206 
L 115.651492 168.460451 
" style="fill:none;stroke:#d62728;stroke-linecap:square;stroke-opacity:0.3;stroke-width:1.5;"/>
   </g>
   <g id="line2d_83">
    <path clip-path="url(#p85b3029dc4)" d="M -1 191.366004 
L 70.998437 162.049206 
L 115.651492 128.653108 
L 141.771854 108.684265 
L 160.304546 128.471842 
L 174.679619 111.557992 
L 186.424909 95.779704 
L 196.35541 84.908784 
L 204.957601 85.760104 
L 212.545271 92.744168 
L 219.332674 81.802703 
L 225.472626 83.652525 
L 231.077963 75.645202 
L 236.234374 71.069149 
L 241.008464 75.853339 
L 245.453036 79.566399 
L 249.610655 69.759644 
L 253.516139 74.305786 
L 257.198326 65.222556 
L 260.681376 58.129315 
L 263.985728 65.108848 
L 270.125681 77.72629 
L 272.989296 89.114149 
L 275.731018 102.907327 
L 278.360801 123.240796 
L 280.887428 156.951633 
L 283.318688 173.96298 
L 285.661519 131.39447 
L 287.922128 135.66672 
L 290.106091 113.754722 
L 292.218435 121.600574 
L 294.26371 143.683906 
L 296.246043 115.611494 
L 298.169193 124.087726 
L 300.036592 109.61836 
L 301.85138 118.99748 
L 303.616443 101.416449 
L 305.334431 103.095742 
L 307.007791 111.013606 
L 308.638783 97.480249 
L 310.229499 85.706612 
L 311.781881 94.480043 
L 313.297733 86.514596 
L 314.778735 100.812215 
L 316.226453 107.534672 
L 317.642351 103.942151 
L 319.027796 111.100566 
L 320.384073 109.700937 
L 321.712382 94.166452 
L 323.013856 86.65539 
L 324.289556 81.027645 
L 326.767582 106.203279 
L 327.971743 106.454181 
L 329.153808 92.687176 
L 330.314573 107.657775 
L 331.454793 91.748625 
L 332.575182 91.427863 
L 333.676418 107.266992 
L 334.759145 113.676229 
L 335.823975 129.515913 
L 336.87149 114.18172 
L 337.902244 141.132652 
L 338.916765 146.678059 
L 340.899098 106.544497 
L 341.867849 91.463684 
L 342.822248 105.47256 
L 343.762713 90.122031 
L 344.689646 82.667055 
L 345.603431 83.433583 
L 346.504435 88.641757 
L 347.393011 86.065665 
L 348.269497 98.293177 
L 349.134218 113.208167 
L 349.987485 110.112828 
L 350.829599 93.477791 
L 351.660846 81.578391 
L 352.481503 81.978066 
L 353.291837 81.866852 
L 354.092105 86.264469 
L 354.882554 100.488617 
L 355.663421 105.930863 
L 356.434936 95.480176 
L 357.19732 94.63076 
L 357.950788 83.644875 
L 358.695545 89.937585 
L 359.43179 102.59215 
L 360.159716 122.802886 
L 360.879508 150.079655 
L 361.591346 119.747797 
L 362.295405 147.290072 
L 362.991852 117.695649 
L 363.680851 120.797971 
L 364.362558 114.845633 
L 365.037127 98.616247 
L 365.704706 89.329124 
L 367.01946 108.641451 
L 367.66691 130.858381 
L 368.307918 162.066028 
L 368.94261 134.155601 
L 369.57111 163.198263 
L 370.193538 126.394755 
L 370.810009 131.336389 
L 371.420636 109.689784 
L 372.624798 90.413409 
L 373.806863 68.957077 
L 374.38986 69.221273 
L 374.967628 73.946281 
L 376.107848 57.283116 
L 376.670478 51.322688 
L 377.228237 57.628881 
L 377.781208 53.888926 
L 378.329473 51.892753 
L 378.873111 45.861152 
L 379.4122 42.215546 
L 379.946815 37.103964 
L 380.47703 41.074393 
L 381.002916 46.13718 
L 381.524545 47.629931 
L 382.041983 41.984106 
L 382.555298 39.747565 
L 383.064556 44.2047 
L 383.569819 39.33438 
L 384.07115 39.432683 
L 384.56861 35.429218 
L 385.062258 34.515705 
L 385.552152 39.316949 
L 386.038349 36.575757 
L 386.520903 32.395296 
L 386.99987 31.065331 
L 387.475302 32.071256 
L 387.947251 27.994159 
L 388.415768 32.071877 
L 388.880901 28.227055 
L 389.342701 30.314976 
L 390.256486 39.217399 
L 391.15749 42.536516 
L 391.60331 43.137187 
L 392.046066 47.377201 
L 392.485799 42.415592 
L 393.356363 35.468201 
L 393.787273 31.301649 
L 393.787273 31.301649 
" style="fill:none;stroke:#9467bd;stroke-linecap:square;stroke-opacity:0.3;stroke-width:1.5;"/>
   </g>
   <g id="line2d_84">
    <path clip-path="url(#p85b3029dc4)" d="M 95.8431 151.901887 
L 174.679619 119.702643 
L 240.409197 92.856675 
L 303.349825 67.149799 
L 365.447572 41.787182 
" style="fill:none;stroke:#000000;stroke-dasharray:5.55,2.4;stroke-dashoffset:0;stroke-width:1.5;"/>
   </g>
   <g id="line2d_85">
    <defs>
     <path d="M 0 3 
C 0.795609 3 1.55874 2.683901 2.12132 2.12132 
C 2.683901 1.55874 3 0.795609 3 0 
C 3 -0.795609 2.683901 -1.55874 2.12132 -2.12132 
C 1.55874 -2.683901 0.795609 -3 0 -3 
C -0.795609 -3 -1.55874 -2.683901 -2.12132 -2.12132 
C -2.683901 -1.55874 -3 -0.795609 -3 0 
C -3 0.795609 -2.683901 1.55874 -2.12132 2.12132 
C -1.55874 2.683901 -0.795609 3 0 3 
z
" id="m1fa90abc14" style="stroke:#000000;"/>
    </defs>
    <g clip-path="url(#p85b3029dc4)">
     <use style="stroke:#000000;" x="95.8431" xlink:href="#m1fa90abc14" y="152.023834"/>
     <use style="stroke:#000000;" x="174.679619" xlink:href="#m1fa90abc14" y="119.286709"/>
     <use style="stroke:#000000;" x="240.409197" xlink:href="#m1fa90abc14" y="89.328817"/>
     <use style="stroke:#000000;" x="303.349825" xlink:href="#m1fa90abc14" y="84.837502"/>
     <use style="stroke:#000000;" x="365.447572" xlink:href="#m1fa90abc14" y="60.502841"/>
    </g>
   </g>
   <g id="patch_3">
    <path d="M 52.9 276.812 
L 52.9 10.7 
" style="fill:none;stroke:#000000;stroke-linecap:square;stroke-linejoin:miter;stroke-width:0.8;"/>
   </g>
   <g id="patch_4">
    <path d="M 410.02 276.812 
L 410.02 10.7 
" style="fill:none;stroke:#000000;stroke-linecap:square;stroke-linejoin:miter;stroke-width:0.8;"/>
   </g>
   <g id="patch_5">
    <path d="M 52.9 276.812 
L 410.02 276.812 
" style="fill:none;stroke:#000000;stroke-linecap:square;stroke-linejoin:miter;stroke-width:0.8;"/>
   </g>
   <g id="patch_6">
    <path d="M 52.9 10.7 
L 410.02 10.7 
" style="fill:none;stroke:#000000;stroke-linecap:square;stroke-linejoin:miter;stroke-width:0.8;"/>
   </g>
   <g id="legend_1">
    <g id="patch_7">
     <path d="M 59.9 48.05625 
L 152.41875 48.05625 
Q 154.41875 48.05625 154.41875 46.05625 
L 154.41875 17.7 
Q 154.41875 15.7 152.41875 15.7 
L 59.9 15.7 
Q 57.9 15.7 57.9 17.7 
L 57.9 46.05625 
Q 57.9 48.05625 59.9 48.05625 
z
" style="fill:#ffffff;opacity:0.8;stroke:#cccccc;stroke-linejoin:miter;"/>
    </g>
    <g id="line2d_86">
     <path d="M 61.9 23.798437 
L 81.9 23.798437 
" style="fill:none;stroke:#000000;stroke-dasharray:5.55,2.4;stroke-dashoffset:0;stroke-width:1.5;"/>
    </g>
    <g id="line2d_87"/>
    <g id="text_10">
     <!-- Theory -->
     <defs>
      <path d="M 54.890625 33.015625 
L 54.890625 0 
L 45.90625 0 
L 45.90625 32.71875 
Q 45.90625 40.484375 42.875 44.328125 
Q 39.84375 48.1875 33.796875 48.1875 
Q 26.515625 48.1875 22.3125 43.546875 
Q 18.109375 38.921875 18.109375 30.90625 
L 18.109375 0 
L 9.078125 0 
L 9.078125 75.984375 
L 18.109375 75.984375 
L 18.109375 46.1875 
Q 21.34375 51.125 25.703125 53.5625 
Q 30.078125 56 35.796875 56 
Q 45.21875 56 50.046875 50.171875 
Q 54.890625 44.34375 54.890625 33.015625 
z
" id="DejaVuSans-104"/>
      <path d="M 32.171875 -5.078125 
Q 28.375 -14.84375 24.75 -17.8125 
Q 21.140625 -20.796875 15.09375 -20.796875 
L 7.90625 -20.796875 
L 7.90625 -13.28125 
L 13.1875 -13.28125 
Q 16.890625 -13.28125 18.9375 -11.515625 
Q 21 -9.765625 23.484375 -3.21875 
L 25.09375 0.875 
L 2.984375 54.6875 
L 12.5 54.6875 
L 29.59375 11.921875 
L 46.6875 54.6875 
L 56.203125 54.6875 
z
" id="DejaVuSans-121"/>
     </defs>
     <g transform="translate(89.9 27.298437)scale(0.1 -0.1)">
      <use xlink:href="#DejaVuSans-84"/>
      <use x="61.083984" xlink:href="#DejaVuSans-104"/>
      <use x="124.462891" xlink:href="#DejaVuSans-101"/>
      <use x="185.986328" xlink:href="#DejaVuSans-111"/>
      <use x="247.167969" xlink:href="#DejaVuSans-114"/>
      <use x="288.28125" xlink:href="#DejaVuSans-121"/>
     </g>
    </g>
    <g id="LineCollection_3">
     <path d="M 66.9 38.476562 
L 76.9 38.476562 
" style="fill:none;stroke:#000000;stroke-width:1.5;"/>
    </g>
    <g id="LineCollection_4">
     <path d="M 71.9 43.476562 
L 71.9 33.476562 
" style="fill:none;stroke:#000000;stroke-width:1.5;"/>
    </g>
    <g id="line2d_88"/>
    <g id="line2d_89">
     <g>
      <use style="stroke:#000000;" x="71.9" xlink:href="#m1fa90abc14" y="38.476562"/>
     </g>
    </g>
    <g id="text_11">
     <!-- Binned data -->
     <defs>
      <path d="M 19.671875 34.8125 
L 19.671875 8.109375 
L 35.5 8.109375 
Q 43.453125 8.109375 47.28125 11.40625 
Q 51.125 14.703125 51.125 21.484375 
Q 51.125 28.328125 47.28125 31.5625 
Q 43.453125 34.8125 35.5 34.8125 
z
M 19.671875 64.796875 
L 19.671875 42.828125 
L 34.28125 42.828125 
Q 41.5 42.828125 45.03125 45.53125 
Q 48.578125 48.25 48.578125 53.8125 
Q 48.578125 59.328125 45.03125 62.0625 
Q 41.5 64.796875 34.28125 64.796875 
z
M 9.8125 72.90625 
L 35.015625 72.90625 
Q 46.296875 72.90625 52.390625 68.21875 
Q 58.5 63.53125 58.5 54.890625 
Q 58.5 48.1875 55.375 44.234375 
Q 52.25 40.28125 46.1875 39.3125 
Q 53.46875 37.75 57.5 32.78125 
Q 61.53125 27.828125 61.53125 20.40625 
Q 61.53125 10.640625 54.890625 5.3125 
Q 48.25 0 35.984375 0 
L 9.8125 0 
z
" id="DejaVuSans-66"/>
      <path d="M 45.40625 46.390625 
L 45.40625 75.984375 
L 54.390625 75.984375 
L 54.390625 0 
L 45.40625 0 
L 45.40625 8.203125 
Q 42.578125 3.328125 38.25 0.953125 
Q 33.9375 -1.421875 27.875 -1.421875 
Q 17.96875 -1.421875 11.734375 6.484375 
Q 5.515625 14.40625 5.515625 27.296875 
Q 5.515625 40.1875 11.734375 48.09375 
Q 17.96875 56 27.875 56 
Q 33.9375 56 38.25 53.625 
Q 42.578125 51.265625 45.40625 46.390625 
z
M 14.796875 27.296875 
Q 14.796875 17.390625 18.875 11.75 
Q 22.953125 6.109375 30.078125 6.109375 
Q 37.203125 6.109375 41.296875 11.75 
Q 45.40625 17.390625 45.40625 27.296875 
Q 45.40625 37.203125 41.296875 42.84375 
Q 37.203125 48.484375 30.078125 48.484375 
Q 22.953125 48.484375 18.875 42.84375 
Q 14.796875 37.203125 14.796875 27.296875 
z
" id="DejaVuSans-100"/>
      <path d="M 34.28125 27.484375 
Q 23.390625 27.484375 19.1875 25 
Q 14.984375 22.515625 14.984375 16.5 
Q 14.984375 11.71875 18.140625 8.90625 
Q 21.296875 6.109375 26.703125 6.109375 
Q 34.1875 6.109375 38.703125 11.40625 
Q 43.21875 16.703125 43.21875 25.484375 
L 43.21875 27.484375 
z
M 52.203125 31.203125 
L 52.203125 0 
L 43.21875 0 
L 43.21875 8.296875 
Q 40.140625 3.328125 35.546875 0.953125 
Q 30.953125 -1.421875 24.3125 -1.421875 
Q 15.921875 -1.421875 10.953125 3.296875 
Q 6 8.015625 6 15.921875 
Q 6 25.140625 12.171875 29.828125 
Q 18.359375 34.515625 30.609375 34.515625 
L 43.21875 34.515625 
L 43.21875 35.40625 
Q 43.21875 41.609375 39.140625 45 
Q 35.0625 48.390625 27.6875 48.390625 
Q 23 48.390625 18.546875 47.265625 
Q 14.109375 46.140625 10.015625 43.890625 
L 10.015625 52.203125 
Q 14.9375 54.109375 19.578125 55.046875 
Q 24.21875 56 28.609375 56 
Q 40.484375 56 46.34375 49.84375 
Q 52.203125 43.703125 52.203125 31.203125 
z
" id="DejaVuSans-97"/>
      <path d="M 18.3125 70.21875 
L 18.3125 54.6875 
L 36.8125 54.6875 
L 36.8125 47.703125 
L 18.3125 47.703125 
L 18.3125 18.015625 
Q 18.3125 11.328125 20.140625 9.421875 
Q 21.96875 7.515625 27.59375 7.515625 
L 36.8125 7.515625 
L 36.8125 0 
L 27.59375 0 
Q 17.1875 0 13.234375 3.875 
Q 9.28125 7.765625 9.28125 18.015625 
L 9.28125 47.703125 
L 2.6875 47.703125 
L 2.6875 54.6875 
L 9.28125 54.6875 
L 9.28125 70.21875 
z
" id="DejaVuSans-116"/>
     </defs>
     <g transform="translate(89.9 41.976562)scale(0.1 -0.1)">
      <use xlink:href="#DejaVuSans-66"/>
      <use x="68.603516" xlink:href="#DejaVuSans-105"/>
      <use x="96.386719" xlink:href="#DejaVuSans-110"/>
      <use x="159.765625" xlink:href="#DejaVuSans-110"/>
      <use x="223.144531" xlink:href="#DejaVuSans-101"/>
      <use x="284.667969" xlink:href="#DejaVuSans-100"/>
      <use x="348.144531" xlink:href="#DejaVuSans-32"/>
      <use x="379.931641" xlink:href="#DejaVuSans-100"/>
      <use x="443.408203" xlink:href="#DejaVuSans-97"/>
      <use x="504.6875" xlink:href="#DejaVuSans-116"/>
      <use x="543.896484" xlink:href="#DejaVuSans-97"/>
     </g>
    </g>
   </g>
  </g>
 </g>
 <defs>
  <clipPath id="p85b3029dc4">
   <rect height="266.112" width="357.12" x="52.9" y="10.7"/>
  </clipPath>
 </defs>
</svg>
