<?xml version="1.0" encoding="utf-8" standalone="no"?>
<!DOCTYPE svg PUBLIC "-//W3C//DTD SVG 1.1//EN"
  "http://www.w3.org/Graphics/SVG/1.1/DTD/svg11.dtd">
<!-- Created with matplotlib (https://matplotlib.org/) -->
<svg height="314.36825pt" version="1.1" viewBox="0 0 420.72 314.36825" width="420.72pt" xmlns="http://www.w3.org/2000/svg" xmlns:xlink="http://www.w3.org/1999/xlink">
 <defs>
  <style type="text/css">
*{stroke-linecap:butt;stroke-linejoin:round;}
  </style>
 </defs>
 <g id="figure_1">
  <g id="patch_1">
   <path d="M 0 314.36825 
L 420.72 314.36825 
L 420.72 0 
L 0 0 
z
" style="fill:#ffffff;"/>
  </g>
  <g id="axes_1">
   <g id="patch_2">
    <path d="M 52.9 276.812 
L 410.02 276.812 
L 410.02 10.7 
L 52.9 10.7 
z
" style="fill:#ffffff;"/>
   </g>
   <g id="matplotlib.axis_1">
    <g id="xtick_1">
     <g id="line2d_1">
      <defs>
       <path d="M 0 0 
L 0 3.5 
" id="me1b9f5abca" style="stroke:#000000;stroke-width:0.8;"/>
      </defs>
      <g>
       <use style="stroke:#000000;stroke-width:0.8;" x="69.132727" xlink:href="#me1b9f5abca" y="276.812"/>
      </g>
     </g>
     <g id="text_1">
      <!-- $\mathdefault{10^{0}}$ -->
      <defs>
       <path d="M 12.40625 8.296875 
L 28.515625 8.296875 
L 28.515625 63.921875 
L 10.984375 60.40625 
L 10.984375 69.390625 
L 28.421875 72.90625 
L 38.28125 72.90625 
L 38.28125 8.296875 
L 54.390625 8.296875 
L 54.390625 0 
L 12.40625 0 
z
" id="DejaVuSans-49"/>
       <path d="M 31.78125 66.40625 
Q 24.171875 66.40625 20.328125 58.90625 
Q 16.5 51.421875 16.5 36.375 
Q 16.5 21.390625 20.328125 13.890625 
Q 24.171875 6.390625 31.78125 6.390625 
Q 39.453125 6.390625 43.28125 13.890625 
Q 47.125 21.390625 47.125 36.375 
Q 47.125 51.421875 43.28125 58.90625 
Q 39.453125 66.40625 31.78125 66.40625 
z
M 31.78125 74.21875 
Q 44.046875 74.21875 50.515625 64.515625 
Q 56.984375 54.828125 56.984375 36.375 
Q 56.984375 17.96875 50.515625 8.265625 
Q 44.046875 -1.421875 31.78125 -1.421875 
Q 19.53125 -1.421875 13.0625 8.265625 
Q 6.59375 17.96875 6.59375 36.375 
Q 6.59375 54.828125 13.0625 64.515625 
Q 19.53125 74.21875 31.78125 74.21875 
z
" id="DejaVuSans-48"/>
      </defs>
      <g transform="translate(60.332727 291.410438)scale(0.1 -0.1)">
       <use transform="translate(0 0.765625)" xlink:href="#DejaVuSans-49"/>
       <use transform="translate(63.623047 0.765625)" xlink:href="#DejaVuSans-48"/>
       <use transform="translate(128.203125 39.046875)scale(0.7)" xlink:href="#DejaVuSans-48"/>
      </g>
     </g>
    </g>
    <g id="xtick_2">
     <g id="line2d_2">
      <g>
       <use style="stroke:#000000;stroke-width:0.8;" x="218.324331" xlink:href="#me1b9f5abca" y="276.812"/>
      </g>
     </g>
     <g id="text_2">
      <!-- $\mathdefault{10^{1}}$ -->
      <g transform="translate(209.524331 291.410438)scale(0.1 -0.1)">
       <use transform="translate(0 0.684375)" xlink:href="#DejaVuSans-49"/>
       <use transform="translate(63.623047 0.684375)" xlink:href="#DejaVuSans-48"/>
       <use transform="translate(128.203125 38.965625)scale(0.7)" xlink:href="#DejaVuSans-49"/>
      </g>
     </g>
    </g>
    <g id="xtick_3">
     <g id="line2d_3">
      <g>
       <use style="stroke:#000000;stroke-width:0.8;" x="367.515935" xlink:href="#me1b9f5abca" y="276.812"/>
      </g>
     </g>
     <g id="text_3">
      <!-- $\mathdefault{10^{2}}$ -->
      <defs>
       <path d="M 19.1875 8.296875 
L 53.609375 8.296875 
L 53.609375 0 
L 7.328125 0 
L 7.328125 8.296875 
Q 12.9375 14.109375 22.625 23.890625 
Q 32.328125 33.6875 34.8125 36.53125 
Q 39.546875 41.84375 41.421875 45.53125 
Q 43.3125 49.21875 43.3125 52.78125 
Q 43.3125 58.59375 39.234375 62.25 
Q 35.15625 65.921875 28.609375 65.921875 
Q 23.96875 65.921875 18.8125 64.3125 
Q 13.671875 62.703125 7.8125 59.421875 
L 7.8125 69.390625 
Q 13.765625 71.78125 18.9375 73 
Q 24.125 74.21875 28.421875 74.21875 
Q 39.75 74.21875 46.484375 68.546875 
Q 53.21875 62.890625 53.21875 53.421875 
Q 53.21875 48.921875 51.53125 44.890625 
Q 49.859375 40.875 45.40625 35.40625 
Q 44.1875 33.984375 37.640625 27.21875 
Q 31.109375 20.453125 19.1875 8.296875 
z
" id="DejaVuSans-50"/>
      </defs>
      <g transform="translate(358.715935 291.410438)scale(0.1 -0.1)">
       <use transform="translate(0 0.765625)" xlink:href="#DejaVuSans-49"/>
       <use transform="translate(63.623047 0.765625)" xlink:href="#DejaVuSans-48"/>
       <use transform="translate(128.203125 39.046875)scale(0.7)" xlink:href="#DejaVuSans-50"/>
      </g>
     </g>
    </g>
    <g id="xtick_4">
     <g id="line2d_4">
      <defs>
       <path d="M 0 0 
L 0 2 
" id="m0d247c7fef" style="stroke:#000000;stroke-width:0.6;"/>
      </defs>
      <g>
       <use style="stroke:#000000;stroke-width:0.6;" x="54.674567" xlink:href="#m0d247c7fef" y="276.812"/>
      </g>
     </g>
    </g>
    <g id="xtick_5">
     <g id="line2d_5">
      <g>
       <use style="stroke:#000000;stroke-width:0.6;" x="62.306094" xlink:href="#m0d247c7fef" y="276.812"/>
      </g>
     </g>
    </g>
    <g id="xtick_6">
     <g id="line2d_6">
      <g>
       <use style="stroke:#000000;stroke-width:0.6;" x="114.043875" xlink:href="#m0d247c7fef" y="276.812"/>
      </g>
     </g>
    </g>
    <g id="xtick_7">
     <g id="line2d_7">
      <g>
       <use style="stroke:#000000;stroke-width:0.6;" x="140.315213" xlink:href="#m0d247c7fef" y="276.812"/>
      </g>
     </g>
    </g>
    <g id="xtick_8">
     <g id="line2d_8">
      <g>
       <use style="stroke:#000000;stroke-width:0.6;" x="158.955023" xlink:href="#m0d247c7fef" y="276.812"/>
      </g>
     </g>
    </g>
    <g id="xtick_9">
     <g id="line2d_9">
      <g>
       <use style="stroke:#000000;stroke-width:0.6;" x="173.413183" xlink:href="#m0d247c7fef" y="276.812"/>
      </g>
     </g>
    </g>
    <g id="xtick_10">
     <g id="line2d_10">
      <g>
       <use style="stroke:#000000;stroke-width:0.6;" x="185.22636" xlink:href="#m0d247c7fef" y="276.812"/>
      </g>
     </g>
    </g>
    <g id="xtick_11">
     <g id="line2d_11">
      <g>
       <use style="stroke:#000000;stroke-width:0.6;" x="195.214259" xlink:href="#m0d247c7fef" y="276.812"/>
      </g>
     </g>
    </g>
    <g id="xtick_12">
     <g id="line2d_12">
      <g>
       <use style="stroke:#000000;stroke-width:0.6;" x="203.866171" xlink:href="#m0d247c7fef" y="276.812"/>
      </g>
     </g>
    </g>
    <g id="xtick_13">
     <g id="line2d_13">
      <g>
       <use style="stroke:#000000;stroke-width:0.6;" x="211.497698" xlink:href="#m0d247c7fef" y="276.812"/>
      </g>
     </g>
    </g>
    <g id="xtick_14">
     <g id="line2d_14">
      <g>
       <use style="stroke:#000000;stroke-width:0.6;" x="263.235479" xlink:href="#m0d247c7fef" y="276.812"/>
      </g>
     </g>
    </g>
    <g id="xtick_15">
     <g id="line2d_15">
      <g>
       <use style="stroke:#000000;stroke-width:0.6;" x="289.506817" xlink:href="#m0d247c7fef" y="276.812"/>
      </g>
     </g>
    </g>
    <g id="xtick_16">
     <g id="line2d_16">
      <g>
       <use style="stroke:#000000;stroke-width:0.6;" x="308.146627" xlink:href="#m0d247c7fef" y="276.812"/>
      </g>
     </g>
    </g>
    <g id="xtick_17">
     <g id="line2d_17">
      <g>
       <use style="stroke:#000000;stroke-width:0.6;" x="322.604787" xlink:href="#m0d247c7fef" y="276.812"/>
      </g>
     </g>
    </g>
    <g id="xtick_18">
     <g id="line2d_18">
      <g>
       <use style="stroke:#000000;stroke-width:0.6;" x="334.417965" xlink:href="#m0d247c7fef" y="276.812"/>
      </g>
     </g>
    </g>
    <g id="xtick_19">
     <g id="line2d_19">
      <g>
       <use style="stroke:#000000;stroke-width:0.6;" x="344.405863" xlink:href="#m0d247c7fef" y="276.812"/>
      </g>
     </g>
    </g>
    <g id="xtick_20">
     <g id="line2d_20">
      <g>
       <use style="stroke:#000000;stroke-width:0.6;" x="353.057775" xlink:href="#m0d247c7fef" y="276.812"/>
      </g>
     </g>
    </g>
    <g id="xtick_21">
     <g id="line2d_21">
      <g>
       <use style="stroke:#000000;stroke-width:0.6;" x="360.689302" xlink:href="#m0d247c7fef" y="276.812"/>
      </g>
     </g>
    </g>
    <g id="text_4">
     <!-- Time -->
     <defs>
      <path d="M -0.296875 72.90625 
L 61.375 72.90625 
L 61.375 64.59375 
L 35.5 64.59375 
L 35.5 0 
L 25.59375 0 
L 25.59375 64.59375 
L -0.296875 64.59375 
z
" id="DejaVuSans-84"/>
      <path d="M 9.421875 54.6875 
L 18.40625 54.6875 
L 18.40625 0 
L 9.421875 0 
z
M 9.421875 75.984375 
L 18.40625 75.984375 
L 18.40625 64.59375 
L 9.421875 64.59375 
z
" id="DejaVuSans-105"/>
      <path d="M 52 44.1875 
Q 55.375 50.25 60.0625 53.125 
Q 64.75 56 71.09375 56 
Q 79.640625 56 84.28125 50.015625 
Q 88.921875 44.046875 88.921875 33.015625 
L 88.921875 0 
L 79.890625 0 
L 79.890625 32.71875 
Q 79.890625 40.578125 77.09375 44.375 
Q 74.3125 48.1875 68.609375 48.1875 
Q 61.625 48.1875 57.5625 43.546875 
Q 53.515625 38.921875 53.515625 30.90625 
L 53.515625 0 
L 44.484375 0 
L 44.484375 32.71875 
Q 44.484375 40.625 41.703125 44.40625 
Q 38.921875 48.1875 33.109375 48.1875 
Q 26.21875 48.1875 22.15625 43.53125 
Q 18.109375 38.875 18.109375 30.90625 
L 18.109375 0 
L 9.078125 0 
L 9.078125 54.6875 
L 18.109375 54.6875 
L 18.109375 46.1875 
Q 21.1875 51.21875 25.484375 53.609375 
Q 29.78125 56 35.6875 56 
Q 41.65625 56 45.828125 52.96875 
Q 50 49.953125 52 44.1875 
z
" id="DejaVuSans-109"/>
      <path d="M 56.203125 29.59375 
L 56.203125 25.203125 
L 14.890625 25.203125 
Q 15.484375 15.921875 20.484375 11.0625 
Q 25.484375 6.203125 34.421875 6.203125 
Q 39.59375 6.203125 44.453125 7.46875 
Q 49.3125 8.734375 54.109375 11.28125 
L 54.109375 2.78125 
Q 49.265625 0.734375 44.1875 -0.34375 
Q 39.109375 -1.421875 33.890625 -1.421875 
Q 20.796875 -1.421875 13.15625 6.1875 
Q 5.515625 13.8125 5.515625 26.8125 
Q 5.515625 40.234375 12.765625 48.109375 
Q 20.015625 56 32.328125 56 
Q 43.359375 56 49.78125 48.890625 
Q 56.203125 41.796875 56.203125 29.59375 
z
M 47.21875 32.234375 
Q 47.125 39.59375 43.09375 43.984375 
Q 39.0625 48.390625 32.421875 48.390625 
Q 24.90625 48.390625 20.390625 44.140625 
Q 15.875 39.890625 15.1875 32.171875 
z
" id="DejaVuSans-101"/>
     </defs>
     <g transform="translate(219.0725 305.088562)scale(0.1 -0.1)">
      <use xlink:href="#DejaVuSans-84"/>
      <use x="61.037109" xlink:href="#DejaVuSans-105"/>
      <use x="88.820312" xlink:href="#DejaVuSans-109"/>
      <use x="186.232422" xlink:href="#DejaVuSans-101"/>
     </g>
    </g>
   </g>
   <g id="matplotlib.axis_2">
    <g id="ytick_1">
     <g id="line2d_22">
      <defs>
       <path d="M 0 0 
L -3.5 0 
" id="m4b531dcb78" style="stroke:#000000;stroke-width:0.8;"/>
      </defs>
      <g>
       <use style="stroke:#000000;stroke-width:0.8;" x="52.9" xlink:href="#m4b531dcb78" y="219.861259"/>
      </g>
     </g>
     <g id="text_5">
      <!-- $\mathdefault{10^{-4}}$ -->
      <defs>
       <path d="M 10.59375 35.5 
L 73.1875 35.5 
L 73.1875 27.203125 
L 10.59375 27.203125 
z
" id="DejaVuSans-8722"/>
       <path d="M 37.796875 64.3125 
L 12.890625 25.390625 
L 37.796875 25.390625 
z
M 35.203125 72.90625 
L 47.609375 72.90625 
L 47.609375 25.390625 
L 58.015625 25.390625 
L 58.015625 17.1875 
L 47.609375 17.1875 
L 47.609375 0 
L 37.796875 0 
L 37.796875 17.1875 
L 4.890625 17.1875 
L 4.890625 26.703125 
z
" id="DejaVuSans-52"/>
      </defs>
      <g transform="translate(22.4 223.660478)scale(0.1 -0.1)">
       <use transform="translate(0 0.684375)" xlink:href="#DejaVuSans-49"/>
       <use transform="translate(63.623047 0.684375)" xlink:href="#DejaVuSans-48"/>
       <use transform="translate(128.203125 38.965625)scale(0.7)" xlink:href="#DejaVuSans-8722"/>
       <use transform="translate(186.855469 38.965625)scale(0.7)" xlink:href="#DejaVuSans-52"/>
      </g>
     </g>
    </g>
    <g id="ytick_2">
     <g id="line2d_23">
      <g>
       <use style="stroke:#000000;stroke-width:0.8;" x="52.9" xlink:href="#m4b531dcb78" y="159.277024"/>
      </g>
     </g>
     <g id="text_6">
      <!-- $\mathdefault{10^{-3}}$ -->
      <defs>
       <path d="M 40.578125 39.3125 
Q 47.65625 37.796875 51.625 33 
Q 55.609375 28.21875 55.609375 21.1875 
Q 55.609375 10.40625 48.1875 4.484375 
Q 40.765625 -1.421875 27.09375 -1.421875 
Q 22.515625 -1.421875 17.65625 -0.515625 
Q 12.796875 0.390625 7.625 2.203125 
L 7.625 11.71875 
Q 11.71875 9.328125 16.59375 8.109375 
Q 21.484375 6.890625 26.8125 6.890625 
Q 36.078125 6.890625 40.9375 10.546875 
Q 45.796875 14.203125 45.796875 21.1875 
Q 45.796875 27.640625 41.28125 31.265625 
Q 36.765625 34.90625 28.71875 34.90625 
L 20.21875 34.90625 
L 20.21875 43.015625 
L 29.109375 43.015625 
Q 36.375 43.015625 40.234375 45.921875 
Q 44.09375 48.828125 44.09375 54.296875 
Q 44.09375 59.90625 40.109375 62.90625 
Q 36.140625 65.921875 28.71875 65.921875 
Q 24.65625 65.921875 20.015625 65.03125 
Q 15.375 64.15625 9.8125 62.3125 
L 9.8125 71.09375 
Q 15.4375 72.65625 20.34375 73.4375 
Q 25.25 74.21875 29.59375 74.21875 
Q 40.828125 74.21875 47.359375 69.109375 
Q 53.90625 64.015625 53.90625 55.328125 
Q 53.90625 49.265625 50.4375 45.09375 
Q 46.96875 40.921875 40.578125 39.3125 
z
" id="DejaVuSans-51"/>
      </defs>
      <g transform="translate(22.4 163.076243)scale(0.1 -0.1)">
       <use transform="translate(0 0.765625)" xlink:href="#DejaVuSans-49"/>
       <use transform="translate(63.623047 0.765625)" xlink:href="#DejaVuSans-48"/>
       <use transform="translate(128.203125 39.046875)scale(0.7)" xlink:href="#DejaVuSans-8722"/>
       <use transform="translate(186.855469 39.046875)scale(0.7)" xlink:href="#DejaVuSans-51"/>
      </g>
     </g>
    </g>
    <g id="ytick_3">
     <g id="line2d_24">
      <g>
       <use style="stroke:#000000;stroke-width:0.8;" x="52.9" xlink:href="#m4b531dcb78" y="98.692789"/>
      </g>
     </g>
     <g id="text_7">
      <!-- $\mathdefault{10^{-2}}$ -->
      <g transform="translate(22.4 102.492007)scale(0.1 -0.1)">
       <use transform="translate(0 0.765625)" xlink:href="#DejaVuSans-49"/>
       <use transform="translate(63.623047 0.765625)" xlink:href="#DejaVuSans-48"/>
       <use transform="translate(128.203125 39.046875)scale(0.7)" xlink:href="#DejaVuSans-8722"/>
       <use transform="translate(186.855469 39.046875)scale(0.7)" xlink:href="#DejaVuSans-50"/>
      </g>
     </g>
    </g>
    <g id="ytick_4">
     <g id="line2d_25">
      <g>
       <use style="stroke:#000000;stroke-width:0.8;" x="52.9" xlink:href="#m4b531dcb78" y="38.108553"/>
      </g>
     </g>
     <g id="text_8">
      <!-- $\mathdefault{10^{-1}}$ -->
      <g transform="translate(22.4 41.907772)scale(0.1 -0.1)">
       <use transform="translate(0 0.684375)" xlink:href="#DejaVuSans-49"/>
       <use transform="translate(63.623047 0.684375)" xlink:href="#DejaVuSans-48"/>
       <use transform="translate(128.203125 38.965625)scale(0.7)" xlink:href="#DejaVuSans-8722"/>
       <use transform="translate(186.855469 38.965625)scale(0.7)" xlink:href="#DejaVuSans-49"/>
      </g>
     </g>
    </g>
    <g id="ytick_5">
     <g id="line2d_26">
      <defs>
       <path d="M 0 0 
L -2 0 
" id="m7f165f9c33" style="stroke:#000000;stroke-width:0.6;"/>
      </defs>
      <g>
       <use style="stroke:#000000;stroke-width:0.6;" x="52.9" xlink:href="#m7f165f9c33" y="262.207822"/>
      </g>
     </g>
    </g>
    <g id="ytick_6">
     <g id="line2d_27">
      <g>
       <use style="stroke:#000000;stroke-width:0.6;" x="52.9" xlink:href="#m7f165f9c33" y="251.539468"/>
      </g>
     </g>
    </g>
    <g id="ytick_7">
     <g id="line2d_28">
      <g>
       <use style="stroke:#000000;stroke-width:0.6;" x="52.9" xlink:href="#m7f165f9c33" y="243.97015"/>
      </g>
     </g>
    </g>
    <g id="ytick_8">
     <g id="line2d_29">
      <g>
       <use style="stroke:#000000;stroke-width:0.6;" x="52.9" xlink:href="#m7f165f9c33" y="238.098931"/>
      </g>
     </g>
    </g>
    <g id="ytick_9">
     <g id="line2d_30">
      <g>
       <use style="stroke:#000000;stroke-width:0.6;" x="52.9" xlink:href="#m7f165f9c33" y="233.301796"/>
      </g>
     </g>
    </g>
    <g id="ytick_10">
     <g id="line2d_31">
      <g>
       <use style="stroke:#000000;stroke-width:0.6;" x="52.9" xlink:href="#m7f165f9c33" y="229.245876"/>
      </g>
     </g>
    </g>
    <g id="ytick_11">
     <g id="line2d_32">
      <g>
       <use style="stroke:#000000;stroke-width:0.6;" x="52.9" xlink:href="#m7f165f9c33" y="225.732478"/>
      </g>
     </g>
    </g>
    <g id="ytick_12">
     <g id="line2d_33">
      <g>
       <use style="stroke:#000000;stroke-width:0.6;" x="52.9" xlink:href="#m7f165f9c33" y="222.633442"/>
      </g>
     </g>
    </g>
    <g id="ytick_13">
     <g id="line2d_34">
      <g>
       <use style="stroke:#000000;stroke-width:0.6;" x="52.9" xlink:href="#m7f165f9c33" y="201.623587"/>
      </g>
     </g>
    </g>
    <g id="ytick_14">
     <g id="line2d_35">
      <g>
       <use style="stroke:#000000;stroke-width:0.6;" x="52.9" xlink:href="#m7f165f9c33" y="190.955233"/>
      </g>
     </g>
    </g>
    <g id="ytick_15">
     <g id="line2d_36">
      <g>
       <use style="stroke:#000000;stroke-width:0.6;" x="52.9" xlink:href="#m7f165f9c33" y="183.385915"/>
      </g>
     </g>
    </g>
    <g id="ytick_16">
     <g id="line2d_37">
      <g>
       <use style="stroke:#000000;stroke-width:0.6;" x="52.9" xlink:href="#m7f165f9c33" y="177.514696"/>
      </g>
     </g>
    </g>
    <g id="ytick_17">
     <g id="line2d_38">
      <g>
       <use style="stroke:#000000;stroke-width:0.6;" x="52.9" xlink:href="#m7f165f9c33" y="172.717561"/>
      </g>
     </g>
    </g>
    <g id="ytick_18">
     <g id="line2d_39">
      <g>
       <use style="stroke:#000000;stroke-width:0.6;" x="52.9" xlink:href="#m7f165f9c33" y="168.661641"/>
      </g>
     </g>
    </g>
    <g id="ytick_19">
     <g id="line2d_40">
      <g>
       <use style="stroke:#000000;stroke-width:0.6;" x="52.9" xlink:href="#m7f165f9c33" y="165.148243"/>
      </g>
     </g>
    </g>
    <g id="ytick_20">
     <g id="line2d_41">
      <g>
       <use style="stroke:#000000;stroke-width:0.6;" x="52.9" xlink:href="#m7f165f9c33" y="162.049206"/>
      </g>
     </g>
    </g>
    <g id="ytick_21">
     <g id="line2d_42">
      <g>
       <use style="stroke:#000000;stroke-width:0.6;" x="52.9" xlink:href="#m7f165f9c33" y="141.039352"/>
      </g>
     </g>
    </g>
    <g id="ytick_22">
     <g id="line2d_43">
      <g>
       <use style="stroke:#000000;stroke-width:0.6;" x="52.9" xlink:href="#m7f165f9c33" y="130.370997"/>
      </g>
     </g>
    </g>
    <g id="ytick_23">
     <g id="line2d_44">
      <g>
       <use style="stroke:#000000;stroke-width:0.6;" x="52.9" xlink:href="#m7f165f9c33" y="122.80168"/>
      </g>
     </g>
    </g>
    <g id="ytick_24">
     <g id="line2d_45">
      <g>
       <use style="stroke:#000000;stroke-width:0.6;" x="52.9" xlink:href="#m7f165f9c33" y="116.930461"/>
      </g>
     </g>
    </g>
    <g id="ytick_25">
     <g id="line2d_46">
      <g>
       <use style="stroke:#000000;stroke-width:0.6;" x="52.9" xlink:href="#m7f165f9c33" y="112.133325"/>
      </g>
     </g>
    </g>
    <g id="ytick_26">
     <g id="line2d_47">
      <g>
       <use style="stroke:#000000;stroke-width:0.6;" x="52.9" xlink:href="#m7f165f9c33" y="108.077405"/>
      </g>
     </g>
    </g>
    <g id="ytick_27">
     <g id="line2d_48">
      <g>
       <use style="stroke:#000000;stroke-width:0.6;" x="52.9" xlink:href="#m7f165f9c33" y="104.564008"/>
      </g>
     </g>
    </g>
    <g id="ytick_28">
     <g id="line2d_49">
      <g>
       <use style="stroke:#000000;stroke-width:0.6;" x="52.9" xlink:href="#m7f165f9c33" y="101.464971"/>
      </g>
     </g>
    </g>
    <g id="ytick_29">
     <g id="line2d_50">
      <g>
       <use style="stroke:#000000;stroke-width:0.6;" x="52.9" xlink:href="#m7f165f9c33" y="80.455117"/>
      </g>
     </g>
    </g>
    <g id="ytick_30">
     <g id="line2d_51">
      <g>
       <use style="stroke:#000000;stroke-width:0.6;" x="52.9" xlink:href="#m7f165f9c33" y="69.786762"/>
      </g>
     </g>
    </g>
    <g id="ytick_31">
     <g id="line2d_52">
      <g>
       <use style="stroke:#000000;stroke-width:0.6;" x="52.9" xlink:href="#m7f165f9c33" y="62.217444"/>
      </g>
     </g>
    </g>
    <g id="ytick_32">
     <g id="line2d_53">
      <g>
       <use style="stroke:#000000;stroke-width:0.6;" x="52.9" xlink:href="#m7f165f9c33" y="56.346225"/>
      </g>
     </g>
    </g>
    <g id="ytick_33">
     <g id="line2d_54">
      <g>
       <use style="stroke:#000000;stroke-width:0.6;" x="52.9" xlink:href="#m7f165f9c33" y="51.54909"/>
      </g>
     </g>
    </g>
    <g id="ytick_34">
     <g id="line2d_55">
      <g>
       <use style="stroke:#000000;stroke-width:0.6;" x="52.9" xlink:href="#m7f165f9c33" y="47.49317"/>
      </g>
     </g>
    </g>
    <g id="ytick_35">
     <g id="line2d_56">
      <g>
       <use style="stroke:#000000;stroke-width:0.6;" x="52.9" xlink:href="#m7f165f9c33" y="43.979772"/>
      </g>
     </g>
    </g>
    <g id="ytick_36">
     <g id="line2d_57">
      <g>
       <use style="stroke:#000000;stroke-width:0.6;" x="52.9" xlink:href="#m7f165f9c33" y="40.880736"/>
      </g>
     </g>
    </g>
    <g id="ytick_37">
     <g id="line2d_58">
      <g>
       <use style="stroke:#000000;stroke-width:0.6;" x="52.9" xlink:href="#m7f165f9c33" y="19.870881"/>
      </g>
     </g>
    </g>
    <g id="text_9">
     <!-- Dispersion  $\langle ( {\bf x - x_0 } )^2 \rangle$ -->
     <defs>
      <path d="M 19.671875 64.796875 
L 19.671875 8.109375 
L 31.59375 8.109375 
Q 46.6875 8.109375 53.6875 14.9375 
Q 60.6875 21.78125 60.6875 36.53125 
Q 60.6875 51.171875 53.6875 57.984375 
Q 46.6875 64.796875 31.59375 64.796875 
z
M 9.8125 72.90625 
L 30.078125 72.90625 
Q 51.265625 72.90625 61.171875 64.09375 
Q 71.09375 55.28125 71.09375 36.53125 
Q 71.09375 17.671875 61.125 8.828125 
Q 51.171875 0 30.078125 0 
L 9.8125 0 
z
" id="DejaVuSans-68"/>
      <path d="M 44.28125 53.078125 
L 44.28125 44.578125 
Q 40.484375 46.53125 36.375 47.5 
Q 32.28125 48.484375 27.875 48.484375 
Q 21.1875 48.484375 17.84375 46.4375 
Q 14.5 44.390625 14.5 40.28125 
Q 14.5 37.15625 16.890625 35.375 
Q 19.28125 33.59375 26.515625 31.984375 
L 29.59375 31.296875 
Q 39.15625 29.25 43.1875 25.515625 
Q 47.21875 21.78125 47.21875 15.09375 
Q 47.21875 7.46875 41.1875 3.015625 
Q 35.15625 -1.421875 24.609375 -1.421875 
Q 20.21875 -1.421875 15.453125 -0.5625 
Q 10.6875 0.296875 5.421875 2 
L 5.421875 11.28125 
Q 10.40625 8.6875 15.234375 7.390625 
Q 20.0625 6.109375 24.8125 6.109375 
Q 31.15625 6.109375 34.5625 8.28125 
Q 37.984375 10.453125 37.984375 14.40625 
Q 37.984375 18.0625 35.515625 20.015625 
Q 33.0625 21.96875 24.703125 23.78125 
L 21.578125 24.515625 
Q 13.234375 26.265625 9.515625 29.90625 
Q 5.8125 33.546875 5.8125 39.890625 
Q 5.8125 47.609375 11.28125 51.796875 
Q 16.75 56 26.8125 56 
Q 31.78125 56 36.171875 55.265625 
Q 40.578125 54.546875 44.28125 53.078125 
z
" id="DejaVuSans-115"/>
      <path d="M 18.109375 8.203125 
L 18.109375 -20.796875 
L 9.078125 -20.796875 
L 9.078125 54.6875 
L 18.109375 54.6875 
L 18.109375 46.390625 
Q 20.953125 51.265625 25.265625 53.625 
Q 29.59375 56 35.59375 56 
Q 45.5625 56 51.78125 48.09375 
Q 58.015625 40.1875 58.015625 27.296875 
Q 58.015625 14.40625 51.78125 6.484375 
Q 45.5625 -1.421875 35.59375 -1.421875 
Q 29.59375 -1.421875 25.265625 0.953125 
Q 20.953125 3.328125 18.109375 8.203125 
z
M 48.6875 27.296875 
Q 48.6875 37.203125 44.609375 42.84375 
Q 40.53125 48.484375 33.40625 48.484375 
Q 26.265625 48.484375 22.1875 42.84375 
Q 18.109375 37.203125 18.109375 27.296875 
Q 18.109375 17.390625 22.1875 11.75 
Q 26.265625 6.109375 33.40625 6.109375 
Q 40.53125 6.109375 44.609375 11.75 
Q 48.6875 17.390625 48.6875 27.296875 
z
" id="DejaVuSans-112"/>
      <path d="M 41.109375 46.296875 
Q 39.59375 47.171875 37.8125 47.578125 
Q 36.03125 48 33.890625 48 
Q 26.265625 48 22.1875 43.046875 
Q 18.109375 38.09375 18.109375 28.8125 
L 18.109375 0 
L 9.078125 0 
L 9.078125 54.6875 
L 18.109375 54.6875 
L 18.109375 46.1875 
Q 20.953125 51.171875 25.484375 53.578125 
Q 30.03125 56 36.53125 56 
Q 37.453125 56 38.578125 55.875 
Q 39.703125 55.765625 41.0625 55.515625 
z
" id="DejaVuSans-114"/>
      <path d="M 30.609375 48.390625 
Q 23.390625 48.390625 19.1875 42.75 
Q 14.984375 37.109375 14.984375 27.296875 
Q 14.984375 17.484375 19.15625 11.84375 
Q 23.34375 6.203125 30.609375 6.203125 
Q 37.796875 6.203125 41.984375 11.859375 
Q 46.1875 17.53125 46.1875 27.296875 
Q 46.1875 37.015625 41.984375 42.703125 
Q 37.796875 48.390625 30.609375 48.390625 
z
M 30.609375 56 
Q 42.328125 56 49.015625 48.375 
Q 55.71875 40.765625 55.71875 27.296875 
Q 55.71875 13.875 49.015625 6.21875 
Q 42.328125 -1.421875 30.609375 -1.421875 
Q 18.84375 -1.421875 12.171875 6.21875 
Q 5.515625 13.875 5.515625 27.296875 
Q 5.515625 40.765625 12.171875 48.375 
Q 18.84375 56 30.609375 56 
z
" id="DejaVuSans-111"/>
      <path d="M 54.890625 33.015625 
L 54.890625 0 
L 45.90625 0 
L 45.90625 32.71875 
Q 45.90625 40.484375 42.875 44.328125 
Q 39.84375 48.1875 33.796875 48.1875 
Q 26.515625 48.1875 22.3125 43.546875 
Q 18.109375 38.921875 18.109375 30.90625 
L 18.109375 0 
L 9.078125 0 
L 9.078125 54.6875 
L 18.109375 54.6875 
L 18.109375 46.1875 
Q 21.34375 51.125 25.703125 53.5625 
Q 30.078125 56 35.796875 56 
Q 45.21875 56 50.046875 50.171875 
Q 54.890625 44.34375 54.890625 33.015625 
z
" id="DejaVuSans-110"/>
      <path id="DejaVuSans-32"/>
      <path d="M 8.9375 31.34375 
L 22.703125 75.875 
L 31 75.875 
L 17.234375 31.34375 
L 31 -13.1875 
L 22.703125 -13.1875 
z
" id="DejaVuSans-10216"/>
      <path d="M 31 75.875 
Q 24.46875 64.65625 21.28125 53.65625 
Q 18.109375 42.671875 18.109375 31.390625 
Q 18.109375 20.125 21.3125 9.0625 
Q 24.515625 -2 31 -13.1875 
L 23.1875 -13.1875 
Q 15.875 -1.703125 12.234375 9.375 
Q 8.59375 20.453125 8.59375 31.390625 
Q 8.59375 42.28125 12.203125 53.3125 
Q 15.828125 64.359375 23.1875 75.875 
z
" id="DejaVuSans-40"/>
      <path d="M 22.21875 27.984375 
L 2.484375 54.6875 
L 21 54.6875 
L 32.171875 38.484375 
L 43.5 54.6875 
L 62.015625 54.6875 
L 42.28125 28.078125 
L 62.984375 0 
L 44.484375 0 
L 32.171875 17.28125 
L 20.015625 0 
L 1.515625 0 
z
" id="DejaVuSans-Bold-120"/>
      <path d="M 10.59375 37.109375 
L 73.1875 37.109375 
L 73.1875 25.59375 
L 10.59375 25.59375 
z
" id="DejaVuSans-Bold-8722"/>
      <path d="M 46 36.53125 
Q 46 50.203125 43.4375 55.78125 
Q 40.875 61.375 34.8125 61.375 
Q 28.765625 61.375 26.171875 55.78125 
Q 23.578125 50.203125 23.578125 36.53125 
Q 23.578125 22.703125 26.171875 17.03125 
Q 28.765625 11.375 34.8125 11.375 
Q 40.828125 11.375 43.40625 17.03125 
Q 46 22.703125 46 36.53125 
z
M 64.796875 36.375 
Q 64.796875 18.265625 56.984375 8.421875 
Q 49.171875 -1.421875 34.8125 -1.421875 
Q 20.40625 -1.421875 12.59375 8.421875 
Q 4.78125 18.265625 4.78125 36.375 
Q 4.78125 54.546875 12.59375 64.375 
Q 20.40625 74.21875 34.8125 74.21875 
Q 49.171875 74.21875 56.984375 64.375 
Q 64.796875 54.546875 64.796875 36.375 
z
" id="DejaVuSans-Bold-48"/>
      <path d="M 8.015625 75.875 
L 15.828125 75.875 
Q 23.140625 64.359375 26.78125 53.3125 
Q 30.421875 42.28125 30.421875 31.390625 
Q 30.421875 20.453125 26.78125 9.375 
Q 23.140625 -1.703125 15.828125 -13.1875 
L 8.015625 -13.1875 
Q 14.5 -2 17.703125 9.0625 
Q 20.90625 20.125 20.90625 31.390625 
Q 20.90625 42.671875 17.703125 53.65625 
Q 14.5 64.65625 8.015625 75.875 
z
" id="DejaVuSans-41"/>
      <path d="M 30.078125 31.34375 
L 16.3125 -13.1875 
L 8.015625 -13.1875 
L 21.78125 31.34375 
L 8.015625 75.875 
L 16.3125 75.875 
z
" id="DejaVuSans-10217"/>
     </defs>
     <g transform="translate(16.3 198.906)rotate(-90)scale(0.1 -0.1)">
      <use transform="translate(0 0.765625)" xlink:href="#DejaVuSans-68"/>
      <use transform="translate(77.001953 0.765625)" xlink:href="#DejaVuSans-105"/>
      <use transform="translate(104.785156 0.765625)" xlink:href="#DejaVuSans-115"/>
      <use transform="translate(156.884766 0.765625)" xlink:href="#DejaVuSans-112"/>
      <use transform="translate(220.361328 0.765625)" xlink:href="#DejaVuSans-101"/>
      <use transform="translate(281.884766 0.765625)" xlink:href="#DejaVuSans-114"/>
      <use transform="translate(322.998047 0.765625)" xlink:href="#DejaVuSans-115"/>
      <use transform="translate(375.097656 0.765625)" xlink:href="#DejaVuSans-105"/>
      <use transform="translate(402.880859 0.765625)" xlink:href="#DejaVuSans-111"/>
      <use transform="translate(464.0625 0.765625)" xlink:href="#DejaVuSans-110"/>
      <use transform="translate(527.441406 0.765625)" xlink:href="#DejaVuSans-32"/>
      <use transform="translate(559.228516 0.765625)" xlink:href="#DejaVuSans-32"/>
      <use transform="translate(591.015625 0.765625)" xlink:href="#DejaVuSans-10216"/>
      <use transform="translate(630.029297 0.765625)" xlink:href="#DejaVuSans-40"/>
      <use transform="translate(669.042969 0.765625)" xlink:href="#DejaVuSans-Bold-120"/>
      <use transform="translate(754.384766 0.765625)" xlink:href="#DejaVuSans-Bold-8722"/>
      <use transform="translate(859.013672 0.765625)" xlink:href="#DejaVuSans-Bold-120"/>
      <use transform="translate(924.472656 -15.640625)scale(0.7)" xlink:href="#DejaVuSans-Bold-48"/>
      <use transform="translate(975.913086 0.765625)" xlink:href="#DejaVuSans-41"/>
      <use transform="translate(1015.883789 39.046875)scale(0.7)" xlink:href="#DejaVuSans-50"/>
      <use transform="translate(1063.154297 0.765625)" xlink:href="#DejaVuSans-10217"/>
     </g>
    </g>
   </g>
   <g id="line2d_59">
    <path clip-path="url(#pfe550eb20b)" d="M -1 190.442201 
L 69.132727 162.049206 
L 114.043875 131.127691 
L 140.315213 108.477642 
L 158.955023 123.055459 
L 173.413183 144.00174 
L 185.22636 161.436098 
L 195.214259 166.966381 
L 203.866171 135.264686 
L 211.497698 126.084829 
L 218.324331 104.676172 
L 224.499772 90.715612 
L 230.137508 79.202852 
L 235.323723 84.055504 
L 240.125407 86.536277 
L 244.595669 81.356428 
L 248.777319 91.660755 
L 252.705376 99.305762 
L 256.408846 86.069533 
L 259.912028 89.479229 
L 263.235479 102.023739 
L 266.396745 117.059549 
L 269.41092 143.381719 
L 272.291087 201.71127 
L 275.048656 195.518821 
L 277.69364 141.105616 
L 280.234871 127.401743 
L 282.680183 155.143435 
L 285.036555 125.437808 
L 287.31023 144.662319 
L 289.506817 192.697107 
L 291.631371 202.971459 
L 293.688467 148.470243 
L 295.682258 122.307132 
L 297.616523 112.999789 
L 299.494716 133.661725 
L 301.319994 137.865439 
L 303.095258 113.224943 
L 304.823176 105.189861 
L 306.506208 124.698494 
L 308.146627 105.997768 
L 309.746538 127.959367 
L 311.307893 120.353282 
L 312.832506 101.542846 
L 314.322068 120.520233 
L 315.778154 112.230861 
L 317.202235 95.699372 
L 318.595689 86.67683 
L 319.959804 93.006586 
L 321.295792 95.741102 
L 322.604787 113.254556 
L 323.887861 135.242821 
L 325.146019 129.45529 
L 326.38021 107.315112 
L 327.591331 109.934735 
L 328.780229 97.413251 
L 329.947703 89.521094 
L 331.094513 86.653319 
L 332.221378 100.754683 
L 333.328979 86.483399 
L 334.417965 82.136669 
L 335.488949 92.851868 
L 336.542518 101.466771 
L 337.57923 95.654472 
L 338.599615 111.464445 
L 339.604179 116.668231 
L 340.593406 145.463583 
L 341.567756 147.396131 
L 342.527671 117.901181 
L 343.473573 115.063281 
L 344.405863 120.906886 
L 345.32493 150.959247 
L 346.231142 189.922675 
L 347.124854 156.650859 
L 348.006406 157.960984 
L 348.876125 124.042832 
L 349.734324 108.883345 
L 350.581305 119.198149 
L 351.417356 119.381113 
L 352.242757 104.869321 
L 353.057775 105.762664 
L 353.862669 99.440437 
L 354.657686 101.7271 
L 355.443066 93.200659 
L 356.219041 108.910243 
L 356.985832 92.775192 
L 357.743654 92.291004 
L 358.492716 102.401985 
L 359.233216 87.716404 
L 359.965349 102.204108 
L 360.689302 103.103598 
L 361.405255 121.279375 
L 362.113383 108.614638 
L 362.813856 132.268925 
L 363.506837 111.065993 
L 364.192484 99.741284 
L 364.870952 102.519897 
L 365.542389 90.07471 
L 366.864743 71.923144 
L 368.160648 56.084861 
L 368.799009 62.237422 
L 369.431141 70.395192 
L 370.057167 72.763279 
L 370.677201 67.03354 
L 371.291358 75.12741 
L 371.899748 73.014335 
L 372.502479 69.043519 
L 373.099655 77.244077 
L 373.691376 74.679528 
L 374.277743 66.304428 
L 375.434793 83.697745 
L 376.005661 90.224043 
L 376.571543 81.693192 
L 377.132526 79.890522 
L 377.688693 69.870202 
L 378.240127 79.816512 
L 378.786908 70.321224 
L 379.329112 80.318084 
L 380.400097 87.195463 
L 381.453666 103.294187 
L 381.974096 89.598375 
L 382.490378 86.523308 
L 383.002579 75.715626 
L 383.510763 76.850835 
L 384.515327 60.601093 
L 385.011828 67.6095 
L 385.504554 68.89478 
L 386.478904 73.815189 
L 386.960639 67.874011 
L 387.438819 64.869202 
L 388.384721 55.266961 
L 388.852543 62.63976 
L 389.317011 62.987173 
L 389.778174 55.910831 
L 390.236078 55.562623 
L 390.690768 55.705464 
L 391.14229 59.212547 
L 391.590686 56.975603 
L 392.036002 60.520282 
L 392.478277 59.196574 
L 393.353873 76.671762 
L 393.787273 73.085313 
L 393.787273 73.085313 
" style="fill:none;stroke:#1f77b4;stroke-linecap:square;stroke-width:1.5;"/>
   </g>
   <g id="line2d_60">
    <path clip-path="url(#pfe550eb20b)" d="M -1 190.442201 
L 69.132727 162.049206 
L 114.043875 143.057646 
L 140.315213 197.544977 
L 158.955023 140.423265 
L 173.413183 195.101349 
L 185.22636 199.75589 
L 195.214259 157.551999 
L 203.866171 136.21801 
L 211.497698 184.551011 
L 218.324331 174.865556 
L 224.499772 151.603432 
L 230.137508 120.216178 
L 235.323723 105.303961 
L 240.125407 127.130471 
L 244.595669 131.783186 
L 248.777319 125.634092 
L 252.705376 138.821219 
L 256.408846 124.107828 
L 259.912028 117.171776 
L 263.235479 98.489454 
L 266.396745 89.035016 
L 269.41092 102.125624 
L 272.291087 106.868107 
L 275.048656 95.673965 
L 277.69364 100.802224 
L 280.234871 92.705047 
L 282.680183 91.097834 
L 285.036555 90.141083 
L 287.31023 102.513382 
L 289.506817 103.320583 
L 291.631371 121.726505 
L 293.688467 107.624646 
L 295.682258 119.168547 
L 297.616523 107.60205 
L 299.494716 102.281707 
L 301.319994 93.654149 
L 303.095258 81.375286 
L 304.823176 73.066303 
L 306.506208 64.184771 
L 308.146627 71.232088 
L 309.746538 62.79508 
L 311.307893 71.214837 
L 312.832506 74.899102 
L 315.778154 95.214461 
L 317.202235 91.484355 
L 318.595689 80.084234 
L 319.959804 71.483226 
L 321.295792 80.147298 
L 322.604787 70.647861 
L 323.887861 63.68542 
L 325.146019 66.370849 
L 326.38021 69.936851 
L 327.591331 77.451469 
L 328.780229 69.103957 
L 329.947703 78.26655 
L 331.094513 68.538666 
L 333.328979 54.799961 
L 334.417965 54.20111 
L 336.542518 66.31322 
L 337.57923 67.470364 
L 338.599615 59.632408 
L 339.604179 60.541039 
L 340.593406 58.913144 
L 341.567756 54.630693 
L 342.527671 48.425171 
L 343.473573 54.806219 
L 344.405863 59.098542 
L 345.32493 66.96882 
L 346.231142 59.99722 
L 347.124854 61.951119 
L 348.006406 57.826237 
L 348.876125 58.313587 
L 351.417356 73.633854 
L 352.242757 83.909508 
L 353.057775 73.746645 
L 353.862669 83.890682 
L 354.657686 88.627669 
L 356.219041 100.838898 
L 356.985832 115.947015 
L 357.743654 101.26716 
L 358.492716 106.664694 
L 359.233216 98.722145 
L 359.965349 93.183123 
L 360.689302 109.752521 
L 361.405255 114.870734 
L 362.113383 130.512713 
L 362.813856 107.917763 
L 363.506837 91.981696 
L 364.192484 98.681873 
L 364.870952 84.916125 
L 365.542389 92.634401 
L 366.206939 80.464741 
L 367.515935 63.703607 
L 368.160648 61.270357 
L 368.799009 57.127967 
L 369.431141 54.762424 
L 370.057167 60.277505 
L 370.677201 59.54461 
L 371.291358 53.454646 
L 371.899748 49.75431 
L 372.502479 55.555751 
L 373.099655 55.957944 
L 373.691376 60.564595 
L 374.277743 55.589076 
L 374.858851 62.856001 
L 375.434793 68.262772 
L 376.005661 65.250935 
L 376.571543 60.294788 
L 377.132526 65.084942 
L 377.688693 67.646671 
L 378.240127 60.85328 
L 378.786908 64.460252 
L 379.329112 73.344934 
L 379.866818 71.479174 
L 380.400097 63.119535 
L 380.929023 57.519172 
L 381.453666 62.610833 
L 382.490378 57.64837 
L 383.510763 45.788865 
L 384.515327 36.124264 
L 385.011828 39.524805 
L 385.504554 39.900563 
L 385.99356 42.805484 
L 386.478904 41.684103 
L 386.960639 45.054523 
L 387.913496 36.882298 
L 388.384721 35.660552 
L 388.852543 37.420457 
L 389.317011 39.711156 
L 390.236078 41.32882 
L 390.690768 42.817124 
L 391.14229 37.630383 
L 391.590686 40.34491 
L 392.036002 44.617719 
L 392.478277 50.332719 
L 392.917554 44.394426 
L 393.787273 56.244512 
L 393.787273 56.244512 
" style="fill:none;stroke:#ff7f0e;stroke-linecap:square;stroke-width:1.5;"/>
   </g>
   <g id="line2d_61">
    <path clip-path="url(#pfe550eb20b)" d="M -1 190.442201 
L 69.132727 162.049206 
L 114.043875 127.128374 
L 140.315213 161.544293 
L 158.955023 128.617208 
L 173.413183 106.303532 
L 185.22636 126.20331 
L 195.214259 163.259993 
L 203.866171 202.293288 
L 211.497698 144.321275 
L 218.324331 134.880362 
L 224.499772 117.490019 
L 230.137508 136.522651 
L 235.323723 183.521965 
L 240.125407 172.445244 
L 244.595669 186.008797 
L 248.777319 170.451167 
L 252.705376 143.549141 
L 256.408846 122.658494 
L 259.912028 109.853061 
L 263.235479 110.327885 
L 266.396745 130.112701 
L 269.41092 150.910891 
L 272.291087 167.472904 
L 275.048656 163.465287 
L 277.69364 151.378371 
L 280.234871 120.15789 
L 282.680183 139.585697 
L 285.036555 147.460532 
L 287.31023 127.547639 
L 289.506817 114.73623 
L 291.631371 96.896715 
L 293.688467 89.831644 
L 295.682258 92.577186 
L 297.616523 90.025612 
L 299.494716 79.0544 
L 301.319994 85.784606 
L 303.095258 77.73141 
L 304.823176 80.619223 
L 306.506208 71.830572 
L 308.146627 71.682091 
L 309.746538 68.747305 
L 311.307893 68.545167 
L 312.832506 62.36768 
L 314.322068 56.299781 
L 315.778154 58.95079 
L 317.202235 58.42403 
L 318.595689 59.684467 
L 319.959804 66.157453 
L 321.295792 71.551422 
L 322.604787 72.79091 
L 323.887861 79.703556 
L 325.146019 70.096019 
L 326.38021 79.403469 
L 327.591331 91.391486 
L 328.780229 107.07516 
L 329.947703 91.312888 
L 331.094513 83.917696 
L 332.221378 73.349377 
L 333.328979 79.574939 
L 334.417965 91.810695 
L 335.488949 95.545484 
L 336.542518 103.144609 
L 337.57923 117.824255 
L 338.599615 138.648867 
L 339.604179 112.983819 
L 340.593406 136.110238 
L 341.567756 156.003266 
L 342.527671 163.633035 
L 343.473573 131.052719 
L 344.405863 109.096118 
L 345.32493 105.734402 
L 346.231142 122.051437 
L 347.124854 128.006506 
L 348.006406 166.809156 
L 348.876125 128.852844 
L 349.734324 108.621186 
L 350.581305 132.254099 
L 351.417356 163.753248 
L 352.242757 147.33329 
L 353.057775 129.573127 
L 353.862669 111.355663 
L 354.657686 94.380403 
L 355.443066 104.407775 
L 356.219041 106.243355 
L 356.985832 117.319305 
L 357.743654 100.482399 
L 358.492716 91.31985 
" style="fill:none;stroke:#2ca02c;stroke-linecap:square;stroke-width:1.5;"/>
   </g>
   <g id="line2d_62">
    <path clip-path="url(#pfe550eb20b)" d="M -1 190.442201 
L 69.132727 162.049206 
L 114.043875 231.939814 
" style="fill:none;stroke:#d62728;stroke-linecap:square;stroke-width:1.5;"/>
   </g>
   <g id="line2d_63">
    <path clip-path="url(#pfe550eb20b)" d="M -1 190.442201 
L 69.132727 162.049206 
L 114.043875 166.554754 
L 140.315213 198.181638 
L 158.955023 156.860715 
L 173.413183 142.561666 
L 185.22636 124.459773 
L 195.214259 111.018255 
L 203.866171 135.97824 
L 211.497698 111.003823 
L 218.324331 104.865115 
L 224.499772 112.230872 
L 230.137508 127.090406 
L 235.323723 128.645541 
" style="fill:none;stroke:#9467bd;stroke-linecap:square;stroke-width:1.5;"/>
   </g>
   <g id="line2d_64">
    <path clip-path="url(#pfe550eb20b)" d="M -1 190.442201 
L 69.132727 162.049206 
L 114.043875 126.866047 
L 140.315213 155.044125 
L 158.955023 122.592454 
L 173.413183 112.163504 
L 185.22636 94.94014 
L 195.214259 83.140459 
L 203.866171 73.020964 
L 211.497698 78.968859 
L 218.324331 89.007516 
L 224.499772 102.879167 
L 230.137508 91.7249 
L 235.323723 86.435301 
L 240.125407 78.411051 
L 244.595669 80.917715 
L 248.777319 73.996136 
L 252.705376 66.653227 
L 256.408846 70.725377 
L 259.912028 80.664153 
L 263.235479 91.91436 
L 266.396745 91.987819 
L 269.41092 100.71508 
L 272.291087 107.126546 
L 275.048656 98.719805 
L 277.69364 90.909863 
L 280.234871 106.416989 
L 282.680183 117.254509 
L 285.036555 101.331857 
L 287.31023 92.395408 
L 289.506817 106.323439 
L 291.631371 120.997436 
L 293.688467 101.261291 
L 295.682258 87.229857 
L 297.616523 99.931432 
L 299.494716 87.169594 
L 301.319994 89.043114 
L 303.095258 77.978208 
L 304.823176 82.663184 
L 306.506208 95.057868 
L 308.146627 94.082084 
L 309.746538 82.413718 
L 311.307893 77.597524 
L 312.832506 69.961336 
L 314.322068 62.200965 
L 315.778154 55.839115 
L 317.202235 62.842638 
L 318.595689 60.684878 
L 319.959804 59.402143 
L 321.295792 65.39256 
L 322.604787 61.437266 
L 323.887861 61.646424 
L 325.146019 60.221794 
L 326.38021 53.680966 
L 327.591331 57.440287 
L 328.780229 54.125576 
L 329.947703 51.173887 
L 331.094513 54.38329 
L 332.221378 48.213005 
L 333.328979 48.015214 
L 334.417965 42.379755 
L 335.488949 37.462978 
L 336.542518 40.027079 
L 337.57923 35.114032 
L 338.599615 34.923689 
L 339.604179 38.496856 
L 340.593406 37.990302 
L 341.567756 40.428397 
L 342.527671 37.857727 
L 343.473573 33.258459 
L 344.405863 35.724106 
L 345.32493 35.990633 
L 346.231142 31.953546 
L 347.124854 31.204221 
L 348.006406 30.870002 
L 348.876125 29.006869 
L 349.734324 25.118769 
L 350.581305 23.560413 
L 351.417356 27.157977 
L 352.242757 23.887383 
L 353.057775 25.509876 
L 353.862669 22.796 
L 354.657686 26.575847 
L 355.443066 26.614759 
L 356.219041 24.590235 
L 356.985832 27.944449 
L 357.743654 31.664612 
L 358.492716 32.944527 
L 359.233216 37.464519 
L 359.965349 42.640599 
L 360.689302 38.114706 
L 361.405255 33.578445 
L 362.113383 38.033951 
L 362.813856 33.767746 
L 363.506837 29.41291 
L 364.192484 26.669114 
L 364.870952 30.06849 
L 365.542389 34.535597 
L 366.206939 37.913559 
L 366.864743 41.044596 
L 367.515935 36.039799 
L 368.160648 32.905441 
L 368.799009 30.118812 
" style="fill:none;stroke:#8c564b;stroke-linecap:square;stroke-width:1.5;"/>
   </g>
   <g id="line2d_65">
    <path clip-path="url(#pfe550eb20b)" d="M -1 190.442201 
L 69.132727 162.049206 
L 114.043875 128.945503 
L 140.315213 148.407809 
L 158.955023 134.857943 
L 173.413183 121.444109 
L 185.22636 104.098301 
L 195.214259 119.506163 
L 203.866171 144.362935 
L 211.497698 116.396788 
L 218.324331 98.075115 
L 224.499772 85.045716 
L 230.137508 81.004521 
L 235.323723 74.282314 
L 240.125407 69.108664 
L 244.595669 71.294404 
L 248.777319 62.894029 
L 252.705376 55.476566 
L 256.408846 58.751591 
L 259.912028 66.595897 
L 263.235479 71.880032 
L 266.396745 81.513839 
L 269.41092 92.294413 
L 272.291087 108.199778 
L 275.048656 130.976895 
L 277.69364 125.51514 
L 280.234871 108.626878 
L 282.680183 126.61288 
L 285.036555 130.843972 
L 287.31023 110.189638 
L 289.506817 98.310436 
L 291.631371 95.2293 
L 293.688467 86.89525 
L 295.682258 91.075865 
L 297.616523 83.375038 
L 299.494716 96.70473 
L 301.319994 84.480348 
L 303.095258 95.008352 
L 304.823176 82.065278 
L 306.506208 80.129959 
L 308.146627 92.234596 
L 309.746538 101.542057 
L 311.307893 95.14499 
L 312.832506 82.156471 
L 314.322068 83.810624 
L 315.778154 78.665808 
L 317.202235 69.134217 
L 318.595689 78.997546 
L 319.959804 76.583441 
L 321.295792 80.818466 
L 322.604787 92.515927 
L 323.887861 86.884743 
L 325.146019 85.281199 
L 326.38021 96.675405 
L 327.591331 86.496278 
L 328.780229 100.620083 
L 329.947703 90.351843 
L 331.094513 105.784324 
L 332.221378 101.703666 
L 333.328979 89.184474 
L 334.417965 91.518989 
L 335.488949 90.684806 
L 337.57923 75.916388 
L 338.599615 66.805027 
L 339.604179 68.88434 
L 340.593406 77.130316 
L 341.567756 79.36899 
L 342.527671 91.204305 
L 343.473573 91.644277 
L 344.405863 79.505553 
L 345.32493 79.838203 
L 346.231142 82.79127 
L 347.124854 94.870117 
L 348.006406 111.000363 
L 348.876125 94.189557 
L 349.734324 91.518087 
L 350.581305 82.168282 
L 351.417356 86.799909 
L 352.242757 90.727557 
L 353.057775 96.16674 
L 353.862669 82.986651 
L 355.443066 65.778285 
L 356.219041 68.999301 
L 356.985832 78.841872 
L 357.743654 74.297712 
L 358.492716 79.823596 
L 359.233216 71.645665 
L 359.965349 79.640408 
L 360.689302 89.75497 
L 361.405255 85.745728 
L 362.113383 88.841829 
L 362.813856 77.363755 
L 363.506837 68.992563 
L 364.192484 77.997237 
L 364.870952 79.940004 
L 365.542389 70.522542 
L 366.206939 69.202651 
L 366.864743 71.197656 
L 367.515935 76.171829 
L 368.160648 84.104652 
L 368.799009 78.254112 
L 369.431141 84.289707 
L 370.057167 96.029888 
L 370.677201 87.320753 
L 371.291358 99.280215 
L 371.899748 103.390307 
L 373.099655 81.433419 
L 373.691376 92.720904 
L 374.277743 108.855568 
L 374.858851 105.628771 
L 375.434793 90.821532 
L 376.005661 89.833277 
L 376.571543 94.286663 
L 377.132526 86.60289 
L 377.688693 100.439252 
L 378.240127 102.980998 
L 378.786908 88.358298 
L 379.329112 76.925806 
L 379.866818 71.617191 
L 380.400097 81.310142 
L 380.929023 78.34194 
L 381.453666 80.496679 
L 382.490378 63.398303 
L 383.002579 67.341888 
L 383.510763 72.586902 
L 384.014992 80.786791 
L 384.515327 82.913074 
L 385.011828 88.951652 
L 385.504554 85.393886 
L 385.99356 98.443102 
L 386.478904 90.834209 
L 386.960639 92.421798 
L 387.438819 81.919389 
L 387.913496 83.132284 
L 388.852543 64.778665 
L 389.317011 65.426018 
L 389.778174 66.721046 
L 390.236078 65.573543 
L 391.14229 69.096407 
L 391.590686 74.767669 
L 392.036002 82.837285 
L 392.917554 104.354529 
L 393.353873 91.754718 
L 393.787273 102.873965 
L 393.787273 102.873965 
" style="fill:none;stroke:#e377c2;stroke-linecap:square;stroke-width:1.5;"/>
   </g>
   <g id="line2d_66">
    <path clip-path="url(#pfe550eb20b)" d="M -1 190.442201 
L 69.132727 162.049206 
L 114.043875 152.953529 
L 140.315213 120.8398 
L 158.955023 143.731428 
L 173.413183 119.635412 
L 185.22636 100.709958 
L 195.214259 120.262284 
L 203.866171 109.430882 
L 211.497698 93.340906 
L 218.324331 87.839813 
L 224.499772 84.189109 
L 230.137508 77.962195 
L 235.323723 73.737026 
L 240.125407 68.170696 
L 244.595669 75.793376 
L 248.777319 68.604869 
L 252.705376 74.102693 
L 256.408846 84.784921 
L 259.912028 75.085943 
L 263.235479 76.607311 
L 266.396745 73.368157 
L 269.41092 75.69225 
L 272.291087 78.588304 
L 275.048656 68.806207 
L 277.69364 77.718074 
L 280.234871 71.458305 
L 282.680183 75.660924 
L 285.036555 74.848824 
L 287.31023 82.908162 
L 289.506817 92.877621 
L 291.631371 99.641416 
L 293.688467 85.621055 
L 295.682258 99.227212 
L 297.616523 117.916603 
L 299.494716 99.125092 
L 301.319994 90.981487 
L 303.095258 92.536197 
L 304.823176 81.044781 
L 306.506208 85.688075 
L 308.146627 74.73906 
L 309.746538 85.493031 
L 311.307893 99.024363 
L 312.832506 89.365773 
L 314.322068 92.84328 
L 315.778154 87.107759 
L 317.202235 96.08285 
L 318.595689 83.268976 
L 319.959804 89.964997 
L 321.295792 79.964631 
L 323.887861 64.655093 
L 325.146019 61.389681 
L 326.38021 54.412039 
L 327.591331 60.607178 
L 328.780229 67.420196 
L 329.947703 60.460268 
L 331.094513 63.314499 
L 332.221378 72.061669 
L 333.328979 77.198625 
L 334.417965 67.983567 
L 335.488949 65.246755 
L 337.57923 81.033872 
L 338.599615 72.890798 
L 339.604179 82.357917 
L 340.593406 75.099784 
L 341.567756 65.882114 
L 342.527671 59.39711 
L 343.473573 65.35543 
L 344.405863 74.22128 
L 345.32493 71.477401 
L 348.876125 45.195672 
L 349.734324 43.654774 
L 350.581305 42.367657 
L 351.417356 47.340375 
L 352.242757 50.698632 
L 353.862669 40.989414 
L 354.657686 44.928998 
L 355.443066 50.567762 
L 356.985832 57.284472 
L 357.743654 58.034129 
L 358.492716 61.417468 
L 359.233216 58.302691 
L 359.965349 54.73218 
L 360.689302 61.657412 
L 362.113383 48.411755 
L 362.813856 47.937366 
L 363.506837 54.117771 
L 364.192484 48.711978 
L 365.542389 43.244967 
L 366.206939 48.982001 
L 367.515935 39.266627 
L 368.799009 49.418413 
L 369.431141 51.456202 
L 370.057167 46.173015 
L 370.677201 43.451373 
L 371.899748 48.625186 
L 373.099655 39.478407 
L 373.691376 43.380932 
L 374.277743 45.596776 
L 374.858851 41.196806 
L 375.434793 39.855985 
L 376.005661 35.603347 
L 376.571543 37.013276 
L 377.132526 39.581718 
L 377.688693 34.964933 
L 378.240127 32.936882 
L 378.786908 37.193134 
L 379.329112 33.231597 
L 379.866818 37.921384 
L 380.929023 29.153985 
L 381.453666 33.350077 
L 381.974096 28.98724 
L 383.002579 36.990587 
L 383.510763 36.556771 
L 384.014992 38.630065 
L 385.011828 29.507807 
L 385.99356 35.026547 
L 386.478904 34.10824 
L 386.960639 37.568514 
L 387.438819 36.944026 
L 387.913496 41.233765 
L 388.852543 52.937522 
L 389.317011 54.2174 
L 389.778174 51.100232 
L 390.236078 50.458462 
L 390.690768 51.032529 
L 391.590686 40.659991 
L 392.036002 38.366476 
L 393.353873 52.562993 
L 393.787273 59.580727 
L 393.787273 59.580727 
" style="fill:none;stroke:#7f7f7f;stroke-linecap:square;stroke-width:1.5;"/>
   </g>
   <g id="line2d_67">
    <path clip-path="url(#pfe550eb20b)" d="M -1 190.442201 
L 69.132727 162.049206 
L 114.043875 255.500884 
L 140.315213 171.119765 
L 158.955023 141.640958 
L 173.413183 156.239694 
L 185.22636 131.742964 
L 195.214259 113.652758 
L 203.866171 103.991082 
L 211.497698 99.035661 
L 218.324331 113.886658 
L 224.499772 123.488973 
L 230.137508 155.928455 
L 235.323723 179.001239 
L 240.125407 149.133666 
L 244.595669 118.746593 
L 248.777319 125.353145 
L 252.705376 156.322384 
L 256.408846 225.719815 
L 259.912028 149.599836 
L 263.235479 120.26396 
L 266.396745 109.043664 
L 269.41092 92.86577 
L 272.291087 83.920841 
L 275.048656 96.892104 
L 277.69364 86.554857 
L 280.234871 100.106999 
L 282.680183 93.93099 
L 285.036555 81.226053 
L 287.31023 84.616168 
L 289.506817 89.855278 
L 291.631371 79.75331 
L 293.688467 69.756657 
L 295.682258 66.679233 
L 297.616523 73.849237 
L 299.494716 70.488001 
L 301.319994 73.820308 
" style="fill:none;stroke:#bcbd22;stroke-linecap:square;stroke-width:1.5;"/>
   </g>
   <g id="line2d_68">
    <path clip-path="url(#pfe550eb20b)" d="M -1 190.442201 
L 69.132727 162.049206 
L 114.043875 125.960624 
L 140.315213 113.635296 
L 158.955023 96.502927 
L 173.413183 86.439144 
L 185.22636 100.685218 
L 195.214259 89.707269 
L 203.866171 78.291279 
L 211.497698 77.311547 
L 218.324331 86.682735 
L 224.499772 79.927327 
L 230.137508 83.681658 
L 235.323723 96.787967 
L 240.125407 91.520955 
L 244.595669 79.495136 
L 248.777319 82.967672 
L 252.705376 82.957176 
L 256.408846 73.367911 
L 259.912028 64.422316 
L 263.235479 58.506908 
L 266.396745 56.786957 
L 269.41092 59.38624 
L 272.291087 61.687338 
L 275.048656 68.278965 
L 277.69364 77.883785 
L 280.234871 82.756103 
L 282.680183 93.941516 
L 285.036555 105.282071 
L 287.31023 98.79532 
L 289.506817 88.784283 
L 291.631371 99.431069 
L 293.688467 92.243586 
L 295.682258 100.495552 
L 297.616523 98.962494 
L 299.494716 117.563863 
L 301.319994 119.227422 
L 303.095258 139.050701 
" style="fill:none;stroke:#17becf;stroke-linecap:square;stroke-width:1.5;"/>
   </g>
   <g id="line2d_69">
    <path clip-path="url(#pfe550eb20b)" style="fill:none;stroke:#1f77b4;stroke-linecap:square;stroke-width:1.5;"/>
   </g>
   <g id="line2d_70">
    <path clip-path="url(#pfe550eb20b)" style="fill:none;stroke:#ff7f0e;stroke-linecap:square;stroke-width:1.5;"/>
   </g>
   <g id="line2d_71">
    <path clip-path="url(#pfe550eb20b)" style="fill:none;stroke:#2ca02c;stroke-linecap:square;stroke-width:1.5;"/>
   </g>
   <g id="line2d_72">
    <path clip-path="url(#pfe550eb20b)" d="M -1 190.442201 
L 69.132727 162.049206 
L 114.043875 169.341076 
L 140.315213 130.378433 
L 158.955023 117.05604 
L 173.413183 101.913973 
L 185.22636 118.313627 
L 195.214259 147.3237 
L 203.866171 134.18428 
L 211.497698 112.151235 
L 218.324331 95.549372 
L 224.499772 108.6221 
L 230.137508 126.635441 
L 235.323723 134.438732 
L 240.125407 169.31348 
L 244.595669 214.525049 
L 248.777319 179.06264 
L 252.705376 135.110718 
L 256.408846 183.188865 
L 259.912028 137.41225 
L 263.235479 137.01086 
L 266.396745 130.292673 
L 269.41092 130.951326 
L 272.291087 107.907394 
L 275.048656 98.680669 
L 277.69364 108.289437 
L 280.234871 131.723703 
L 282.680183 116.89663 
L 285.036555 112.115561 
L 287.31023 95.88289 
L 289.506817 105.070404 
L 291.631371 98.268962 
L 293.688467 116.829976 
L 295.682258 100.820553 
L 297.616523 101.831424 
L 299.494716 120.87601 
L 301.319994 128.146425 
L 303.095258 142.112041 
L 304.823176 156.010671 
L 306.506208 217.504197 
L 308.146627 172.395671 
L 309.746538 142.054356 
L 311.307893 202.259761 
L 312.832506 194.896951 
L 314.322068 147.74487 
L 315.778154 148.718209 
L 317.202235 220.159682 
L 318.595689 173.372072 
L 319.959804 180.200013 
L 321.295792 138.379095 
L 322.604787 154.56768 
L 323.887861 200.428609 
L 325.146019 147.366996 
L 326.38021 168.062467 
L 327.591331 129.108954 
L 328.780229 121.258913 
L 329.947703 110.610509 
L 331.094513 132.952885 
L 332.221378 109.505182 
L 333.328979 95.878463 
L 334.417965 111.315523 
L 335.488949 100.876992 
L 336.542518 104.678904 
L 337.57923 124.126986 
L 338.599615 156.658282 
L 339.604179 170.116412 
L 340.593406 264.716 
L 341.567756 157.08296 
L 342.527671 139.503723 
L 343.473573 154.585171 
L 344.405863 124.774426 
L 345.32493 108.643749 
L 346.231142 97.028172 
L 347.124854 99.765498 
L 348.006406 100.842549 
L 348.876125 87.066726 
L 349.734324 100.904244 
L 350.581305 113.54104 
L 351.417356 96.094061 
L 352.242757 87.321077 
L 353.057775 77.552725 
L 353.862669 85.568432 
L 354.657686 75.862601 
L 355.443066 66.942726 
" style="fill:none;stroke:#d62728;stroke-linecap:square;stroke-width:1.5;"/>
   </g>
   <g id="line2d_73">
    <path clip-path="url(#pfe550eb20b)" d="M -1 190.442201 
L 69.132727 162.049206 
" style="fill:none;stroke:#9467bd;stroke-linecap:square;stroke-width:1.5;"/>
   </g>
   <g id="line2d_74">
    <path clip-path="url(#pfe550eb20b)" style="fill:none;stroke:#8c564b;stroke-linecap:square;stroke-width:1.5;"/>
   </g>
   <g id="line2d_75">
    <path clip-path="url(#pfe550eb20b)" d="M -1 190.442201 
L 69.132727 162.049206 
L 114.043875 140.513131 
L 140.315213 132.573819 
L 158.955023 152.819289 
L 173.413183 142.378627 
L 185.22636 155.050772 
L 195.214259 127.607076 
L 203.866171 164.568408 
L 211.497698 126.840665 
L 218.324331 142.958227 
L 224.499772 134.901518 
L 230.137508 110.852968 
L 235.323723 125.844176 
L 240.125407 119.664636 
L 244.595669 125.064412 
L 248.777319 149.707576 
L 252.705376 119.68955 
L 256.408846 113.922869 
L 259.912028 105.660792 
L 263.235479 92.89779 
L 266.396745 80.49795 
L 269.41092 70.367032 
L 272.291087 79.06224 
L 275.048656 81.873238 
L 277.69364 91.764691 
L 280.234871 93.693173 
L 282.680183 86.046341 
L 285.036555 78.395853 
L 287.31023 77.334354 
L 289.506817 69.691511 
L 291.631371 61.881466 
L 293.688467 55.049896 
L 295.682258 53.130256 
L 297.616523 54.488181 
L 299.494716 60.637613 
L 301.319994 68.495324 
L 303.095258 60.681116 
L 304.823176 68.007764 
L 306.506208 68.647318 
L 308.146627 67.895706 
L 309.746538 70.357977 
L 311.307893 76.281477 
L 312.832506 87.712279 
L 314.322068 86.045502 
L 315.778154 84.960148 
" style="fill:none;stroke:#e377c2;stroke-linecap:square;stroke-width:1.5;"/>
   </g>
   <g id="line2d_76">
    <path clip-path="url(#pfe550eb20b)" d="M -1 190.442201 
L 69.132727 162.049206 
L 114.043875 151.579297 
L 140.315213 186.359202 
L 158.955023 139.537458 
L 173.413183 113.135195 
L 185.22636 115.671623 
L 195.214259 120.109804 
L 203.866171 100.711233 
L 211.497698 109.348484 
L 218.324331 93.901835 
L 224.499772 90.39435 
L 230.137508 78.55332 
L 235.323723 77.448342 
L 240.125407 70.068733 
L 244.595669 62.462656 
L 248.777319 55.474706 
L 252.705376 50.676318 
L 256.408846 56.653911 
L 259.912028 59.738839 
L 263.235479 66.916253 
L 266.396745 61.915988 
L 269.41092 64.625982 
L 272.291087 66.487569 
L 275.048656 68.624471 
L 277.69364 62.664916 
L 280.234871 57.553338 
L 282.680183 58.400332 
L 285.036555 64.861276 
L 287.31023 63.449407 
L 289.506817 67.733127 
L 291.631371 63.100498 
L 293.688467 61.53054 
L 295.682258 60.443408 
L 297.616523 68.563699 
L 299.494716 73.425856 
L 301.319994 83.830658 
L 303.095258 95.529176 
L 304.823176 91.131293 
L 306.506208 100.485456 
L 308.146627 89.853442 
L 309.746538 79.564909 
L 311.307893 86.323067 
L 312.832506 78.352113 
L 314.322068 81.330061 
L 315.778154 71.590806 
L 317.202235 65.897307 
L 318.595689 59.314184 
L 319.959804 62.915819 
L 321.295792 64.25659 
L 322.604787 68.396958 
L 323.887861 77.759367 
L 325.146019 89.603111 
L 326.38021 90.351728 
L 327.591331 89.05594 
L 328.780229 102.29299 
L 329.947703 119.533843 
L 331.094513 100.269073 
L 332.221378 100.108832 
L 333.328979 86.676261 
L 334.417965 92.20554 
L 335.488949 90.476698 
L 336.542518 83.761927 
L 337.57923 79.588563 
L 338.599615 91.902386 
L 339.604179 81.332703 
L 340.593406 94.086164 
L 341.567756 105.666671 
L 342.527671 90.863439 
L 343.473573 82.751434 
L 344.405863 84.267838 
L 345.32493 95.515249 
L 346.231142 86.018667 
L 347.124854 98.912958 
L 348.006406 89.281915 
L 348.876125 77.502749 
L 349.734324 67.961797 
" style="fill:none;stroke:#7f7f7f;stroke-linecap:square;stroke-width:1.5;"/>
   </g>
   <g id="line2d_77">
    <path clip-path="url(#pfe550eb20b)" d="M -1 190.442201 
L 69.132727 162.049206 
" style="fill:none;stroke:#bcbd22;stroke-linecap:square;stroke-width:1.5;"/>
   </g>
   <g id="line2d_78">
    <path clip-path="url(#pfe550eb20b)" style="fill:none;stroke:#17becf;stroke-linecap:square;stroke-width:1.5;"/>
   </g>
   <g id="line2d_79">
    <path clip-path="url(#pfe550eb20b)" style="fill:none;stroke:#1f77b4;stroke-linecap:square;stroke-width:1.5;"/>
   </g>
   <g id="line2d_80">
    <path clip-path="url(#pfe550eb20b)" d="M -1 190.442201 
L 69.132727 162.049206 
L 114.043875 201.623456 
" style="fill:none;stroke:#ff7f0e;stroke-linecap:square;stroke-width:1.5;"/>
   </g>
   <g id="line2d_81">
    <path clip-path="url(#pfe550eb20b)" style="fill:none;stroke:#2ca02c;stroke-linecap:square;stroke-width:1.5;"/>
   </g>
   <g id="line2d_82">
    <path clip-path="url(#pfe550eb20b)" d="M -1 190.442201 
L 69.132727 162.049206 
L 114.043875 168.460451 
" style="fill:none;stroke:#d62728;stroke-linecap:square;stroke-width:1.5;"/>
   </g>
   <g id="line2d_83">
    <path clip-path="url(#pfe550eb20b)" d="M -1 190.442201 
L 69.132727 162.049206 
L 114.043875 128.653108 
L 140.315213 108.684265 
L 158.955023 128.471842 
L 173.413183 111.557992 
L 185.22636 95.779704 
L 195.214259 84.908784 
L 203.866171 85.760104 
L 211.497698 92.744168 
L 218.324331 81.802703 
L 224.499772 83.652525 
L 230.137508 75.645202 
L 235.323723 71.069149 
L 240.125407 75.853339 
L 244.595669 79.566399 
L 248.777319 69.759644 
L 252.705376 74.305786 
L 256.408846 65.222556 
L 259.912028 58.129315 
L 263.235479 65.108848 
L 269.41092 77.72629 
L 272.291087 89.114149 
L 275.048656 102.907327 
L 277.69364 123.240796 
L 280.234871 156.951633 
L 282.680183 173.96298 
L 285.036555 131.39447 
L 287.31023 135.66672 
L 289.506817 113.754722 
L 291.631371 121.600574 
L 293.688467 143.683906 
L 295.682258 115.611494 
L 297.616523 124.087726 
L 299.494716 109.61836 
L 301.319994 118.99748 
L 303.095258 101.416449 
L 304.823176 103.095742 
L 306.506208 111.013606 
L 308.146627 97.480249 
L 309.746538 85.706612 
L 311.307893 94.480043 
L 312.832506 86.514596 
L 314.322068 100.812215 
L 315.778154 107.534672 
L 317.202235 103.942151 
L 318.595689 111.100566 
L 319.959804 109.700937 
L 321.295792 94.166452 
L 322.604787 86.65539 
L 323.887861 81.027645 
L 326.38021 106.203279 
L 327.591331 106.454181 
L 328.780229 92.687176 
L 329.947703 107.657775 
L 331.094513 91.748625 
L 332.221378 91.427863 
L 333.328979 107.266992 
L 334.417965 113.676229 
L 335.488949 129.515913 
L 336.542518 114.18172 
L 337.57923 141.132652 
L 338.599615 146.678059 
L 340.593406 106.544497 
L 341.567756 91.463684 
L 342.527671 105.47256 
L 343.473573 90.122031 
L 344.405863 82.667055 
L 345.32493 83.433583 
L 346.231142 88.641757 
L 347.124854 86.065665 
L 348.006406 98.293177 
L 348.876125 113.208167 
L 349.734324 110.112828 
L 350.581305 93.477791 
L 351.417356 81.578391 
L 352.242757 81.978066 
L 353.057775 81.866852 
L 353.862669 86.264469 
L 354.657686 100.488617 
L 355.443066 105.930863 
L 356.219041 95.480176 
L 356.985832 94.63076 
L 357.743654 83.644875 
L 358.492716 89.937585 
L 359.233216 102.59215 
L 359.965349 122.802886 
L 360.689302 150.079655 
L 361.405255 119.747797 
L 362.113383 147.290072 
L 362.813856 117.695649 
L 363.506837 120.797971 
L 364.192484 114.845633 
L 364.870952 98.616247 
L 365.542389 89.329124 
L 366.864743 108.641451 
L 367.515935 130.858381 
L 368.160648 162.066028 
L 368.799009 134.155601 
L 369.431141 163.198263 
L 370.057167 126.394755 
L 370.677201 131.336389 
L 371.291358 109.689784 
L 372.502479 90.413409 
L 373.691376 68.957077 
L 374.277743 69.221273 
L 374.858851 73.946281 
L 376.005661 57.283116 
L 376.571543 51.322688 
L 377.132526 57.628881 
L 377.688693 53.888926 
L 378.240127 51.892753 
L 378.786908 45.861152 
L 379.329112 42.215546 
L 379.866818 37.103964 
L 380.400097 41.074393 
L 380.929023 46.13718 
L 381.453666 47.629931 
L 381.974096 41.984106 
L 382.490378 39.747565 
L 383.002579 44.2047 
L 383.510763 39.33438 
L 384.014992 39.432683 
L 384.515327 35.429218 
L 385.011828 34.515705 
L 385.504554 39.316949 
L 385.99356 36.575757 
L 386.478904 32.395296 
L 386.960639 31.065331 
L 387.438819 32.071256 
L 387.913496 27.994159 
L 388.384721 32.071877 
L 388.852543 28.227055 
L 389.317011 30.314976 
L 390.236078 39.217399 
L 391.14229 42.536516 
L 391.590686 43.137187 
L 392.036002 47.377201 
L 392.478277 42.415592 
L 393.353873 35.468201 
L 393.787273 31.301649 
L 393.787273 31.301649 
" style="fill:none;stroke:#9467bd;stroke-linecap:square;stroke-width:1.5;"/>
   </g>
   <g id="patch_3">
    <path d="M 52.9 276.812 
L 52.9 10.7 
" style="fill:none;stroke:#000000;stroke-linecap:square;stroke-linejoin:miter;stroke-width:0.8;"/>
   </g>
   <g id="patch_4">
    <path d="M 410.02 276.812 
L 410.02 10.7 
" style="fill:none;stroke:#000000;stroke-linecap:square;stroke-linejoin:miter;stroke-width:0.8;"/>
   </g>
   <g id="patch_5">
    <path d="M 52.9 276.812 
L 410.02 276.812 
" style="fill:none;stroke:#000000;stroke-linecap:square;stroke-linejoin:miter;stroke-width:0.8;"/>
   </g>
   <g id="patch_6">
    <path d="M 52.9 10.7 
L 410.02 10.7 
" style="fill:none;stroke:#000000;stroke-linecap:square;stroke-linejoin:miter;stroke-width:0.8;"/>
   </g>
  </g>
 </g>
 <defs>
  <clipPath id="pfe550eb20b">
   <rect height="266.112" width="357.12" x="52.9" y="10.7"/>
  </clipPath>
 </defs>
</svg>
