<?xml version="1.0" encoding="utf-8" standalone="no"?>
<!DOCTYPE svg PUBLIC "-//W3C//DTD SVG 1.1//EN"
  "http://www.w3.org/Graphics/SVG/1.1/DTD/svg11.dtd">
<!-- Created with matplotlib (https://matplotlib.org/) -->
<svg height="314.36825pt" version="1.1" viewBox="0 0 419.198125 314.36825" width="419.198125pt" xmlns="http://www.w3.org/2000/svg" xmlns:xlink="http://www.w3.org/1999/xlink">
 <defs>
  <style type="text/css">
*{stroke-linecap:butt;stroke-linejoin:round;}
  </style>
 </defs>
 <g id="figure_1">
  <g id="patch_1">
   <path d="M 0 314.36825 
L 419.198125 314.36825 
L 419.198125 0 
L 0 0 
z
" style="fill:#ffffff;"/>
  </g>
  <g id="axes_1">
   <g id="patch_2">
    <path d="M 51.378125 276.812 
L 408.498125 276.812 
L 408.498125 10.7 
L 51.378125 10.7 
z
" style="fill:#ffffff;"/>
   </g>
   <g id="line2d_1">
    <path clip-path="url(#p478a954875)" d="M 67.610852 199.664399 
L 308.157451 68.617129 
L 350.059999 45.789059 
L 374.723627 32.352573 
L 392.265398 22.796 
" style="fill:none;stroke:#808080;stroke-linecap:square;stroke-width:1.5;"/>
   </g>
   <g id="matplotlib.axis_1">
    <g id="xtick_1">
     <g id="line2d_2">
      <defs>
       <path d="M 0 0 
L 0 3.5 
" id="m91acc9a121" style="stroke:#000000;stroke-width:0.8;"/>
      </defs>
      <g>
       <use style="stroke:#000000;stroke-width:0.8;" x="110.123685" xlink:href="#m91acc9a121" y="276.812"/>
      </g>
     </g>
     <g id="text_1">
      <!-- $\mathdefault{10^{1}}$ -->
      <defs>
       <path d="M 12.40625 8.296875 
L 28.515625 8.296875 
L 28.515625 63.921875 
L 10.984375 60.40625 
L 10.984375 69.390625 
L 28.421875 72.90625 
L 38.28125 72.90625 
L 38.28125 8.296875 
L 54.390625 8.296875 
L 54.390625 0 
L 12.40625 0 
z
" id="DejaVuSans-49"/>
       <path d="M 31.78125 66.40625 
Q 24.171875 66.40625 20.328125 58.90625 
Q 16.5 51.421875 16.5 36.375 
Q 16.5 21.390625 20.328125 13.890625 
Q 24.171875 6.390625 31.78125 6.390625 
Q 39.453125 6.390625 43.28125 13.890625 
Q 47.125 21.390625 47.125 36.375 
Q 47.125 51.421875 43.28125 58.90625 
Q 39.453125 66.40625 31.78125 66.40625 
z
M 31.78125 74.21875 
Q 44.046875 74.21875 50.515625 64.515625 
Q 56.984375 54.828125 56.984375 36.375 
Q 56.984375 17.96875 50.515625 8.265625 
Q 44.046875 -1.421875 31.78125 -1.421875 
Q 19.53125 -1.421875 13.0625 8.265625 
Q 6.59375 17.96875 6.59375 36.375 
Q 6.59375 54.828125 13.0625 64.515625 
Q 19.53125 74.21875 31.78125 74.21875 
z
" id="DejaVuSans-48"/>
      </defs>
      <g transform="translate(101.323685 291.410438)scale(0.1 -0.1)">
       <use transform="translate(0 0.684375)" xlink:href="#DejaVuSans-49"/>
       <use transform="translate(63.623047 0.684375)" xlink:href="#DejaVuSans-48"/>
       <use transform="translate(128.203125 38.965625)scale(0.7)" xlink:href="#DejaVuSans-49"/>
      </g>
     </g>
    </g>
    <g id="xtick_2">
     <g id="line2d_3">
      <g>
       <use style="stroke:#000000;stroke-width:0.8;" x="251.348259" xlink:href="#m91acc9a121" y="276.812"/>
      </g>
     </g>
     <g id="text_2">
      <!-- $\mathdefault{10^{2}}$ -->
      <defs>
       <path d="M 19.1875 8.296875 
L 53.609375 8.296875 
L 53.609375 0 
L 7.328125 0 
L 7.328125 8.296875 
Q 12.9375 14.109375 22.625 23.890625 
Q 32.328125 33.6875 34.8125 36.53125 
Q 39.546875 41.84375 41.421875 45.53125 
Q 43.3125 49.21875 43.3125 52.78125 
Q 43.3125 58.59375 39.234375 62.25 
Q 35.15625 65.921875 28.609375 65.921875 
Q 23.96875 65.921875 18.8125 64.3125 
Q 13.671875 62.703125 7.8125 59.421875 
L 7.8125 69.390625 
Q 13.765625 71.78125 18.9375 73 
Q 24.125 74.21875 28.421875 74.21875 
Q 39.75 74.21875 46.484375 68.546875 
Q 53.21875 62.890625 53.21875 53.421875 
Q 53.21875 48.921875 51.53125 44.890625 
Q 49.859375 40.875 45.40625 35.40625 
Q 44.1875 33.984375 37.640625 27.21875 
Q 31.109375 20.453125 19.1875 8.296875 
z
" id="DejaVuSans-50"/>
      </defs>
      <g transform="translate(242.548259 291.410438)scale(0.1 -0.1)">
       <use transform="translate(0 0.765625)" xlink:href="#DejaVuSans-49"/>
       <use transform="translate(63.623047 0.765625)" xlink:href="#DejaVuSans-48"/>
       <use transform="translate(128.203125 39.046875)scale(0.7)" xlink:href="#DejaVuSans-50"/>
      </g>
     </g>
    </g>
    <g id="xtick_3">
     <g id="line2d_4">
      <g>
       <use style="stroke:#000000;stroke-width:0.8;" x="392.572832" xlink:href="#m91acc9a121" y="276.812"/>
      </g>
     </g>
     <g id="text_3">
      <!-- $\mathdefault{10^{3}}$ -->
      <defs>
       <path d="M 40.578125 39.3125 
Q 47.65625 37.796875 51.625 33 
Q 55.609375 28.21875 55.609375 21.1875 
Q 55.609375 10.40625 48.1875 4.484375 
Q 40.765625 -1.421875 27.09375 -1.421875 
Q 22.515625 -1.421875 17.65625 -0.515625 
Q 12.796875 0.390625 7.625 2.203125 
L 7.625 11.71875 
Q 11.71875 9.328125 16.59375 8.109375 
Q 21.484375 6.890625 26.8125 6.890625 
Q 36.078125 6.890625 40.9375 10.546875 
Q 45.796875 14.203125 45.796875 21.1875 
Q 45.796875 27.640625 41.28125 31.265625 
Q 36.765625 34.90625 28.71875 34.90625 
L 20.21875 34.90625 
L 20.21875 43.015625 
L 29.109375 43.015625 
Q 36.375 43.015625 40.234375 45.921875 
Q 44.09375 48.828125 44.09375 54.296875 
Q 44.09375 59.90625 40.109375 62.90625 
Q 36.140625 65.921875 28.71875 65.921875 
Q 24.65625 65.921875 20.015625 65.03125 
Q 15.375 64.15625 9.8125 62.3125 
L 9.8125 71.09375 
Q 15.4375 72.65625 20.34375 73.4375 
Q 25.25 74.21875 29.59375 74.21875 
Q 40.828125 74.21875 47.359375 69.109375 
Q 53.90625 64.015625 53.90625 55.328125 
Q 53.90625 49.265625 50.4375 45.09375 
Q 46.96875 40.921875 40.578125 39.3125 
z
" id="DejaVuSans-51"/>
      </defs>
      <g transform="translate(383.772832 291.410438)scale(0.1 -0.1)">
       <use transform="translate(0 0.765625)" xlink:href="#DejaVuSans-49"/>
       <use transform="translate(63.623047 0.765625)" xlink:href="#DejaVuSans-48"/>
       <use transform="translate(128.203125 39.046875)scale(0.7)" xlink:href="#DejaVuSans-51"/>
      </g>
     </g>
    </g>
    <g id="xtick_4">
     <g id="line2d_5">
      <defs>
       <path d="M 0 0 
L 0 2 
" id="m99ac6cddda" style="stroke:#000000;stroke-width:0.6;"/>
      </defs>
      <g>
       <use style="stroke:#000000;stroke-width:0.6;" x="53.924777" xlink:href="#m99ac6cddda" y="276.812"/>
      </g>
     </g>
    </g>
    <g id="xtick_5">
     <g id="line2d_6">
      <g>
       <use style="stroke:#000000;stroke-width:0.6;" x="67.610852" xlink:href="#m99ac6cddda" y="276.812"/>
      </g>
     </g>
    </g>
    <g id="xtick_6">
     <g id="line2d_7">
      <g>
       <use style="stroke:#000000;stroke-width:0.6;" x="78.79319" xlink:href="#m99ac6cddda" y="276.812"/>
      </g>
     </g>
    </g>
    <g id="xtick_7">
     <g id="line2d_8">
      <g>
       <use style="stroke:#000000;stroke-width:0.6;" x="88.247722" xlink:href="#m99ac6cddda" y="276.812"/>
      </g>
     </g>
    </g>
    <g id="xtick_8">
     <g id="line2d_9">
      <g>
       <use style="stroke:#000000;stroke-width:0.6;" x="96.43761" xlink:href="#m99ac6cddda" y="276.812"/>
      </g>
     </g>
    </g>
    <g id="xtick_9">
     <g id="line2d_10">
      <g>
       <use style="stroke:#000000;stroke-width:0.6;" x="103.661603" xlink:href="#m99ac6cddda" y="276.812"/>
      </g>
     </g>
    </g>
    <g id="xtick_10">
     <g id="line2d_11">
      <g>
       <use style="stroke:#000000;stroke-width:0.6;" x="152.636518" xlink:href="#m99ac6cddda" y="276.812"/>
      </g>
     </g>
    </g>
    <g id="xtick_11">
     <g id="line2d_12">
      <g>
       <use style="stroke:#000000;stroke-width:0.6;" x="177.504931" xlink:href="#m99ac6cddda" y="276.812"/>
      </g>
     </g>
    </g>
    <g id="xtick_12">
     <g id="line2d_13">
      <g>
       <use style="stroke:#000000;stroke-width:0.6;" x="195.149351" xlink:href="#m99ac6cddda" y="276.812"/>
      </g>
     </g>
    </g>
    <g id="xtick_13">
     <g id="line2d_14">
      <g>
       <use style="stroke:#000000;stroke-width:0.6;" x="208.835426" xlink:href="#m99ac6cddda" y="276.812"/>
      </g>
     </g>
    </g>
    <g id="xtick_14">
     <g id="line2d_15">
      <g>
       <use style="stroke:#000000;stroke-width:0.6;" x="220.017764" xlink:href="#m99ac6cddda" y="276.812"/>
      </g>
     </g>
    </g>
    <g id="xtick_15">
     <g id="line2d_16">
      <g>
       <use style="stroke:#000000;stroke-width:0.6;" x="229.472295" xlink:href="#m99ac6cddda" y="276.812"/>
      </g>
     </g>
    </g>
    <g id="xtick_16">
     <g id="line2d_17">
      <g>
       <use style="stroke:#000000;stroke-width:0.6;" x="237.662183" xlink:href="#m99ac6cddda" y="276.812"/>
      </g>
     </g>
    </g>
    <g id="xtick_17">
     <g id="line2d_18">
      <g>
       <use style="stroke:#000000;stroke-width:0.6;" x="244.886177" xlink:href="#m99ac6cddda" y="276.812"/>
      </g>
     </g>
    </g>
    <g id="xtick_18">
     <g id="line2d_19">
      <g>
       <use style="stroke:#000000;stroke-width:0.6;" x="293.861091" xlink:href="#m99ac6cddda" y="276.812"/>
      </g>
     </g>
    </g>
    <g id="xtick_19">
     <g id="line2d_20">
      <g>
       <use style="stroke:#000000;stroke-width:0.6;" x="318.729504" xlink:href="#m99ac6cddda" y="276.812"/>
      </g>
     </g>
    </g>
    <g id="xtick_20">
     <g id="line2d_21">
      <g>
       <use style="stroke:#000000;stroke-width:0.6;" x="336.373924" xlink:href="#m99ac6cddda" y="276.812"/>
      </g>
     </g>
    </g>
    <g id="xtick_21">
     <g id="line2d_22">
      <g>
       <use style="stroke:#000000;stroke-width:0.6;" x="350.059999" xlink:href="#m99ac6cddda" y="276.812"/>
      </g>
     </g>
    </g>
    <g id="xtick_22">
     <g id="line2d_23">
      <g>
       <use style="stroke:#000000;stroke-width:0.6;" x="361.242337" xlink:href="#m99ac6cddda" y="276.812"/>
      </g>
     </g>
    </g>
    <g id="xtick_23">
     <g id="line2d_24">
      <g>
       <use style="stroke:#000000;stroke-width:0.6;" x="370.696869" xlink:href="#m99ac6cddda" y="276.812"/>
      </g>
     </g>
    </g>
    <g id="xtick_24">
     <g id="line2d_25">
      <g>
       <use style="stroke:#000000;stroke-width:0.6;" x="378.886757" xlink:href="#m99ac6cddda" y="276.812"/>
      </g>
     </g>
    </g>
    <g id="xtick_25">
     <g id="line2d_26">
      <g>
       <use style="stroke:#000000;stroke-width:0.6;" x="386.11075" xlink:href="#m99ac6cddda" y="276.812"/>
      </g>
     </g>
    </g>
    <g id="text_4">
     <!-- Time -->
     <defs>
      <path d="M -0.296875 72.90625 
L 61.375 72.90625 
L 61.375 64.59375 
L 35.5 64.59375 
L 35.5 0 
L 25.59375 0 
L 25.59375 64.59375 
L -0.296875 64.59375 
z
" id="DejaVuSans-84"/>
      <path d="M 9.421875 54.6875 
L 18.40625 54.6875 
L 18.40625 0 
L 9.421875 0 
z
M 9.421875 75.984375 
L 18.40625 75.984375 
L 18.40625 64.59375 
L 9.421875 64.59375 
z
" id="DejaVuSans-105"/>
      <path d="M 52 44.1875 
Q 55.375 50.25 60.0625 53.125 
Q 64.75 56 71.09375 56 
Q 79.640625 56 84.28125 50.015625 
Q 88.921875 44.046875 88.921875 33.015625 
L 88.921875 0 
L 79.890625 0 
L 79.890625 32.71875 
Q 79.890625 40.578125 77.09375 44.375 
Q 74.3125 48.1875 68.609375 48.1875 
Q 61.625 48.1875 57.5625 43.546875 
Q 53.515625 38.921875 53.515625 30.90625 
L 53.515625 0 
L 44.484375 0 
L 44.484375 32.71875 
Q 44.484375 40.625 41.703125 44.40625 
Q 38.921875 48.1875 33.109375 48.1875 
Q 26.21875 48.1875 22.15625 43.53125 
Q 18.109375 38.875 18.109375 30.90625 
L 18.109375 0 
L 9.078125 0 
L 9.078125 54.6875 
L 18.109375 54.6875 
L 18.109375 46.1875 
Q 21.1875 51.21875 25.484375 53.609375 
Q 29.78125 56 35.6875 56 
Q 41.65625 56 45.828125 52.96875 
Q 50 49.953125 52 44.1875 
z
" id="DejaVuSans-109"/>
      <path d="M 56.203125 29.59375 
L 56.203125 25.203125 
L 14.890625 25.203125 
Q 15.484375 15.921875 20.484375 11.0625 
Q 25.484375 6.203125 34.421875 6.203125 
Q 39.59375 6.203125 44.453125 7.46875 
Q 49.3125 8.734375 54.109375 11.28125 
L 54.109375 2.78125 
Q 49.265625 0.734375 44.1875 -0.34375 
Q 39.109375 -1.421875 33.890625 -1.421875 
Q 20.796875 -1.421875 13.15625 6.1875 
Q 5.515625 13.8125 5.515625 26.8125 
Q 5.515625 40.234375 12.765625 48.109375 
Q 20.015625 56 32.328125 56 
Q 43.359375 56 49.78125 48.890625 
Q 56.203125 41.796875 56.203125 29.59375 
z
M 47.21875 32.234375 
Q 47.125 39.59375 43.09375 43.984375 
Q 39.0625 48.390625 32.421875 48.390625 
Q 24.90625 48.390625 20.390625 44.140625 
Q 15.875 39.890625 15.1875 32.171875 
z
" id="DejaVuSans-101"/>
     </defs>
     <g transform="translate(217.550625 305.088562)scale(0.1 -0.1)">
      <use xlink:href="#DejaVuSans-84"/>
      <use x="61.037109" xlink:href="#DejaVuSans-105"/>
      <use x="88.820312" xlink:href="#DejaVuSans-109"/>
      <use x="186.232422" xlink:href="#DejaVuSans-101"/>
     </g>
    </g>
   </g>
   <g id="matplotlib.axis_2">
    <g id="ytick_1">
     <g id="line2d_27">
      <defs>
       <path d="M 0 0 
L -3.5 0 
" id="mba96ed1142" style="stroke:#000000;stroke-width:0.8;"/>
      </defs>
      <g>
       <use style="stroke:#000000;stroke-width:0.8;" x="51.378125" xlink:href="#mba96ed1142" y="276.602069"/>
      </g>
     </g>
     <g id="text_5">
      <!-- $\mathdefault{10^{-1}}$ -->
      <defs>
       <path d="M 10.59375 35.5 
L 73.1875 35.5 
L 73.1875 27.203125 
L 10.59375 27.203125 
z
" id="DejaVuSans-8722"/>
      </defs>
      <g transform="translate(20.878125 280.401288)scale(0.1 -0.1)">
       <use transform="translate(0 0.684375)" xlink:href="#DejaVuSans-49"/>
       <use transform="translate(63.623047 0.684375)" xlink:href="#DejaVuSans-48"/>
       <use transform="translate(128.203125 38.965625)scale(0.7)" xlink:href="#DejaVuSans-8722"/>
       <use transform="translate(186.855469 38.965625)scale(0.7)" xlink:href="#DejaVuSans-49"/>
      </g>
     </g>
    </g>
    <g id="ytick_2">
     <g id="line2d_28">
      <g>
       <use style="stroke:#000000;stroke-width:0.8;" x="51.378125" xlink:href="#mba96ed1142" y="199.664399"/>
      </g>
     </g>
     <g id="text_6">
      <!-- $\mathdefault{10^{0}}$ -->
      <g transform="translate(26.778125 203.463618)scale(0.1 -0.1)">
       <use transform="translate(0 0.765625)" xlink:href="#DejaVuSans-49"/>
       <use transform="translate(63.623047 0.765625)" xlink:href="#DejaVuSans-48"/>
       <use transform="translate(128.203125 39.046875)scale(0.7)" xlink:href="#DejaVuSans-48"/>
      </g>
     </g>
    </g>
    <g id="ytick_3">
     <g id="line2d_29">
      <g>
       <use style="stroke:#000000;stroke-width:0.8;" x="51.378125" xlink:href="#mba96ed1142" y="122.726729"/>
      </g>
     </g>
     <g id="text_7">
      <!-- $\mathdefault{10^{1}}$ -->
      <g transform="translate(26.778125 126.525948)scale(0.1 -0.1)">
       <use transform="translate(0 0.684375)" xlink:href="#DejaVuSans-49"/>
       <use transform="translate(63.623047 0.684375)" xlink:href="#DejaVuSans-48"/>
       <use transform="translate(128.203125 38.965625)scale(0.7)" xlink:href="#DejaVuSans-49"/>
      </g>
     </g>
    </g>
    <g id="ytick_4">
     <g id="line2d_30">
      <g>
       <use style="stroke:#000000;stroke-width:0.8;" x="51.378125" xlink:href="#mba96ed1142" y="45.789059"/>
      </g>
     </g>
     <g id="text_8">
      <!-- $\mathdefault{10^{2}}$ -->
      <g transform="translate(26.778125 49.588278)scale(0.1 -0.1)">
       <use transform="translate(0 0.765625)" xlink:href="#DejaVuSans-49"/>
       <use transform="translate(63.623047 0.765625)" xlink:href="#DejaVuSans-48"/>
       <use transform="translate(128.203125 39.046875)scale(0.7)" xlink:href="#DejaVuSans-50"/>
      </g>
     </g>
    </g>
    <g id="ytick_5">
     <g id="line2d_31">
      <defs>
       <path d="M 0 0 
L -2 0 
" id="mbffa44e127" style="stroke:#000000;stroke-width:0.6;"/>
      </defs>
      <g>
       <use style="stroke:#000000;stroke-width:0.6;" x="51.378125" xlink:href="#mbffa44e127" y="253.441523"/>
      </g>
     </g>
    </g>
    <g id="ytick_6">
     <g id="line2d_32">
      <g>
       <use style="stroke:#000000;stroke-width:0.6;" x="51.378125" xlink:href="#mbffa44e127" y="239.893472"/>
      </g>
     </g>
    </g>
    <g id="ytick_7">
     <g id="line2d_33">
      <g>
       <use style="stroke:#000000;stroke-width:0.6;" x="51.378125" xlink:href="#mbffa44e127" y="230.280976"/>
      </g>
     </g>
    </g>
    <g id="ytick_8">
     <g id="line2d_34">
      <g>
       <use style="stroke:#000000;stroke-width:0.6;" x="51.378125" xlink:href="#mbffa44e127" y="222.824946"/>
      </g>
     </g>
    </g>
    <g id="ytick_9">
     <g id="line2d_35">
      <g>
       <use style="stroke:#000000;stroke-width:0.6;" x="51.378125" xlink:href="#mbffa44e127" y="216.732925"/>
      </g>
     </g>
    </g>
    <g id="ytick_10">
     <g id="line2d_36">
      <g>
       <use style="stroke:#000000;stroke-width:0.6;" x="51.378125" xlink:href="#mbffa44e127" y="211.582195"/>
      </g>
     </g>
    </g>
    <g id="ytick_11">
     <g id="line2d_37">
      <g>
       <use style="stroke:#000000;stroke-width:0.6;" x="51.378125" xlink:href="#mbffa44e127" y="207.12043"/>
      </g>
     </g>
    </g>
    <g id="ytick_12">
     <g id="line2d_38">
      <g>
       <use style="stroke:#000000;stroke-width:0.6;" x="51.378125" xlink:href="#mbffa44e127" y="203.184874"/>
      </g>
     </g>
    </g>
    <g id="ytick_13">
     <g id="line2d_39">
      <g>
       <use style="stroke:#000000;stroke-width:0.6;" x="51.378125" xlink:href="#mbffa44e127" y="176.503853"/>
      </g>
     </g>
    </g>
    <g id="ytick_14">
     <g id="line2d_40">
      <g>
       <use style="stroke:#000000;stroke-width:0.6;" x="51.378125" xlink:href="#mbffa44e127" y="162.955802"/>
      </g>
     </g>
    </g>
    <g id="ytick_15">
     <g id="line2d_41">
      <g>
       <use style="stroke:#000000;stroke-width:0.6;" x="51.378125" xlink:href="#mbffa44e127" y="153.343306"/>
      </g>
     </g>
    </g>
    <g id="ytick_16">
     <g id="line2d_42">
      <g>
       <use style="stroke:#000000;stroke-width:0.6;" x="51.378125" xlink:href="#mbffa44e127" y="145.887276"/>
      </g>
     </g>
    </g>
    <g id="ytick_17">
     <g id="line2d_43">
      <g>
       <use style="stroke:#000000;stroke-width:0.6;" x="51.378125" xlink:href="#mbffa44e127" y="139.795255"/>
      </g>
     </g>
    </g>
    <g id="ytick_18">
     <g id="line2d_44">
      <g>
       <use style="stroke:#000000;stroke-width:0.6;" x="51.378125" xlink:href="#mbffa44e127" y="134.644525"/>
      </g>
     </g>
    </g>
    <g id="ytick_19">
     <g id="line2d_45">
      <g>
       <use style="stroke:#000000;stroke-width:0.6;" x="51.378125" xlink:href="#mbffa44e127" y="130.18276"/>
      </g>
     </g>
    </g>
    <g id="ytick_20">
     <g id="line2d_46">
      <g>
       <use style="stroke:#000000;stroke-width:0.6;" x="51.378125" xlink:href="#mbffa44e127" y="126.247204"/>
      </g>
     </g>
    </g>
    <g id="ytick_21">
     <g id="line2d_47">
      <g>
       <use style="stroke:#000000;stroke-width:0.6;" x="51.378125" xlink:href="#mbffa44e127" y="99.566183"/>
      </g>
     </g>
    </g>
    <g id="ytick_22">
     <g id="line2d_48">
      <g>
       <use style="stroke:#000000;stroke-width:0.6;" x="51.378125" xlink:href="#mbffa44e127" y="86.018132"/>
      </g>
     </g>
    </g>
    <g id="ytick_23">
     <g id="line2d_49">
      <g>
       <use style="stroke:#000000;stroke-width:0.6;" x="51.378125" xlink:href="#mbffa44e127" y="76.405636"/>
      </g>
     </g>
    </g>
    <g id="ytick_24">
     <g id="line2d_50">
      <g>
       <use style="stroke:#000000;stroke-width:0.6;" x="51.378125" xlink:href="#mbffa44e127" y="68.949606"/>
      </g>
     </g>
    </g>
    <g id="ytick_25">
     <g id="line2d_51">
      <g>
       <use style="stroke:#000000;stroke-width:0.6;" x="51.378125" xlink:href="#mbffa44e127" y="62.857585"/>
      </g>
     </g>
    </g>
    <g id="ytick_26">
     <g id="line2d_52">
      <g>
       <use style="stroke:#000000;stroke-width:0.6;" x="51.378125" xlink:href="#mbffa44e127" y="57.706855"/>
      </g>
     </g>
    </g>
    <g id="ytick_27">
     <g id="line2d_53">
      <g>
       <use style="stroke:#000000;stroke-width:0.6;" x="51.378125" xlink:href="#mbffa44e127" y="53.24509"/>
      </g>
     </g>
    </g>
    <g id="ytick_28">
     <g id="line2d_54">
      <g>
       <use style="stroke:#000000;stroke-width:0.6;" x="51.378125" xlink:href="#mbffa44e127" y="49.309534"/>
      </g>
     </g>
    </g>
    <g id="ytick_29">
     <g id="line2d_55">
      <g>
       <use style="stroke:#000000;stroke-width:0.6;" x="51.378125" xlink:href="#mbffa44e127" y="22.628513"/>
      </g>
     </g>
    </g>
    <g id="text_9">
     <!-- Position variance -->
     <defs>
      <path d="M 19.671875 64.796875 
L 19.671875 37.40625 
L 32.078125 37.40625 
Q 38.96875 37.40625 42.71875 40.96875 
Q 46.484375 44.53125 46.484375 51.125 
Q 46.484375 57.671875 42.71875 61.234375 
Q 38.96875 64.796875 32.078125 64.796875 
z
M 9.8125 72.90625 
L 32.078125 72.90625 
Q 44.34375 72.90625 50.609375 67.359375 
Q 56.890625 61.8125 56.890625 51.125 
Q 56.890625 40.328125 50.609375 34.8125 
Q 44.34375 29.296875 32.078125 29.296875 
L 19.671875 29.296875 
L 19.671875 0 
L 9.8125 0 
z
" id="DejaVuSans-80"/>
      <path d="M 30.609375 48.390625 
Q 23.390625 48.390625 19.1875 42.75 
Q 14.984375 37.109375 14.984375 27.296875 
Q 14.984375 17.484375 19.15625 11.84375 
Q 23.34375 6.203125 30.609375 6.203125 
Q 37.796875 6.203125 41.984375 11.859375 
Q 46.1875 17.53125 46.1875 27.296875 
Q 46.1875 37.015625 41.984375 42.703125 
Q 37.796875 48.390625 30.609375 48.390625 
z
M 30.609375 56 
Q 42.328125 56 49.015625 48.375 
Q 55.71875 40.765625 55.71875 27.296875 
Q 55.71875 13.875 49.015625 6.21875 
Q 42.328125 -1.421875 30.609375 -1.421875 
Q 18.84375 -1.421875 12.171875 6.21875 
Q 5.515625 13.875 5.515625 27.296875 
Q 5.515625 40.765625 12.171875 48.375 
Q 18.84375 56 30.609375 56 
z
" id="DejaVuSans-111"/>
      <path d="M 44.28125 53.078125 
L 44.28125 44.578125 
Q 40.484375 46.53125 36.375 47.5 
Q 32.28125 48.484375 27.875 48.484375 
Q 21.1875 48.484375 17.84375 46.4375 
Q 14.5 44.390625 14.5 40.28125 
Q 14.5 37.15625 16.890625 35.375 
Q 19.28125 33.59375 26.515625 31.984375 
L 29.59375 31.296875 
Q 39.15625 29.25 43.1875 25.515625 
Q 47.21875 21.78125 47.21875 15.09375 
Q 47.21875 7.46875 41.1875 3.015625 
Q 35.15625 -1.421875 24.609375 -1.421875 
Q 20.21875 -1.421875 15.453125 -0.5625 
Q 10.6875 0.296875 5.421875 2 
L 5.421875 11.28125 
Q 10.40625 8.6875 15.234375 7.390625 
Q 20.0625 6.109375 24.8125 6.109375 
Q 31.15625 6.109375 34.5625 8.28125 
Q 37.984375 10.453125 37.984375 14.40625 
Q 37.984375 18.0625 35.515625 20.015625 
Q 33.0625 21.96875 24.703125 23.78125 
L 21.578125 24.515625 
Q 13.234375 26.265625 9.515625 29.90625 
Q 5.8125 33.546875 5.8125 39.890625 
Q 5.8125 47.609375 11.28125 51.796875 
Q 16.75 56 26.8125 56 
Q 31.78125 56 36.171875 55.265625 
Q 40.578125 54.546875 44.28125 53.078125 
z
" id="DejaVuSans-115"/>
      <path d="M 18.3125 70.21875 
L 18.3125 54.6875 
L 36.8125 54.6875 
L 36.8125 47.703125 
L 18.3125 47.703125 
L 18.3125 18.015625 
Q 18.3125 11.328125 20.140625 9.421875 
Q 21.96875 7.515625 27.59375 7.515625 
L 36.8125 7.515625 
L 36.8125 0 
L 27.59375 0 
Q 17.1875 0 13.234375 3.875 
Q 9.28125 7.765625 9.28125 18.015625 
L 9.28125 47.703125 
L 2.6875 47.703125 
L 2.6875 54.6875 
L 9.28125 54.6875 
L 9.28125 70.21875 
z
" id="DejaVuSans-116"/>
      <path d="M 54.890625 33.015625 
L 54.890625 0 
L 45.90625 0 
L 45.90625 32.71875 
Q 45.90625 40.484375 42.875 44.328125 
Q 39.84375 48.1875 33.796875 48.1875 
Q 26.515625 48.1875 22.3125 43.546875 
Q 18.109375 38.921875 18.109375 30.90625 
L 18.109375 0 
L 9.078125 0 
L 9.078125 54.6875 
L 18.109375 54.6875 
L 18.109375 46.1875 
Q 21.34375 51.125 25.703125 53.5625 
Q 30.078125 56 35.796875 56 
Q 45.21875 56 50.046875 50.171875 
Q 54.890625 44.34375 54.890625 33.015625 
z
" id="DejaVuSans-110"/>
      <path id="DejaVuSans-32"/>
      <path d="M 2.984375 54.6875 
L 12.5 54.6875 
L 29.59375 8.796875 
L 46.6875 54.6875 
L 56.203125 54.6875 
L 35.6875 0 
L 23.484375 0 
z
" id="DejaVuSans-118"/>
      <path d="M 34.28125 27.484375 
Q 23.390625 27.484375 19.1875 25 
Q 14.984375 22.515625 14.984375 16.5 
Q 14.984375 11.71875 18.140625 8.90625 
Q 21.296875 6.109375 26.703125 6.109375 
Q 34.1875 6.109375 38.703125 11.40625 
Q 43.21875 16.703125 43.21875 25.484375 
L 43.21875 27.484375 
z
M 52.203125 31.203125 
L 52.203125 0 
L 43.21875 0 
L 43.21875 8.296875 
Q 40.140625 3.328125 35.546875 0.953125 
Q 30.953125 -1.421875 24.3125 -1.421875 
Q 15.921875 -1.421875 10.953125 3.296875 
Q 6 8.015625 6 15.921875 
Q 6 25.140625 12.171875 29.828125 
Q 18.359375 34.515625 30.609375 34.515625 
L 43.21875 34.515625 
L 43.21875 35.40625 
Q 43.21875 41.609375 39.140625 45 
Q 35.0625 48.390625 27.6875 48.390625 
Q 23 48.390625 18.546875 47.265625 
Q 14.109375 46.140625 10.015625 43.890625 
L 10.015625 52.203125 
Q 14.9375 54.109375 19.578125 55.046875 
Q 24.21875 56 28.609375 56 
Q 40.484375 56 46.34375 49.84375 
Q 52.203125 43.703125 52.203125 31.203125 
z
" id="DejaVuSans-97"/>
      <path d="M 41.109375 46.296875 
Q 39.59375 47.171875 37.8125 47.578125 
Q 36.03125 48 33.890625 48 
Q 26.265625 48 22.1875 43.046875 
Q 18.109375 38.09375 18.109375 28.8125 
L 18.109375 0 
L 9.078125 0 
L 9.078125 54.6875 
L 18.109375 54.6875 
L 18.109375 46.1875 
Q 20.953125 51.171875 25.484375 53.578125 
Q 30.03125 56 36.53125 56 
Q 37.453125 56 38.578125 55.875 
Q 39.703125 55.765625 41.0625 55.515625 
z
" id="DejaVuSans-114"/>
      <path d="M 48.78125 52.59375 
L 48.78125 44.1875 
Q 44.96875 46.296875 41.140625 47.34375 
Q 37.3125 48.390625 33.40625 48.390625 
Q 24.65625 48.390625 19.8125 42.84375 
Q 14.984375 37.3125 14.984375 27.296875 
Q 14.984375 17.28125 19.8125 11.734375 
Q 24.65625 6.203125 33.40625 6.203125 
Q 37.3125 6.203125 41.140625 7.25 
Q 44.96875 8.296875 48.78125 10.40625 
L 48.78125 2.09375 
Q 45.015625 0.34375 40.984375 -0.53125 
Q 36.96875 -1.421875 32.421875 -1.421875 
Q 20.0625 -1.421875 12.78125 6.34375 
Q 5.515625 14.109375 5.515625 27.296875 
Q 5.515625 40.671875 12.859375 48.328125 
Q 20.21875 56 33.015625 56 
Q 37.15625 56 41.109375 55.140625 
Q 45.0625 54.296875 48.78125 52.59375 
z
" id="DejaVuSans-99"/>
     </defs>
     <g transform="translate(14.798438 186.514594)rotate(-90)scale(0.1 -0.1)">
      <use xlink:href="#DejaVuSans-80"/>
      <use x="60.255859" xlink:href="#DejaVuSans-111"/>
      <use x="121.4375" xlink:href="#DejaVuSans-115"/>
      <use x="173.537109" xlink:href="#DejaVuSans-105"/>
      <use x="201.320312" xlink:href="#DejaVuSans-116"/>
      <use x="240.529297" xlink:href="#DejaVuSans-105"/>
      <use x="268.3125" xlink:href="#DejaVuSans-111"/>
      <use x="329.494141" xlink:href="#DejaVuSans-110"/>
      <use x="392.873047" xlink:href="#DejaVuSans-32"/>
      <use x="424.660156" xlink:href="#DejaVuSans-118"/>
      <use x="483.839844" xlink:href="#DejaVuSans-97"/>
      <use x="545.119141" xlink:href="#DejaVuSans-114"/>
      <use x="586.232422" xlink:href="#DejaVuSans-105"/>
      <use x="614.015625" xlink:href="#DejaVuSans-97"/>
      <use x="675.294922" xlink:href="#DejaVuSans-110"/>
      <use x="738.673828" xlink:href="#DejaVuSans-99"/>
      <use x="793.654297" xlink:href="#DejaVuSans-101"/>
     </g>
    </g>
   </g>
   <g id="line2d_56">
    <defs>
     <path d="M 0 1.5 
C 0.397805 1.5 0.77937 1.341951 1.06066 1.06066 
C 1.341951 0.77937 1.5 0.397805 1.5 0 
C 1.5 -0.397805 1.341951 -0.77937 1.06066 -1.06066 
C 0.77937 -1.341951 0.397805 -1.5 0 -1.5 
C -0.397805 -1.5 -0.77937 -1.341951 -1.06066 -1.06066 
C -1.341951 -0.77937 -1.5 -0.397805 -1.5 0 
C -1.5 0.397805 -1.341951 0.77937 -1.06066 1.06066 
C -0.77937 1.341951 -0.397805 1.5 0 1.5 
z
" id="mc9bc68548c" style="stroke:#808080;"/>
    </defs>
    <g clip-path="url(#p478a954875)">
     <use style="fill:#808080;stroke:#808080;" x="67.610852" xlink:href="#mc9bc68548c" y="248.545878"/>
     <use style="fill:#808080;stroke:#808080;" x="137.003198" xlink:href="#mc9bc68548c" y="188.362635"/>
     <use style="fill:#808080;stroke:#808080;" x="167.537149" xlink:href="#mc9bc68548c" y="161.124526"/>
     <use style="fill:#808080;stroke:#808080;" x="187.82945" xlink:href="#mc9bc68548c" y="143.20399"/>
     <use style="fill:#808080;stroke:#808080;" x="203.051064" xlink:href="#mc9bc68548c" y="133.311108"/>
     <use style="fill:#808080;stroke:#808080;" x="215.236144" xlink:href="#mc9bc68548c" y="127.213481"/>
     <use style="fill:#808080;stroke:#808080;" x="225.397015" xlink:href="#mc9bc68548c" y="122.374148"/>
     <use style="fill:#808080;stroke:#808080;" x="234.111369" xlink:href="#mc9bc68548c" y="119.375069"/>
     <use style="fill:#808080;stroke:#808080;" x="241.740202" xlink:href="#mc9bc68548c" y="115.900165"/>
     <use style="fill:#808080;stroke:#808080;" x="248.844521" xlink:href="#mc9bc68548c" y="110.760398"/>
     <use style="fill:#808080;stroke:#808080;" x="255.210695" xlink:href="#mc9bc68548c" y="106.61413"/>
     <use style="fill:#808080;stroke:#808080;" x="260.715109" xlink:href="#mc9bc68548c" y="104.003824"/>
     <use style="fill:#808080;stroke:#808080;" x="265.76595" xlink:href="#mc9bc68548c" y="100.600857"/>
     <use style="fill:#808080;stroke:#808080;" x="270.43231" xlink:href="#mc9bc68548c" y="97.465509"/>
     <use style="fill:#808080;stroke:#808080;" x="274.768606" xlink:href="#mc9bc68548c" y="94.807075"/>
     <use style="fill:#808080;stroke:#808080;" x="278.818464" xlink:href="#mc9bc68548c" y="91.781341"/>
     <use style="fill:#808080;stroke:#808080;" x="282.61739" xlink:href="#mc9bc68548c" y="88.958164"/>
     <use style="fill:#808080;stroke:#808080;" x="286.194675" xlink:href="#mc9bc68548c" y="86.442091"/>
     <use style="fill:#808080;stroke:#808080;" x="289.574762" xlink:href="#mc9bc68548c" y="83.766139"/>
     <use style="fill:#808080;stroke:#808080;" x="292.934126" xlink:href="#mc9bc68548c" y="81.053749"/>
     <use style="fill:#808080;stroke:#808080;" x="296.119005" xlink:href="#mc9bc68548c" y="78.143185"/>
     <use style="fill:#808080;stroke:#808080;" x="299.005799" xlink:href="#mc9bc68548c" y="76.527859"/>
     <use style="fill:#808080;stroke:#808080;" x="301.762805" xlink:href="#mc9bc68548c" y="76.934846"/>
     <use style="fill:#808080;stroke:#808080;" x="304.401192" xlink:href="#mc9bc68548c" y="77.57313"/>
     <use style="fill:#808080;stroke:#808080;" x="306.930749" xlink:href="#mc9bc68548c" y="77.220758"/>
     <use style="fill:#808080;stroke:#808080;" x="309.360098" xlink:href="#mc9bc68548c" y="75.6814"/>
     <use style="fill:#808080;stroke:#808080;" x="311.696878" xlink:href="#mc9bc68548c" y="74.523764"/>
     <use style="fill:#808080;stroke:#808080;" x="313.947885" xlink:href="#mc9bc68548c" y="72.581507"/>
     <use style="fill:#808080;stroke:#808080;" x="316.119193" xlink:href="#mc9bc68548c" y="71.16207"/>
     <use style="fill:#808080;stroke:#808080;" x="318.319248" xlink:href="#mc9bc68548c" y="70.609515"/>
     <use style="fill:#808080;stroke:#808080;" x="320.443111" xlink:href="#mc9bc68548c" y="70.576931"/>
     <use style="fill:#808080;stroke:#808080;" x="322.399674" xlink:href="#mc9bc68548c" y="69.711878"/>
     <use style="fill:#808080;stroke:#808080;" x="324.295747" xlink:href="#mc9bc68548c" y="67.616688"/>
     <use style="fill:#808080;stroke:#808080;" x="326.134956" xlink:href="#mc9bc68548c" y="65.588617"/>
     <use style="fill:#808080;stroke:#808080;" x="327.920615" xlink:href="#mc9bc68548c" y="64.468286"/>
     <use style="fill:#808080;stroke:#808080;" x="329.655754" xlink:href="#mc9bc68548c" y="63.784676"/>
     <use style="fill:#808080;stroke:#808080;" x="331.343152" xlink:href="#mc9bc68548c" y="63.544823"/>
     <use style="fill:#808080;stroke:#808080;" x="332.985367" xlink:href="#mc9bc68548c" y="61.726856"/>
     <use style="fill:#808080;stroke:#808080;" x="334.584755" xlink:href="#mc9bc68548c" y="60.79572"/>
     <use style="fill:#808080;stroke:#808080;" x="336.2204" xlink:href="#mc9bc68548c" y="59.659333"/>
     <use style="fill:#808080;stroke:#808080;" x="337.813555" xlink:href="#mc9bc68548c" y="58.888558"/>
     <use style="fill:#808080;stroke:#808080;" x="339.293315" xlink:href="#mc9bc68548c" y="58.480914"/>
     <use style="fill:#808080;stroke:#808080;" x="340.738212" xlink:href="#mc9bc68548c" y="57.191858"/>
     <use style="fill:#808080;stroke:#808080;" x="342.149852" xlink:href="#mc9bc68548c" y="55.224371"/>
     <use style="fill:#808080;stroke:#808080;" x="343.529732" xlink:href="#mc9bc68548c" y="54.250181"/>
     <use style="fill:#808080;stroke:#808080;" x="344.879248" xlink:href="#mc9bc68548c" y="54.387657"/>
     <use style="fill:#808080;stroke:#808080;" x="346.199709" xlink:href="#mc9bc68548c" y="54.767098"/>
     <use style="fill:#808080;stroke:#808080;" x="347.49234" xlink:href="#mc9bc68548c" y="54.770923"/>
     <use style="fill:#808080;stroke:#808080;" x="348.758289" xlink:href="#mc9bc68548c" y="54.127941"/>
     <use style="fill:#808080;stroke:#808080;" x="350.059999" xlink:href="#mc9bc68548c" y="52.613207"/>
     <use style="fill:#808080;stroke:#808080;" x="351.334656" xlink:href="#mc9bc68548c" y="50.859624"/>
     <use style="fill:#808080;stroke:#808080;" x="352.524471" xlink:href="#mc9bc68548c" y="49.117346"/>
     <use style="fill:#808080;stroke:#808080;" x="353.691644" xlink:href="#mc9bc68548c" y="48.800687"/>
     <use style="fill:#808080;stroke:#808080;" x="354.837019" xlink:href="#mc9bc68548c" y="48.788462"/>
     <use style="fill:#808080;stroke:#808080;" x="355.961396" xlink:href="#mc9bc68548c" y="48.201929"/>
     <use style="fill:#808080;stroke:#808080;" x="357.065531" xlink:href="#mc9bc68548c" y="47.619575"/>
     <use style="fill:#808080;stroke:#808080;" x="358.15014" xlink:href="#mc9bc68548c" y="46.189165"/>
     <use style="fill:#808080;stroke:#808080;" x="359.215902" xlink:href="#mc9bc68548c" y="44.471441"/>
     <use style="fill:#808080;stroke:#808080;" x="360.26346" xlink:href="#mc9bc68548c" y="43.890155"/>
     <use style="fill:#808080;stroke:#808080;" x="361.344474" xlink:href="#mc9bc68548c" y="43.801043"/>
     <use style="fill:#808080;stroke:#808080;" x="362.406764" xlink:href="#mc9bc68548c" y="43.632576"/>
     <use style="fill:#808080;stroke:#808080;" x="363.401644" xlink:href="#mc9bc68548c" y="44.002703"/>
     <use style="fill:#808080;stroke:#808080;" x="364.380644" xlink:href="#mc9bc68548c" y="43.88999"/>
     <use style="fill:#808080;stroke:#808080;" x="365.344263" xlink:href="#mc9bc68548c" y="43.981263"/>
     <use style="fill:#808080;stroke:#808080;" x="366.292976" xlink:href="#mc9bc68548c" y="44.617494"/>
     <use style="fill:#808080;stroke:#808080;" x="367.227237" xlink:href="#mc9bc68548c" y="45.056262"/>
     <use style="fill:#808080;stroke:#808080;" x="368.14748" xlink:href="#mc9bc68548c" y="44.547182"/>
     <use style="fill:#808080;stroke:#808080;" x="369.054119" xlink:href="#mc9bc68548c" y="43.866468"/>
     <use style="fill:#808080;stroke:#808080;" x="369.947552" xlink:href="#mc9bc68548c" y="43.631249"/>
     <use style="fill:#808080;stroke:#808080;" x="370.871856" xlink:href="#mc9bc68548c" y="42.825346"/>
     <use style="fill:#808080;stroke:#808080;" x="371.782438" xlink:href="#mc9bc68548c" y="41.299765"/>
     <use style="fill:#808080;stroke:#808080;" x="372.637268" xlink:href="#mc9bc68548c" y="39.93101"/>
     <use style="fill:#808080;stroke:#808080;" x="373.480347" xlink:href="#mc9bc68548c" y="38.830023"/>
     <use style="fill:#808080;stroke:#808080;" x="374.311995" xlink:href="#mc9bc68548c" y="37.7138"/>
     <use style="fill:#808080;stroke:#808080;" x="375.132516" xlink:href="#mc9bc68548c" y="37.835015"/>
     <use style="fill:#808080;stroke:#808080;" x="375.942205" xlink:href="#mc9bc68548c" y="38.237793"/>
     <use style="fill:#808080;stroke:#808080;" x="376.741344" xlink:href="#mc9bc68548c" y="38.167064"/>
     <use style="fill:#808080;stroke:#808080;" x="377.530204" xlink:href="#mc9bc68548c" y="37.867145"/>
     <use style="fill:#808080;stroke:#808080;" x="378.309047" xlink:href="#mc9bc68548c" y="37.168169"/>
     <use style="fill:#808080;stroke:#808080;" x="379.116326" xlink:href="#mc9bc68548c" y="36.40415"/>
     <use style="fill:#808080;stroke:#808080;" x="379.913116" xlink:href="#mc9bc68548c" y="35.809266"/>
     <use style="fill:#808080;stroke:#808080;" x="380.662461" xlink:href="#mc9bc68548c" y="34.863371"/>
     <use style="fill:#808080;stroke:#808080;" x="381.40276" xlink:href="#mc9bc68548c" y="33.563906"/>
     <use style="fill:#808080;stroke:#808080;" x="382.13423" xlink:href="#mc9bc68548c" y="31.977994"/>
     <use style="fill:#808080;stroke:#808080;" x="382.857079" xlink:href="#mc9bc68548c" y="30.450575"/>
     <use style="fill:#808080;stroke:#808080;" x="383.571509" xlink:href="#mc9bc68548c" y="29.273364"/>
     <use style="fill:#808080;stroke:#808080;" x="384.277712" xlink:href="#mc9bc68548c" y="28.618541"/>
     <use style="fill:#808080;stroke:#808080;" x="384.975876" xlink:href="#mc9bc68548c" y="28.343441"/>
     <use style="fill:#808080;stroke:#808080;" x="385.666182" xlink:href="#mc9bc68548c" y="27.937068"/>
     <use style="fill:#808080;stroke:#808080;" x="386.382738" xlink:href="#mc9bc68548c" y="26.901307"/>
     <use style="fill:#808080;stroke:#808080;" x="387.091018" xlink:href="#mc9bc68548c" y="26.089137"/>
     <use style="fill:#808080;stroke:#808080;" x="387.758051" xlink:href="#mc9bc68548c" y="26.131053"/>
     <use style="fill:#808080;stroke:#808080;" x="388.417907" xlink:href="#mc9bc68548c" y="26.26897"/>
     <use style="fill:#808080;stroke:#808080;" x="389.07074" xlink:href="#mc9bc68548c" y="26.51733"/>
     <use style="fill:#808080;stroke:#808080;" x="389.716697" xlink:href="#mc9bc68548c" y="26.421401"/>
     <use style="fill:#808080;stroke:#808080;" x="390.355922" xlink:href="#mc9bc68548c" y="26.390674"/>
     <use style="fill:#808080;stroke:#808080;" x="390.988553" xlink:href="#mc9bc68548c" y="26.378082"/>
     <use style="fill:#808080;stroke:#808080;" x="391.614725" xlink:href="#mc9bc68548c" y="26.030914"/>
     <use style="fill:#808080;stroke:#808080;" x="392.265398" xlink:href="#mc9bc68548c" y="25.532935"/>
    </g>
   </g>
   <g id="line2d_57">
    <path clip-path="url(#p478a954875)" d="M 67.610852 264.716 
L 308.157451 133.66873 
L 350.059999 110.84066 
L 374.723627 97.404174 
L 392.265398 87.847601 
" style="fill:none;stroke:#1f77b4;stroke-dasharray:5.55,2.4;stroke-dashoffset:0;stroke-width:1.5;"/>
   </g>
   <g id="line2d_58">
    <path clip-path="url(#p478a954875)" d="M 67.610852 199.988355 
L 308.157451 68.941085 
L 350.059999 46.113015 
L 374.723627 32.676528 
L 392.265398 23.119956 
" style="fill:none;stroke:#ff7f0e;stroke-dasharray:5.55,2.4;stroke-dashoffset:0;stroke-width:1.5;"/>
   </g>
   <g id="patch_3">
    <path d="M 51.378125 276.812 
L 51.378125 10.7 
" style="fill:none;stroke:#000000;stroke-linecap:square;stroke-linejoin:miter;stroke-width:0.8;"/>
   </g>
   <g id="patch_4">
    <path d="M 408.498125 276.812 
L 408.498125 10.7 
" style="fill:none;stroke:#000000;stroke-linecap:square;stroke-linejoin:miter;stroke-width:0.8;"/>
   </g>
   <g id="patch_5">
    <path d="M 51.378125 276.812 
L 408.498125 276.812 
" style="fill:none;stroke:#000000;stroke-linecap:square;stroke-linejoin:miter;stroke-width:0.8;"/>
   </g>
   <g id="patch_6">
    <path d="M 51.378125 10.7 
L 408.498125 10.7 
" style="fill:none;stroke:#000000;stroke-linecap:square;stroke-linejoin:miter;stroke-width:0.8;"/>
   </g>
   <g id="legend_1">
    <g id="patch_7">
     <path d="M 58.378125 77.4125 
L 168.11875 77.4125 
Q 170.11875 77.4125 170.11875 75.4125 
L 170.11875 17.7 
Q 170.11875 15.7 168.11875 15.7 
L 58.378125 15.7 
Q 56.378125 15.7 56.378125 17.7 
L 56.378125 75.4125 
Q 56.378125 77.4125 58.378125 77.4125 
z
" style="fill:#ffffff;opacity:0.8;stroke:#cccccc;stroke-linejoin:miter;"/>
    </g>
    <g id="line2d_59"/>
    <g id="line2d_60">
     <g>
      <use style="fill:#808080;stroke:#808080;" x="70.378125" xlink:href="#mc9bc68548c" y="23.798438"/>
     </g>
    </g>
    <g id="text_10">
     <!-- Data -->
     <defs>
      <path d="M 19.671875 64.796875 
L 19.671875 8.109375 
L 31.59375 8.109375 
Q 46.6875 8.109375 53.6875 14.9375 
Q 60.6875 21.78125 60.6875 36.53125 
Q 60.6875 51.171875 53.6875 57.984375 
Q 46.6875 64.796875 31.59375 64.796875 
z
M 9.8125 72.90625 
L 30.078125 72.90625 
Q 51.265625 72.90625 61.171875 64.09375 
Q 71.09375 55.28125 71.09375 36.53125 
Q 71.09375 17.671875 61.125 8.828125 
Q 51.171875 0 30.078125 0 
L 9.8125 0 
z
" id="DejaVuSans-68"/>
     </defs>
     <g transform="translate(88.378125 27.298438)scale(0.1 -0.1)">
      <use xlink:href="#DejaVuSans-68"/>
      <use x="77.001953" xlink:href="#DejaVuSans-97"/>
      <use x="138.28125" xlink:href="#DejaVuSans-116"/>
      <use x="177.490234" xlink:href="#DejaVuSans-97"/>
     </g>
    </g>
    <g id="line2d_61">
     <path d="M 60.378125 38.476563 
L 80.378125 38.476563 
" style="fill:none;stroke:#1f77b4;stroke-dasharray:5.55,2.4;stroke-dashoffset:0;stroke-width:1.5;"/>
    </g>
    <g id="line2d_62"/>
    <g id="text_11">
     <!-- CVE -->
     <defs>
      <path d="M 64.40625 67.28125 
L 64.40625 56.890625 
Q 59.421875 61.53125 53.78125 63.8125 
Q 48.140625 66.109375 41.796875 66.109375 
Q 29.296875 66.109375 22.65625 58.46875 
Q 16.015625 50.828125 16.015625 36.375 
Q 16.015625 21.96875 22.65625 14.328125 
Q 29.296875 6.6875 41.796875 6.6875 
Q 48.140625 6.6875 53.78125 8.984375 
Q 59.421875 11.28125 64.40625 15.921875 
L 64.40625 5.609375 
Q 59.234375 2.09375 53.4375 0.328125 
Q 47.65625 -1.421875 41.21875 -1.421875 
Q 24.65625 -1.421875 15.125 8.703125 
Q 5.609375 18.84375 5.609375 36.375 
Q 5.609375 53.953125 15.125 64.078125 
Q 24.65625 74.21875 41.21875 74.21875 
Q 47.75 74.21875 53.53125 72.484375 
Q 59.328125 70.75 64.40625 67.28125 
z
" id="DejaVuSans-67"/>
      <path d="M 28.609375 0 
L 0.78125 72.90625 
L 11.078125 72.90625 
L 34.1875 11.53125 
L 57.328125 72.90625 
L 67.578125 72.90625 
L 39.796875 0 
z
" id="DejaVuSans-86"/>
      <path d="M 9.8125 72.90625 
L 55.90625 72.90625 
L 55.90625 64.59375 
L 19.671875 64.59375 
L 19.671875 43.015625 
L 54.390625 43.015625 
L 54.390625 34.71875 
L 19.671875 34.71875 
L 19.671875 8.296875 
L 56.78125 8.296875 
L 56.78125 0 
L 9.8125 0 
z
" id="DejaVuSans-69"/>
     </defs>
     <g transform="translate(88.378125 41.976563)scale(0.1 -0.1)">
      <use xlink:href="#DejaVuSans-67"/>
      <use x="69.824219" xlink:href="#DejaVuSans-86"/>
      <use x="138.232422" xlink:href="#DejaVuSans-69"/>
     </g>
    </g>
    <g id="line2d_63">
     <path d="M 60.378125 53.154688 
L 80.378125 53.154688 
" style="fill:none;stroke:#ff7f0e;stroke-dasharray:5.55,2.4;stroke-dashoffset:0;stroke-width:1.5;"/>
    </g>
    <g id="line2d_64"/>
    <g id="text_12">
     <!-- Decimated CVE -->
     <defs>
      <path d="M 45.40625 46.390625 
L 45.40625 75.984375 
L 54.390625 75.984375 
L 54.390625 0 
L 45.40625 0 
L 45.40625 8.203125 
Q 42.578125 3.328125 38.25 0.953125 
Q 33.9375 -1.421875 27.875 -1.421875 
Q 17.96875 -1.421875 11.734375 6.484375 
Q 5.515625 14.40625 5.515625 27.296875 
Q 5.515625 40.1875 11.734375 48.09375 
Q 17.96875 56 27.875 56 
Q 33.9375 56 38.25 53.625 
Q 42.578125 51.265625 45.40625 46.390625 
z
M 14.796875 27.296875 
Q 14.796875 17.390625 18.875 11.75 
Q 22.953125 6.109375 30.078125 6.109375 
Q 37.203125 6.109375 41.296875 11.75 
Q 45.40625 17.390625 45.40625 27.296875 
Q 45.40625 37.203125 41.296875 42.84375 
Q 37.203125 48.484375 30.078125 48.484375 
Q 22.953125 48.484375 18.875 42.84375 
Q 14.796875 37.203125 14.796875 27.296875 
z
" id="DejaVuSans-100"/>
     </defs>
     <g transform="translate(88.378125 56.654688)scale(0.1 -0.1)">
      <use xlink:href="#DejaVuSans-68"/>
      <use x="77.001953" xlink:href="#DejaVuSans-101"/>
      <use x="138.525391" xlink:href="#DejaVuSans-99"/>
      <use x="193.505859" xlink:href="#DejaVuSans-105"/>
      <use x="221.289062" xlink:href="#DejaVuSans-109"/>
      <use x="318.701172" xlink:href="#DejaVuSans-97"/>
      <use x="379.980469" xlink:href="#DejaVuSans-116"/>
      <use x="419.189453" xlink:href="#DejaVuSans-101"/>
      <use x="480.712891" xlink:href="#DejaVuSans-100"/>
      <use x="544.189453" xlink:href="#DejaVuSans-32"/>
      <use x="575.976562" xlink:href="#DejaVuSans-67"/>
      <use x="645.800781" xlink:href="#DejaVuSans-86"/>
      <use x="714.208984" xlink:href="#DejaVuSans-69"/>
     </g>
    </g>
    <g id="line2d_65">
     <path d="M 60.378125 67.832813 
L 80.378125 67.832813 
" style="fill:none;stroke:#808080;stroke-linecap:square;stroke-width:1.5;"/>
    </g>
    <g id="line2d_66"/>
    <g id="text_13">
     <!-- Exact -->
     <defs>
      <path d="M 54.890625 54.6875 
L 35.109375 28.078125 
L 55.90625 0 
L 45.3125 0 
L 29.390625 21.484375 
L 13.484375 0 
L 2.875 0 
L 24.125 28.609375 
L 4.6875 54.6875 
L 15.28125 54.6875 
L 29.78125 35.203125 
L 44.28125 54.6875 
z
" id="DejaVuSans-120"/>
     </defs>
     <g transform="translate(88.378125 71.332813)scale(0.1 -0.1)">
      <use xlink:href="#DejaVuSans-69"/>
      <use x="63.183594" xlink:href="#DejaVuSans-120"/>
      <use x="122.363281" xlink:href="#DejaVuSans-97"/>
      <use x="183.642578" xlink:href="#DejaVuSans-99"/>
      <use x="238.623047" xlink:href="#DejaVuSans-116"/>
     </g>
    </g>
   </g>
  </g>
 </g>
 <defs>
  <clipPath id="p478a954875">
   <rect height="266.112" width="357.12" x="51.378125" y="10.7"/>
  </clipPath>
 </defs>
</svg>
