<?xml version="1.0" encoding="utf-8" standalone="no"?>
<!DOCTYPE svg PUBLIC "-//W3C//DTD SVG 1.1//EN"
  "http://www.w3.org/Graphics/SVG/1.1/DTD/svg11.dtd">
<!-- Created with matplotlib (https://matplotlib.org/) -->
<svg height="287.512pt" version="1.1" viewBox="0 0 287.512 287.512" width="287.512pt" xmlns="http://www.w3.org/2000/svg" xmlns:xlink="http://www.w3.org/1999/xlink">
 <defs>
  <style type="text/css">
*{stroke-linecap:butt;stroke-linejoin:round;}
  </style>
 </defs>
 <g id="figure_1">
  <g id="patch_1">
   <path d="M -0 287.512 
L 287.512 287.512 
L 287.512 0 
L -0 0 
z
" style="fill:#ffffff;"/>
  </g>
  <g id="axes_1">
   <g id="patch_2">
    <path d="M 10.7 276.812 
L 276.812 276.812 
L 276.812 10.7 
L 10.7 10.7 
z
" style="fill:#ffffff;"/>
   </g>
   <g id="patch_3">
    <path clip-path="url(#pd6327ef12d)" d="M 143.756 264.716 
C 175.834967 264.716 206.604381 251.970891 229.287636 229.287636 
C 251.970891 206.604381 264.716 175.834967 264.716 143.756 
C 264.716 111.677033 251.970891 80.907619 229.287636 58.224364 
C 206.604381 35.541109 175.834967 22.796 143.756 22.796 
C 111.677033 22.796 80.907619 35.541109 58.224364 58.224364 
C 35.541109 80.907619 22.796 111.677033 22.796 143.756 
C 22.796 175.834967 35.541109 206.604381 58.224364 229.287636 
C 80.907619 251.970891 111.677033 264.716 143.756 264.716 
z
" style="fill:none;stroke:#000000;stroke-dasharray:3.7,1.6;stroke-dashoffset:0;stroke-linejoin:miter;"/>
   </g>
   <g id="matplotlib.axis_1"/>
   <g id="matplotlib.axis_2"/>
   <g id="patch_4">
    <path d="M 10.7 276.812 
L 10.7 10.7 
" style="fill:none;stroke:#000000;stroke-linecap:square;stroke-linejoin:miter;stroke-width:0.8;"/>
   </g>
   <g id="patch_5">
    <path d="M 276.812 276.812 
L 276.812 10.7 
" style="fill:none;stroke:#000000;stroke-linecap:square;stroke-linejoin:miter;stroke-width:0.8;"/>
   </g>
   <g id="patch_6">
    <path d="M 10.7 276.812 
L 276.812 276.812 
" style="fill:none;stroke:#000000;stroke-linecap:square;stroke-linejoin:miter;stroke-width:0.8;"/>
   </g>
   <g id="patch_7">
    <path d="M 10.7 10.7 
L 276.812 10.7 
" style="fill:none;stroke:#000000;stroke-linecap:square;stroke-linejoin:miter;stroke-width:0.8;"/>
   </g>
  </g>
 </g>
 <defs>
  <clipPath id="pd6327ef12d">
   <rect height="266.112" width="266.112" x="10.7" y="10.7"/>
  </clipPath>
 </defs>
</svg>
