<?xml version="1.0" encoding="utf-8" standalone="no"?>
<!DOCTYPE svg PUBLIC "-//W3C//DTD SVG 1.1//EN"
  "http://www.w3.org/Graphics/SVG/1.1/DTD/svg11.dtd">
<!-- Created with matplotlib (https://matplotlib.org/) -->
<svg height="287.512pt" version="1.1" viewBox="0 0 287.512 287.512" width="287.512pt" xmlns="http://www.w3.org/2000/svg" xmlns:xlink="http://www.w3.org/1999/xlink">
 <defs>
  <style type="text/css">
*{stroke-linecap:butt;stroke-linejoin:round;}
  </style>
 </defs>
 <g id="figure_1">
  <g id="patch_1">
   <path d="M -0 287.512 
L 287.512 287.512 
L 287.512 0 
L -0 0 
z
" style="fill:#ffffff;"/>
  </g>
  <g id="axes_1">
   <g id="patch_2">
    <path d="M 10.7 276.812 
L 276.812 276.812 
L 276.812 10.7 
L 10.7 10.7 
z
" style="fill:#ffffff;"/>
   </g>
   <g id="matplotlib.axis_1"/>
   <g id="matplotlib.axis_2"/>
   <g id="line2d_1">
    <path clip-path="url(#p3dcabb31bc)" d="M 48.378966 181.361701 
L 71.099877 198.816013 
L 54.567869 203.455385 
L 47.133566 186.527326 
L 26.47717 195.844393 
L 48.904464 189.858702 
L 29.076321 203.640506 
L 24.893007 227.235205 
L 37.384237 228.107253 
L 28.2599 227.037874 
L 19.528874 241.070916 
L 45.847802 237.953676 
L 59.548613 261.529475 
L 79.427293 275.660419 
L 102.276307 265.745458 
L 94.717695 257.287451 
L 88.506215 268.322244 
L 98.16938 260.43943 
L 98.59969 266.119302 
L 105.333149 262.685372 
L 117.465636 264.509415 
" style="fill:none;stroke:#1f77b4;stroke-linecap:square;stroke-width:1.5;"/>
   </g>
   <g id="line2d_2">
    <path clip-path="url(#p3dcabb31bc)" d="M 165.741016 171.966364 
L 173.988189 190.074623 
L 169.459039 203.159462 
L 194.752949 203.741684 
L 211.281167 226.096458 
L 224.983383 201.058227 
L 245.964591 226.387817 
L 256.911026 251.756399 
L 269.255119 262.07094 
L 244.007549 265.644788 
L 226.750296 266.570105 
L 225.66898 276.760948 
L 252.265342 260.549812 
L 261.232357 255.039771 
L 266.536177 238.920118 
L 267.245809 249.577135 
L 256.047971 260.335258 
L 263.472302 260.228111 
L 268.093381 258.012634 
L 258.703383 236.227244 
L 271.507541 239.007587 
" style="fill:none;stroke:#ff7f0e;stroke-linecap:square;stroke-width:1.5;"/>
   </g>
   <g id="line2d_3">
    <path clip-path="url(#p3dcabb31bc)" d="M 18.965871 60.611586 
L 43.034685 47.113601 
L 21.207482 49.804493 
L 13.443071 66.136198 
L 24.290719 45.690615 
L 42.362277 27.737403 
L 65.466129 53.613369 
L 90.713216 59.401232 
L 113.792072 50.278232 
L 139.07951 60.472038 
L 157.424087 64.914757 
L 137.349888 77.942873 
L 162.930875 54.48996 
L 141.366549 69.67346 
L 125.201292 47.03001 
L 126.581764 27.289969 
L 116.890069 50.141132 
L 99.165854 49.202685 
L 109.017493 48.123943 
L 126.293644 72.084208 
L 133.020524 74.870301 
" style="fill:none;stroke:#2ca02c;stroke-linecap:square;stroke-width:1.5;"/>
   </g>
   <g id="line2d_4">
    <path clip-path="url(#p3dcabb31bc)" d="M 48.378966 181.361701 
L 71.099877 198.816013 
L 54.567869 203.455385 
L 47.133566 186.527326 
L 26.47717 195.844393 
L 48.904464 189.858702 
L 29.076321 203.640506 
L 24.893007 227.235205 
L 37.384237 228.107253 
L 28.2599 227.037874 
L 19.528874 241.070916 
L 45.847802 237.953676 
L 59.548613 261.529475 
L 79.427293 275.660419 
L 102.276307 265.745458 
L 94.717695 257.287451 
L 88.506215 268.322244 
L 98.16938 260.43943 
L 98.59969 266.119302 
L 105.333149 262.685372 
L 117.465636 264.509415 
" style="fill:none;stroke:#000000;stroke-dasharray:1.5,2.475;stroke-dashoffset:0;stroke-width:1.5;"/>
   </g>
   <g id="line2d_5">
    <path clip-path="url(#p3dcabb31bc)" d="M 165.741016 171.966364 
L 173.988189 190.074623 
L 169.459039 203.159462 
L 194.752949 203.741684 
L 211.281167 226.096458 
L 224.983383 201.058227 
L 245.964591 226.387817 
L 256.911026 251.756399 
L 269.255119 262.07094 
L 244.007549 265.644788 
L 226.750296 266.570105 
L 225.66898 276.760948 
L 252.265342 260.549812 
L 261.232357 255.039771 
L 266.536177 238.920118 
L 267.245809 249.577135 
L 256.047971 260.335258 
L 263.472302 260.228111 
L 268.093381 258.012634 
L 258.703383 236.227244 
L 271.507541 239.007587 
" style="fill:none;stroke:#000000;stroke-dasharray:1.5,2.475;stroke-dashoffset:0;stroke-width:1.5;"/>
   </g>
   <g id="line2d_6">
    <path clip-path="url(#p3dcabb31bc)" d="M 18.965871 60.611586 
L 43.034685 47.113601 
L 21.207482 49.804493 
L 13.443071 66.136198 
L 24.290719 45.690615 
L 42.362277 27.737403 
L 65.466129 53.613369 
L 90.713216 59.401232 
L 113.792072 50.278232 
L 139.07951 60.472038 
L 157.424087 64.914757 
L 137.349888 77.942873 
L 162.930875 54.48996 
L 141.366549 69.67346 
L 125.201292 47.03001 
L 126.581764 27.289969 
L 116.890069 50.141132 
L 99.165854 49.202685 
L 109.017493 48.123943 
L 126.293644 72.084208 
L 133.020524 74.870301 
" style="fill:none;stroke:#000000;stroke-dasharray:1.5,2.475;stroke-dashoffset:0;stroke-width:1.5;"/>
   </g>
   <g id="patch_3">
    <path d="M 10.7 276.812 
L 10.7 10.7 
" style="fill:none;stroke:#000000;stroke-linecap:square;stroke-linejoin:miter;stroke-width:0.8;"/>
   </g>
   <g id="patch_4">
    <path d="M 276.812 276.812 
L 276.812 10.7 
" style="fill:none;stroke:#000000;stroke-linecap:square;stroke-linejoin:miter;stroke-width:0.8;"/>
   </g>
   <g id="patch_5">
    <path d="M 10.7 276.812 
L 276.812 276.812 
" style="fill:none;stroke:#000000;stroke-linecap:square;stroke-linejoin:miter;stroke-width:0.8;"/>
   </g>
   <g id="patch_6">
    <path d="M 10.7 10.7 
L 276.812 10.7 
" style="fill:none;stroke:#000000;stroke-linecap:square;stroke-linejoin:miter;stroke-width:0.8;"/>
   </g>
  </g>
 </g>
 <defs>
  <clipPath id="p3dcabb31bc">
   <rect height="266.112" width="266.112" x="10.7" y="10.7"/>
  </clipPath>
 </defs>
</svg>
