<?xml version="1.0" encoding="utf-8" standalone="no"?>
<!DOCTYPE svg PUBLIC "-//W3C//DTD SVG 1.1//EN"
  "http://www.w3.org/Graphics/SVG/1.1/DTD/svg11.dtd">
<!-- Created with matplotlib (https://matplotlib.org/) -->
<svg height="287.512pt" version="1.1" viewBox="0 0 282.951912 287.512" width="282.951912pt" xmlns="http://www.w3.org/2000/svg" xmlns:xlink="http://www.w3.org/1999/xlink">
 <defs>
  <style type="text/css">
*{stroke-linecap:butt;stroke-linejoin:round;}
  </style>
 </defs>
 <g id="figure_1">
  <g id="patch_1">
   <path d="M 0 287.512 
L 282.951912 287.512 
L 282.951912 0 
L 0 0 
z
" style="fill:#ffffff;"/>
  </g>
  <g id="axes_1">
   <g id="patch_2">
    <path d="M 10.7 276.812 
L 272.251912 276.812 
L 272.251912 10.7 
L 10.7 10.7 
z
" style="fill:#ffffff;"/>
   </g>
   <g id="line2d_1">
    <path clip-path="url(#p41a6fc0673)" d="M 132.42889 219.599285 
L 127.29531 216.154301 
" style="fill:none;stroke:#808080;stroke-linecap:square;stroke-width:1.5;"/>
   </g>
   <g id="line2d_2">
    <path clip-path="url(#p41a6fc0673)" d="M 173.091922 157.568362 
L 183.685908 146.839341 
" style="fill:none;stroke:#808080;stroke-dasharray:1.5,2.475;stroke-dashoffset:0;stroke-width:1.5;"/>
   </g>
   <g id="line2d_3">
    <path clip-path="url(#p41a6fc0673)" d="M 186.235466 48.952969 
L 196.275197 33.291822 
" style="fill:none;stroke:#808080;stroke-linecap:square;stroke-width:1.5;"/>
   </g>
   <g id="line2d_4">
    <path clip-path="url(#p41a6fc0673)" d="M 241.020109 172.235853 
L 222.782231 149.218749 
" style="fill:none;stroke:#808080;stroke-linecap:square;stroke-width:1.5;"/>
   </g>
   <g id="line2d_5">
    <path clip-path="url(#p41a6fc0673)" d="M 221.141756 73.786454 
L 221.066645 90.3487 
" style="fill:none;stroke:#808080;stroke-dasharray:1.5,2.475;stroke-dashoffset:0;stroke-width:1.5;"/>
   </g>
   <g id="line2d_6">
    <path clip-path="url(#p41a6fc0673)" d="M 146.390794 228.637862 
L 151.812863 209.425551 
" style="fill:none;stroke:#808080;stroke-linecap:square;stroke-width:1.5;"/>
   </g>
   <g id="line2d_7">
    <path clip-path="url(#p41a6fc0673)" d="M 197.783483 256.572912 
L 220.278054 264.716 
" style="fill:none;stroke:#808080;stroke-linecap:square;stroke-width:1.5;"/>
   </g>
   <g id="line2d_8">
    <path clip-path="url(#p41a6fc0673)" d="M 69.695033 51.166588 
L 56.232805 41.022805 
" style="fill:none;stroke:#808080;stroke-linecap:square;stroke-width:1.5;"/>
   </g>
   <g id="line2d_9">
    <path clip-path="url(#p41a6fc0673)" d="M 223.422925 75.971419 
L 224.085965 91.609385 
" style="fill:none;stroke:#808080;stroke-dasharray:1.5,2.475;stroke-dashoffset:0;stroke-width:1.5;"/>
   </g>
   <g id="line2d_10">
    <path clip-path="url(#p41a6fc0673)" d="M 156.432124 158.591539 
L 159.322006 143.993985 
" style="fill:none;stroke:#808080;stroke-dasharray:1.5,2.475;stroke-dashoffset:0;stroke-width:1.5;"/>
   </g>
   <g id="line2d_11">
    <path clip-path="url(#p41a6fc0673)" d="M 222.781537 55.164676 
L 200.55682 42.225624 
" style="fill:none;stroke:#808080;stroke-linecap:square;stroke-width:1.5;"/>
   </g>
   <g id="line2d_12">
    <path clip-path="url(#p41a6fc0673)" d="M 254.397729 43.733684 
L 255.075753 45.056625 
" style="fill:none;stroke:#808080;stroke-linecap:square;stroke-width:1.5;"/>
   </g>
   <g id="line2d_13">
    <path clip-path="url(#p41a6fc0673)" d="M 76.85053 152.042195 
L 54.552699 150.031867 
" style="fill:none;stroke:#808080;stroke-linecap:square;stroke-width:1.5;"/>
   </g>
   <g id="line2d_14">
    <path clip-path="url(#p41a6fc0673)" d="M 237.144696 61.401231 
L 221.050505 43.149845 
" style="fill:none;stroke:#808080;stroke-linecap:square;stroke-width:1.5;"/>
   </g>
   <g id="line2d_15">
    <path clip-path="url(#p41a6fc0673)" d="M 162.91233 154.474641 
L 169.265092 149.476817 
" style="fill:none;stroke:#808080;stroke-dasharray:1.5,2.475;stroke-dashoffset:0;stroke-width:1.5;"/>
   </g>
   <g id="line2d_16">
    <path clip-path="url(#p41a6fc0673)" d="M 260.363189 211.794602 
L 237.251711 196.347693 
" style="fill:none;stroke:#808080;stroke-linecap:square;stroke-width:1.5;"/>
   </g>
   <g id="line2d_17">
    <path clip-path="url(#p41a6fc0673)" d="M 179.230898 45.114714 
L 174.516088 22.796 
" style="fill:none;stroke:#808080;stroke-linecap:square;stroke-width:1.5;"/>
   </g>
   <g id="line2d_18">
    <path clip-path="url(#p41a6fc0673)" d="M 43.134995 220.467711 
L 22.588723 231.107104 
" style="fill:none;stroke:#808080;stroke-linecap:square;stroke-width:1.5;"/>
   </g>
   <g id="line2d_19">
    <path clip-path="url(#p41a6fc0673)" d="M 207.649264 62.726924 
L 189.826149 55.450089 
" style="fill:none;stroke:#808080;stroke-linecap:square;stroke-width:1.5;"/>
   </g>
   <g id="line2d_20">
    <path clip-path="url(#p41a6fc0673)" d="M 173.093456 119.840963 
L 191.73634 141.87837 
" style="fill:none;stroke:#808080;stroke-linecap:square;stroke-width:1.5;"/>
   </g>
   <g id="matplotlib.axis_1"/>
   <g id="matplotlib.axis_2"/>
   <g id="line2d_21">
    <defs>
     <path d="M 0 3 
C 0.795609 3 1.55874 2.683901 2.12132 2.12132 
C 2.683901 1.55874 3 0.795609 3 0 
C 3 -0.795609 2.683901 -1.55874 2.12132 -2.12132 
C 1.55874 -2.683901 0.795609 -3 0 -3 
C -0.795609 -3 -1.55874 -2.683901 -2.12132 -2.12132 
C -2.683901 -1.55874 -3 -0.795609 -3 0 
C -3 0.795609 -2.683901 1.55874 -2.12132 2.12132 
C -1.55874 2.683901 -0.795609 3 0 3 
z
" id="m6161800bbd" style="stroke:#1f77b4;"/>
    </defs>
    <g clip-path="url(#p41a6fc0673)">
     <use style="fill:#1f77b4;stroke:#1f77b4;" x="132.42889" xlink:href="#m6161800bbd" y="219.599285"/>
     <use style="fill:#1f77b4;stroke:#1f77b4;" x="173.091922" xlink:href="#m6161800bbd" y="157.568362"/>
     <use style="fill:#1f77b4;stroke:#1f77b4;" x="186.235466" xlink:href="#m6161800bbd" y="48.952969"/>
     <use style="fill:#1f77b4;stroke:#1f77b4;" x="241.020109" xlink:href="#m6161800bbd" y="172.235853"/>
     <use style="fill:#1f77b4;stroke:#1f77b4;" x="221.141756" xlink:href="#m6161800bbd" y="73.786454"/>
     <use style="fill:#1f77b4;stroke:#1f77b4;" x="146.390794" xlink:href="#m6161800bbd" y="228.637862"/>
     <use style="fill:#1f77b4;stroke:#1f77b4;" x="197.783483" xlink:href="#m6161800bbd" y="256.572912"/>
     <use style="fill:#1f77b4;stroke:#1f77b4;" x="69.695033" xlink:href="#m6161800bbd" y="51.166588"/>
     <use style="fill:#1f77b4;stroke:#1f77b4;" x="223.422925" xlink:href="#m6161800bbd" y="75.971419"/>
     <use style="fill:#1f77b4;stroke:#1f77b4;" x="156.432124" xlink:href="#m6161800bbd" y="158.591539"/>
     <use style="fill:#1f77b4;stroke:#1f77b4;" x="222.781537" xlink:href="#m6161800bbd" y="55.164676"/>
     <use style="fill:#1f77b4;stroke:#1f77b4;" x="254.397729" xlink:href="#m6161800bbd" y="43.733684"/>
     <use style="fill:#1f77b4;stroke:#1f77b4;" x="76.85053" xlink:href="#m6161800bbd" y="152.042195"/>
     <use style="fill:#1f77b4;stroke:#1f77b4;" x="237.144696" xlink:href="#m6161800bbd" y="61.401231"/>
     <use style="fill:#1f77b4;stroke:#1f77b4;" x="162.91233" xlink:href="#m6161800bbd" y="154.474641"/>
     <use style="fill:#1f77b4;stroke:#1f77b4;" x="260.363189" xlink:href="#m6161800bbd" y="211.794602"/>
     <use style="fill:#1f77b4;stroke:#1f77b4;" x="179.230898" xlink:href="#m6161800bbd" y="45.114714"/>
     <use style="fill:#1f77b4;stroke:#1f77b4;" x="43.134995" xlink:href="#m6161800bbd" y="220.467711"/>
     <use style="fill:#1f77b4;stroke:#1f77b4;" x="207.649264" xlink:href="#m6161800bbd" y="62.726924"/>
     <use style="fill:#1f77b4;stroke:#1f77b4;" x="173.093456" xlink:href="#m6161800bbd" y="119.840963"/>
    </g>
   </g>
   <g id="line2d_22">
    <defs>
     <path d="M 0 3 
C 0.795609 3 1.55874 2.683901 2.12132 2.12132 
C 2.683901 1.55874 3 0.795609 3 0 
C 3 -0.795609 2.683901 -1.55874 2.12132 -2.12132 
C 1.55874 -2.683901 0.795609 -3 0 -3 
C -0.795609 -3 -1.55874 -2.683901 -2.12132 -2.12132 
C -2.683901 -1.55874 -3 -0.795609 -3 0 
C -3 0.795609 -2.683901 1.55874 -2.12132 2.12132 
C -1.55874 2.683901 -0.795609 3 0 3 
z
" id="md01aaf9c2a" style="stroke:#ff7f0e;"/>
    </defs>
    <g clip-path="url(#p41a6fc0673)">
     <use style="fill:#ff7f0e;stroke:#ff7f0e;" x="127.29531" xlink:href="#md01aaf9c2a" y="216.154301"/>
     <use style="fill:#ff7f0e;stroke:#ff7f0e;" x="159.322006" xlink:href="#md01aaf9c2a" y="143.993985"/>
     <use style="fill:#ff7f0e;stroke:#ff7f0e;" x="196.275197" xlink:href="#md01aaf9c2a" y="33.291822"/>
     <use style="fill:#ff7f0e;stroke:#ff7f0e;" x="222.782231" xlink:href="#md01aaf9c2a" y="149.218749"/>
     <use style="fill:#ff7f0e;stroke:#ff7f0e;" x="224.085965" xlink:href="#md01aaf9c2a" y="91.609385"/>
     <use style="fill:#ff7f0e;stroke:#ff7f0e;" x="151.812863" xlink:href="#md01aaf9c2a" y="209.425551"/>
     <use style="fill:#ff7f0e;stroke:#ff7f0e;" x="220.278054" xlink:href="#md01aaf9c2a" y="264.716"/>
     <use style="fill:#ff7f0e;stroke:#ff7f0e;" x="56.232805" xlink:href="#md01aaf9c2a" y="41.022805"/>
     <use style="fill:#ff7f0e;stroke:#ff7f0e;" x="221.066645" xlink:href="#md01aaf9c2a" y="90.3487"/>
     <use style="fill:#ff7f0e;stroke:#ff7f0e;" x="169.265092" xlink:href="#md01aaf9c2a" y="149.476817"/>
     <use style="fill:#ff7f0e;stroke:#ff7f0e;" x="200.55682" xlink:href="#md01aaf9c2a" y="42.225624"/>
     <use style="fill:#ff7f0e;stroke:#ff7f0e;" x="255.075753" xlink:href="#md01aaf9c2a" y="45.056625"/>
     <use style="fill:#ff7f0e;stroke:#ff7f0e;" x="54.552699" xlink:href="#md01aaf9c2a" y="150.031867"/>
     <use style="fill:#ff7f0e;stroke:#ff7f0e;" x="221.050505" xlink:href="#md01aaf9c2a" y="43.149845"/>
     <use style="fill:#ff7f0e;stroke:#ff7f0e;" x="183.685908" xlink:href="#md01aaf9c2a" y="146.839341"/>
     <use style="fill:#ff7f0e;stroke:#ff7f0e;" x="237.251711" xlink:href="#md01aaf9c2a" y="196.347693"/>
     <use style="fill:#ff7f0e;stroke:#ff7f0e;" x="174.516088" xlink:href="#md01aaf9c2a" y="22.796"/>
     <use style="fill:#ff7f0e;stroke:#ff7f0e;" x="22.588723" xlink:href="#md01aaf9c2a" y="231.107104"/>
     <use style="fill:#ff7f0e;stroke:#ff7f0e;" x="189.826149" xlink:href="#md01aaf9c2a" y="55.450089"/>
     <use style="fill:#ff7f0e;stroke:#ff7f0e;" x="191.73634" xlink:href="#md01aaf9c2a" y="141.87837"/>
    </g>
   </g>
   <g id="patch_3">
    <path d="M 10.7 276.812 
L 10.7 10.7 
" style="fill:none;stroke:#000000;stroke-linecap:square;stroke-linejoin:miter;stroke-width:0.8;"/>
   </g>
   <g id="patch_4">
    <path d="M 272.251912 276.812 
L 272.251912 10.7 
" style="fill:none;stroke:#000000;stroke-linecap:square;stroke-linejoin:miter;stroke-width:0.8;"/>
   </g>
   <g id="patch_5">
    <path d="M 10.7 276.812 
L 272.251912 276.812 
" style="fill:none;stroke:#000000;stroke-linecap:square;stroke-linejoin:miter;stroke-width:0.8;"/>
   </g>
   <g id="patch_6">
    <path d="M 10.7 10.7 
L 272.251912 10.7 
" style="fill:none;stroke:#000000;stroke-linecap:square;stroke-linejoin:miter;stroke-width:0.8;"/>
   </g>
  </g>
 </g>
 <defs>
  <clipPath id="p41a6fc0673">
   <rect height="266.112" width="261.551912" x="10.7" y="10.7"/>
  </clipPath>
 </defs>
</svg>
