<?xml version="1.0" encoding="utf-8" standalone="no"?>
<!DOCTYPE svg PUBLIC "-//W3C//DTD SVG 1.1//EN"
  "http://www.w3.org/Graphics/SVG/1.1/DTD/svg11.dtd">
<!-- Created with matplotlib (https://matplotlib.org/) -->
<svg height="287.512pt" version="1.1" viewBox="0 0 287.512 287.512" width="287.512pt" xmlns="http://www.w3.org/2000/svg" xmlns:xlink="http://www.w3.org/1999/xlink">
 <defs>
  <style type="text/css">
*{stroke-linecap:butt;stroke-linejoin:round;}
  </style>
 </defs>
 <g id="figure_1">
  <g id="patch_1">
   <path d="M -0 287.512 
L 287.512 287.512 
L 287.512 0 
L -0 0 
z
" style="fill:#ffffff;"/>
  </g>
  <g id="axes_1">
   <g id="patch_2">
    <path d="M 10.7 276.812 
L 276.812 276.812 
L 276.812 10.7 
L 10.7 10.7 
z
" style="fill:#ffffff;"/>
   </g>
   <g id="matplotlib.axis_1"/>
   <g id="matplotlib.axis_2"/>
   <g id="line2d_1">
    <path clip-path="url(#pe9d85984b8)" d="M 18.537708 74.818064 
L 15.541183 93.521996 
L 18.715554 82.00894 
L 27.659871 96.358272 
L 35.680853 79.824593 
L 22.391656 98.767557 
L 15.908389 89.040117 
L 14.787271 71.705455 
L 20.749967 61.06923 
L 45.722397 41.757764 
L 43.73484 21.09738 
L 27.016215 27.139345 
L 44.288247 29.723015 
L 66.273156 11.116577 
L 57.96016 31.655943 
L 41.643518 42.623194 
L 39.579781 43.768206 
L 33.572292 46.797347 
L 55.462108 32.087401 
L 69.785656 51.819508 
L 50.98753 61.078967 
L 43.827591 41.857251 
L 33.866358 59.75128 
L 55.517549 73.98781 
L 62.254661 75.95686 
L 55.201679 82.74367 
L 78.27564 84.279807 
L 98.541409 57.831239 
L 107.941331 56.422845 
L 89.631553 81.198237 
L 84.540415 80.916702 
L 98.371369 79.684667 
L 80.309873 73.807023 
L 102.31566 92.445719 
L 107.209029 71.862932 
L 121.982445 49.570893 
L 135.292606 46.950347 
L 114.621497 35.995983 
L 103.20903 56.973945 
L 83.919138 42.789502 
L 97.144195 68.951629 
L 72.721798 80.635007 
L 98.340578 62.861226 
L 104.906637 60.050707 
L 116.434048 84.832159 
L 108.877613 79.800819 
L 102.859018 59.539531 
L 119.170515 36.454062 
L 125.34633 14.490857 
L 147.663968 32.18691 
L 170.736185 34.487403 
L 157.606947 38.185172 
L 137.711418 55.733274 
L 163.351159 44.01385 
L 164.634381 39.899052 
L 183.30845 26.389021 
L 175.854764 46.664694 
L 151.450509 43.241453 
L 148.169118 22.464953 
L 127.851002 14.320573 
L 113.627937 40.673217 
" style="fill:none;stroke:#1f77b4;stroke-linecap:square;stroke-width:1.5;"/>
   </g>
   <g id="line2d_2">
    <path clip-path="url(#pe9d85984b8)" d="M 276.375053 189.888353 
L 264.975725 200.8122 
L 269.494183 187.67267 
L 249.79733 179.198903 
L 259.822663 156.721541 
L 238.898668 170.138934 
L 252.744007 175.36299 
L 249.201096 187.273101 
L 240.854862 200.031663 
L 216.088053 183.91094 
L 192.072272 197.987286 
L 186.876792 175.181361 
L 190.719533 183.122097 
L 173.17038 197.299213 
L 195.281945 189.783038 
L 182.759274 173.492815 
L 183.739867 157.994571 
L 207.375264 155.336239 
L 218.099764 162.987001 
L 238.672194 142.665513 
L 236.426761 153.093492 
L 246.675637 130.15337 
L 259.775789 128.781224 
L 264.274416 143.135428 
L 241.143737 167.745285 
L 264.228354 157.007037 
L 265.663288 140.884528 
L 244.095756 157.423328 
L 267.802823 150.442885 
L 273.436709 158.737159 
L 273.62367 161.467416 
L 257.373495 158.502071 
L 244.592309 150.723216 
L 246.050434 146.844512 
L 257.335988 125.64256 
L 262.781811 115.643404 
L 238.247005 102.499819 
L 225.844313 106.232656 
L 205.438446 118.240937 
L 185.58225 100.710656 
L 208.277446 114.260209 
L 226.891865 120.735501 
L 249.754809 94.14675 
L 228.858712 72.218379 
L 234.996195 50.116854 
L 208.467582 71.346971 
L 194.983431 45.679438 
L 192.080332 55.408767 
L 175.157324 47.053606 
L 172.566146 59.0576 
L 194.658274 66.650813 
L 209.212369 62.531821 
L 195.970522 61.154975 
L 210.582411 37.292061 
L 226.821643 29.893492 
L 201.401201 30.920961 
L 220.142873 27.594589 
L 230.142033 21.328519 
L 255.494861 28.174812 
L 255.047181 51.780391 
L 269.603173 50.882906 
" style="fill:none;stroke:#ff7f0e;stroke-linecap:square;stroke-width:1.5;"/>
   </g>
   <g id="line2d_3">
    <path clip-path="url(#pe9d85984b8)" d="M 230.142033 21.328519 
L 255.494861 28.174812 
L 255.047181 51.780391 
L 269.603173 50.882906 
" style="fill:none;stroke:#000000;stroke-dasharray:1.5,2.475;stroke-dashoffset:0;stroke-width:1.5;"/>
   </g>
   <g id="line2d_4">
    <defs>
     <path d="M 0 1.5 
C 0.397805 1.5 0.77937 1.341951 1.06066 1.06066 
C 1.341951 0.77937 1.5 0.397805 1.5 0 
C 1.5 -0.397805 1.341951 -0.77937 1.06066 -1.06066 
C 0.77937 -1.341951 0.397805 -1.5 0 -1.5 
C -0.397805 -1.5 -0.77937 -1.341951 -1.06066 -1.06066 
C -1.341951 -0.77937 -1.5 -0.397805 -1.5 0 
C -1.5 0.397805 -1.341951 0.77937 -1.06066 1.06066 
C -0.77937 1.341951 -0.397805 1.5 0 1.5 
z
" id="mbffe030640" style="stroke:#000000;"/>
    </defs>
    <g clip-path="url(#pe9d85984b8)">
     <use style="stroke:#000000;" x="230.142033" xlink:href="#mbffe030640" y="21.328519"/>
     <use style="stroke:#000000;" x="269.603173" xlink:href="#mbffe030640" y="50.882906"/>
    </g>
   </g>
   <g id="line2d_5">
    <path clip-path="url(#pe9d85984b8)" d="M 113.627937 40.673217 
" style="fill:none;stroke:#000000;stroke-dasharray:1.5,2.475;stroke-dashoffset:0;stroke-width:1.5;"/>
   </g>
   <g id="line2d_6">
    <g clip-path="url(#pe9d85984b8)">
     <use style="stroke:#000000;" x="113.627937" xlink:href="#mbffe030640" y="40.673217"/>
     <use style="stroke:#000000;" x="113.627937" xlink:href="#mbffe030640" y="40.673217"/>
    </g>
   </g>
   <g id="line2d_7">
    <path clip-path="url(#pe9d85984b8)" d="M 18.537708 74.818064 
L 15.541183 93.521996 
L 18.715554 82.00894 
" style="fill:none;stroke:#000000;stroke-dasharray:1.5,2.475;stroke-dashoffset:0;stroke-width:1.5;"/>
   </g>
   <g id="line2d_8">
    <g clip-path="url(#pe9d85984b8)">
     <use style="stroke:#000000;" x="18.537708" xlink:href="#mbffe030640" y="74.818064"/>
     <use style="stroke:#000000;" x="18.715554" xlink:href="#mbffe030640" y="82.00894"/>
    </g>
   </g>
   <g id="line2d_9">
    <path clip-path="url(#pe9d85984b8)" d="M 276.375053 189.888353 
L 264.975725 200.8122 
L 269.494183 187.67267 
L 249.79733 179.198903 
L 259.822663 156.721541 
L 238.898668 170.138934 
L 252.744007 175.36299 
L 249.201096 187.273101 
L 240.854862 200.031663 
" style="fill:none;stroke:#000000;stroke-dasharray:1.5,2.475;stroke-dashoffset:0;stroke-width:1.5;"/>
   </g>
   <g id="line2d_10">
    <g clip-path="url(#pe9d85984b8)">
     <use style="stroke:#000000;" x="276.375053" xlink:href="#mbffe030640" y="189.888353"/>
     <use style="stroke:#000000;" x="240.854862" xlink:href="#mbffe030640" y="200.031663"/>
    </g>
   </g>
   <g id="line2d_11">
    <path clip-path="url(#pe9d85984b8)" d="M 35.680853 79.824593 
L 22.391656 98.767557 
L 15.908389 89.040117 
L 14.787271 71.705455 
L 20.749967 61.06923 
L 45.722397 41.757764 
L 43.73484 21.09738 
L 27.016215 27.139345 
L 44.288247 29.723015 
L 66.273156 11.116577 
L 57.96016 31.655943 
L 41.643518 42.623194 
L 39.579781 43.768206 
L 33.572292 46.797347 
L 55.462108 32.087401 
" style="fill:none;stroke:#000000;stroke-dasharray:1.5,2.475;stroke-dashoffset:0;stroke-width:1.5;"/>
   </g>
   <g id="line2d_12">
    <g clip-path="url(#pe9d85984b8)">
     <use style="stroke:#000000;" x="35.680853" xlink:href="#mbffe030640" y="79.824593"/>
     <use style="stroke:#000000;" x="55.462108" xlink:href="#mbffe030640" y="32.087401"/>
    </g>
   </g>
   <g id="line2d_13">
    <path clip-path="url(#pe9d85984b8)" d="M 192.072272 197.987286 
L 186.876792 175.181361 
L 190.719533 183.122097 
L 173.17038 197.299213 
L 195.281945 189.783038 
L 182.759274 173.492815 
L 183.739867 157.994571 
L 207.375264 155.336239 
L 218.099764 162.987001 
L 238.672194 142.665513 
" style="fill:none;stroke:#000000;stroke-dasharray:1.5,2.475;stroke-dashoffset:0;stroke-width:1.5;"/>
   </g>
   <g id="line2d_14">
    <g clip-path="url(#pe9d85984b8)">
     <use style="stroke:#000000;" x="192.072272" xlink:href="#mbffe030640" y="197.987286"/>
     <use style="stroke:#000000;" x="238.672194" xlink:href="#mbffe030640" y="142.665513"/>
    </g>
   </g>
   <g id="line2d_15">
    <path clip-path="url(#pe9d85984b8)" d="M 50.98753 61.078967 
L 43.827591 41.857251 
L 33.866358 59.75128 
L 55.517549 73.98781 
L 62.254661 75.95686 
L 55.201679 82.74367 
L 78.27564 84.279807 
L 98.541409 57.831239 
L 107.941331 56.422845 
L 89.631553 81.198237 
" style="fill:none;stroke:#000000;stroke-dasharray:1.5,2.475;stroke-dashoffset:0;stroke-width:1.5;"/>
   </g>
   <g id="line2d_16">
    <g clip-path="url(#pe9d85984b8)">
     <use style="stroke:#000000;" x="50.98753" xlink:href="#mbffe030640" y="61.078967"/>
     <use style="stroke:#000000;" x="89.631553" xlink:href="#mbffe030640" y="81.198237"/>
    </g>
   </g>
   <g id="line2d_17">
    <path clip-path="url(#pe9d85984b8)" d="M 98.371369 79.684667 
L 80.309873 73.807023 
L 102.31566 92.445719 
L 107.209029 71.862932 
L 121.982445 49.570893 
L 135.292606 46.950347 
L 114.621497 35.995983 
L 103.20903 56.973945 
L 83.919138 42.789502 
L 97.144195 68.951629 
L 72.721798 80.635007 
" style="fill:none;stroke:#000000;stroke-dasharray:1.5,2.475;stroke-dashoffset:0;stroke-width:1.5;"/>
   </g>
   <g id="line2d_18">
    <g clip-path="url(#pe9d85984b8)">
     <use style="stroke:#000000;" x="98.371369" xlink:href="#mbffe030640" y="79.684667"/>
     <use style="stroke:#000000;" x="72.721798" xlink:href="#mbffe030640" y="80.635007"/>
    </g>
   </g>
   <g id="line2d_19">
    <path clip-path="url(#pe9d85984b8)" d="M 104.906637 60.050707 
" style="fill:none;stroke:#000000;stroke-dasharray:1.5,2.475;stroke-dashoffset:0;stroke-width:1.5;"/>
   </g>
   <g id="line2d_20">
    <g clip-path="url(#pe9d85984b8)">
     <use style="stroke:#000000;" x="104.906637" xlink:href="#mbffe030640" y="60.050707"/>
     <use style="stroke:#000000;" x="104.906637" xlink:href="#mbffe030640" y="60.050707"/>
    </g>
   </g>
   <g id="line2d_21">
    <path clip-path="url(#pe9d85984b8)" d="M 108.877613 79.800819 
L 102.859018 59.539531 
L 119.170515 36.454062 
L 125.34633 14.490857 
L 147.663968 32.18691 
L 170.736185 34.487403 
L 157.606947 38.185172 
" style="fill:none;stroke:#000000;stroke-dasharray:1.5,2.475;stroke-dashoffset:0;stroke-width:1.5;"/>
   </g>
   <g id="line2d_22">
    <g clip-path="url(#pe9d85984b8)">
     <use style="stroke:#000000;" x="108.877613" xlink:href="#mbffe030640" y="79.800819"/>
     <use style="stroke:#000000;" x="157.606947" xlink:href="#mbffe030640" y="38.185172"/>
    </g>
   </g>
   <g id="line2d_23">
    <path clip-path="url(#pe9d85984b8)" d="M 246.675637 130.15337 
L 259.775789 128.781224 
L 264.274416 143.135428 
L 241.143737 167.745285 
L 264.228354 157.007037 
L 265.663288 140.884528 
L 244.095756 157.423328 
L 267.802823 150.442885 
L 273.436709 158.737159 
L 273.62367 161.467416 
L 257.373495 158.502071 
L 244.592309 150.723216 
L 246.050434 146.844512 
L 257.335988 125.64256 
L 262.781811 115.643404 
L 238.247005 102.499819 
L 225.844313 106.232656 
L 205.438446 118.240937 
L 185.58225 100.710656 
L 208.277446 114.260209 
L 226.891865 120.735501 
L 249.754809 94.14675 
L 228.858712 72.218379 
L 234.996195 50.116854 
L 208.467582 71.346971 
L 194.983431 45.679438 
L 192.080332 55.408767 
L 175.157324 47.053606 
L 172.566146 59.0576 
L 194.658274 66.650813 
L 209.212369 62.531821 
L 195.970522 61.154975 
L 210.582411 37.292061 
L 226.821643 29.893492 
L 201.401201 30.920961 
" style="fill:none;stroke:#000000;stroke-dasharray:1.5,2.475;stroke-dashoffset:0;stroke-width:1.5;"/>
   </g>
   <g id="line2d_24">
    <g clip-path="url(#pe9d85984b8)">
     <use style="stroke:#000000;" x="246.675637" xlink:href="#mbffe030640" y="130.15337"/>
     <use style="stroke:#000000;" x="201.401201" xlink:href="#mbffe030640" y="30.920961"/>
    </g>
   </g>
   <g id="line2d_25">
    <path clip-path="url(#pe9d85984b8)" d="M 163.351159 44.01385 
L 164.634381 39.899052 
L 183.30845 26.389021 
L 175.854764 46.664694 
L 151.450509 43.241453 
L 148.169118 22.464953 
" style="fill:none;stroke:#000000;stroke-dasharray:1.5,2.475;stroke-dashoffset:0;stroke-width:1.5;"/>
   </g>
   <g id="line2d_26">
    <g clip-path="url(#pe9d85984b8)">
     <use style="stroke:#000000;" x="163.351159" xlink:href="#mbffe030640" y="44.01385"/>
     <use style="stroke:#000000;" x="148.169118" xlink:href="#mbffe030640" y="22.464953"/>
    </g>
   </g>
   <g id="patch_3">
    <path d="M 10.7 276.812 
L 10.7 10.7 
" style="fill:none;stroke:#000000;stroke-linecap:square;stroke-linejoin:miter;stroke-width:0.8;"/>
   </g>
   <g id="patch_4">
    <path d="M 276.812 276.812 
L 276.812 10.7 
" style="fill:none;stroke:#000000;stroke-linecap:square;stroke-linejoin:miter;stroke-width:0.8;"/>
   </g>
   <g id="patch_5">
    <path d="M 10.7 276.812 
L 276.812 276.812 
" style="fill:none;stroke:#000000;stroke-linecap:square;stroke-linejoin:miter;stroke-width:0.8;"/>
   </g>
   <g id="patch_6">
    <path d="M 10.7 10.7 
L 276.812 10.7 
" style="fill:none;stroke:#000000;stroke-linecap:square;stroke-linejoin:miter;stroke-width:0.8;"/>
   </g>
  </g>
 </g>
 <defs>
  <clipPath id="pe9d85984b8">
   <rect height="266.112" width="266.112" x="10.7" y="10.7"/>
  </clipPath>
 </defs>
</svg>
