<?xml version="1.0" encoding="utf-8" standalone="no"?>
<!DOCTYPE svg PUBLIC "-//W3C//DTD SVG 1.1//EN"
  "http://www.w3.org/Graphics/SVG/1.1/DTD/svg11.dtd">
<!-- Created with matplotlib (https://matplotlib.org/) -->
<svg height="287.512pt" version="1.1" viewBox="0 0 284.044921 287.512" width="284.044921pt" xmlns="http://www.w3.org/2000/svg" xmlns:xlink="http://www.w3.org/1999/xlink">
 <defs>
  <style type="text/css">
*{stroke-linecap:butt;stroke-linejoin:round;}
  </style>
 </defs>
 <g id="figure_1">
  <g id="patch_1">
   <path d="M 0 287.512 
L 284.044921 287.512 
L 284.044921 0 
L 0 0 
z
" style="fill:#ffffff;"/>
  </g>
  <g id="axes_1">
   <g id="patch_2">
    <path d="M 10.7 276.812 
L 273.344921 276.812 
L 273.344921 10.7 
L 10.7 10.7 
z
" style="fill:#ffffff;"/>
   </g>
   <g id="patch_3">
    <path clip-path="url(#p34ab420976)" d="M 240.376654 143.756 
L 197.250924 54.204498 
L 100.348287 32.087103 
L 22.638406 94.058666 
L 22.638406 193.453334 
L 100.348287 255.424897 
L 197.250924 233.307502 
L 240.376654 143.756 
z
" style="fill:none;stroke:#000000;stroke-dasharray:3.7,1.6;stroke-dashoffset:0;stroke-linejoin:miter;"/>
   </g>
   <g id="matplotlib.axis_1"/>
   <g id="matplotlib.axis_2"/>
   <g id="line2d_1">
    <path clip-path="url(#p34ab420976)" d="M 261.406516 136.651049 
L 255.841458 130.091874 
L 246.795984 124.597818 
L 234.60445 120.636549 
L 219.715263 118.601123 
L 202.672201 118.7904 
L 184.091824 121.393678 
L 164.637929 126.480261 
L 144.994166 133.994419 
L 125.835984 143.756 
L 107.803115 155.466682 
L 91.473783 168.7216 
L 77.341725 183.025877 
L 65.797031 197.815316 
L 57.111581 212.480402 
L 51.429718 226.392529 
L 48.764512 238.931342 
L 48.999766 249.511981 
L 51.89765 257.611049 
L 57.111581 262.790156 
L 64.203785 264.716 
L 72.666727 263.176107 
L 81.947456 258.089524 
L 91.473783 249.511981 
L 100.681107 237.635279 
L 109.038719 222.780917 
L 116.074402 205.388198 
L 121.39624 185.997339 
L 124.71067 165.228263 
L 125.835984 143.756 
L 124.71067 122.283737 
L 121.39624 101.514661 
L 116.074402 82.123802 
L 109.038719 64.731083 
L 100.681107 49.876721 
L 91.473783 38.000019 
L 81.947456 29.422476 
L 72.666727 24.335893 
L 64.203785 22.796 
L 57.111581 24.721844 
L 51.89765 29.900951 
L 48.999766 38.000019 
L 48.764512 48.580658 
L 51.429718 61.119471 
L 57.111581 75.031598 
L 65.797031 89.696684 
L 77.341725 104.486123 
L 91.473783 118.7904 
L 107.803115 132.045318 
L 125.835984 143.756 
L 144.994166 153.517581 
L 164.637929 161.031739 
L 184.091824 166.118322 
L 202.672201 168.7216 
L 219.715263 168.910877 
L 234.60445 166.875451 
L 246.795984 162.914182 
L 255.841458 157.420126 
L 261.406516 150.860951 
" style="fill:none;stroke:#808080;stroke-linecap:square;stroke-width:1.5;"/>
   </g>
   <g id="patch_4">
    <path d="M 10.7 276.812 
L 10.7 10.7 
" style="fill:none;stroke:#000000;stroke-linecap:square;stroke-linejoin:miter;stroke-width:0.8;"/>
   </g>
   <g id="patch_5">
    <path d="M 273.344921 276.812 
L 273.344921 10.7 
" style="fill:none;stroke:#000000;stroke-linecap:square;stroke-linejoin:miter;stroke-width:0.8;"/>
   </g>
   <g id="patch_6">
    <path d="M 10.7 276.812 
L 273.344921 276.812 
" style="fill:none;stroke:#000000;stroke-linecap:square;stroke-linejoin:miter;stroke-width:0.8;"/>
   </g>
   <g id="patch_7">
    <path d="M 10.7 10.7 
L 273.344921 10.7 
" style="fill:none;stroke:#000000;stroke-linecap:square;stroke-linejoin:miter;stroke-width:0.8;"/>
   </g>
  </g>
 </g>
 <defs>
  <clipPath id="p34ab420976">
   <rect height="266.112" width="262.644921" x="10.7" y="10.7"/>
  </clipPath>
 </defs>
</svg>
